<svg data-name="Group 67" xmlns="http://www.w3.org/2000/svg" width="100.004" height="100.004"><defs><clipPath id="a"><circle data-name="Ellipse 17" cx="50.002" cy="50.002" fill="none" r="50.002"/></clipPath></defs><g data-name="Group 66" clip-path="url(#a)"><path data-name="Path 666" d="M72.556 100.08a4.609 4.609 0 004.539-5.5 28.569 28.569 0 00-56.068 0 4.627 4.627 0 004.539 5.5z" fill="#8eafe2"/><path data-name="Path 667" d="M43.192 72.115a28.592 28.592 0 00-22.166 22.467 4.629 4.629 0 004.54 5.5h21.722c-8.511-5.656-8.263-21.934-4.1-27.963" fill="#6a96d7"/><path data-name="Path 668" d="M58.725 100.081c0-6.277-4.327-11.384-9.664-11.384s-9.664 5.089-9.664 11.384z" fill="#ebb65e"/><path data-name="Path 669" d="M41.808 92.544a12.554 12.554 0 00-2.429 7.536h7.909a14.815 14.815 0 01-5.479-7.536" fill="#c8a263"/><path data-name="Path 670" d="M22.338 45.655a9.391 9.391 0 10-7.856 10.71 9.384 9.384 0 007.856-10.71" fill="#ffd4be"/><path data-name="Path 671" d="M86.812 37.854a9.386 9.386 0 107.465 10.98 9.382 9.382 0 00-7.465-10.98" fill="#ffbf9e"/><path data-name="Path 672" d="M86.634 47.079c0 20.747-19.842 34.33-37.575 34.33s-37.573-13.566-37.573-34.33c0-20.747 16.83-33.532 37.573-33.532s37.575 12.785 37.575 33.532" fill="#ffd4be"/><path data-name="Path 673" d="M49.062 81.407a39.508 39.508 0 0015.232-3.192c-40.873-1.879-44.4-41.139-31.847-61.62-12.413 4.952-20.942 15.694-20.942 30.482-.018 20.764 19.824 34.33 37.557 34.33" fill="#ffbf9e"/><path data-name="Path 674" d="M69.826 26.881c2.306 10.089 7.961 15.516 14.363 18.513a2.316 2.316 0 003.317-1.881C89.03 25.321 72.557 9.29 49.062 9.29S9.094 25.321 10.601 43.513a2.323 2.323 0 003.315 1.881c6.4-3 12.059-8.424 14.363-18.513z" fill="#7c6354"/><path data-name="Path 675" d="M68.726 13.581l-13.3 13.3h14.382a27.853 27.853 0 005.763 12.058 48.806 48.806 0 0011.15-4.593c-2.233-8.76-8.724-16.3-18-20.765" fill="#60463b"/><path data-name="Path 676" d="M49.062 9.291c19.239 0 29.488 6.543 40.429 15.019a2.825 2.825 0 01-.017 4.47c-19.364 14.806-53.321 9.948-61.177-1.9z" fill="#7c6354"/><path data-name="Path 677" d="M59.913 31.12a48.134 48.134 0 01-12.271-1.578 33.308 33.308 0 01-9.593-3.952 1.326 1.326 0 011.507-2.182c2.482 1.739 12.589 6.331 25.854 4.717a1.319 1.319 0 011.471 1.153 1.336 1.336 0 01-1.151 1.49 45.347 45.347 0 01-5.817.354" fill="#60463b"/><path data-name="Path 678" d="M62.874 24.115a23.239 23.239 0 01-5.249-.514 1.333 1.333 0 01.639-2.589 25.7 25.7 0 0011.916-.6 1.329 1.329 0 01.851 2.518 25.841 25.841 0 01-8.157 1.188" fill="#60463b"/><path data-name="Path 679" d="M35.246 54.969c0-3.546-3.617-6.436-8.086-6.436s-8.068 2.872-8.068 6.436c0 3.546 3.618 6.436 8.086 6.436s8.068-2.89 8.068-6.436" fill="#eda1ab"/><path data-name="Path 680" d="M79.029 54.969c0-3.546-3.617-6.436-8.086-6.436s-8.085 2.872-8.085 6.436c0 3.546 3.617 6.436 8.085 6.436s8.086-2.89 8.086-6.436" fill="#eda1ab"/><path data-name="Path 681" d="M31.879 49.88a1.341 1.341 0 01-1.331-1.331v-2.854a1.331 1.331 0 012.661 0v2.854a1.341 1.341 0 01-1.331 1.331" fill="#60463b"/><path data-name="Path 682" d="M66.244 49.88a1.341 1.341 0 01-1.331-1.331v-2.854a1.331 1.331 0 012.661 0v2.854a1.341 1.341 0 01-1.331 1.331" fill="#60463b"/><path data-name="Path 683" d="M49.062 52.056a7.35 7.35 0 01-5.532-2.518 1.332 1.332 0 012-1.756 4.666 4.666 0 007.059 0 1.332 1.332 0 012 1.756 7.379 7.379 0 01-5.527 2.518" fill="#60463b"/></g></svg>