<svg id="Group_67" data-name="Group 67" xmlns="http://www.w3.org/2000/svg" xmlns:xlink="http://www.w3.org/1999/xlink" width="100.004" height="100.004" viewBox="0 0 100.004 100.004">
  <defs>
    <clipPath id="clip-path">
      <ellipse id="Ellipse_17" data-name="Ellipse 17" cx="50.002" cy="50.002" rx="50.002" ry="50.002" fill="none"/>
    </clipPath>
  </defs>
  <g id="Group_66" data-name="Group 66" clip-path="url(#clip-path)">
    <path id="Path_666" data-name="Path 666" d="M66.692,80.054a4.609,4.609,0,0,0,4.539-5.5,28.569,28.569,0,0,0-56.068,0,4.627,4.627,0,0,0,4.539,5.5Z" transform="translate(5.864 20.026)" fill="#8eafe2"/>
    <path id="Path_667" data-name="Path 667" d="M37.328,51.921A28.592,28.592,0,0,0,15.162,74.388a4.629,4.629,0,0,0,4.54,5.5H41.424c-8.511-5.656-8.263-21.934-4.1-27.963" transform="translate(5.864 20.194)" fill="#6a96d7"/>
    <path id="Path_668" data-name="Path 668" d="M47.693,75.243c0-6.277-4.327-11.384-9.664-11.384s-9.664,5.089-9.664,11.384Z" transform="translate(11.032 24.838)" fill="#ebb65e"/>
    <path id="Path_669" data-name="Path 669" d="M30.781,66.629a12.554,12.554,0,0,0-2.429,7.536h7.909a14.815,14.815,0,0,1-5.479-7.536" transform="translate(11.027 25.915)" fill="#c8a263"/>
    <path id="Path_670" data-name="Path 670" d="M21.312,35.1a9.391,9.391,0,1,0-7.856,10.71A9.384,9.384,0,0,0,21.312,35.1" transform="translate(1.026 10.555)" fill="#ffd4be"/>
    <path id="Path_671" data-name="Path 671" d="M65.624,27.3A9.386,9.386,0,1,0,73.089,38.28,9.382,9.382,0,0,0,65.624,27.3" transform="translate(21.188 10.554)" fill="#ffbf9e"/>
    <path id="Path_672" data-name="Path 672" d="M83.418,43.285c0,20.747-19.842,34.33-37.575,34.33S8.27,64.049,8.27,43.285C8.27,22.538,25.1,9.753,45.843,9.753S83.418,22.538,83.418,43.285" transform="translate(3.216 3.794)" fill="#ffd4be"/>
    <path id="Path_673" data-name="Path 673" d="M45.84,76.76a39.508,39.508,0,0,0,15.232-3.192c-40.873-1.879-44.4-41.139-31.847-61.62C16.812,16.9,8.283,27.642,8.283,42.43,8.265,63.194,28.107,76.76,45.84,76.76" transform="translate(3.222 4.647)" fill="#ffbf9e"/>
    <path id="Path_674" data-name="Path 674" d="M66.884,24.279c2.306,10.089,7.961,15.516,14.363,18.513a2.316,2.316,0,0,0,3.317-1.881C86.088,22.719,69.615,6.688,46.12,6.688S6.152,22.719,7.659,40.911a2.323,2.323,0,0,0,3.315,1.881c6.4-3,12.059-8.424,14.363-18.513Z" transform="translate(2.942 2.602)" fill="#7c6354"/>
    <path id="Path_675" data-name="Path 675" d="M53.205,9.778l-13.3,13.3H54.287A27.853,27.853,0,0,0,60.05,35.136,48.806,48.806,0,0,0,71.2,30.543c-2.233-8.76-8.724-16.3-18-20.765" transform="translate(15.521 3.803)" fill="#60463b"/>
    <path id="Path_676" data-name="Path 676" d="M41.138,6.689c19.239,0,29.488,6.543,40.429,15.019a2.825,2.825,0,0,1-.017,4.47c-19.364,14.806-53.321,9.948-61.177-1.9Z" transform="translate(7.924 2.602)" fill="#7c6354"/>
    <path id="Path_677" data-name="Path 677" d="M49.418,24.63a48.134,48.134,0,0,1-12.271-1.578A33.308,33.308,0,0,1,27.554,19.1a1.326,1.326,0,0,1,1.507-2.182c2.482,1.739,12.589,6.331,25.854,4.717a1.319,1.319,0,0,1,1.471,1.153,1.336,1.336,0,0,1-1.151,1.49,45.347,45.347,0,0,1-5.817.354" transform="translate(10.495 6.49)" fill="#60463b"/>
    <path id="Path_678" data-name="Path 678" d="M47.022,18.419a23.239,23.239,0,0,1-5.249-.514,1.333,1.333,0,0,1,.639-2.589,25.7,25.7,0,0,0,11.916-.6,1.329,1.329,0,0,1,.851,2.518,25.841,25.841,0,0,1-8.157,1.188" transform="translate(15.852 5.696)" fill="#60463b"/>
    <path id="Path_679" data-name="Path 679" d="M29.9,41.378c0-3.546-3.617-6.436-8.086-6.436s-8.068,2.872-8.068,6.436c0,3.546,3.618,6.436,8.086,6.436s8.068-2.89,8.068-6.436" transform="translate(5.346 13.591)" fill="#eda1ab"/>
    <path id="Path_680" data-name="Path 680" d="M61.427,41.378c0-3.546-3.617-6.436-8.086-6.436s-8.085,2.872-8.085,6.436c0,3.546,3.617,6.436,8.085,6.436s8.086-2.89,8.086-6.436" transform="translate(17.602 13.591)" fill="#eda1ab"/>
    <path id="Path_681" data-name="Path 681" d="M23.325,37.456a1.341,1.341,0,0,1-1.331-1.331V33.271a1.331,1.331,0,0,1,2.661,0v2.854a1.341,1.341,0,0,1-1.331,1.331" transform="translate(8.554 12.424)" fill="#60463b"/>
    <path id="Path_682" data-name="Path 682" d="M48.067,37.456a1.341,1.341,0,0,1-1.331-1.331V33.271a1.331,1.331,0,0,1,2.661,0v2.854a1.341,1.341,0,0,1-1.331,1.331" transform="translate(18.177 12.424)" fill="#60463b"/>
    <path id="Path_683" data-name="Path 683" d="M36.964,38.8a7.35,7.35,0,0,1-5.532-2.518,1.332,1.332,0,0,1,2-1.756,4.666,4.666,0,0,0,7.059,0,1.332,1.332,0,0,1,2,1.756A7.379,7.379,0,0,1,36.964,38.8" transform="translate(12.098 13.256)" fill="#60463b"/>
  </g>
</svg>
