<svg xmlns="http://www.w3.org/2000/svg" width="100" height="100"><defs><clipPath id="a"><path data-name="Path 3077" d="M50 0a50 50 0 1050 50A50 50 0 0050 0z" fill="none"/></clipPath></defs><g data-name="Group 114" clip-path="url(#a)"><path data-name="Path 3063" d="M50.015 8.621A31.859 31.859 0 1118.156 40.48 31.859 31.859 0 0150.015 8.621" fill="#483e38"/><path data-name="Path 3064" d="M72.693 100.015c-.662-13.694-10.561-24.566-22.678-24.566S28 86.321 27.337 100.015z" fill="#d8b25a"/><path data-name="Path 3065" d="M21.68 46.337a5.813 5.813 0 11-5.813 5.813 5.813 5.813 0 015.813-5.813" fill="#d8b25a"/><path data-name="Path 3066" d="M78.351 46.337a5.813 5.813 0 11-5.813 5.813 5.813 5.813 0 015.813-5.813" fill="#d8b25a"/><path data-name="Path 3067" d="M56.346 76.476a6.471 6.471 0 01-12.774.037c-9.015 3.051-15.694 12.338-16.234 23.5h45.355c-.542-11.213-7.275-20.526-16.347-23.537z" fill="#6a96d7"/><path data-name="Path 3068" d="M50.015 17.69a30.089 30.089 0 11-30.089 30.089A30.089 30.089 0 0150.015 17.69" fill="#ebc15e"/><path data-name="Path 3069" d="M41.26 53.517c0 2.253-2.449 4.08-5.47 4.08s-5.471-1.827-5.471-4.08 2.449-4.08 5.471-4.08 5.47 1.827 5.47 4.08" fill="#f39e9c"/><path data-name="Path 3070" d="M64.241 49.437c3.021 0 5.47 1.827 5.47 4.08s-2.449 4.08-5.47 4.08-5.47-1.827-5.47-4.08 2.449-4.08 5.47-4.08" fill="#f39e9c"/><path data-name="Path 3071" d="M38.1 44.809a2.081 2.081 0 11-2.081 2.081 2.081 2.081 0 012.081-2.081" fill="#2f271e"/><path data-name="Path 3072" d="M61.933 44.809a2.081 2.081 0 11-2.081 2.081 2.081 2.081 0 012.081-2.081" fill="#2f271e"/><path data-name="Path 3073" d="M50.015 54.233a5.281 5.281 0 01-4.556-2.58.718.718 0 011.241-.723 3.879 3.879 0 006.636 0 .717.717 0 011.238.723 5.281 5.281 0 01-4.556 2.58" fill="#2f271e"/><path data-name="Path 3074" d="M80.1 46.889s1.2-15.049-7.407-26.175c0 0-14.728-17.781-40.1-5.32a9.286 9.286 0 00.3 9.213s8.435 9.215 34.854 4.319A40.425 40.425 0 0080.1 46.889" fill="#483e38"/><path data-name="Path 3075" d="M33.524 15.076s-17.657 4.6-13.572 31.524c0 0 7.071-5.991 12.115-19.639 0-.002 3.95-10.016 1.457-11.885z" fill="#483e38"/><path data-name="Rectangle 150" fill="#8eafe2" d="M51.262 91.382h11.229v8.633H51.262z"/><path data-name="Path 3076" d="M62.517 30.063c.229-.025 14.449-1.075 18.509-13.852 0 0-5.8-.6-8.333-1.791 0 0 4.154-1.925 5.109-5.8 0 0-47.1-7.217-46.274 6.455 0 0-2.577 4.2 1.369 9.531 0 0 5.522 7.486 29.62 5.456" fill="#483e38"/></g></svg>