<svg xmlns="http://www.w3.org/2000/svg" width="100" height="100"><defs><clipPath id="a"><circle data-name="Ellipse 23" cx="50" cy="50" r="50" fill="none"/></clipPath></defs><g data-name="Group 134" clip-path="url(#a)"><path data-name="Path 3140" d="M82.141 40.139c.253 5.006 6.673 12.78 5.926 22.7-.667 8.874-4.85 19.65-13.411 25.1.034.49.052.944.052 1.356 0 5.4-2.838 8.569-8.6 10.265 0 0 30.625-6.669 30.633-39.352.008-33.339-14.929-26.649-14.6-20.07" fill="#ffd4be"/><path data-name="Path 3141" d="M79.384 83.969a24.188 24.188 0 01-4.729 3.969c.035.49.053.944.053 1.356 0 5.4-2.838 8.569-8.6 10.265a43.293 43.293 0 0012.954-5.771 10.9 10.9 0 00.863-4.493 36.059 36.059 0 00-.541-5.325" fill="#d6948c"/><path data-name="Path 3142" d="M56.804 18.527s4.054-10.383 7.526-9.668c3.522.728 2.838 12.445 2.838 12.445s7.274 11.164 7.038 17.587-4.363 10.705-8.449 11.486c0 0 8.952 29.72 8.952 38.918s-8.231 11.924-25.143 11.924-25.147-2.726-25.147-11.923 8.952-38.918 8.952-38.918c-4.084-.781-8.214-5.065-8.449-11.486s7.041-17.588 7.041-17.588-.684-11.716 2.839-12.445c3.472-.719 7.525 9.667 7.525 9.667z" fill="#ffd4be"/><path data-name="Path 3143" d="M49.566 96.002c-15.4 0-23.6-2.261-24.945-9.6a25.817 25.817 0 00-.2 2.9c0 9.2 8.232 11.923 25.144 11.923S74.71 98.498 74.71 89.302a25.815 25.815 0 00-.2-2.9c-1.347 7.344-9.548 9.6-24.944 9.6" fill="#d6948c"/><path data-name="Path 3144" d="M34.795 8.859c-3.522.728-2.838 12.445-2.838 12.445s-7.274 11.164-7.039 17.587a13.172 13.172 0 003.059 8.192c20.453-4.574 18.652-28.557 18.652-28.557h-4.304s-4.054-10.382-7.53-9.667" fill="#d6948c"/><path data-name="Path 3145" d="M64.329 8.859c3.521.728 2.838 12.445 2.838 12.445s7.274 11.165 7.037 17.587a13.172 13.172 0 01-3.059 8.192c-20.45-4.573-18.65-28.556-18.65-28.556h4.309s4.052-10.383 7.525-9.668" fill="#d6948c"/><path data-name="Path 3146" d="M37.405 29.908c-1.65 0-2.942 1.6-2.942 3.653s1.292 3.653 2.942 3.653 2.941-1.6 2.941-3.653-1.292-3.653-2.941-3.653" fill="#433f43"/><path data-name="Path 3147" d="M61.725 29.908c-1.649 0-2.941 1.6-2.941 3.653s1.292 3.653 2.941 3.653 2.942-1.6 2.942-3.653-1.292-3.653-2.942-3.653" fill="#433f43"/><path data-name="Path 3149" d="M34.305 66.887s1.413 35.5 6.806 35.5 5.522-32 5.522-32" fill="#ffd4be"/><path data-name="Path 3150" d="M64.825 66.887S63.411 103 58.018 103s-5.523-32.557-5.523-32.557" fill="#ffd4be"/><path data-name="Path 3151" d="M41.111 103.001c-2.643 0-3.923-3.455-4.744-6.465a87.693 87.693 0 01-2.123-12.171c-1.021-8.664-1.384-17.441-1.388-17.53a1.392 1.392 0 011.394-1.4 1.41 1.41 0 011.5 1.3c0 .081.339 8.208 1.274 16.484a97.323 97.323 0 001.9 11.679c1.032 4.219 1.943 5.179 2.2 5.375.392-.271 2.292-2.237 3.387-15.2.631-7.46.667-14.78.667-14.854a1.4 1.4 0 011.449-1.342h.006a1.4 1.4 0 011.444 1.353c0 .079-.04 8-.743 15.824a70.962 70.962 0 01-1.682 11.005C44.985 99.61 43.789 103 41.106 103" fill="#d6948c"/><path data-name="Path 3152" d="M58.017 103.001c-2.683 0-3.879-3.39-4.546-5.94a70.877 70.877 0 01-1.682-11.012c-.7-7.821-.743-15.744-.744-15.824a1.4 1.4 0 011.444-1.353 1.4 1.4 0 011.449 1.343c0 .073.037 7.406.669 14.866 1.1 12.956 2.994 14.92 3.386 15.192.262-.2 1.172-1.157 2.2-5.376a97.294 97.294 0 001.9-11.679c.935-8.276 1.271-16.4 1.274-16.484a1.414 1.414 0 011.5-1.3 1.394 1.394 0 011.394 1.4c0 .088-.367 8.865-1.388 17.53a87.7 87.7 0 01-2.109 12.172c-.82 3.009-2.1 6.465-4.744 6.465" fill="#d6948c"/><path data-name="Path 3153" d="M52.254 46.502v1.344a2.689 2.689 0 01-5.378 0v-1.344l2.689-1.344z" fill="#ff8087"/><path data-name="Path 3154" d="M49.565 45.157l-2.689 1.344v1.345a2.679 2.679 0 00.078.617 6.053 6.053 0 001.939-.581v.636a.672.672 0 001.344 0v-.636a6.053 6.053 0 001.939.581 2.679 2.679 0 00.078-.617v-1.345z" fill="#e6646e"/><path data-name="Path 3155" d="M52.928 47.178a4.677 4.677 0 01-2.65-.817 1.287 1.287 0 00-1.423 0 4.7 4.7 0 01-5.788-.388.673.673 0 01.9-1 3.419 3.419 0 004.131.279 2.625 2.625 0 012.941 0 3.422 3.422 0 004.132-.279.673.673 0 01.9 1 4.7 4.7 0 01-3.138 1.2" fill="#4b3f4e"/><path data-name="Path 3156" d="M50.895 40.285h-2.657a.683.683 0 00-.531 1.112l1.329 1.644a.683.683 0 001.062 0l1.329-1.644a.683.683 0 00-.531-1.112" fill="#5d5360"/><path data-name="Path 3157" d="M65.815 47.082a.6.6 0 01-.277-.068 42.813 42.813 0 00-9.391-3.028.602.602 0 11.23-1.181 43.156 43.156 0 019.716 3.141.6.6 0 01-.278 1.136" fill="#4b3f4e"/><path data-name="Path 3158" d="M67.019 42.871a.6.6 0 01-.157-.021c-3.373-.907-9.507-.734-9.567-.732a.6.6 0 11-.037-1.2c.259-.008 6.374-.18 9.917.773a.6.6 0 01-.156 1.183" fill="#4b3f4e"/><path data-name="Path 3159" d="M33.318 47.082a.6.6 0 01-.278-1.136 43.155 43.155 0 019.716-3.146.602.602 0 11.23 1.181 42.8 42.8 0 00-9.391 3.028.6.6 0 01-.277.068" fill="#4b3f4e"/><path data-name="Path 3160" d="M32.107 42.869a.6.6 0 01-.156-1.183c3.543-.953 9.658-.78 9.917-.773a.6.6 0 11-.037 1.2c-.061 0-6.2-.175-9.567.732a.6.6 0 01-.157.021" fill="#4b3f4e"/><path data-name="Path 3161" d="M50.032 43.067l-1.329-2.633a1.327 1.327 0 01-.056-.151h-.409a.683.683 0 00-.531 1.112l1.329 1.644a.675.675 0 001.007.043l-.011-.017" fill="#4b3f4e"/></g></svg>