<svg xmlns="http://www.w3.org/2000/svg" xmlns:xlink="http://www.w3.org/1999/xlink" width="100" height="100" viewBox="0 0 100 100">
  <defs>
    <clipPath id="clip-path">
      <circle id="Ellipse_23" data-name="Ellipse 23" cx="50" cy="50" r="50" fill="none"/>
    </clipPath>
  </defs>
  <g id="Group_134" data-name="Group 134" clip-path="url(#clip-path)">
    <path id="Path_3140" data-name="Path 3140" d="M81.629,38.919c.253,5.006,6.673,12.78,5.926,22.7-.667,8.874-4.85,19.65-13.411,25.1.034.49.052.944.052,1.356,0,5.4-2.838,8.569-8.6,10.265,0,0,30.625-6.669,30.633-39.352.008-33.339-14.929-26.649-14.6-20.07" transform="translate(0.512 1.22)" fill="#ffd4be"/>
    <path id="Path_3141" data-name="Path 3141" d="M78.872,84.881a24.188,24.188,0,0,1-4.729,3.969c.035.49.053.944.053,1.356,0,5.4-2.838,8.569-8.6,10.265A43.293,43.293,0,0,0,78.55,94.7a10.9,10.9,0,0,0,.863-4.493,36.059,36.059,0,0,0-.541-5.325" transform="translate(0.512 -0.912)" fill="#d6948c"/>
    <path id="Path_3142" data-name="Path 3142" d="M54.485,16.183S58.539,5.8,62.011,6.515c3.522.728,2.838,12.445,2.838,12.445s7.274,11.164,7.038,17.587-4.363,10.705-8.449,11.486c0,0,8.952,29.72,8.952,38.918S64.159,98.875,47.247,98.875,22.1,96.149,22.1,86.952s8.952-38.918,8.952-38.918c-4.084-.781-8.214-5.065-8.449-11.486S29.644,18.96,29.644,18.96,28.96,7.244,32.483,6.515c3.472-.719,7.525,9.667,7.525,9.667Z" transform="translate(2.319 2.344)" fill="#ffd4be"/>
    <path id="Path_3143" data-name="Path 3143" d="M47.247,97.02c-15.4,0-23.6-2.261-24.945-9.6a25.817,25.817,0,0,0-.2,2.9c0,9.2,8.232,11.923,25.144,11.923s25.145-2.727,25.145-11.923a25.815,25.815,0,0,0-.2-2.9c-1.347,7.344-9.548,9.6-24.944,9.6" transform="translate(2.319 -1.018)" fill="#d6948c"/>
    <path id="Path_3144" data-name="Path 3144" d="M32.5,6.515c-3.522.728-2.838,12.445-2.838,12.445s-7.274,11.164-7.039,17.587a13.172,13.172,0,0,0,3.059,8.192c20.453-4.574,18.652-28.557,18.652-28.557H40.03S35.976,5.8,32.5,6.515" transform="translate(2.295 2.344)" fill="#d6948c"/>
    <path id="Path_3145" data-name="Path 3145" d="M63.225,6.515c3.521.728,2.838,12.445,2.838,12.445S73.337,30.125,73.1,36.547a13.172,13.172,0,0,1-3.059,8.192C49.591,40.166,51.391,16.183,51.391,16.183H55.7S59.752,5.8,63.225,6.515" transform="translate(1.104 2.344)" fill="#d6948c"/>
    <path id="Path_3146" data-name="Path 3146" d="M35.523,28.478c-1.65,0-2.942,1.6-2.942,3.653s1.292,3.653,2.942,3.653,2.941-1.6,2.941-3.653-1.292-3.653-2.941-3.653" transform="translate(1.882 1.43)" fill="#433f43"/>
    <path id="Path_3147" data-name="Path 3147" d="M60.894,28.478c-1.649,0-2.941,1.6-2.941,3.653s1.292,3.653,2.941,3.653,2.942-1.6,2.942-3.653-1.292-3.653-2.942-3.653" transform="translate(0.831 1.43)" fill="#433f43"/>
    <path id="Path_3149" data-name="Path 3149" d="M32.415,67.059s1.413,35.5,6.806,35.5,5.522-32,5.522-32" transform="translate(1.89 -0.172)" fill="#ffd4be"/>
    <path id="Path_3150" data-name="Path 3150" d="M63.723,67.059s-1.414,36.113-6.807,36.113-5.523-32.557-5.523-32.557" transform="translate(1.102 -0.172)" fill="#ffd4be"/>
    <path id="Path_3151" data-name="Path 3151" d="M39.159,103.111c-2.643,0-3.923-3.455-4.744-6.465a87.693,87.693,0,0,1-2.123-12.171c-1.021-8.664-1.384-17.441-1.388-17.53a1.392,1.392,0,0,1,1.394-1.4,1.41,1.41,0,0,1,1.5,1.3c0,.081.339,8.208,1.274,16.484a97.323,97.323,0,0,0,1.9,11.679c1.032,4.219,1.943,5.179,2.2,5.375.392-.271,2.292-2.237,3.387-15.2.631-7.46.667-14.78.667-14.854a1.4,1.4,0,0,1,1.449-1.342h.006a1.4,1.4,0,0,1,1.444,1.353c0,.079-.04,8-.743,15.824A70.962,70.962,0,0,1,43.7,97.169c-.667,2.551-1.863,5.941-4.546,5.941" transform="translate(1.952 -0.11)" fill="#d6948c"/>
    <path id="Path_3152" data-name="Path 3152" d="M56.853,103.111c-2.683,0-3.879-3.39-4.546-5.94a70.877,70.877,0,0,1-1.682-11.012c-.7-7.821-.743-15.744-.744-15.824a1.4,1.4,0,0,1,1.444-1.353h0a1.4,1.4,0,0,1,1.449,1.343c0,.073.037,7.406.669,14.866,1.1,12.956,2.994,14.92,3.386,15.192.262-.2,1.172-1.157,2.2-5.376a97.294,97.294,0,0,0,1.9-11.679c.935-8.276,1.271-16.4,1.274-16.484a1.414,1.414,0,0,1,1.5-1.3,1.394,1.394,0,0,1,1.394,1.4c0,.088-.367,8.865-1.388,17.53A87.7,87.7,0,0,1,61.6,96.646c-.82,3.009-2.1,6.465-4.744,6.465" transform="translate(1.164 -0.11)" fill="#d6948c"/>
    <path id="Path_3153" data-name="Path 3153" d="M50.445,77.226v1.344a2.689,2.689,0,0,1-5.378,0V77.226l2.689-1.344Z" transform="translate(1.809 -30.724)" fill="#ff8087"/>
    <path id="Path_3154" data-name="Path 3154" d="M47.756,75.881l-2.689,1.344V78.57a2.679,2.679,0,0,0,.078.617,6.053,6.053,0,0,0,1.939-.581v.636a.672.672,0,0,0,1.344,0v-.636a6.053,6.053,0,0,0,1.939.581,2.679,2.679,0,0,0,.078-.617V77.225Z" transform="translate(1.809 -30.724)" fill="#e6646e"/>
    <path id="Path_3155" data-name="Path 3155" d="M47.752,77.6a4.677,4.677,0,0,1-2.65-.817,1.287,1.287,0,0,0-1.423,0,4.7,4.7,0,0,1-5.788-.388.672.672,0,0,1,.9-1,3.419,3.419,0,0,0,4.131.279,2.625,2.625,0,0,1,2.941,0,3.422,3.422,0,0,0,4.132-.279.672.672,0,0,1,.9,1,4.7,4.7,0,0,1-3.138,1.2" transform="translate(5.176 -30.422)" fill="#4b3f4e"/>
    <path id="Path_3156" data-name="Path 3156" d="M49.217,65.651H46.56a.683.683,0,0,0-.531,1.112l1.329,1.644a.683.683,0,0,0,1.062,0l1.329-1.644a.683.683,0,0,0-.531-1.112" transform="translate(1.678 -25.366)" fill="#5d5360"/>
    <path id="Path_3157" data-name="Path 3157" d="M72.642,75.082a.6.6,0,0,1-.277-.068,42.813,42.813,0,0,0-9.391-3.028.6.6,0,1,1,.23-1.181,43.156,43.156,0,0,1,9.716,3.141.6.6,0,0,1-.278,1.136" transform="translate(-6.827 -28)" fill="#4b3f4e"/>
    <path id="Path_3158" data-name="Path 3158" d="M74.912,68.879a.6.6,0,0,1-.157-.021c-3.373-.907-9.507-.734-9.567-.732a.6.6,0,1,1-.037-1.2c.259-.008,6.374-.18,9.917.773a.6.6,0,0,1-.156,1.183" transform="translate(-7.893 -26.008)" fill="#4b3f4e"/>
    <path id="Path_3159" data-name="Path 3159" d="M16.072,75.082a.6.6,0,0,1-.278-1.136A43.155,43.155,0,0,1,25.51,70.8a.6.6,0,1,1,.23,1.181,42.8,42.8,0,0,0-9.391,3.028.6.6,0,0,1-.277.068" transform="translate(17.246 -28)" fill="#4b3f4e"/>
    <path id="Path_3160" data-name="Path 3160" d="M13.6,68.879a.6.6,0,0,1-.156-1.183c3.543-.953,9.658-.78,9.917-.773a.6.6,0,1,1-.037,1.2c-.061,0-6.2-.175-9.567.732a.6.6,0,0,1-.157.021" transform="translate(18.507 -26.01)" fill="#4b3f4e"/>
    <path id="Path_3161" data-name="Path 3161" d="M48.354,68.433,47.025,65.8a1.327,1.327,0,0,1-.056-.151H46.56a.683.683,0,0,0-.531,1.112l1.329,1.644a.675.675,0,0,0,1.007.043l-.011-.017" transform="translate(1.678 -25.366)" fill="#4b3f4e"/>
  </g>
</svg>
