<svg data-name="Group 130" xmlns="http://www.w3.org/2000/svg" width="100" height="100"><defs><clipPath id="a"><circle data-name="Ellipse 22" cx="50" cy="50" r="50" fill="none"/></clipPath></defs><g data-name="Group 129" clip-path="url(#a)"><path data-name="Path 3119" d="M74.293 101.44c-2.471-12.38-5.232-18.574-9.886-30.155L62.2 66.1H36.419l-2.092 5.189c-4.654 11.581-7.416 17.775-9.886 30.155z" fill="#ffd4be"/><path data-name="Path 3120" d="M64.408 71.285L62.2 66.1h-5.325l2.211 5.19c4.654 11.576 7.414 17.77 9.886 30.15h5.321c-2.471-12.38-5.231-18.574-9.885-30.155" fill="#ffbf9e"/><path data-name="Path 3121" d="M49.458 91.912a1.33 1.33 0 01-1.331-1.33v-7.736a1.33 1.33 0 112.66 0v7.736a1.33 1.33 0 01-1.329 1.33z" fill="#f7c000"/><path data-name="Path 3122" d="M49.458 84.413c11.9 0 16.968-6.69 16.968-6.69l.407-.423c-.75-1.867-1.555-3.846-2.426-6.015L62.2 66.1H36.419l-2.093 5.189c-.873 2.174-1.68 4.157-2.43 6.028l.389.41s5.278 6.686 17.173 6.686z" fill="#d6948c"/><path data-name="Path 3123" d="M64.408 71.285L62.2 66.1H36.419l-1.688 4.18h24.024l2.21 5.19c.743 1.849 1.438 3.56 2.091 5.181a14.68 14.68 0 003.37-2.928l.407-.423c-.75-1.867-1.555-3.846-2.425-6.015z" fill="#ce857a"/><path data-name="Path 3124" d="M55.209 75.828a3.793 3.793 0 01-3.8 3.79h-4.088a3.793 3.793 0 01-3.8-3.79v-5.22h11.688z" fill="#ff8e9e"/><path data-name="Path 3125" d="M49.367 67.941v3.68a4.25 4.25 0 004.254 4.246 12.527 12.527 0 008.85-3.659l.233-.232a12.482 12.482 0 003.665-8.834 11.555 11.555 0 00-.275-2.5l.03-.007 5.65-34.9c0 .254-12.322-7.342-12.322-7.342a20.458 20.458 0 00-20.17 0l-12.44 6.278c.041.473 5.768 35.959 5.768 35.959l.012.032a12.06 12.06 0 00-.258 2.48 12.483 12.483 0 003.666 8.834l.233.232a12.527 12.527 0 008.85 3.659 4.25 4.25 0 004.254-4.246v-3.68" fill="#ffd4be"/><path data-name="Path 3126" d="M66.124 60.63l5.65-34.9c0 .254-12.322-7.341-12.322-7.341a20.438 20.438 0 00-12.745-2.479 20.363 20.363 0 017.424 2.484s12.322 7.6 12.322 7.341L60.8 60.63l-.03.007a11.494 11.494 0 01.276 2.5 12.483 12.483 0 01-3.666 8.834l-.233.233a12.512 12.512 0 01-5.47 3.19 4.237 4.237 0 001.941.469 12.531 12.531 0 008.85-3.659l.233-.233a12.482 12.482 0 003.665-8.834 11.555 11.555 0 00-.275-2.5z" fill="#ffbf9e"/><path data-name="Path 3127" d="M43.608 43.469a1.33 1.33 0 01-1.254-.888 4.342 4.342 0 00-2.08-2.362 3.187 3.187 0 00-3.195.425 1.331 1.331 0 01-1.832-1.929 5.823 5.823 0 015.966-.985 7 7 0 013.651 3.97 1.4 1.4 0 01-1.256 1.768" fill="#7c6354"/><path data-name="Path 3128" d="M55.04 16.444l4.809-2.816a2.469 2.469 0 012.086-.191l16.142 5.837a2.458 2.458 0 011.5 3.076L74.192 38.8a1.691 1.691 0 01-2.728.738A38.887 38.887 0 0159.45 18.4z" fill="#7c6354"/><path data-name="Path 3129" d="M78.077 19.274l-16.142-5.837a2.466 2.466 0 00-2.086.192l-1.034.6 13.941 5.041a2.459 2.459 0 011.5 3.077l-4.946 15.1c.8.842 1.531 1.538 2.15 2.087a1.691 1.691 0 002.729-.738l5.391-16.445a2.459 2.459 0 00-1.503-3.077z" fill="#60463b"/><path data-name="Path 3130" d="M43.694 16.444l-4.809-2.816a2.469 2.469 0 00-2.086-.191l-16.142 5.837a2.458 2.458 0 00-1.5 3.076l5.385 16.45a1.691 1.691 0 002.728.738A38.887 38.887 0 0039.284 18.4z" fill="#7c6354"/><path data-name="Path 3131" d="M49.367 88.2a5.091 5.091 0 11-5.1 5.091 5.1 5.1 0 015.1-5.091" fill="#ebb65e"/><path data-name="Path 3132" d="M49.367 88.2a5.077 5.077 0 00-2.66.747 5.088 5.088 0 010 8.688 5.094 5.094 0 102.66-9.435z" fill="#c8a263"/><path data-name="Path 3133" d="M51.176 66.9a2.091 2.091 0 01-3.618 0l-1.53-2.644-2.223-3.846a2.083 2.083 0 01.885-2.91 10.588 10.588 0 019.354 0 2.085 2.085 0 01.885 2.913l-2.224 3.844z" fill="#7c6354"/><path data-name="Path 3134" d="M55.126 43.469a1.33 1.33 0 001.254-.888 4.342 4.342 0 012.08-2.362 3.187 3.187 0 013.195.425 1.331 1.331 0 001.832-1.929 5.823 5.823 0 00-5.966-.985 7 7 0 00-3.651 3.97 1.4 1.4 0 001.256 1.768" fill="#7c6354"/></g></svg>