<svg xmlns="http://www.w3.org/2000/svg" width="100.004" height="100"><defs><clipPath id="a"><path data-name="Path 684" d="M100 50A50 50 0 1150 0a50 50 0 0150 50" transform="translate(-22493 -13062)" fill="#faf9f8"/></clipPath></defs><g data-name="Mask Group 4" transform="translate(22493 13062)" clip-path="url(#a)"><g data-name="Group 249" transform="translate(28.004 13.332)"><path data-name="Path 685" d="M-22479.033-13060.644c-18.037 3.918-31.6 20.77-31.6 40.959a49.893 49.893 0 0011.573 32.526 6.326 6.326 0 004.8 2.163h23.26v-73.366a8.845 8.845 0 00-8.031-2.282" fill="#232121"/><path data-name="Path 686" d="M-22462.97-13060.644a8.86 8.86 0 00-8.032 2.282v73.366h23.274a6.326 6.326 0 004.8-2.163 49.99 49.99 0 0011.579-32.526c-.02-20.189-13.584-37.041-31.621-40.959" fill="#483e38"/><path data-name="Path 687" d="M-22453.385-12980.178a18.354 18.354 0 00-3.526-7.3 18.135 18.135 0 00-10.512-6.475 17.288 17.288 0 00-3.579-.367 18 18 0 00-14.089 6.827 18.3 18.3 0 00-3.982 11.4v2.758h36.142v-2.757a18.524 18.524 0 00-.454-4.086" fill="#d4d4d5"/><path data-name="Path 688" d="M-22472.487-12974.857a49.094 49.094 0 01-2.113-14.23v-4.87a18.021 18.021 0 00-10.511 6.46 18.237 18.237 0 00-3.981 11.4v2.76h17.041z" fill="#b9bbbc"/><path data-name="Path 689" d="M-22485.093-12987.492a18.3 18.3 0 00-3.981 11.4v2.758h11.575a54.006 54.006 0 01-2.339-15.749v-2.9a18.018 18.018 0 00-5.256 4.488" fill="#ce8f88"/><path data-name="Path 690" d="M-22479.837-12989.081v-2.9a18.353 18.353 0 00-5.256 4.506q-.34.419-.628.838a2.6 2.6 0 00.174 3.195l2.742 3.213-.749 1.955a2.624 2.624 0 001.625 3.44l4.452 1.5a53.47 53.47 0 01-2.357-15.749" fill="#e8b5b1"/><path data-name="Path 691" d="M-22456.912-12987.492a18.3 18.3 0 013.981 11.4v2.758h-11.576a54.006 54.006 0 002.339-15.749v-2.9a18.018 18.018 0 015.256 4.488" fill="#ce8f88"/><path data-name="Path 692" d="M-22462.167-12989.081v-2.9a18.353 18.353 0 015.256 4.506q.34.419.628.838a2.6 2.6 0 01-.174 3.195l-2.742 3.213.751 1.956a2.624 2.624 0 01-1.625 3.44l-4.452 1.5a53.47 53.47 0 002.357-15.749" fill="#e8b5b1"/><path data-name="Path 693" d="M-22462.168-12991.979l-8.835-5.378-8.835 5.36v2.829a1.668 1.668 0 00.088.576 5.032 5.032 0 008.747 1.682 5.032 5.032 0 008.747-1.676 2.189 2.189 0 00.088-.576z" fill="#efedee"/><path data-name="Path 694" d="M-22437.199-13031.836h-67.6a8.163 8.163 0 000 16.326h67.6a8.163 8.163 0 000-16.326" fill="#7b685b"/><path data-name="Path 695" d="M-22465.381-13056.094a34.757 34.757 0 00-11.245 0c-15.992 2.614-28.18 16.126-28.18 32.4s12.188 29.809 28.18 32.405a34.757 34.757 0 0011.245 0c15.994-2.614 28.18-16.126 28.18-32.405s-12.187-29.807-28.18-32.4" fill="#7b685b"/><path data-name="Path 696" d="M-22493.597-13023.64c0-16.312 12.2-29.859 28.215-32.455a34.648 34.648 0 00-11.243 0c-15.994 2.614-28.18 16.126-28.18 32.4s12.185 29.811 28.179 32.409a34.748 34.748 0 0011.243 0c-16.01-2.58-28.215-16.042-28.215-32.354" fill="#574e48"/><path data-name="Path 697" d="M-22489.423-13018.168c-3.736 0-6.757 2.41-6.757 5.36 0 2.968 3.021 5.36 6.757 5.36s6.757-2.408 6.757-5.36-3.021-5.36-6.757-5.36" fill="#ce8f88"/><path data-name="Path 698" d="M-22452.582-13018.168c-3.736 0-6.757 2.41-6.757 5.36 0 2.968 3.021 5.36 6.757 5.36s6.757-2.408 6.757-5.36-3.021-5.36-6.757-5.36" fill="#ce8f88"/><path data-name="Path 699" d="M-22485.565-13021.973a1.345 1.345 0 00-1.344 1.344v2.794a1.345 1.345 0 102.689 0v-2.794a1.345 1.345 0 00-1.344-1.344" fill="#232121"/><path data-name="Path 700" d="M-22456.441-13021.973a1.345 1.345 0 00-1.344 1.344v2.794a1.345 1.345 0 102.689 0v-2.794a1.345 1.345 0 00-1.344-1.344" fill="#232121"/><path data-name="Path 701" d="M-22466.27-13018.959a1.351 1.351 0 00-1.9.122 3.743 3.743 0 01-5.657 0 1.35 1.35 0 10-2.03 1.781 6.483 6.483 0 004.853 2.218 6.4 6.4 0 004.854-2.218 1.351 1.351 0 00-.122-1.9" fill="#232121"/><path data-name="Path 702" d="M-22436.484-13031.323a35.571 35.571 0 00-69.037 0l1.694.419a33.963 33.963 0 00-1 8.153 40.187 40.187 0 0016.159-3.372 39.6 39.6 0 006.2-3.388 39.939 39.939 0 0011.448-11.504 39.942 39.942 0 0011.452 11.506 40.427 40.427 0 0022.348 6.757 33.86 33.86 0 00-.994-8.153z" fill="#483e38"/><path data-name="Path 703" d="M-22476.92-13057.811a35.495 35.495 0 00-28.6 26.488l1.694.418a33.914 33.914 0 00-1 8.154 40.208 40.208 0 0016.158-3.372 65.477 65.477 0 0117.67-32.179 35.265 35.265 0 00-5.918.489" fill="#232121"/><ellipse data-name="Ellipse 18" cx="50.002" cy="49.062" rx="50.002" ry="49.062" transform="translate(-22521.004 -13073.332)" fill="none"/></g></g></svg>