<svg xmlns="http://www.w3.org/2000/svg" width="100" height="100"><defs><clipPath id="a"><circle data-name="Ellipse 20" cx="50" cy="50" r="50" fill="none"/></clipPath></defs><g data-name="Group 119" clip-path="url(#a)"><path data-name="Path 3079" d="M30.773 15.122a23.316 23.316 0 00-7.98 6.21 26.292 26.292 0 00-4.871 9.725c-1.06 4.3-.9 8.717-1.748 13.01-.442 2.241-4.874 6.257-5.943 8.3-2.775 5.306-.688 7.573 2.2 11.61 1.386 1.94 2.893 4.134 2.813 6.631-.11 3.357-3.563 5.243-4.156 8.446a9.113 9.113 0 001.909 7.034c4.526 6.252 12.476 5.161 19.214 4.675a62.421 62.421 0 0115.831.505c4.319.8 8.884 2.639 13.336 1.752 3.994-.8 6.41-4 9.475-6.359 4.533-3.492 11.388-2.68 15.888-6.236 7.668-6.062-5.689-13.545-.4-19.891 4.233-5.077 6.707-10.741 1.142-15.777-5.487-4.969-6.582-13.416-9.924-19.639-3.192-5.952-9.142-9.831-15.492-11.772a44.1 44.1 0 00-11.369-1.689c-6.649-.216-13.871.523-19.925 3.465z" fill="#ebb65e"/><path data-name="Path 3080" d="M72.343 99.634c-.635-13.1-10.107-23.509-21.7-23.509s-21.068 10.4-21.7 23.509z" fill="#ffbf9e"/><path data-name="Path 3081" d="M56.699 77.108a21.074 21.074 0 018.388 5.322 14.394 14.394 0 00.759 17.2H35.434a14.394 14.394 0 00.759-17.2 21.108 21.108 0 018.277-5.286l5.343 5.209z" fill="#8eafe2"/><path data-name="Path 3082" d="M49.817 82.351l-5.342-5.209s-4.156 2.123 0 6.009c-.002 0 3.214 4.114 5.342-.8z" fill="#f39e9c"/><path data-name="Path 3083" d="M49.817 82.352l6.882-5.244s3.859 1.815-.127 5.415c0 0-3.257 4.285-6.755-.171" fill="#f39e9c"/><path data-name="Path 3084" d="M81.126 42.655a30.489 30.489 0 11-30.49-30.489 30.489 30.489 0 0130.49 30.489" fill="#ebb65e"/><path data-name="Path 3085" d="M29.087 53.829a5.564 5.564 0 11-5.564-5.563 5.564 5.564 0 015.564 5.563" fill="#ffbf9e"/><path data-name="Path 3086" d="M77.758 48.265a5.563 5.563 0 11-5.564 5.564 5.564 5.564 0 015.564-5.564" fill="#ffbf9e"/><path data-name="Path 3087" d="M50.64 20.849a28.8 28.8 0 11-28.8 28.8 28.8 28.8 0 0128.8-28.8" fill="#ffd4be"/><path data-name="Path 3088" d="M42.262 55.136c0 2.156-2.343 3.9-5.235 3.9s-5.236-1.749-5.236-3.9 2.343-3.9 5.236-3.9 5.235 1.744 5.235 3.9z" fill="#f39e9c"/><path data-name="Path 3089" d="M69.49 55.136c0 2.156-2.343 3.9-5.235 3.9s-5.236-1.749-5.236-3.9 2.343-3.9 5.236-3.9 5.235 1.744 5.235 3.9z" fill="#f39e9c"/><path data-name="Path 3090" d="M39.236 46.802a1.991 1.991 0 11-1.991 1.991 1.99 1.99 0 011.991-1.991" fill="#2f271e"/><path data-name="Path 3091" d="M62.046 46.802a1.991 1.991 0 11-1.991 1.991 1.991 1.991 0 011.991-1.991" fill="#2f271e"/><path data-name="Path 3092" d="M50.64 55.821a5.05 5.05 0 01-4.359-2.469.686.686 0 011.184-.692 3.711 3.711 0 006.351 0 .686.686 0 011.185.692 5.052 5.052 0 01-4.361 2.469z" fill="#2f271e"/><path data-name="Path 3093" d="M60.072 15.982c-20.819-7.668-32.764 8.257-32.764 8.257-6.274 10.438-5.445 24.285-5.445 24.285l5.457-13.47s41.864 1.584 32.755-19.072" fill="#ebb65e"/><path data-name="Path 3094" d="M55.97 14.741c9.894-.1 18 9.5 18 9.5 6.274 10.438 5.445 24.285 5.445 24.285l-3.069-8s-20.382-9.312-20.378-25.78" fill="#ebb65e"/></g></svg>