<?xml version="1.0" encoding="UTF-8"?>
<!-- Generated by Pixelmator Pro 3.2.3 -->
<svg width="144" height="144" viewBox="0 0 144 144" xmlns="http://www.w3.org/2000/svg" xmlns:xlink="http://www.w3.org/1999/xlink">
    <g opacity="0.961085">
        <path fill="#383735" fill-rule="evenodd" stroke="none" d="M 144.021271 72 C 144.021271 32.235497 111.557159 0 71.510635 0 C 31.464119 0 -1 32.235497 -1 72 C -1 111.764503 31.464119 144 71.510635 144 C 111.557159 144 144.021271 111.764503 144.021271 72 Z"/>
        <path fill="#c3d0c9" fill-rule="evenodd" stroke="none" d="M 135 72 C 135 36.920197 106.360512 8.482391 71.031914 8.482391 C 35.703316 8.482391 7.06383 36.920197 7.06383 72 C 7.06383 107.079803 35.703316 135.517609 71.031914 135.517609 C 106.360512 135.517609 135 107.079803 135 72 Z"/>
        <g>
            <path fill="#383735" fill-rule="evenodd" stroke="none" d="M 110 125 C 99.946579 111.662415 84.128159 96.800003 71.171989 96.800003 C 55.75861 96.800003 43.623283 111.299591 33.51342 125.790245 C 28.971308 132.300537 42.861683 136 71 136 C 100 136 117.280067 134.658249 110 125 Z"/>
            <path fill="#383735" fill-rule="evenodd" stroke="none" d="M 109.578224 65.659576 C 109.578224 44.860764 92.717461 28 71.918655 28 C 51.119846 28 34.259083 44.860764 34.259083 65.659576 C 34.259083 86.458382 51.119846 103.319153 71.918655 103.319153 C 92.717461 103.319153 109.578224 86.458382 109.578224 65.659576 Z"/>
        </g>
    </g>
</svg>
