<svg xmlns="http://www.w3.org/2000/svg" width="144" height="144" viewBox="0 0 144 144">
  <g fill-rule="evenodd" opacity=".961">
    <path fill="#383735" d="M144.021 72c0-39.765-32.464-72-72.51-72C31.464 0-1 32.235-1 72s32.464 72 72.51 72c40.047 0 72.511-32.235 72.511-72Z"/>
    <path fill="#c3d0c9" d="M135 72c0-35.08-28.64-63.518-63.968-63.518C35.703 8.482 7.064 36.92 7.064 72s28.64 63.518 63.968 63.518C106.36 135.518 135 107.08 135 72Z"/>
    <g fill="#383735">
      <path d="M110 125c-10.053-13.338-25.872-28.2-38.828-28.2-15.413 0-27.549 14.5-37.659 28.99C28.971 132.3 42.862 136 71 136c29 0 46.28-1.342 39-11Z"/>
      <path d="M109.578 65.66c0-20.8-16.86-37.66-37.66-37.66C51.12 28 34.26 44.86 34.26 65.66c0 20.798 16.86 37.66 37.66 37.66 20.798 0 37.66-16.862 37.66-37.66Z"/>
    </g>
  </g>
</svg>
