<svg xmlns="http://www.w3.org/2000/svg" width="123.916" height="190.833"><defs><clipPath id="a"><path fill="none" d="M0 0h123.916v190.833H0z" data-name="Rectangle 162"/></clipPath><clipPath id="b"><path fill="#383735" d="M0 0h12.424v6.701H0z" data-name="Rectangle 163"/></clipPath></defs><g data-name="Graphic tree"><g data-name="Graphic tree"><g clip-path="url(#a)" data-name="Group 152"><path fill="#f8e2ce" d="M61.749 146.37c-6.233 5.358-10.122 4.223-17.34-.217s-10.49-13.584-7.486-20.924c-15.215 3.4-30.593-9.071-34.579-23.022-2.844-9.958.608-23.011 11.5-25.336-9.435-7.777-11.228-22.109-3.928-31.377S32.603 33.312 43.603 39.1C41.86 27.015 47.23 14.38 57.388 6.665c3.739-2.838 8.255-5.084 13.151-5.271 10.059-.374 18.5 8.278 20.544 17.319s-.679 18.272-3.376 27.093c6.532-5.223 18.092-2.922 22.763 3.913s2.5 16.451-3.989 21.713c10.119 5.414 16.558 16.178 16.023 26.783s-8.024 20.567-18.627 24.784c-2.937 1.166-6.478 2.3-7.371 5.107-.51 1.608 2.348 14.221-14.7 22.616-5.53 2.723-12.951.284-20.054-4.353" data-name="Path 3196"/><path fill="none" d="M76.608 153.256c-5.127 0-10.5-2.514-14.756-5.175-6.29 5.017-10.792 3.792-18.171-.746-7.022-4.319-10.583-12.886-8.779-20.35-15.429 1.96-30.01-10.811-33.892-24.4-1.9-6.659-1.078-14.133 2.151-19.508a15.922 15.922 0 017.948-6.836c-8.334-8.5-9.513-22.425-2.281-31.6 7.177-9.108 21.839-12.408 33.143-7.818A36.848 36.848 0 0156.55 5.561C61.171 2.053 65.858.187 70.484.015 81.521-.41 90.316 9.041 92.431 18.408c1.886 8.348-.107 16.755-2.373 24.415a17.518 17.518 0 019.37-1.047 18.029 18.029 0 0112.185 7.162c4.609 6.749 3.319 16.166-2.787 22.245 9.6 5.915 15.592 16.577 15.06 27.1-.563 11.141-8.4 21.589-19.5 26l-.828.327c-2.52.98-5.121 1.993-5.732 3.913-.011.087-.014.569-.014.957-.023 4.085-.076 14.942-15.395 22.484a13.018 13.018 0 01-5.808 1.289m-14.86-8.272a1.375 1.375 0 01.757.225c7.588 4.952 14.224 6.467 18.686 4.271 13.782-6.785 13.829-16.4 13.849-20.012a6.219 6.219 0 01.144-1.779c1.011-3.187 4.386-4.5 7.368-5.659l.811-.318c10.11-4.02 17.245-13.492 17.754-23.565s-5.637-20.327-15.293-25.494a1.386 1.386 0 01-.217-2.3c6.132-4.972 7.8-13.877 3.716-19.854a15.225 15.225 0 00-10.307-5.986 13.521 13.521 0 00-10.442 2.373 1.389 1.389 0 01-2.195-1.482c2.511-8.2 5.355-17.5 3.348-26.381-1.867-8.264-9.539-16.587-19.14-16.238-4.046.152-8.2 1.83-12.363 4.986-9.715 7.377-14.916 19.599-13.252 31.133a1.384 1.384 0 01-2.016 1.425c-10.422-5.484-25.057-2.725-31.952 6.028-6.83 8.669-5.13 22.155 3.716 29.449a1.385 1.385 0 01-.594 2.424 13.066 13.066 0 00-8.593 6.278c-2.846 4.737-3.558 11.376-1.86 17.322 3.736 13.074 18.19 25.35 32.946 22.048a1.387 1.387 0 011.585 1.878c-2.745 6.7.3 15.147 6.929 19.224 7.162 4.4 10.265 5.026 15.71.344a1.383 1.383 0 01.9-.335" data-name="Path 3197"/><path fill="#383735" d="M61.616 190.835a1.387 1.387 0 01-1.385-1.363c-.777-47.429-1.582-96.471 4.268-144.438a1.386 1.386 0 112.751.335c-5.828 47.778-5.026 96.722-4.248 144.058a1.386 1.386 0 01-1.363 1.408z" data-name="Path 3198"/><path fill="#383735" d="M63.708 71.78a1.385 1.385 0 01-1.182-2.112 75.349 75.349 0 0110.53-13.412 1.387 1.387 0 011.974 1.948 72.582 72.582 0 00-10.144 12.918 1.383 1.383 0 01-1.18.659" data-name="Path 3199"/><path fill="#383735" d="M61.072 113.249a1.384 1.384 0 01-1.278-.85c-6.349-15.178-12.346-29.517-24.161-42.08a1.386 1.386 0 012.019-1.9c12.16 12.928 18.25 27.49 24.7 42.907a1.385 1.385 0 01-1.278 1.92" data-name="Path 3200"/><path fill="#383735" d="M50.132 89.583a1.371 1.371 0 01-.7-.189 42.536 42.536 0 00-16.465-5.484 1.386 1.386 0 11.315-2.753 45.388 45.388 0 0117.549 5.845 1.386 1.386 0 01-.7 2.582" data-name="Path 3201"/><path fill="#383735" d="M61.746 134.548a1.386 1.386 0 01-1.273-1.931 121.891 121.891 0 0131.149-43.091 1.388 1.388 0 111.84 2.078 119.167 119.167 0 00-30.44 42.1 1.385 1.385 0 01-1.273.839" data-name="Path 3202"/><path fill="#383735" d="M15.783 66.958a.457.457 0 01-.391-.217 15.586 15.586 0 01.039-16.248.461.461 0 11.78.493 14.65 14.65 0 00-.037 15.265.462.462 0 01-.391.707" data-name="Path 3203"/><path fill="#383735" d="M21.611 65.372a.462.462 0 01-.436-.313 28.723 28.723 0 01-1.518-8.077.461.461 0 01.442-.481.489.489 0 01.481.442 27.824 27.824 0 001.467 7.818.463.463 0 01-.436.611" data-name="Path 3204"/><path fill="#383735" d="M99.954 65.955a.462.462 0 01-.191-.881 7.094 7.094 0 003.491-4.263 22.173 22.173 0 00.864-5.836.461.461 0 11.921.053 22.613 22.613 0 01-.912 6.079 7.991 7.991 0 01-3.984 4.806.461.461 0 01-.191.042" data-name="Path 3205"/></g></g><g data-name="Graphic grass"><g fill="#383735" clip-path="url(#b)" data-name="Group 154" transform="translate(69.522 176.813)"><path d="M1.957 6.294a.451.451 0 01-.44-.351 12.142 12.142 0 00-1.451-3.6.452.452 0 01.772-.469A13.035 13.035 0 012.4 5.742a.45.45 0 01-.339.541.434.434 0 01-.1.012" data-name="Path 3206"/><path d="M5.994 6.373a.452.452 0 01-.451-.427A32.564 32.564 0 015.708.4a.453.453 0 01.9.1 31.512 31.512 0 00-.162 5.4.451.451 0 01-.426.475h-.026" data-name="Path 3207"/><path d="M10.149 6.702a.433.433 0 01-.147-.025.45.45 0 01-.28-.574 27.269 27.269 0 011.855-4.211.452.452 0 01.793.433 26.456 26.456 0 00-1.794 4.071.451.451 0 01-.427.306" data-name="Path 3208"/></g></g></g></svg>