<svg xmlns="http://www.w3.org/2000/svg" width="928" height="249.697" viewBox="0 0 928 249.697">
  <defs>
    <clipPath id="a">
      <path fill="none" d="M0 0h123.916v190.833H0z" data-name="Rectangle 162"/>
    </clipPath>
    <clipPath id="b">
      <path fill="#383735" d="M0 0h12.424v6.701H0z" data-name="Rectangle 163"/>
    </clipPath>
    <clipPath id="c">
      <path fill="none" d="M0 0h76.445v117.727H0z" data-name="Rectangle 162"/>
    </clipPath>
    <clipPath id="d">
      <path fill="#383735" d="M0 0h7.665v4.134H0z" data-name="Rectangle 163"/>
    </clipPath>
  </defs>
  <g data-name="Graphic tree 2">
    <g data-name="Graphic tree">
      <g clip-path="url(#a)" data-name="Group 152" transform="translate(0 22.311)">
        <path fill="#f8e2ce" d="M61.749 146.37c-6.233 5.358-10.122 4.223-17.34-.217s-10.49-13.584-7.486-20.924c-15.215 3.4-30.593-9.071-34.579-23.022-2.844-9.958.608-23.011 11.5-25.336-9.435-7.777-11.228-22.109-3.928-31.377S32.603 33.312 43.603 39.1C41.86 27.015 47.23 14.38 57.388 6.665c3.739-2.838 8.255-5.084 13.151-5.271 10.059-.374 18.5 8.278 20.544 17.319s-.679 18.272-3.376 27.093c6.532-5.223 18.092-2.922 22.763 3.913s2.5 16.451-3.989 21.713c10.119 5.414 16.558 16.178 16.023 26.783s-8.024 20.567-18.627 24.784c-2.937 1.166-6.478 2.3-7.371 5.107-.51 1.608 2.348 14.221-14.7 22.616-5.53 2.723-12.951.284-20.054-4.353" data-name="Path 3196"/>
        <path fill="none" d="M76.608 153.256c-5.127 0-10.5-2.514-14.756-5.175-6.29 5.017-10.792 3.792-18.171-.746-7.022-4.319-10.583-12.886-8.779-20.35-15.429 1.96-30.01-10.811-33.892-24.4-1.9-6.659-1.078-14.133 2.151-19.508a15.922 15.922 0 0 1 7.948-6.836c-8.334-8.5-9.513-22.425-2.281-31.6 7.177-9.108 21.839-12.408 33.143-7.818A36.848 36.848 0 0 1 56.55 5.561C61.171 2.053 65.858.187 70.484.015 81.521-.41 90.316 9.041 92.431 18.408c1.886 8.348-.107 16.755-2.373 24.415a17.518 17.518 0 0 1 9.37-1.047 18.029 18.029 0 0 1 12.185 7.162c4.609 6.749 3.319 16.166-2.787 22.245 9.6 5.915 15.592 16.577 15.06 27.1-.563 11.141-8.4 21.589-19.5 26l-.828.327c-2.52.98-5.121 1.993-5.732 3.913-.011.087-.014.569-.014.957-.023 4.085-.076 14.942-15.395 22.484a13.018 13.018 0 0 1-5.808 1.289m-14.86-8.272a1.375 1.375 0 0 1 .757.225c7.588 4.952 14.224 6.467 18.686 4.271 13.782-6.785 13.829-16.4 13.849-20.012a6.219 6.219 0 0 1 .144-1.779c1.011-3.187 4.386-4.5 7.368-5.659l.811-.318c10.11-4.02 17.245-13.492 17.754-23.565s-5.637-20.327-15.293-25.494a1.386 1.386 0 0 1-.217-2.3c6.132-4.972 7.8-13.877 3.716-19.854a15.225 15.225 0 0 0-10.307-5.986 13.521 13.521 0 0 0-10.442 2.373 1.389 1.389 0 0 1-2.195-1.482c2.511-8.2 5.355-17.5 3.348-26.381-1.867-8.264-9.539-16.587-19.14-16.238-4.046.152-8.2 1.83-12.363 4.986-9.715 7.377-14.916 19.599-13.252 31.133a1.384 1.384 0 0 1-2.016 1.425c-10.422-5.484-25.057-2.725-31.952 6.028-6.83 8.669-5.13 22.155 3.716 29.449a1.385 1.385 0 0 1-.594 2.424 13.066 13.066 0 0 0-8.593 6.278c-2.846 4.737-3.558 11.376-1.86 17.322 3.736 13.074 18.19 25.35 32.946 22.048a1.387 1.387 0 0 1 1.585 1.878c-2.745 6.7.3 15.147 6.929 19.224 7.162 4.4 10.265 5.026 15.71.344a1.383 1.383 0 0 1 .9-.335" data-name="Path 3197"/>
        <path fill="#383735" d="M61.616 190.835a1.387 1.387 0 0 1-1.385-1.363c-.777-47.429-1.582-96.471 4.268-144.438a1.386 1.386 0 1 1 2.751.335c-5.828 47.778-5.026 96.722-4.248 144.058a1.386 1.386 0 0 1-1.363 1.408Z" data-name="Path 3198"/>
        <path fill="#383735" d="M63.708 71.78a1.385 1.385 0 0 1-1.182-2.112 75.349 75.349 0 0 1 10.53-13.412 1.387 1.387 0 0 1 1.974 1.948 72.582 72.582 0 0 0-10.144 12.918 1.383 1.383 0 0 1-1.18.659" data-name="Path 3199"/>
        <path fill="#383735" d="M61.072 113.249a1.384 1.384 0 0 1-1.278-.85c-6.349-15.178-12.346-29.517-24.161-42.08a1.386 1.386 0 0 1 2.019-1.9c12.16 12.928 18.25 27.49 24.7 42.907a1.385 1.385 0 0 1-1.278 1.92" data-name="Path 3200"/>
        <path fill="#383735" d="M50.132 89.583a1.371 1.371 0 0 1-.7-.189 42.536 42.536 0 0 0-16.465-5.484 1.386 1.386 0 1 1 .315-2.753 45.388 45.388 0 0 1 17.549 5.845 1.386 1.386 0 0 1-.7 2.582" data-name="Path 3201"/>
        <path fill="#383735" d="M61.746 134.548a1.386 1.386 0 0 1-1.273-1.931 121.891 121.891 0 0 1 31.149-43.091 1.388 1.388 0 1 1 1.84 2.078 119.167 119.167 0 0 0-30.44 42.1 1.385 1.385 0 0 1-1.273.839" data-name="Path 3202"/>
        <path fill="#383735" d="M15.783 66.958a.457.457 0 0 1-.391-.217 15.586 15.586 0 0 1 .039-16.248.461.461 0 1 1 .78.493 14.65 14.65 0 0 0-.037 15.265.462.462 0 0 1-.391.707" data-name="Path 3203"/>
        <path fill="#383735" d="M21.611 65.372a.462.462 0 0 1-.436-.313 28.723 28.723 0 0 1-1.518-8.077.461.461 0 0 1 .442-.481.489.489 0 0 1 .481.442 27.824 27.824 0 0 0 1.467 7.818.463.463 0 0 1-.436.611" data-name="Path 3204"/>
        <path fill="#383735" d="M99.954 65.955a.462.462 0 0 1-.191-.881 7.094 7.094 0 0 0 3.491-4.263 22.173 22.173 0 0 0 .864-5.836.461.461 0 1 1 .921.053 22.613 22.613 0 0 1-.912 6.079 7.991 7.991 0 0 1-3.984 4.806.461.461 0 0 1-.191.042" data-name="Path 3205"/>
      </g>
    </g>
    <g data-name="Graphic grass">
      <g fill="#383735" clip-path="url(#b)" data-name="Group 154" transform="translate(69.522 199.124)">
        <path d="M1.957 6.294a.451.451 0 0 1-.44-.351 12.142 12.142 0 0 0-1.451-3.6.452.452 0 0 1 .772-.469A13.035 13.035 0 0 1 2.4 5.742a.45.45 0 0 1-.339.541.434.434 0 0 1-.1.012" data-name="Path 3206"/>
        <path d="M5.994 6.373a.452.452 0 0 1-.451-.427A32.564 32.564 0 0 1 5.708.4a.453.453 0 0 1 .9.1 31.512 31.512 0 0 0-.162 5.4.451.451 0 0 1-.426.475h-.026" data-name="Path 3207"/>
        <path d="M10.149 6.702a.433.433 0 0 1-.147-.025.45.45 0 0 1-.28-.574 27.269 27.269 0 0 1 1.855-4.211.452.452 0 0 1 .793.433 26.456 26.456 0 0 0-1.794 4.071.451.451 0 0 1-.427.306" data-name="Path 3208"/>
      </g>
    </g>
  </g>
  <g data-name="Graphic tree 2">
    <g data-name="Graphic tree">
      <g clip-path="url(#a)" data-name="Group 152" transform="translate(367.305)">
        <path fill="#f8e2ce" d="M61.749 146.37c-6.233 5.358-10.122 4.223-17.34-.217s-10.49-13.584-7.486-20.924c-15.215 3.4-30.593-9.071-34.579-23.022-2.844-9.958.608-23.011 11.5-25.336-9.435-7.777-11.228-22.109-3.928-31.377S32.603 33.312 43.603 39.1C41.86 27.015 47.23 14.38 57.388 6.665c3.739-2.838 8.255-5.084 13.151-5.271 10.059-.374 18.5 8.278 20.544 17.319s-.679 18.272-3.376 27.093c6.532-5.223 18.092-2.922 22.763 3.913s2.5 16.451-3.989 21.713c10.119 5.414 16.558 16.178 16.023 26.783s-8.024 20.567-18.627 24.784c-2.937 1.166-6.478 2.3-7.371 5.107-.51 1.608 2.348 14.221-14.7 22.616-5.53 2.723-12.951.284-20.054-4.353" data-name="Path 3196"/>
        <path fill="none" d="M76.608 153.256c-5.127 0-10.5-2.514-14.756-5.175-6.29 5.017-10.792 3.792-18.171-.746-7.022-4.319-10.583-12.886-8.779-20.35-15.429 1.96-30.01-10.811-33.892-24.4-1.9-6.659-1.078-14.133 2.151-19.508a15.922 15.922 0 0 1 7.948-6.836c-8.334-8.5-9.513-22.425-2.281-31.6 7.177-9.108 21.839-12.408 33.143-7.818A36.848 36.848 0 0 1 56.55 5.561C61.171 2.053 65.858.187 70.484.015 81.521-.41 90.316 9.041 92.431 18.408c1.886 8.348-.107 16.755-2.373 24.415a17.518 17.518 0 0 1 9.37-1.047 18.029 18.029 0 0 1 12.185 7.162c4.609 6.749 3.319 16.166-2.787 22.245 9.6 5.915 15.592 16.577 15.06 27.1-.563 11.141-8.4 21.589-19.5 26l-.828.327c-2.52.98-5.121 1.993-5.732 3.913-.011.087-.014.569-.014.957-.023 4.085-.076 14.942-15.395 22.484a13.018 13.018 0 0 1-5.808 1.289m-14.86-8.272a1.375 1.375 0 0 1 .757.225c7.588 4.952 14.224 6.467 18.686 4.271 13.782-6.785 13.829-16.4 13.849-20.012a6.219 6.219 0 0 1 .144-1.779c1.011-3.187 4.386-4.5 7.368-5.659l.811-.318c10.11-4.02 17.245-13.492 17.754-23.565s-5.637-20.327-15.293-25.494a1.386 1.386 0 0 1-.217-2.3c6.132-4.972 7.8-13.877 3.716-19.854a15.225 15.225 0 0 0-10.307-5.986 13.521 13.521 0 0 0-10.442 2.373 1.389 1.389 0 0 1-2.195-1.482c2.511-8.2 5.355-17.5 3.348-26.381-1.867-8.264-9.539-16.587-19.14-16.238-4.046.152-8.2 1.83-12.363 4.986-9.715 7.377-14.916 19.599-13.252 31.133a1.384 1.384 0 0 1-2.016 1.425c-10.422-5.484-25.057-2.725-31.952 6.028-6.83 8.669-5.13 22.155 3.716 29.449a1.385 1.385 0 0 1-.594 2.424 13.066 13.066 0 0 0-8.593 6.278c-2.846 4.737-3.558 11.376-1.86 17.322 3.736 13.074 18.19 25.35 32.946 22.048a1.387 1.387 0 0 1 1.585 1.878c-2.745 6.7.3 15.147 6.929 19.224 7.162 4.4 10.265 5.026 15.71.344a1.383 1.383 0 0 1 .9-.335" data-name="Path 3197"/>
        <path fill="#383735" d="M61.616 190.835a1.387 1.387 0 0 1-1.385-1.363c-.777-47.429-1.582-96.471 4.268-144.438a1.386 1.386 0 1 1 2.751.335c-5.828 47.778-5.026 96.722-4.248 144.058a1.386 1.386 0 0 1-1.363 1.408Z" data-name="Path 3198"/>
        <path fill="#383735" d="M63.708 71.78a1.385 1.385 0 0 1-1.182-2.112 75.349 75.349 0 0 1 10.53-13.412 1.387 1.387 0 0 1 1.974 1.948 72.582 72.582 0 0 0-10.144 12.918 1.383 1.383 0 0 1-1.18.659" data-name="Path 3199"/>
        <path fill="#383735" d="M61.072 113.249a1.384 1.384 0 0 1-1.278-.85c-6.349-15.178-12.346-29.517-24.161-42.08a1.386 1.386 0 0 1 2.019-1.9c12.16 12.928 18.25 27.49 24.7 42.907a1.385 1.385 0 0 1-1.278 1.92" data-name="Path 3200"/>
        <path fill="#383735" d="M50.132 89.583a1.371 1.371 0 0 1-.7-.189 42.536 42.536 0 0 0-16.465-5.484 1.386 1.386 0 1 1 .315-2.753 45.388 45.388 0 0 1 17.549 5.845 1.386 1.386 0 0 1-.7 2.582" data-name="Path 3201"/>
        <path fill="#383735" d="M61.746 134.548a1.386 1.386 0 0 1-1.273-1.931 121.891 121.891 0 0 1 31.149-43.091 1.388 1.388 0 1 1 1.84 2.078 119.167 119.167 0 0 0-30.44 42.1 1.385 1.385 0 0 1-1.273.839" data-name="Path 3202"/>
        <path fill="#383735" d="M15.783 66.958a.457.457 0 0 1-.391-.217 15.586 15.586 0 0 1 .039-16.248.461.461 0 1 1 .78.493 14.65 14.65 0 0 0-.037 15.265.462.462 0 0 1-.391.707" data-name="Path 3203"/>
        <path fill="#383735" d="M21.611 65.372a.462.462 0 0 1-.436-.313 28.723 28.723 0 0 1-1.518-8.077.461.461 0 0 1 .442-.481.489.489 0 0 1 .481.442 27.824 27.824 0 0 0 1.467 7.818.463.463 0 0 1-.436.611" data-name="Path 3204"/>
        <path fill="#383735" d="M99.954 65.955a.462.462 0 0 1-.191-.881 7.094 7.094 0 0 0 3.491-4.263 22.173 22.173 0 0 0 .864-5.836.461.461 0 1 1 .921.053 22.613 22.613 0 0 1-.912 6.079 7.991 7.991 0 0 1-3.984 4.806.461.461 0 0 1-.191.042" data-name="Path 3205"/>
      </g>
    </g>
    <g data-name="Graphic grass">
      <g fill="#383735" clip-path="url(#b)" data-name="Group 154" transform="translate(436.827 176.813)">
        <path d="M1.957 6.294a.451.451 0 0 1-.44-.351 12.142 12.142 0 0 0-1.451-3.6.452.452 0 0 1 .772-.469A13.035 13.035 0 0 1 2.4 5.742a.45.45 0 0 1-.339.541.434.434 0 0 1-.1.012" data-name="Path 3206"/>
        <path d="M5.994 6.373a.452.452 0 0 1-.451-.427A32.564 32.564 0 0 1 5.708.4a.453.453 0 0 1 .9.1 31.512 31.512 0 0 0-.162 5.4.451.451 0 0 1-.426.475h-.026" data-name="Path 3207"/>
        <path d="M10.149 6.702a.433.433 0 0 1-.147-.025.45.45 0 0 1-.28-.574 27.269 27.269 0 0 1 1.855-4.211.452.452 0 0 1 .793.433 26.456 26.456 0 0 0-1.794 4.071.451.451 0 0 1-.427.306" data-name="Path 3208"/>
      </g>
    </g>
  </g>
  <g data-name="Graphic tree 2">
    <g data-name="Graphic tree">
      <g clip-path="url(#c)" data-name="Group 152" transform="translate(235.305 95.417)">
        <path fill="#f8e2ce" d="M38.093 90.297c-3.845 3.305-6.244 2.605-10.7-.134s-6.472-8.38-4.618-12.908c-9.386 2.1-18.873-5.6-21.332-14.2-1.754-6.143.375-14.2 7.093-15.63-5.816-4.802-6.923-13.642-2.419-19.362s14-7.515 20.782-3.944a21.633 21.633 0 0 1 8.5-20.01A14.591 14.591 0 0 1 43.515.863c6.206-.234 11.413 5.1 12.674 10.681s-.419 11.272-2.083 16.714c4.03-3.222 11.161-1.8 14.043 2.414s1.544 10.149-2.461 13.391c6.242 3.34 10.215 9.98 9.885 16.523s-4.95 12.688-11.491 15.29c-1.812.719-4 1.417-4.547 3.151-.314.992 1.449 8.773-9.07 13.952-3.411 1.68-7.99.175-12.372-2.685" data-name="Path 3196"/>
        <path fill="none" d="M47.26 94.546c-3.163 0-6.479-1.551-9.1-3.192-3.88 3.1-6.657 2.34-11.21-.46a11.88 11.88 0 0 1-5.416-12.554C12.014 79.548 3.018 71.669.623 63.287A15.706 15.706 0 0 1 1.95 51.252a9.822 9.822 0 0 1 4.9-4.217C1.712 41.792.985 33.201 5.447 27.539c4.427-5.619 13.473-7.654 20.446-4.823a22.732 22.732 0 0 1 8.994-19.285 15.216 15.216 0 0 1 8.6-3.422c6.809-.262 12.235 5.568 13.539 11.347 1.164 5.15-.066 10.336-1.464 15.062a10.807 10.807 0 0 1 5.78-.646 11.122 11.122 0 0 1 7.517 4.419c2.843 4.163 2.048 9.973-1.719 13.723 5.923 3.649 9.619 10.227 9.291 16.719-.347 6.873-5.181 13.318-12.03 16.04l-.511.2c-1.555.6-3.159 1.23-3.536 2.414-.007.054-.009.351-.009.591-.014 2.52-.047 9.218-9.5 13.871a8.031 8.031 0 0 1-3.583.8m-9.167-5.1a.848.848 0 0 1 .467.139c4.681 3.055 8.775 3.99 11.528 2.635 8.5-4.186 8.532-10.116 8.544-12.346a3.836 3.836 0 0 1 .089-1.1c.624-1.966 2.706-2.776 4.545-3.491l.5-.2C70 72.601 74.4 66.763 74.718 60.548s-3.477-12.54-9.435-15.727a.855.855 0 0 1-.133-1.42c3.783-3.067 4.813-8.561 2.293-12.248a9.393 9.393 0 0 0-6.359-3.693 8.341 8.341 0 0 0-6.442 1.464.857.857 0 0 1-1.353-.919c1.549-5.061 3.3-10.8 2.065-16.274C54.2 6.636 49.469 1.501 43.547 1.717a13.574 13.574 0 0 0-7.627 3.076 20.856 20.856 0 0 0-8.175 19.208.854.854 0 0 1-1.244.879c-6.43-3.385-15.458-1.679-19.712 3.721-4.213 5.344-3.164 13.663 2.293 18.163a.855.855 0 0 1-.366 1.5 8.061 8.061 0 0 0-5.3 3.873 13.953 13.953 0 0 0-1.15 10.681c2.3 8.068 11.222 15.639 20.325 13.6a.856.856 0 0 1 .978 1.158c-1.693 4.135.184 9.344 4.274 11.859 4.419 2.715 6.333 3.1 9.692.212a.853.853 0 0 1 .558-.207" data-name="Path 3197"/>
        <path fill="#383735" d="M38.012 117.727a.856.856 0 0 1-.855-.841c-.479-29.259-.976-59.514 2.633-89.1a.856.856 0 1 1 1.7.207c-3.6 29.475-3.1 59.668-2.621 88.87a.855.855 0 0 1-.841.868Z" data-name="Path 3198"/>
        <path fill="#383735" d="M39.302 44.282a.854.854 0 0 1-.729-1.3 46.484 46.484 0 0 1 6.5-8.274.855.855 0 0 1 1.218 1.2 44.776 44.776 0 0 0-6.256 7.969.853.853 0 0 1-.728.406" data-name="Path 3199"/>
        <path fill="#383735" d="M37.676 69.865a.854.854 0 0 1-.789-.525c-3.917-9.363-7.616-18.209-14.906-25.959a.855.855 0 0 1 1.246-1.171c7.5 7.976 11.258 16.959 15.238 26.47a.854.854 0 0 1-.789 1.185" data-name="Path 3200"/>
        <path fill="#383735" d="M30.926 55.264a.846.846 0 0 1-.431-.116 26.241 26.241 0 0 0-10.157-3.383.856.856 0 1 1 .195-1.7 28 28 0 0 1 10.826 3.606.855.855 0 0 1-.432 1.593" data-name="Path 3201"/>
        <path fill="#383735" d="M38.091 83.004a.855.855 0 0 1-.785-1.191A75.2 75.2 0 0 1 56.525 55.23a.855.855 0 1 1 1.132 1.28 73.515 73.515 0 0 0-18.781 25.977.855.855 0 0 1-.785.518" data-name="Path 3202"/>
        <path fill="#383735" d="M9.736 41.307a.282.282 0 0 1-.241-.134 9.615 9.615 0 0 1 .025-10.024.285.285 0 1 1 .481.3 9.038 9.038 0 0 0-.023 9.417.285.285 0 0 1-.241.436" data-name="Path 3203"/>
        <path fill="#383735" d="M13.333 40.329a.285.285 0 0 1-.269-.193 17.719 17.719 0 0 1-.936-4.983.284.284 0 0 1 .273-.3.3.3 0 0 1 .3.273 17.165 17.165 0 0 0 .9 4.823.285.285 0 0 1-.269.377" data-name="Path 3204"/>
        <path fill="#383735" d="M61.662 40.688a.285.285 0 0 1-.118-.544 4.376 4.376 0 0 0 2.155-2.63 13.679 13.679 0 0 0 .533-3.6.284.284 0 1 1 .568.033 13.95 13.95 0 0 1-.563 3.75 4.93 4.93 0 0 1-2.458 2.965.284.284 0 0 1-.118.026" data-name="Path 3205"/>
      </g>
    </g>
    <g data-name="Graphic grass">
      <g fill="#383735" clip-path="url(#d)" data-name="Group 154" transform="translate(278.194 204.495)">
        <path d="M1.207 3.883a.278.278 0 0 1-.271-.216 7.491 7.491 0 0 0-.9-2.222.279.279 0 0 1 .476-.289 8.042 8.042 0 0 1 .962 2.386.278.278 0 0 1-.209.333.268.268 0 0 1-.063.007" data-name="Path 3206"/>
        <path d="M3.698 3.932a.279.279 0 0 1-.278-.263A20.089 20.089 0 0 1 3.523.246a.279.279 0 0 1 .554.065 19.44 19.44 0 0 0-.1 3.327.279.279 0 0 1-.263.293h-.016" data-name="Path 3207"/>
        <path d="M6.26 4.134a.267.267 0 0 1-.091-.015.278.278 0 0 1-.173-.354 16.822 16.822 0 0 1 1.144-2.6.279.279 0 0 1 .489.267 16.321 16.321 0 0 0-1.107 2.512.278.278 0 0 1-.263.189" data-name="Path 3208"/>
      </g>
    </g>
  </g>
  <g data-name="Graphic tree 2">
    <g data-name="Graphic tree">
      <g clip-path="url(#c)" data-name="Group 152" transform="translate(537.873 117.728)">
        <path fill="#f8e2ce" d="M38.093 90.297c-3.845 3.305-6.244 2.605-10.7-.134s-6.472-8.38-4.618-12.908c-9.386 2.1-18.873-5.6-21.332-14.2-1.754-6.143.375-14.2 7.093-15.63-5.816-4.802-6.923-13.642-2.419-19.362s14-7.515 20.782-3.944a21.633 21.633 0 0 1 8.5-20.01A14.591 14.591 0 0 1 43.515.863c6.206-.234 11.413 5.1 12.674 10.681s-.419 11.272-2.083 16.714c4.03-3.222 11.161-1.8 14.043 2.414s1.544 10.149-2.461 13.391c6.242 3.34 10.215 9.98 9.885 16.523s-4.95 12.688-11.491 15.29c-1.812.719-4 1.417-4.547 3.151-.314.992 1.449 8.773-9.07 13.952-3.411 1.68-7.99.175-12.372-2.685" data-name="Path 3196"/>
        <path fill="none" d="M47.26 94.546c-3.163 0-6.479-1.551-9.1-3.192-3.88 3.1-6.657 2.34-11.21-.46a11.88 11.88 0 0 1-5.416-12.554C12.014 79.548 3.018 71.669.623 63.287A15.706 15.706 0 0 1 1.95 51.252a9.822 9.822 0 0 1 4.9-4.217C1.712 41.792.985 33.201 5.447 27.539c4.427-5.619 13.473-7.654 20.446-4.823a22.732 22.732 0 0 1 8.994-19.285 15.216 15.216 0 0 1 8.6-3.422c6.809-.262 12.235 5.568 13.539 11.347 1.164 5.15-.066 10.336-1.464 15.062a10.807 10.807 0 0 1 5.78-.646 11.122 11.122 0 0 1 7.517 4.419c2.843 4.163 2.048 9.973-1.719 13.723 5.923 3.649 9.619 10.227 9.291 16.719-.347 6.873-5.181 13.318-12.03 16.04l-.511.2c-1.555.6-3.159 1.23-3.536 2.414-.007.054-.009.351-.009.591-.014 2.52-.047 9.218-9.5 13.871a8.031 8.031 0 0 1-3.583.8m-9.167-5.1a.848.848 0 0 1 .467.139c4.681 3.055 8.775 3.99 11.528 2.635 8.5-4.186 8.532-10.116 8.544-12.346a3.836 3.836 0 0 1 .089-1.1c.624-1.966 2.706-2.776 4.545-3.491l.5-.2C70 72.601 74.4 66.763 74.718 60.548s-3.477-12.54-9.435-15.727a.855.855 0 0 1-.133-1.42c3.783-3.067 4.813-8.561 2.293-12.248a9.393 9.393 0 0 0-6.359-3.693 8.341 8.341 0 0 0-6.442 1.464.857.857 0 0 1-1.353-.919c1.549-5.061 3.3-10.8 2.065-16.274C54.2 6.636 49.469 1.501 43.547 1.717a13.574 13.574 0 0 0-7.627 3.076 20.856 20.856 0 0 0-8.175 19.208.854.854 0 0 1-1.244.879c-6.43-3.385-15.458-1.679-19.712 3.721-4.213 5.344-3.164 13.663 2.293 18.163a.855.855 0 0 1-.366 1.5 8.061 8.061 0 0 0-5.3 3.873 13.953 13.953 0 0 0-1.15 10.681c2.3 8.068 11.222 15.639 20.325 13.6a.856.856 0 0 1 .978 1.158c-1.693 4.135.184 9.344 4.274 11.859 4.419 2.715 6.333 3.1 9.692.212a.853.853 0 0 1 .558-.207" data-name="Path 3197"/>
        <path fill="#383735" d="M38.012 117.727a.856.856 0 0 1-.855-.841c-.479-29.259-.976-59.514 2.633-89.1a.856.856 0 1 1 1.7.207c-3.6 29.475-3.1 59.668-2.621 88.87a.855.855 0 0 1-.841.868Z" data-name="Path 3198"/>
        <path fill="#383735" d="M39.302 44.282a.854.854 0 0 1-.729-1.3 46.484 46.484 0 0 1 6.5-8.274.855.855 0 0 1 1.218 1.2 44.776 44.776 0 0 0-6.256 7.969.853.853 0 0 1-.728.406" data-name="Path 3199"/>
        <path fill="#383735" d="M37.676 69.865a.854.854 0 0 1-.789-.525c-3.917-9.363-7.616-18.209-14.906-25.959a.855.855 0 0 1 1.246-1.171c7.5 7.976 11.258 16.959 15.238 26.47a.854.854 0 0 1-.789 1.185" data-name="Path 3200"/>
        <path fill="#383735" d="M30.926 55.264a.846.846 0 0 1-.431-.116 26.241 26.241 0 0 0-10.157-3.383.856.856 0 1 1 .195-1.7 28 28 0 0 1 10.826 3.606.855.855 0 0 1-.432 1.593" data-name="Path 3201"/>
        <path fill="#383735" d="M38.091 83.004a.855.855 0 0 1-.785-1.191A75.2 75.2 0 0 1 56.525 55.23a.855.855 0 1 1 1.132 1.28 73.515 73.515 0 0 0-18.781 25.977.855.855 0 0 1-.785.518" data-name="Path 3202"/>
        <path fill="#383735" d="M9.736 41.307a.282.282 0 0 1-.241-.134 9.615 9.615 0 0 1 .025-10.024.285.285 0 1 1 .481.3 9.038 9.038 0 0 0-.023 9.417.285.285 0 0 1-.241.436" data-name="Path 3203"/>
        <path fill="#383735" d="M13.333 40.329a.285.285 0 0 1-.269-.193 17.719 17.719 0 0 1-.936-4.983.284.284 0 0 1 .273-.3.3.3 0 0 1 .3.273 17.165 17.165 0 0 0 .9 4.823.285.285 0 0 1-.269.377" data-name="Path 3204"/>
        <path fill="#383735" d="M61.662 40.688a.285.285 0 0 1-.118-.544 4.376 4.376 0 0 0 2.155-2.63 13.679 13.679 0 0 0 .533-3.6.284.284 0 1 1 .568.033 13.95 13.95 0 0 1-.563 3.75 4.93 4.93 0 0 1-2.458 2.965.284.284 0 0 1-.118.026" data-name="Path 3205"/>
      </g>
    </g>
    <g data-name="Graphic grass">
      <g fill="#383735" clip-path="url(#d)" data-name="Group 154" transform="translate(580.762 226.806)">
        <path d="M1.207 3.883a.278.278 0 0 1-.271-.216 7.491 7.491 0 0 0-.9-2.222.279.279 0 0 1 .476-.289 8.042 8.042 0 0 1 .962 2.386.278.278 0 0 1-.209.333.268.268 0 0 1-.063.007" data-name="Path 3206"/>
        <path d="M3.698 3.932a.279.279 0 0 1-.278-.263A20.089 20.089 0 0 1 3.523.246a.279.279 0 0 1 .554.065 19.44 19.44 0 0 0-.1 3.327.279.279 0 0 1-.263.293h-.016" data-name="Path 3207"/>
        <path d="M6.26 4.134a.267.267 0 0 1-.091-.015.278.278 0 0 1-.173-.354 16.822 16.822 0 0 1 1.144-2.6.279.279 0 0 1 .489.267 16.321 16.321 0 0 0-1.107 2.512.278.278 0 0 1-.263.189" data-name="Path 3208"/>
      </g>
    </g>
  </g>
  <g data-name="Graphic tree 2">
    <g data-name="Graphic tree">
      <g clip-path="url(#c)" data-name="Group 152" transform="translate(851.555 131.97)">
        <path fill="#f8e2ce" d="M38.093 90.297c-3.845 3.305-6.244 2.605-10.7-.134s-6.472-8.38-4.618-12.908c-9.386 2.1-18.873-5.6-21.332-14.2-1.754-6.143.375-14.2 7.093-15.63-5.816-4.802-6.923-13.642-2.419-19.362s14-7.515 20.782-3.944a21.633 21.633 0 0 1 8.5-20.01A14.591 14.591 0 0 1 43.515.863c6.206-.234 11.413 5.1 12.674 10.681s-.419 11.272-2.083 16.714c4.03-3.222 11.161-1.8 14.043 2.414s1.544 10.149-2.461 13.391c6.242 3.34 10.215 9.98 9.885 16.523s-4.95 12.688-11.491 15.29c-1.812.719-4 1.417-4.547 3.151-.314.992 1.449 8.773-9.07 13.952-3.411 1.68-7.99.175-12.372-2.685" data-name="Path 3196"/>
        <path fill="none" d="M47.26 94.546c-3.163 0-6.479-1.551-9.1-3.192-3.88 3.1-6.657 2.34-11.21-.46a11.88 11.88 0 0 1-5.416-12.554C12.014 79.548 3.018 71.669.623 63.287A15.706 15.706 0 0 1 1.95 51.252a9.822 9.822 0 0 1 4.9-4.217C1.712 41.792.985 33.201 5.447 27.539c4.427-5.619 13.473-7.654 20.446-4.823a22.732 22.732 0 0 1 8.994-19.285 15.216 15.216 0 0 1 8.6-3.422c6.809-.262 12.235 5.568 13.539 11.347 1.164 5.15-.066 10.336-1.464 15.062a10.807 10.807 0 0 1 5.78-.646 11.122 11.122 0 0 1 7.517 4.419c2.843 4.163 2.048 9.973-1.719 13.723 5.923 3.649 9.619 10.227 9.291 16.719-.347 6.873-5.181 13.318-12.03 16.04l-.511.2c-1.555.6-3.159 1.23-3.536 2.414-.007.054-.009.351-.009.591-.014 2.52-.047 9.218-9.5 13.871a8.031 8.031 0 0 1-3.583.8m-9.167-5.1a.848.848 0 0 1 .467.139c4.681 3.055 8.775 3.99 11.528 2.635 8.5-4.186 8.532-10.116 8.544-12.346a3.836 3.836 0 0 1 .089-1.1c.624-1.966 2.706-2.776 4.545-3.491l.5-.2C70 72.601 74.4 66.763 74.718 60.548s-3.477-12.54-9.435-15.727a.855.855 0 0 1-.133-1.42c3.783-3.067 4.813-8.561 2.293-12.248a9.393 9.393 0 0 0-6.359-3.693 8.341 8.341 0 0 0-6.442 1.464.857.857 0 0 1-1.353-.919c1.549-5.061 3.3-10.8 2.065-16.274C54.2 6.636 49.469 1.501 43.547 1.717a13.574 13.574 0 0 0-7.627 3.076 20.856 20.856 0 0 0-8.175 19.208.854.854 0 0 1-1.244.879c-6.43-3.385-15.458-1.679-19.712 3.721-4.213 5.344-3.164 13.663 2.293 18.163a.855.855 0 0 1-.366 1.5 8.061 8.061 0 0 0-5.3 3.873 13.953 13.953 0 0 0-1.15 10.681c2.3 8.068 11.222 15.639 20.325 13.6a.856.856 0 0 1 .978 1.158c-1.693 4.135.184 9.344 4.274 11.859 4.419 2.715 6.333 3.1 9.692.212a.853.853 0 0 1 .558-.207" data-name="Path 3197"/>
        <path fill="#383735" d="M38.012 117.727a.856.856 0 0 1-.855-.841c-.479-29.259-.976-59.514 2.633-89.1a.856.856 0 1 1 1.7.207c-3.6 29.475-3.1 59.668-2.621 88.87a.855.855 0 0 1-.841.868Z" data-name="Path 3198"/>
        <path fill="#383735" d="M39.302 44.282a.854.854 0 0 1-.729-1.3 46.484 46.484 0 0 1 6.5-8.274.855.855 0 0 1 1.218 1.2 44.776 44.776 0 0 0-6.256 7.969.853.853 0 0 1-.728.406" data-name="Path 3199"/>
        <path fill="#383735" d="M37.676 69.865a.854.854 0 0 1-.789-.525c-3.917-9.363-7.616-18.209-14.906-25.959a.855.855 0 0 1 1.246-1.171c7.5 7.976 11.258 16.959 15.238 26.47a.854.854 0 0 1-.789 1.185" data-name="Path 3200"/>
        <path fill="#383735" d="M30.926 55.264a.846.846 0 0 1-.431-.116 26.241 26.241 0 0 0-10.157-3.383.856.856 0 1 1 .195-1.7 28 28 0 0 1 10.826 3.606.855.855 0 0 1-.432 1.593" data-name="Path 3201"/>
        <path fill="#383735" d="M38.091 83.004a.855.855 0 0 1-.785-1.191A75.2 75.2 0 0 1 56.525 55.23a.855.855 0 1 1 1.132 1.28 73.515 73.515 0 0 0-18.781 25.977.855.855 0 0 1-.785.518" data-name="Path 3202"/>
        <path fill="#383735" d="M9.736 41.307a.282.282 0 0 1-.241-.134 9.615 9.615 0 0 1 .025-10.024.285.285 0 1 1 .481.3 9.038 9.038 0 0 0-.023 9.417.285.285 0 0 1-.241.436" data-name="Path 3203"/>
        <path fill="#383735" d="M13.333 40.329a.285.285 0 0 1-.269-.193 17.719 17.719 0 0 1-.936-4.983.284.284 0 0 1 .273-.3.3.3 0 0 1 .3.273 17.165 17.165 0 0 0 .9 4.823.285.285 0 0 1-.269.377" data-name="Path 3204"/>
        <path fill="#383735" d="M61.662 40.688a.285.285 0 0 1-.118-.544 4.376 4.376 0 0 0 2.155-2.63 13.679 13.679 0 0 0 .533-3.6.284.284 0 1 1 .568.033 13.95 13.95 0 0 1-.563 3.75 4.93 4.93 0 0 1-2.458 2.965.284.284 0 0 1-.118.026" data-name="Path 3205"/>
      </g>
    </g>
    <g data-name="Graphic grass">
      <g fill="#383735" clip-path="url(#d)" data-name="Group 154" transform="translate(894.444 241.048)">
        <path d="M1.207 3.883a.278.278 0 0 1-.271-.216 7.491 7.491 0 0 0-.9-2.222.279.279 0 0 1 .476-.289 8.042 8.042 0 0 1 .962 2.386.278.278 0 0 1-.209.333.268.268 0 0 1-.063.007" data-name="Path 3206"/>
        <path d="M3.698 3.932a.279.279 0 0 1-.278-.263A20.089 20.089 0 0 1 3.523.246a.279.279 0 0 1 .554.065 19.44 19.44 0 0 0-.1 3.327.279.279 0 0 1-.263.293h-.016" data-name="Path 3207"/>
        <path d="M6.26 4.134a.267.267 0 0 1-.091-.015.278.278 0 0 1-.173-.354 16.822 16.822 0 0 1 1.144-2.6.279.279 0 0 1 .489.267 16.321 16.321 0 0 0-1.107 2.512.278.278 0 0 1-.263.189" data-name="Path 3208"/>
      </g>
    </g>
  </g>
  <g data-name="Graphic tree 2">
    <g data-name="Graphic tree">
      <g clip-path="url(#c)" data-name="Group 152" transform="translate(669.873 73.107)">
        <path fill="#f8e2ce" d="M38.093 90.297c-3.845 3.305-6.244 2.605-10.7-.134s-6.472-8.38-4.618-12.908c-9.386 2.1-18.873-5.6-21.332-14.2-1.754-6.143.375-14.2 7.093-15.63-5.816-4.802-6.923-13.642-2.419-19.362s14-7.515 20.782-3.944a21.633 21.633 0 0 1 8.5-20.01A14.591 14.591 0 0 1 43.515.863c6.206-.234 11.413 5.1 12.674 10.681s-.419 11.272-2.083 16.714c4.03-3.222 11.161-1.8 14.043 2.414s1.544 10.149-2.461 13.391c6.242 3.34 10.215 9.98 9.885 16.523s-4.95 12.688-11.491 15.29c-1.812.719-4 1.417-4.547 3.151-.314.992 1.449 8.773-9.07 13.952-3.411 1.68-7.99.175-12.372-2.685" data-name="Path 3196"/>
        <path fill="none" d="M47.26 94.546c-3.163 0-6.479-1.551-9.1-3.192-3.88 3.1-6.657 2.34-11.21-.46a11.88 11.88 0 0 1-5.416-12.554C12.014 79.548 3.018 71.669.623 63.287A15.706 15.706 0 0 1 1.95 51.252a9.822 9.822 0 0 1 4.9-4.217C1.712 41.792.985 33.201 5.447 27.539c4.427-5.619 13.473-7.654 20.446-4.823a22.732 22.732 0 0 1 8.994-19.285 15.216 15.216 0 0 1 8.6-3.422c6.809-.262 12.235 5.568 13.539 11.347 1.164 5.15-.066 10.336-1.464 15.062a10.807 10.807 0 0 1 5.78-.646 11.122 11.122 0 0 1 7.517 4.419c2.843 4.163 2.048 9.973-1.719 13.723 5.923 3.649 9.619 10.227 9.291 16.719-.347 6.873-5.181 13.318-12.03 16.04l-.511.2c-1.555.6-3.159 1.23-3.536 2.414-.007.054-.009.351-.009.591-.014 2.52-.047 9.218-9.5 13.871a8.031 8.031 0 0 1-3.583.8m-9.167-5.1a.848.848 0 0 1 .467.139c4.681 3.055 8.775 3.99 11.528 2.635 8.5-4.186 8.532-10.116 8.544-12.346a3.836 3.836 0 0 1 .089-1.1c.624-1.966 2.706-2.776 4.545-3.491l.5-.2C70 72.601 74.4 66.763 74.718 60.548s-3.477-12.54-9.435-15.727a.855.855 0 0 1-.133-1.42c3.783-3.067 4.813-8.561 2.293-12.248a9.393 9.393 0 0 0-6.359-3.693 8.341 8.341 0 0 0-6.442 1.464.857.857 0 0 1-1.353-.919c1.549-5.061 3.3-10.8 2.065-16.274C54.2 6.636 49.469 1.501 43.547 1.717a13.574 13.574 0 0 0-7.627 3.076 20.856 20.856 0 0 0-8.175 19.208.854.854 0 0 1-1.244.879c-6.43-3.385-15.458-1.679-19.712 3.721-4.213 5.344-3.164 13.663 2.293 18.163a.855.855 0 0 1-.366 1.5 8.061 8.061 0 0 0-5.3 3.873 13.953 13.953 0 0 0-1.15 10.681c2.3 8.068 11.222 15.639 20.325 13.6a.856.856 0 0 1 .978 1.158c-1.693 4.135.184 9.344 4.274 11.859 4.419 2.715 6.333 3.1 9.692.212a.853.853 0 0 1 .558-.207" data-name="Path 3197"/>
        <path fill="#383735" d="M38.012 117.727a.856.856 0 0 1-.855-.841c-.479-29.259-.976-59.514 2.633-89.1a.856.856 0 1 1 1.7.207c-3.6 29.475-3.1 59.668-2.621 88.87a.855.855 0 0 1-.841.868Z" data-name="Path 3198"/>
        <path fill="#383735" d="M39.302 44.282a.854.854 0 0 1-.729-1.3 46.484 46.484 0 0 1 6.5-8.274.855.855 0 0 1 1.218 1.2 44.776 44.776 0 0 0-6.256 7.969.853.853 0 0 1-.728.406" data-name="Path 3199"/>
        <path fill="#383735" d="M37.676 69.865a.854.854 0 0 1-.789-.525c-3.917-9.363-7.616-18.209-14.906-25.959a.855.855 0 0 1 1.246-1.171c7.5 7.976 11.258 16.959 15.238 26.47a.854.854 0 0 1-.789 1.185" data-name="Path 3200"/>
        <path fill="#383735" d="M30.926 55.264a.846.846 0 0 1-.431-.116 26.241 26.241 0 0 0-10.157-3.383.856.856 0 1 1 .195-1.7 28 28 0 0 1 10.826 3.606.855.855 0 0 1-.432 1.593" data-name="Path 3201"/>
        <path fill="#383735" d="M38.091 83.004a.855.855 0 0 1-.785-1.191A75.2 75.2 0 0 1 56.525 55.23a.855.855 0 1 1 1.132 1.28 73.515 73.515 0 0 0-18.781 25.977.855.855 0 0 1-.785.518" data-name="Path 3202"/>
        <path fill="#383735" d="M9.736 41.307a.282.282 0 0 1-.241-.134 9.615 9.615 0 0 1 .025-10.024.285.285 0 1 1 .481.3 9.038 9.038 0 0 0-.023 9.417.285.285 0 0 1-.241.436" data-name="Path 3203"/>
        <path fill="#383735" d="M13.333 40.329a.285.285 0 0 1-.269-.193 17.719 17.719 0 0 1-.936-4.983.284.284 0 0 1 .273-.3.3.3 0 0 1 .3.273 17.165 17.165 0 0 0 .9 4.823.285.285 0 0 1-.269.377" data-name="Path 3204"/>
        <path fill="#383735" d="M61.662 40.688a.285.285 0 0 1-.118-.544 4.376 4.376 0 0 0 2.155-2.63 13.679 13.679 0 0 0 .533-3.6.284.284 0 1 1 .568.033 13.95 13.95 0 0 1-.563 3.75 4.93 4.93 0 0 1-2.458 2.965.284.284 0 0 1-.118.026" data-name="Path 3205"/>
      </g>
    </g>
    <g data-name="Graphic grass">
      <g fill="#383735" clip-path="url(#d)" data-name="Group 154" transform="translate(712.762 182.185)">
        <path d="M1.207 3.883a.278.278 0 0 1-.271-.216 7.491 7.491 0 0 0-.9-2.222.279.279 0 0 1 .476-.289 8.042 8.042 0 0 1 .962 2.386.278.278 0 0 1-.209.333.268.268 0 0 1-.063.007" data-name="Path 3206"/>
        <path d="M3.698 3.932a.279.279 0 0 1-.278-.263A20.089 20.089 0 0 1 3.523.246a.279.279 0 0 1 .554.065 19.44 19.44 0 0 0-.1 3.327.279.279 0 0 1-.263.293h-.016" data-name="Path 3207"/>
        <path d="M6.26 4.134a.267.267 0 0 1-.091-.015.278.278 0 0 1-.173-.354 16.822 16.822 0 0 1 1.144-2.6.279.279 0 0 1 .489.267 16.321 16.321 0 0 0-1.107 2.512.278.278 0 0 1-.263.189" data-name="Path 3208"/>
      </g>
    </g>
  </g>
</svg>
