<svg xmlns="http://www.w3.org/2000/svg" xmlns:xlink="http://www.w3.org/1999/xlink" width="123.916" height="190.833" viewBox="0 0 123.916 190.833">
  <defs>
    <clipPath id="clip-path">
      <rect id="Rectangle_162" data-name="Rectangle 162" width="123.916" height="190.833" fill="none"/>
    </clipPath>
    <clipPath id="clip-path-2">
      <rect id="Rectangle_163" data-name="Rectangle 163" width="12.424" height="6.701" fill="#383735"/>
    </clipPath>
  </defs>
  <g id="Graphic_tree" data-name="Graphic tree" transform="translate(0 0)">
    <g id="Graphic_tree-2" data-name="Graphic tree" transform="translate(0 0)">
      <g id="Group_152" data-name="Group 152" transform="translate(0 0)" clip-path="url(#clip-path)">
        <path id="Path_3196" data-name="Path 3196" d="M60.851,145.476c-6.233,5.358-10.122,4.223-17.34-.217s-10.49-13.584-7.486-20.924c-15.215,3.4-30.593-9.071-34.579-23.022-2.844-9.958.608-23.011,11.5-25.336C3.511,68.2,1.718,53.868,9.018,44.6s22.687-12.182,33.687-6.394C40.962,26.121,46.332,13.486,56.49,5.771,60.229,2.933,64.745.687,69.641.5,79.7.126,88.141,8.778,90.185,17.819s-.679,18.272-3.376,27.093c6.532-5.223,18.092-2.922,22.763,3.913s2.5,16.451-3.989,21.713c10.119,5.414,16.558,16.178,16.023,26.783s-8.024,20.567-18.627,24.784c-2.937,1.166-6.478,2.3-7.371,5.107-.51,1.608,2.348,14.221-14.7,22.616-5.53,2.723-12.951.284-20.054-4.353" transform="translate(0.898 0.894)" fill="#f8e2ce"/>
        <path id="Path_3197" data-name="Path 3197" d="M76.608,153.255c-5.127,0-10.5-2.514-14.756-5.175-6.29,5.017-10.792,3.792-18.171-.746-7.022-4.319-10.583-12.886-8.779-20.35-15.429,1.96-30.01-10.811-33.892-24.4-1.9-6.659-1.078-14.133,2.151-19.508a15.922,15.922,0,0,1,7.948-6.836c-8.334-8.5-9.513-22.425-2.281-31.6,7.177-9.108,21.839-12.408,33.143-7.818A36.848,36.848,0,0,1,56.55,5.56C61.171,2.052,65.858.186,70.484.014,81.521-.411,90.316,9.04,92.431,18.407c1.886,8.348-.107,16.755-2.373,24.415a17.518,17.518,0,0,1,9.37-1.047,18.029,18.029,0,0,1,12.185,7.162c4.609,6.749,3.319,16.166-2.787,22.245,9.6,5.915,15.592,16.577,15.06,27.1-.563,11.141-8.4,21.589-19.5,26l-.828.327c-2.52.98-5.121,1.993-5.732,3.913-.011.087-.014.569-.014.957-.023,4.085-.076,14.942-15.395,22.484a13.018,13.018,0,0,1-5.808,1.289m-14.86-8.272a1.375,1.375,0,0,1,.757.225c7.588,4.952,14.224,6.467,18.686,4.271,13.782-6.785,13.829-16.4,13.849-20.012a6.219,6.219,0,0,1,.144-1.779c1.011-3.187,4.386-4.5,7.368-5.659l.811-.318c10.11-4.02,17.245-13.492,17.754-23.565s-5.637-20.327-15.293-25.494a1.386,1.386,0,0,1-.217-2.3c6.132-4.972,7.8-13.877,3.716-19.854a15.225,15.225,0,0,0-10.307-5.986,13.521,13.521,0,0,0-10.442,2.373A1.389,1.389,0,0,1,86.38,45.4c2.511-8.2,5.355-17.5,3.348-26.381C87.861,10.755,80.189,2.432,70.588,2.781c-4.046.152-8.2,1.83-12.363,4.986C48.51,15.144,43.309,27.366,44.973,38.9a1.384,1.384,0,0,1-2.016,1.425C32.535,34.841,17.9,37.6,11.005,46.353c-6.83,8.669-5.13,22.155,3.716,29.449a1.385,1.385,0,0,1-.594,2.424,13.066,13.066,0,0,0-8.593,6.278C2.688,89.241,1.976,95.88,3.674,101.826,7.41,114.9,21.864,127.176,36.62,123.874a1.387,1.387,0,0,1,1.585,1.878c-2.745,6.7.3,15.147,6.929,19.224,7.162,4.4,10.265,5.026,15.71.344a1.383,1.383,0,0,1,.9-.335" transform="translate(0 0.001)" fill="none"/>
        <path id="Path_3198" data-name="Path 3198" d="M23.126,162.58a1.387,1.387,0,0,1-1.385-1.363c-.777-47.429-1.582-96.471,4.268-144.438a1.386,1.386,0,1,1,2.751.335c-5.828,47.778-5.026,96.722-4.248,144.058a1.386,1.386,0,0,1-1.363,1.408Z" transform="translate(38.49 28.255)" fill="#383735"/>
        <path id="Path_3199" data-name="Path 3199" d="M23.522,35.77a1.385,1.385,0,0,1-1.182-2.112A75.349,75.349,0,0,1,32.87,20.246a1.387,1.387,0,0,1,1.974,1.948A72.582,72.582,0,0,0,24.7,35.112a1.383,1.383,0,0,1-1.18.659" transform="translate(40.186 36.01)" fill="#383735"/>
        <path id="Path_3200" data-name="Path 3200" d="M38.339,69.411a1.384,1.384,0,0,1-1.278-.85C30.712,53.383,24.715,39.044,12.9,26.481a1.385,1.385,0,0,1,2.019-1.9c12.16,12.928,18.25,27.49,24.7,42.907a1.385,1.385,0,0,1-1.278,1.92" transform="translate(22.733 43.838)" fill="#383735"/>
        <path id="Path_3201" data-name="Path 3201" d="M29.665,37.258a1.371,1.371,0,0,1-.7-.189A42.536,42.536,0,0,0,12.5,31.585a1.386,1.386,0,1,1,.315-2.753,45.388,45.388,0,0,1,17.549,5.845,1.386,1.386,0,0,1-.7,2.582" transform="translate(20.467 52.325)" fill="#383735"/>
        <path id="Path_3202" data-name="Path 3202" d="M22.824,77.044a1.386,1.386,0,0,1-1.273-1.931A121.891,121.891,0,0,1,52.7,32.022,1.385,1.385,0,1,1,54.54,34.1,119.167,119.167,0,0,0,24.1,76.2a1.385,1.385,0,0,1-1.273.839" transform="translate(38.922 57.504)" fill="#383735"/>
        <path id="Path_3203" data-name="Path 3203" d="M7.319,34.538a.457.457,0,0,1-.391-.217,15.586,15.586,0,0,1,.039-16.248.461.461,0,1,1,.78.493A14.65,14.65,0,0,0,7.71,33.831a.462.462,0,0,1-.391.707" transform="translate(8.464 32.42)" fill="#383735"/>
        <path id="Path_3204" data-name="Path 3204" d="M8.936,28.939a.462.462,0,0,1-.436-.313,28.723,28.723,0,0,1-1.518-8.077.461.461,0,0,1,.442-.481.489.489,0,0,1,.481.442,27.824,27.824,0,0,0,1.467,7.818.463.463,0,0,1-.436.611" transform="translate(12.675 36.433)" fill="#383735"/>
        <path id="Path_3205" data-name="Path 3205" d="M35.8,30.786a.462.462,0,0,1-.191-.881A7.094,7.094,0,0,0,39.1,25.642a22.173,22.173,0,0,0,.864-5.836.461.461,0,1,1,.921.053,22.613,22.613,0,0,1-.912,6.079,7.991,7.991,0,0,1-3.984,4.806.461.461,0,0,1-.191.042" transform="translate(64.154 35.169)" fill="#383735"/>
      </g>
    </g>
    <g id="Graphic_grass" data-name="Graphic grass" transform="translate(69.522 176.813)">
      <g id="Group_154" data-name="Group 154" transform="translate(0 0)" clip-path="url(#clip-path-2)">
        <path id="Path_3206" data-name="Path 3206" d="M1.957,6.442a.451.451,0,0,1-.44-.351,12.142,12.142,0,0,0-1.451-3.6.452.452,0,0,1,.772-.469A13.035,13.035,0,0,1,2.4,5.89a.45.45,0,0,1-.339.541.434.434,0,0,1-.1.012" transform="translate(0 -0.148)" fill="#383735"/>
        <path id="Path_3207" data-name="Path 3207" d="M6.486,6.373a.452.452,0,0,1-.451-.427A32.564,32.564,0,0,1,6.2.4a.452.452,0,0,1,.9.1A31.512,31.512,0,0,0,6.938,5.9a.451.451,0,0,1-.426.475H6.486" transform="translate(-0.492 0)" fill="#383735"/>
        <path id="Path_3208" data-name="Path 3208" d="M11.018,6.85a.433.433,0,0,1-.147-.025.45.45,0,0,1-.28-.574A27.269,27.269,0,0,1,12.446,2.04a.452.452,0,0,1,.793.433,26.456,26.456,0,0,0-1.794,4.071.451.451,0,0,1-.427.306" transform="translate(-0.869 -0.148)" fill="#383735"/>
      </g>
    </g>
  </g>
</svg>
