<svg xmlns="http://www.w3.org/2000/svg" xmlns:xlink="http://www.w3.org/1999/xlink" width="928" height="249.697" viewBox="0 0 928 249.697">
  <defs>
    <clipPath id="clip-path">
      <rect id="Rectangle_162" data-name="Rectangle 162" width="123.916" height="190.833" fill="none"/>
    </clipPath>
    <clipPath id="clip-path-2">
      <rect id="Rectangle_163" data-name="Rectangle 163" width="12.424" height="6.701" fill="#383735"/>
    </clipPath>
    <clipPath id="clip-path-5">
      <rect id="Rectangle_162-3" data-name="Rectangle 162" width="76.445" height="117.727" fill="none"/>
    </clipPath>
    <clipPath id="clip-path-6">
      <rect id="Rectangle_163-3" data-name="Rectangle 163" width="7.665" height="4.134" fill="#383735"/>
    </clipPath>
  </defs>
  <g id="trees" transform="translate(-234 -208.398)">
    <g id="Graphic_tree_2" data-name="Graphic tree 2" transform="translate(234 230.709)">
      <g id="Graphic_tree" data-name="Graphic tree" transform="translate(0 0)">
        <g id="Group_152" data-name="Group 152" transform="translate(0 0)" clip-path="url(#clip-path)">
          <path id="Path_3196" data-name="Path 3196" d="M60.851,145.476c-6.233,5.358-10.122,4.223-17.34-.217s-10.49-13.584-7.486-20.924c-15.215,3.4-30.593-9.071-34.579-23.022-2.844-9.958.608-23.011,11.5-25.336C3.511,68.2,1.718,53.868,9.018,44.6s22.687-12.182,33.687-6.394C40.962,26.121,46.332,13.486,56.49,5.771,60.229,2.933,64.745.687,69.641.5,79.7.126,88.141,8.778,90.185,17.819s-.679,18.272-3.376,27.093c6.532-5.223,18.092-2.922,22.763,3.913s2.5,16.451-3.989,21.713c10.119,5.414,16.558,16.178,16.023,26.783s-8.024,20.567-18.627,24.784c-2.937,1.166-6.478,2.3-7.371,5.107-.51,1.608,2.348,14.221-14.7,22.616-5.53,2.723-12.951.284-20.054-4.353" transform="translate(0.898 0.894)" fill="#f8e2ce"/>
          <path id="Path_3197" data-name="Path 3197" d="M76.608,153.255c-5.127,0-10.5-2.514-14.756-5.175-6.29,5.017-10.792,3.792-18.171-.746-7.022-4.319-10.583-12.886-8.779-20.35-15.429,1.96-30.01-10.811-33.892-24.4-1.9-6.659-1.078-14.133,2.151-19.508a15.922,15.922,0,0,1,7.948-6.836c-8.334-8.5-9.513-22.425-2.281-31.6,7.177-9.108,21.839-12.408,33.143-7.818A36.848,36.848,0,0,1,56.55,5.56C61.171,2.052,65.858.186,70.484.014,81.521-.411,90.316,9.04,92.431,18.407c1.886,8.348-.107,16.755-2.373,24.415a17.518,17.518,0,0,1,9.37-1.047,18.029,18.029,0,0,1,12.185,7.162c4.609,6.749,3.319,16.166-2.787,22.245,9.6,5.915,15.592,16.577,15.06,27.1-.563,11.141-8.4,21.589-19.5,26l-.828.327c-2.52.98-5.121,1.993-5.732,3.913-.011.087-.014.569-.014.957-.023,4.085-.076,14.942-15.395,22.484a13.018,13.018,0,0,1-5.808,1.289m-14.86-8.272a1.375,1.375,0,0,1,.757.225c7.588,4.952,14.224,6.467,18.686,4.271,13.782-6.785,13.829-16.4,13.849-20.012a6.219,6.219,0,0,1,.144-1.779c1.011-3.187,4.386-4.5,7.368-5.659l.811-.318c10.11-4.02,17.245-13.492,17.754-23.565s-5.637-20.327-15.293-25.494a1.386,1.386,0,0,1-.217-2.3c6.132-4.972,7.8-13.877,3.716-19.854a15.225,15.225,0,0,0-10.307-5.986,13.521,13.521,0,0,0-10.442,2.373A1.389,1.389,0,0,1,86.38,45.4c2.511-8.2,5.355-17.5,3.348-26.381C87.861,10.755,80.189,2.432,70.588,2.781c-4.046.152-8.2,1.83-12.363,4.986C48.51,15.144,43.309,27.366,44.973,38.9a1.384,1.384,0,0,1-2.016,1.425C32.535,34.841,17.9,37.6,11.005,46.353c-6.83,8.669-5.13,22.155,3.716,29.449a1.385,1.385,0,0,1-.594,2.424,13.066,13.066,0,0,0-8.593,6.278C2.688,89.241,1.976,95.88,3.674,101.826,7.41,114.9,21.864,127.176,36.62,123.874a1.387,1.387,0,0,1,1.585,1.878c-2.745,6.7.3,15.147,6.929,19.224,7.162,4.4,10.265,5.026,15.71.344a1.383,1.383,0,0,1,.9-.335" transform="translate(0 0.001)" fill="none"/>
          <path id="Path_3198" data-name="Path 3198" d="M23.126,162.58a1.387,1.387,0,0,1-1.385-1.363c-.777-47.429-1.582-96.471,4.268-144.438a1.386,1.386,0,1,1,2.751.335c-5.828,47.778-5.026,96.722-4.248,144.058a1.386,1.386,0,0,1-1.363,1.408Z" transform="translate(38.49 28.255)" fill="#383735"/>
          <path id="Path_3199" data-name="Path 3199" d="M23.522,35.77a1.385,1.385,0,0,1-1.182-2.112A75.349,75.349,0,0,1,32.87,20.246a1.387,1.387,0,0,1,1.974,1.948A72.582,72.582,0,0,0,24.7,35.112a1.383,1.383,0,0,1-1.18.659" transform="translate(40.186 36.01)" fill="#383735"/>
          <path id="Path_3200" data-name="Path 3200" d="M38.339,69.411a1.384,1.384,0,0,1-1.278-.85C30.712,53.383,24.715,39.044,12.9,26.481a1.385,1.385,0,0,1,2.019-1.9c12.16,12.928,18.25,27.49,24.7,42.907a1.385,1.385,0,0,1-1.278,1.92" transform="translate(22.733 43.838)" fill="#383735"/>
          <path id="Path_3201" data-name="Path 3201" d="M29.665,37.258a1.371,1.371,0,0,1-.7-.189A42.536,42.536,0,0,0,12.5,31.585a1.386,1.386,0,1,1,.315-2.753,45.388,45.388,0,0,1,17.549,5.845,1.386,1.386,0,0,1-.7,2.582" transform="translate(20.467 52.325)" fill="#383735"/>
          <path id="Path_3202" data-name="Path 3202" d="M22.824,77.044a1.386,1.386,0,0,1-1.273-1.931A121.891,121.891,0,0,1,52.7,32.022,1.385,1.385,0,1,1,54.54,34.1,119.167,119.167,0,0,0,24.1,76.2a1.385,1.385,0,0,1-1.273.839" transform="translate(38.922 57.504)" fill="#383735"/>
          <path id="Path_3203" data-name="Path 3203" d="M7.319,34.538a.457.457,0,0,1-.391-.217,15.586,15.586,0,0,1,.039-16.248.461.461,0,1,1,.78.493A14.65,14.65,0,0,0,7.71,33.831a.462.462,0,0,1-.391.707" transform="translate(8.464 32.42)" fill="#383735"/>
          <path id="Path_3204" data-name="Path 3204" d="M8.936,28.939a.462.462,0,0,1-.436-.313,28.723,28.723,0,0,1-1.518-8.077.461.461,0,0,1,.442-.481.489.489,0,0,1,.481.442,27.824,27.824,0,0,0,1.467,7.818.463.463,0,0,1-.436.611" transform="translate(12.675 36.433)" fill="#383735"/>
          <path id="Path_3205" data-name="Path 3205" d="M35.8,30.786a.462.462,0,0,1-.191-.881A7.094,7.094,0,0,0,39.1,25.642a22.173,22.173,0,0,0,.864-5.836.461.461,0,1,1,.921.053,22.613,22.613,0,0,1-.912,6.079,7.991,7.991,0,0,1-3.984,4.806.461.461,0,0,1-.191.042" transform="translate(64.154 35.169)" fill="#383735"/>
        </g>
      </g>
      <g id="Graphic_grass" data-name="Graphic grass" transform="translate(69.522 176.813)">
        <g id="Group_154" data-name="Group 154" transform="translate(0 0)" clip-path="url(#clip-path-2)">
          <path id="Path_3206" data-name="Path 3206" d="M1.957,6.442a.451.451,0,0,1-.44-.351,12.142,12.142,0,0,0-1.451-3.6.452.452,0,0,1,.772-.469A13.035,13.035,0,0,1,2.4,5.89a.45.45,0,0,1-.339.541.434.434,0,0,1-.1.012" transform="translate(0 -0.148)" fill="#383735"/>
          <path id="Path_3207" data-name="Path 3207" d="M6.486,6.373a.452.452,0,0,1-.451-.427A32.564,32.564,0,0,1,6.2.4a.452.452,0,0,1,.9.1A31.512,31.512,0,0,0,6.938,5.9a.451.451,0,0,1-.426.475H6.486" transform="translate(-0.492 0)" fill="#383735"/>
          <path id="Path_3208" data-name="Path 3208" d="M11.018,6.85a.433.433,0,0,1-.147-.025.45.45,0,0,1-.28-.574A27.269,27.269,0,0,1,12.446,2.04a.452.452,0,0,1,.793.433,26.456,26.456,0,0,0-1.794,4.071.451.451,0,0,1-.427.306" transform="translate(-0.869 -0.148)" fill="#383735"/>
        </g>
      </g>
    </g>
    <g id="Graphic_tree_2-2" data-name="Graphic tree 2" transform="translate(601.305 208.398)">
      <g id="Graphic_tree-2" data-name="Graphic tree" transform="translate(0 0)">
        <g id="Group_152-2" data-name="Group 152" transform="translate(0 0)" clip-path="url(#clip-path)">
          <path id="Path_3196-2" data-name="Path 3196" d="M60.851,145.476c-6.233,5.358-10.122,4.223-17.34-.217s-10.49-13.584-7.486-20.924c-15.215,3.4-30.593-9.071-34.579-23.022-2.844-9.958.608-23.011,11.5-25.336C3.511,68.2,1.718,53.868,9.018,44.6s22.687-12.182,33.687-6.394C40.962,26.121,46.332,13.486,56.49,5.771,60.229,2.933,64.745.687,69.641.5,79.7.126,88.141,8.778,90.185,17.819s-.679,18.272-3.376,27.093c6.532-5.223,18.092-2.922,22.763,3.913s2.5,16.451-3.989,21.713c10.119,5.414,16.558,16.178,16.023,26.783s-8.024,20.567-18.627,24.784c-2.937,1.166-6.478,2.3-7.371,5.107-.51,1.608,2.348,14.221-14.7,22.616-5.53,2.723-12.951.284-20.054-4.353" transform="translate(0.898 0.894)" fill="#f8e2ce"/>
          <path id="Path_3197-2" data-name="Path 3197" d="M76.608,153.255c-5.127,0-10.5-2.514-14.756-5.175-6.29,5.017-10.792,3.792-18.171-.746-7.022-4.319-10.583-12.886-8.779-20.35-15.429,1.96-30.01-10.811-33.892-24.4-1.9-6.659-1.078-14.133,2.151-19.508a15.922,15.922,0,0,1,7.948-6.836c-8.334-8.5-9.513-22.425-2.281-31.6,7.177-9.108,21.839-12.408,33.143-7.818A36.848,36.848,0,0,1,56.55,5.56C61.171,2.052,65.858.186,70.484.014,81.521-.411,90.316,9.04,92.431,18.407c1.886,8.348-.107,16.755-2.373,24.415a17.518,17.518,0,0,1,9.37-1.047,18.029,18.029,0,0,1,12.185,7.162c4.609,6.749,3.319,16.166-2.787,22.245,9.6,5.915,15.592,16.577,15.06,27.1-.563,11.141-8.4,21.589-19.5,26l-.828.327c-2.52.98-5.121,1.993-5.732,3.913-.011.087-.014.569-.014.957-.023,4.085-.076,14.942-15.395,22.484a13.018,13.018,0,0,1-5.808,1.289m-14.86-8.272a1.375,1.375,0,0,1,.757.225c7.588,4.952,14.224,6.467,18.686,4.271,13.782-6.785,13.829-16.4,13.849-20.012a6.219,6.219,0,0,1,.144-1.779c1.011-3.187,4.386-4.5,7.368-5.659l.811-.318c10.11-4.02,17.245-13.492,17.754-23.565s-5.637-20.327-15.293-25.494a1.386,1.386,0,0,1-.217-2.3c6.132-4.972,7.8-13.877,3.716-19.854a15.225,15.225,0,0,0-10.307-5.986,13.521,13.521,0,0,0-10.442,2.373A1.389,1.389,0,0,1,86.38,45.4c2.511-8.2,5.355-17.5,3.348-26.381C87.861,10.755,80.189,2.432,70.588,2.781c-4.046.152-8.2,1.83-12.363,4.986C48.51,15.144,43.309,27.366,44.973,38.9a1.384,1.384,0,0,1-2.016,1.425C32.535,34.841,17.9,37.6,11.005,46.353c-6.83,8.669-5.13,22.155,3.716,29.449a1.385,1.385,0,0,1-.594,2.424,13.066,13.066,0,0,0-8.593,6.278C2.688,89.241,1.976,95.88,3.674,101.826,7.41,114.9,21.864,127.176,36.62,123.874a1.387,1.387,0,0,1,1.585,1.878c-2.745,6.7.3,15.147,6.929,19.224,7.162,4.4,10.265,5.026,15.71.344a1.383,1.383,0,0,1,.9-.335" transform="translate(0 0.001)" fill="none"/>
          <path id="Path_3198-2" data-name="Path 3198" d="M23.126,162.58a1.387,1.387,0,0,1-1.385-1.363c-.777-47.429-1.582-96.471,4.268-144.438a1.386,1.386,0,1,1,2.751.335c-5.828,47.778-5.026,96.722-4.248,144.058a1.386,1.386,0,0,1-1.363,1.408Z" transform="translate(38.49 28.255)" fill="#383735"/>
          <path id="Path_3199-2" data-name="Path 3199" d="M23.522,35.77a1.385,1.385,0,0,1-1.182-2.112A75.349,75.349,0,0,1,32.87,20.246a1.387,1.387,0,0,1,1.974,1.948A72.582,72.582,0,0,0,24.7,35.112a1.383,1.383,0,0,1-1.18.659" transform="translate(40.186 36.01)" fill="#383735"/>
          <path id="Path_3200-2" data-name="Path 3200" d="M38.339,69.411a1.384,1.384,0,0,1-1.278-.85C30.712,53.383,24.715,39.044,12.9,26.481a1.385,1.385,0,0,1,2.019-1.9c12.16,12.928,18.25,27.49,24.7,42.907a1.385,1.385,0,0,1-1.278,1.92" transform="translate(22.733 43.838)" fill="#383735"/>
          <path id="Path_3201-2" data-name="Path 3201" d="M29.665,37.258a1.371,1.371,0,0,1-.7-.189A42.536,42.536,0,0,0,12.5,31.585a1.386,1.386,0,1,1,.315-2.753,45.388,45.388,0,0,1,17.549,5.845,1.386,1.386,0,0,1-.7,2.582" transform="translate(20.467 52.325)" fill="#383735"/>
          <path id="Path_3202-2" data-name="Path 3202" d="M22.824,77.044a1.386,1.386,0,0,1-1.273-1.931A121.891,121.891,0,0,1,52.7,32.022,1.385,1.385,0,1,1,54.54,34.1,119.167,119.167,0,0,0,24.1,76.2a1.385,1.385,0,0,1-1.273.839" transform="translate(38.922 57.504)" fill="#383735"/>
          <path id="Path_3203-2" data-name="Path 3203" d="M7.319,34.538a.457.457,0,0,1-.391-.217,15.586,15.586,0,0,1,.039-16.248.461.461,0,1,1,.78.493A14.65,14.65,0,0,0,7.71,33.831a.462.462,0,0,1-.391.707" transform="translate(8.464 32.42)" fill="#383735"/>
          <path id="Path_3204-2" data-name="Path 3204" d="M8.936,28.939a.462.462,0,0,1-.436-.313,28.723,28.723,0,0,1-1.518-8.077.461.461,0,0,1,.442-.481.489.489,0,0,1,.481.442,27.824,27.824,0,0,0,1.467,7.818.463.463,0,0,1-.436.611" transform="translate(12.675 36.433)" fill="#383735"/>
          <path id="Path_3205-2" data-name="Path 3205" d="M35.8,30.786a.462.462,0,0,1-.191-.881A7.094,7.094,0,0,0,39.1,25.642a22.173,22.173,0,0,0,.864-5.836.461.461,0,1,1,.921.053,22.613,22.613,0,0,1-.912,6.079,7.991,7.991,0,0,1-3.984,4.806.461.461,0,0,1-.191.042" transform="translate(64.154 35.169)" fill="#383735"/>
        </g>
      </g>
      <g id="Graphic_grass-2" data-name="Graphic grass" transform="translate(69.522 176.813)">
        <g id="Group_154-2" data-name="Group 154" transform="translate(0 0)" clip-path="url(#clip-path-2)">
          <path id="Path_3206-2" data-name="Path 3206" d="M1.957,6.442a.451.451,0,0,1-.44-.351,12.142,12.142,0,0,0-1.451-3.6.452.452,0,0,1,.772-.469A13.035,13.035,0,0,1,2.4,5.89a.45.45,0,0,1-.339.541.434.434,0,0,1-.1.012" transform="translate(0 -0.148)" fill="#383735"/>
          <path id="Path_3207-2" data-name="Path 3207" d="M6.486,6.373a.452.452,0,0,1-.451-.427A32.564,32.564,0,0,1,6.2.4a.452.452,0,0,1,.9.1A31.512,31.512,0,0,0,6.938,5.9a.451.451,0,0,1-.426.475H6.486" transform="translate(-0.492 0)" fill="#383735"/>
          <path id="Path_3208-2" data-name="Path 3208" d="M11.018,6.85a.433.433,0,0,1-.147-.025.45.45,0,0,1-.28-.574A27.269,27.269,0,0,1,12.446,2.04a.452.452,0,0,1,.793.433,26.456,26.456,0,0,0-1.794,4.071.451.451,0,0,1-.427.306" transform="translate(-0.869 -0.148)" fill="#383735"/>
        </g>
      </g>
    </g>
    <g id="Graphic_tree_2-3" data-name="Graphic tree 2" transform="translate(469.305 303.815)">
      <g id="Graphic_tree-3" data-name="Graphic tree" transform="translate(0 0)">
        <g id="Group_152-3" data-name="Group 152" transform="translate(0 0)" clip-path="url(#clip-path-5)">
          <path id="Path_3196-3" data-name="Path 3196" d="M37.729,89.934c-3.845,3.305-6.244,2.605-10.7-.134s-6.472-8.38-4.618-12.908c-9.386,2.1-18.873-5.6-21.332-14.2-1.754-6.143.375-14.2,7.093-15.63C2.356,42.26,1.249,33.42,5.753,27.7s14-7.515,20.782-3.944a21.633,21.633,0,0,1,8.5-20.01A14.591,14.591,0,0,1,43.151.5C49.357.266,54.564,5.6,55.825,11.181s-.419,11.272-2.083,16.714c4.03-3.222,11.161-1.8,14.043,2.414S69.329,40.458,65.324,43.7c6.242,3.34,10.215,9.98,9.885,16.523s-4.95,12.688-11.491,15.29c-1.812.719-4,1.417-4.547,3.151-.314.992,1.449,8.773-9.07,13.952-3.411,1.68-7.99.175-12.372-2.685" transform="translate(0.364 0.363)" fill="#f8e2ce"/>
          <path id="Path_3197-3" data-name="Path 3197" d="M47.26,94.545c-3.163,0-6.479-1.551-9.1-3.192-3.88,3.1-6.657,2.34-11.21-.46a11.88,11.88,0,0,1-5.416-12.554C12.014,79.547,3.018,71.668.623,63.286A15.706,15.706,0,0,1,1.95,51.251a9.822,9.822,0,0,1,4.9-4.217C1.712,41.791.985,33.2,5.447,27.538c4.427-5.619,13.473-7.654,20.446-4.823A22.732,22.732,0,0,1,34.887,3.43a15.216,15.216,0,0,1,8.6-3.422c6.809-.262,12.235,5.568,13.539,11.347,1.164,5.15-.066,10.336-1.464,15.062a10.807,10.807,0,0,1,5.78-.646,11.122,11.122,0,0,1,7.517,4.419c2.843,4.163,2.048,9.973-1.719,13.723,5.923,3.649,9.619,10.227,9.291,16.719-.347,6.873-5.181,13.318-12.03,16.04l-.511.2c-1.555.6-3.159,1.23-3.536,2.414-.007.054-.009.351-.009.591-.014,2.52-.047,9.218-9.5,13.871a8.031,8.031,0,0,1-3.583.8m-9.167-5.1a.848.848,0,0,1,.467.139c4.681,3.055,8.775,3.99,11.528,2.635,8.5-4.186,8.532-10.116,8.544-12.346a3.836,3.836,0,0,1,.089-1.1c.624-1.966,2.706-2.776,4.545-3.491l.5-.2C70,72.6,74.4,66.762,74.718,60.547s-3.477-12.54-9.435-15.727A.855.855,0,0,1,65.15,43.4c3.783-3.067,4.813-8.561,2.293-12.248a9.393,9.393,0,0,0-6.359-3.693,8.341,8.341,0,0,0-6.442,1.464.857.857,0,0,1-1.353-.919c1.549-5.061,3.3-10.8,2.065-16.274C54.2,6.635,49.469,1.5,43.547,1.716A13.574,13.574,0,0,0,35.92,4.792,20.856,20.856,0,0,0,27.745,24a.854.854,0,0,1-1.244.879C20.071,21.494,11.043,23.2,6.789,28.6,2.576,33.944,3.625,42.263,9.082,46.763a.855.855,0,0,1-.366,1.5,8.061,8.061,0,0,0-5.3,3.873A13.953,13.953,0,0,0,2.266,62.817c2.3,8.068,11.222,15.639,20.325,13.6a.856.856,0,0,1,.978,1.158c-1.693,4.135.184,9.344,4.274,11.859,4.419,2.715,6.333,3.1,9.692.212a.853.853,0,0,1,.558-.207" transform="translate(0 0.001)" fill="none"/>
          <path id="Path_3198-3" data-name="Path 3198" d="M22.389,106.259a.856.856,0,0,1-.855-.841c-.479-29.259-.976-59.514,2.633-89.1a.855.855,0,1,1,1.7.207c-3.6,29.475-3.1,59.668-2.621,88.87a.855.855,0,0,1-.841.868Z" transform="translate(15.623 11.468)" fill="#383735"/>
          <path id="Path_3199-3" data-name="Path 3199" d="M22.991,29.666a.854.854,0,0,1-.729-1.3,46.484,46.484,0,0,1,6.5-8.274.855.855,0,0,1,1.218,1.2,44.776,44.776,0,0,0-6.256,7.969.853.853,0,0,1-.728.406" transform="translate(16.311 14.616)" fill="#383735"/>
          <path id="Path_3200-3" data-name="Path 3200" d="M28.449,52.071a.854.854,0,0,1-.789-.525c-3.917-9.363-7.616-18.209-14.906-25.959A.855.855,0,0,1,14,24.416c7.5,7.976,11.258,16.959,15.238,26.47a.854.854,0,0,1-.789,1.185" transform="translate(9.227 17.794)" fill="#383735"/>
          <path id="Path_3201-3" data-name="Path 3201" d="M22.619,34.026a.846.846,0,0,1-.431-.116,26.241,26.241,0,0,0-10.157-3.383.855.855,0,1,1,.195-1.7,28,28,0,0,1,10.826,3.606.855.855,0,0,1-.432,1.593" transform="translate(8.307 21.238)" fill="#383735"/>
          <path id="Path_3202-3" data-name="Path 3202" d="M22.293,59.663a.855.855,0,0,1-.785-1.191A75.2,75.2,0,0,1,40.727,31.889a.855.855,0,1,1,1.132,1.28A73.515,73.515,0,0,0,23.078,59.146a.855.855,0,0,1-.785.518" transform="translate(15.798 23.341)" fill="#383735"/>
          <path id="Path_3203-3" data-name="Path 3203" d="M6.3,28.148a.282.282,0,0,1-.241-.134A9.615,9.615,0,0,1,6.084,17.99a.285.285,0,1,1,.481.3,9.038,9.038,0,0,0-.023,9.417.285.285,0,0,1-.241.436" transform="translate(3.436 13.159)" fill="#383735"/>
          <path id="Path_3204-3" data-name="Path 3204" d="M8.188,25.541a.285.285,0,0,1-.269-.193,17.719,17.719,0,0,1-.936-4.983.284.284,0,0,1,.273-.3.3.3,0,0,1,.3.273,17.165,17.165,0,0,0,.9,4.823.285.285,0,0,1-.269.377" transform="translate(5.145 14.788)" fill="#383735"/>
          <path id="Path_3205-3" data-name="Path 3205" d="M35.623,26.413a.285.285,0,0,1-.118-.544,4.376,4.376,0,0,0,2.155-2.63,13.679,13.679,0,0,0,.533-3.6.284.284,0,1,1,.568.033,13.95,13.95,0,0,1-.563,3.75,4.93,4.93,0,0,1-2.458,2.965.284.284,0,0,1-.118.026" transform="translate(26.039 14.275)" fill="#383735"/>
        </g>
      </g>
      <g id="Graphic_grass-3" data-name="Graphic grass" transform="translate(42.889 109.078)">
        <g id="Group_154-3" data-name="Group 154" transform="translate(0 0)" clip-path="url(#clip-path-6)">
          <path id="Path_3206-3" data-name="Path 3206" d="M1.207,4.666a.278.278,0,0,1-.271-.216,7.491,7.491,0,0,0-.9-2.222.279.279,0,0,1,.476-.289,8.042,8.042,0,0,1,.962,2.386.278.278,0,0,1-.209.333.268.268,0,0,1-.063.007" transform="translate(0 -0.783)" fill="#383735"/>
          <path id="Path_3207-3" data-name="Path 3207" d="M6.295,3.932a.279.279,0,0,1-.278-.263A20.089,20.089,0,0,1,6.12.246a.279.279,0,0,1,.554.065,19.44,19.44,0,0,0-.1,3.327.279.279,0,0,1-.263.293H6.295" transform="translate(-2.597 0)" fill="#383735"/>
          <path id="Path_3208-3" data-name="Path 3208" d="M10.844,4.917a.267.267,0,0,1-.091-.015.278.278,0,0,1-.173-.354,16.822,16.822,0,0,1,1.144-2.6.279.279,0,0,1,.489.267,16.321,16.321,0,0,0-1.107,2.512.278.278,0,0,1-.263.189" transform="translate(-4.584 -0.783)" fill="#383735"/>
        </g>
      </g>
    </g>
    <g id="Graphic_tree_2-4" data-name="Graphic tree 2" transform="translate(771.873 326.126)">
      <g id="Graphic_tree-4" data-name="Graphic tree" transform="translate(0 0)">
        <g id="Group_152-4" data-name="Group 152" transform="translate(0 0)" clip-path="url(#clip-path-5)">
          <path id="Path_3196-4" data-name="Path 3196" d="M37.729,89.934c-3.845,3.305-6.244,2.605-10.7-.134s-6.472-8.38-4.618-12.908c-9.386,2.1-18.873-5.6-21.332-14.2-1.754-6.143.375-14.2,7.093-15.63C2.356,42.26,1.249,33.42,5.753,27.7s14-7.515,20.782-3.944a21.633,21.633,0,0,1,8.5-20.01A14.591,14.591,0,0,1,43.151.5C49.357.266,54.564,5.6,55.825,11.181s-.419,11.272-2.083,16.714c4.03-3.222,11.161-1.8,14.043,2.414S69.329,40.458,65.324,43.7c6.242,3.34,10.215,9.98,9.885,16.523s-4.95,12.688-11.491,15.29c-1.812.719-4,1.417-4.547,3.151-.314.992,1.449,8.773-9.07,13.952-3.411,1.68-7.99.175-12.372-2.685" transform="translate(0.364 0.363)" fill="#f8e2ce"/>
          <path id="Path_3197-4" data-name="Path 3197" d="M47.26,94.545c-3.163,0-6.479-1.551-9.1-3.192-3.88,3.1-6.657,2.34-11.21-.46a11.88,11.88,0,0,1-5.416-12.554C12.014,79.547,3.018,71.668.623,63.286A15.706,15.706,0,0,1,1.95,51.251a9.822,9.822,0,0,1,4.9-4.217C1.712,41.791.985,33.2,5.447,27.538c4.427-5.619,13.473-7.654,20.446-4.823A22.732,22.732,0,0,1,34.887,3.43a15.216,15.216,0,0,1,8.6-3.422c6.809-.262,12.235,5.568,13.539,11.347,1.164,5.15-.066,10.336-1.464,15.062a10.807,10.807,0,0,1,5.78-.646,11.122,11.122,0,0,1,7.517,4.419c2.843,4.163,2.048,9.973-1.719,13.723,5.923,3.649,9.619,10.227,9.291,16.719-.347,6.873-5.181,13.318-12.03,16.04l-.511.2c-1.555.6-3.159,1.23-3.536,2.414-.007.054-.009.351-.009.591-.014,2.52-.047,9.218-9.5,13.871a8.031,8.031,0,0,1-3.583.8m-9.167-5.1a.848.848,0,0,1,.467.139c4.681,3.055,8.775,3.99,11.528,2.635,8.5-4.186,8.532-10.116,8.544-12.346a3.836,3.836,0,0,1,.089-1.1c.624-1.966,2.706-2.776,4.545-3.491l.5-.2C70,72.6,74.4,66.762,74.718,60.547s-3.477-12.54-9.435-15.727A.855.855,0,0,1,65.15,43.4c3.783-3.067,4.813-8.561,2.293-12.248a9.393,9.393,0,0,0-6.359-3.693,8.341,8.341,0,0,0-6.442,1.464.857.857,0,0,1-1.353-.919c1.549-5.061,3.3-10.8,2.065-16.274C54.2,6.635,49.469,1.5,43.547,1.716A13.574,13.574,0,0,0,35.92,4.792,20.856,20.856,0,0,0,27.745,24a.854.854,0,0,1-1.244.879C20.071,21.494,11.043,23.2,6.789,28.6,2.576,33.944,3.625,42.263,9.082,46.763a.855.855,0,0,1-.366,1.5,8.061,8.061,0,0,0-5.3,3.873A13.953,13.953,0,0,0,2.266,62.817c2.3,8.068,11.222,15.639,20.325,13.6a.856.856,0,0,1,.978,1.158c-1.693,4.135.184,9.344,4.274,11.859,4.419,2.715,6.333,3.1,9.692.212a.853.853,0,0,1,.558-.207" transform="translate(0 0.001)" fill="none"/>
          <path id="Path_3198-4" data-name="Path 3198" d="M22.389,106.259a.856.856,0,0,1-.855-.841c-.479-29.259-.976-59.514,2.633-89.1a.855.855,0,1,1,1.7.207c-3.6,29.475-3.1,59.668-2.621,88.87a.855.855,0,0,1-.841.868Z" transform="translate(15.623 11.468)" fill="#383735"/>
          <path id="Path_3199-4" data-name="Path 3199" d="M22.991,29.666a.854.854,0,0,1-.729-1.3,46.484,46.484,0,0,1,6.5-8.274.855.855,0,0,1,1.218,1.2,44.776,44.776,0,0,0-6.256,7.969.853.853,0,0,1-.728.406" transform="translate(16.311 14.616)" fill="#383735"/>
          <path id="Path_3200-4" data-name="Path 3200" d="M28.449,52.071a.854.854,0,0,1-.789-.525c-3.917-9.363-7.616-18.209-14.906-25.959A.855.855,0,0,1,14,24.416c7.5,7.976,11.258,16.959,15.238,26.47a.854.854,0,0,1-.789,1.185" transform="translate(9.227 17.794)" fill="#383735"/>
          <path id="Path_3201-4" data-name="Path 3201" d="M22.619,34.026a.846.846,0,0,1-.431-.116,26.241,26.241,0,0,0-10.157-3.383.855.855,0,1,1,.195-1.7,28,28,0,0,1,10.826,3.606.855.855,0,0,1-.432,1.593" transform="translate(8.307 21.238)" fill="#383735"/>
          <path id="Path_3202-4" data-name="Path 3202" d="M22.293,59.663a.855.855,0,0,1-.785-1.191A75.2,75.2,0,0,1,40.727,31.889a.855.855,0,1,1,1.132,1.28A73.515,73.515,0,0,0,23.078,59.146a.855.855,0,0,1-.785.518" transform="translate(15.798 23.341)" fill="#383735"/>
          <path id="Path_3203-4" data-name="Path 3203" d="M6.3,28.148a.282.282,0,0,1-.241-.134A9.615,9.615,0,0,1,6.084,17.99a.285.285,0,1,1,.481.3,9.038,9.038,0,0,0-.023,9.417.285.285,0,0,1-.241.436" transform="translate(3.436 13.159)" fill="#383735"/>
          <path id="Path_3204-4" data-name="Path 3204" d="M8.188,25.541a.285.285,0,0,1-.269-.193,17.719,17.719,0,0,1-.936-4.983.284.284,0,0,1,.273-.3.3.3,0,0,1,.3.273,17.165,17.165,0,0,0,.9,4.823.285.285,0,0,1-.269.377" transform="translate(5.145 14.788)" fill="#383735"/>
          <path id="Path_3205-4" data-name="Path 3205" d="M35.623,26.413a.285.285,0,0,1-.118-.544,4.376,4.376,0,0,0,2.155-2.63,13.679,13.679,0,0,0,.533-3.6.284.284,0,1,1,.568.033,13.95,13.95,0,0,1-.563,3.75,4.93,4.93,0,0,1-2.458,2.965.284.284,0,0,1-.118.026" transform="translate(26.039 14.275)" fill="#383735"/>
        </g>
      </g>
      <g id="Graphic_grass-4" data-name="Graphic grass" transform="translate(42.889 109.078)">
        <g id="Group_154-4" data-name="Group 154" transform="translate(0 0)" clip-path="url(#clip-path-6)">
          <path id="Path_3206-4" data-name="Path 3206" d="M1.207,4.666a.278.278,0,0,1-.271-.216,7.491,7.491,0,0,0-.9-2.222.279.279,0,0,1,.476-.289,8.042,8.042,0,0,1,.962,2.386.278.278,0,0,1-.209.333.268.268,0,0,1-.063.007" transform="translate(0 -0.783)" fill="#383735"/>
          <path id="Path_3207-4" data-name="Path 3207" d="M6.295,3.932a.279.279,0,0,1-.278-.263A20.089,20.089,0,0,1,6.12.246a.279.279,0,0,1,.554.065,19.44,19.44,0,0,0-.1,3.327.279.279,0,0,1-.263.293H6.295" transform="translate(-2.597 0)" fill="#383735"/>
          <path id="Path_3208-4" data-name="Path 3208" d="M10.844,4.917a.267.267,0,0,1-.091-.015.278.278,0,0,1-.173-.354,16.822,16.822,0,0,1,1.144-2.6.279.279,0,0,1,.489.267,16.321,16.321,0,0,0-1.107,2.512.278.278,0,0,1-.263.189" transform="translate(-4.584 -0.783)" fill="#383735"/>
        </g>
      </g>
    </g>
    <g id="Graphic_tree_2-5" data-name="Graphic tree 2" transform="translate(1085.555 340.368)">
      <g id="Graphic_tree-5" data-name="Graphic tree" transform="translate(0 0)">
        <g id="Group_152-5" data-name="Group 152" transform="translate(0 0)" clip-path="url(#clip-path-5)">
          <path id="Path_3196-5" data-name="Path 3196" d="M37.729,89.934c-3.845,3.305-6.244,2.605-10.7-.134s-6.472-8.38-4.618-12.908c-9.386,2.1-18.873-5.6-21.332-14.2-1.754-6.143.375-14.2,7.093-15.63C2.356,42.26,1.249,33.42,5.753,27.7s14-7.515,20.782-3.944a21.633,21.633,0,0,1,8.5-20.01A14.591,14.591,0,0,1,43.151.5C49.357.266,54.564,5.6,55.825,11.181s-.419,11.272-2.083,16.714c4.03-3.222,11.161-1.8,14.043,2.414S69.329,40.458,65.324,43.7c6.242,3.34,10.215,9.98,9.885,16.523s-4.95,12.688-11.491,15.29c-1.812.719-4,1.417-4.547,3.151-.314.992,1.449,8.773-9.07,13.952-3.411,1.68-7.99.175-12.372-2.685" transform="translate(0.364 0.363)" fill="#f8e2ce"/>
          <path id="Path_3197-5" data-name="Path 3197" d="M47.26,94.545c-3.163,0-6.479-1.551-9.1-3.192-3.88,3.1-6.657,2.34-11.21-.46a11.88,11.88,0,0,1-5.416-12.554C12.014,79.547,3.018,71.668.623,63.286A15.706,15.706,0,0,1,1.95,51.251a9.822,9.822,0,0,1,4.9-4.217C1.712,41.791.985,33.2,5.447,27.538c4.427-5.619,13.473-7.654,20.446-4.823A22.732,22.732,0,0,1,34.887,3.43a15.216,15.216,0,0,1,8.6-3.422c6.809-.262,12.235,5.568,13.539,11.347,1.164,5.15-.066,10.336-1.464,15.062a10.807,10.807,0,0,1,5.78-.646,11.122,11.122,0,0,1,7.517,4.419c2.843,4.163,2.048,9.973-1.719,13.723,5.923,3.649,9.619,10.227,9.291,16.719-.347,6.873-5.181,13.318-12.03,16.04l-.511.2c-1.555.6-3.159,1.23-3.536,2.414-.007.054-.009.351-.009.591-.014,2.52-.047,9.218-9.5,13.871a8.031,8.031,0,0,1-3.583.8m-9.167-5.1a.848.848,0,0,1,.467.139c4.681,3.055,8.775,3.99,11.528,2.635,8.5-4.186,8.532-10.116,8.544-12.346a3.836,3.836,0,0,1,.089-1.1c.624-1.966,2.706-2.776,4.545-3.491l.5-.2C70,72.6,74.4,66.762,74.718,60.547s-3.477-12.54-9.435-15.727A.855.855,0,0,1,65.15,43.4c3.783-3.067,4.813-8.561,2.293-12.248a9.393,9.393,0,0,0-6.359-3.693,8.341,8.341,0,0,0-6.442,1.464.857.857,0,0,1-1.353-.919c1.549-5.061,3.3-10.8,2.065-16.274C54.2,6.635,49.469,1.5,43.547,1.716A13.574,13.574,0,0,0,35.92,4.792,20.856,20.856,0,0,0,27.745,24a.854.854,0,0,1-1.244.879C20.071,21.494,11.043,23.2,6.789,28.6,2.576,33.944,3.625,42.263,9.082,46.763a.855.855,0,0,1-.366,1.5,8.061,8.061,0,0,0-5.3,3.873A13.953,13.953,0,0,0,2.266,62.817c2.3,8.068,11.222,15.639,20.325,13.6a.856.856,0,0,1,.978,1.158c-1.693,4.135.184,9.344,4.274,11.859,4.419,2.715,6.333,3.1,9.692.212a.853.853,0,0,1,.558-.207" transform="translate(0 0.001)" fill="none"/>
          <path id="Path_3198-5" data-name="Path 3198" d="M22.389,106.259a.856.856,0,0,1-.855-.841c-.479-29.259-.976-59.514,2.633-89.1a.855.855,0,1,1,1.7.207c-3.6,29.475-3.1,59.668-2.621,88.87a.855.855,0,0,1-.841.868Z" transform="translate(15.623 11.468)" fill="#383735"/>
          <path id="Path_3199-5" data-name="Path 3199" d="M22.991,29.666a.854.854,0,0,1-.729-1.3,46.484,46.484,0,0,1,6.5-8.274.855.855,0,0,1,1.218,1.2,44.776,44.776,0,0,0-6.256,7.969.853.853,0,0,1-.728.406" transform="translate(16.311 14.616)" fill="#383735"/>
          <path id="Path_3200-5" data-name="Path 3200" d="M28.449,52.071a.854.854,0,0,1-.789-.525c-3.917-9.363-7.616-18.209-14.906-25.959A.855.855,0,0,1,14,24.416c7.5,7.976,11.258,16.959,15.238,26.47a.854.854,0,0,1-.789,1.185" transform="translate(9.227 17.794)" fill="#383735"/>
          <path id="Path_3201-5" data-name="Path 3201" d="M22.619,34.026a.846.846,0,0,1-.431-.116,26.241,26.241,0,0,0-10.157-3.383.855.855,0,1,1,.195-1.7,28,28,0,0,1,10.826,3.606.855.855,0,0,1-.432,1.593" transform="translate(8.307 21.238)" fill="#383735"/>
          <path id="Path_3202-5" data-name="Path 3202" d="M22.293,59.663a.855.855,0,0,1-.785-1.191A75.2,75.2,0,0,1,40.727,31.889a.855.855,0,1,1,1.132,1.28A73.515,73.515,0,0,0,23.078,59.146a.855.855,0,0,1-.785.518" transform="translate(15.798 23.341)" fill="#383735"/>
          <path id="Path_3203-5" data-name="Path 3203" d="M6.3,28.148a.282.282,0,0,1-.241-.134A9.615,9.615,0,0,1,6.084,17.99a.285.285,0,1,1,.481.3,9.038,9.038,0,0,0-.023,9.417.285.285,0,0,1-.241.436" transform="translate(3.436 13.159)" fill="#383735"/>
          <path id="Path_3204-5" data-name="Path 3204" d="M8.188,25.541a.285.285,0,0,1-.269-.193,17.719,17.719,0,0,1-.936-4.983.284.284,0,0,1,.273-.3.3.3,0,0,1,.3.273,17.165,17.165,0,0,0,.9,4.823.285.285,0,0,1-.269.377" transform="translate(5.145 14.788)" fill="#383735"/>
          <path id="Path_3205-5" data-name="Path 3205" d="M35.623,26.413a.285.285,0,0,1-.118-.544,4.376,4.376,0,0,0,2.155-2.63,13.679,13.679,0,0,0,.533-3.6.284.284,0,1,1,.568.033,13.95,13.95,0,0,1-.563,3.75,4.93,4.93,0,0,1-2.458,2.965.284.284,0,0,1-.118.026" transform="translate(26.039 14.275)" fill="#383735"/>
        </g>
      </g>
      <g id="Graphic_grass-5" data-name="Graphic grass" transform="translate(42.889 109.078)">
        <g id="Group_154-5" data-name="Group 154" transform="translate(0 0)" clip-path="url(#clip-path-6)">
          <path id="Path_3206-5" data-name="Path 3206" d="M1.207,4.666a.278.278,0,0,1-.271-.216,7.491,7.491,0,0,0-.9-2.222.279.279,0,0,1,.476-.289,8.042,8.042,0,0,1,.962,2.386.278.278,0,0,1-.209.333.268.268,0,0,1-.063.007" transform="translate(0 -0.783)" fill="#383735"/>
          <path id="Path_3207-5" data-name="Path 3207" d="M6.295,3.932a.279.279,0,0,1-.278-.263A20.089,20.089,0,0,1,6.12.246a.279.279,0,0,1,.554.065,19.44,19.44,0,0,0-.1,3.327.279.279,0,0,1-.263.293H6.295" transform="translate(-2.597 0)" fill="#383735"/>
          <path id="Path_3208-5" data-name="Path 3208" d="M10.844,4.917a.267.267,0,0,1-.091-.015.278.278,0,0,1-.173-.354,16.822,16.822,0,0,1,1.144-2.6.279.279,0,0,1,.489.267,16.321,16.321,0,0,0-1.107,2.512.278.278,0,0,1-.263.189" transform="translate(-4.584 -0.783)" fill="#383735"/>
        </g>
      </g>
    </g>
    <g id="Graphic_tree_2-6" data-name="Graphic tree 2" transform="translate(903.873 281.505)">
      <g id="Graphic_tree-6" data-name="Graphic tree" transform="translate(0 0)">
        <g id="Group_152-6" data-name="Group 152" transform="translate(0 0)" clip-path="url(#clip-path-5)">
          <path id="Path_3196-6" data-name="Path 3196" d="M37.729,89.934c-3.845,3.305-6.244,2.605-10.7-.134s-6.472-8.38-4.618-12.908c-9.386,2.1-18.873-5.6-21.332-14.2-1.754-6.143.375-14.2,7.093-15.63C2.356,42.26,1.249,33.42,5.753,27.7s14-7.515,20.782-3.944a21.633,21.633,0,0,1,8.5-20.01A14.591,14.591,0,0,1,43.151.5C49.357.266,54.564,5.6,55.825,11.181s-.419,11.272-2.083,16.714c4.03-3.222,11.161-1.8,14.043,2.414S69.329,40.458,65.324,43.7c6.242,3.34,10.215,9.98,9.885,16.523s-4.95,12.688-11.491,15.29c-1.812.719-4,1.417-4.547,3.151-.314.992,1.449,8.773-9.07,13.952-3.411,1.68-7.99.175-12.372-2.685" transform="translate(0.364 0.363)" fill="#f8e2ce"/>
          <path id="Path_3197-6" data-name="Path 3197" d="M47.26,94.545c-3.163,0-6.479-1.551-9.1-3.192-3.88,3.1-6.657,2.34-11.21-.46a11.88,11.88,0,0,1-5.416-12.554C12.014,79.547,3.018,71.668.623,63.286A15.706,15.706,0,0,1,1.95,51.251a9.822,9.822,0,0,1,4.9-4.217C1.712,41.791.985,33.2,5.447,27.538c4.427-5.619,13.473-7.654,20.446-4.823A22.732,22.732,0,0,1,34.887,3.43a15.216,15.216,0,0,1,8.6-3.422c6.809-.262,12.235,5.568,13.539,11.347,1.164,5.15-.066,10.336-1.464,15.062a10.807,10.807,0,0,1,5.78-.646,11.122,11.122,0,0,1,7.517,4.419c2.843,4.163,2.048,9.973-1.719,13.723,5.923,3.649,9.619,10.227,9.291,16.719-.347,6.873-5.181,13.318-12.03,16.04l-.511.2c-1.555.6-3.159,1.23-3.536,2.414-.007.054-.009.351-.009.591-.014,2.52-.047,9.218-9.5,13.871a8.031,8.031,0,0,1-3.583.8m-9.167-5.1a.848.848,0,0,1,.467.139c4.681,3.055,8.775,3.99,11.528,2.635,8.5-4.186,8.532-10.116,8.544-12.346a3.836,3.836,0,0,1,.089-1.1c.624-1.966,2.706-2.776,4.545-3.491l.5-.2C70,72.6,74.4,66.762,74.718,60.547s-3.477-12.54-9.435-15.727A.855.855,0,0,1,65.15,43.4c3.783-3.067,4.813-8.561,2.293-12.248a9.393,9.393,0,0,0-6.359-3.693,8.341,8.341,0,0,0-6.442,1.464.857.857,0,0,1-1.353-.919c1.549-5.061,3.3-10.8,2.065-16.274C54.2,6.635,49.469,1.5,43.547,1.716A13.574,13.574,0,0,0,35.92,4.792,20.856,20.856,0,0,0,27.745,24a.854.854,0,0,1-1.244.879C20.071,21.494,11.043,23.2,6.789,28.6,2.576,33.944,3.625,42.263,9.082,46.763a.855.855,0,0,1-.366,1.5,8.061,8.061,0,0,0-5.3,3.873A13.953,13.953,0,0,0,2.266,62.817c2.3,8.068,11.222,15.639,20.325,13.6a.856.856,0,0,1,.978,1.158c-1.693,4.135.184,9.344,4.274,11.859,4.419,2.715,6.333,3.1,9.692.212a.853.853,0,0,1,.558-.207" transform="translate(0 0.001)" fill="none"/>
          <path id="Path_3198-6" data-name="Path 3198" d="M22.389,106.259a.856.856,0,0,1-.855-.841c-.479-29.259-.976-59.514,2.633-89.1a.855.855,0,1,1,1.7.207c-3.6,29.475-3.1,59.668-2.621,88.87a.855.855,0,0,1-.841.868Z" transform="translate(15.623 11.468)" fill="#383735"/>
          <path id="Path_3199-6" data-name="Path 3199" d="M22.991,29.666a.854.854,0,0,1-.729-1.3,46.484,46.484,0,0,1,6.5-8.274.855.855,0,0,1,1.218,1.2,44.776,44.776,0,0,0-6.256,7.969.853.853,0,0,1-.728.406" transform="translate(16.311 14.616)" fill="#383735"/>
          <path id="Path_3200-6" data-name="Path 3200" d="M28.449,52.071a.854.854,0,0,1-.789-.525c-3.917-9.363-7.616-18.209-14.906-25.959A.855.855,0,0,1,14,24.416c7.5,7.976,11.258,16.959,15.238,26.47a.854.854,0,0,1-.789,1.185" transform="translate(9.227 17.794)" fill="#383735"/>
          <path id="Path_3201-6" data-name="Path 3201" d="M22.619,34.026a.846.846,0,0,1-.431-.116,26.241,26.241,0,0,0-10.157-3.383.855.855,0,1,1,.195-1.7,28,28,0,0,1,10.826,3.606.855.855,0,0,1-.432,1.593" transform="translate(8.307 21.238)" fill="#383735"/>
          <path id="Path_3202-6" data-name="Path 3202" d="M22.293,59.663a.855.855,0,0,1-.785-1.191A75.2,75.2,0,0,1,40.727,31.889a.855.855,0,1,1,1.132,1.28A73.515,73.515,0,0,0,23.078,59.146a.855.855,0,0,1-.785.518" transform="translate(15.798 23.341)" fill="#383735"/>
          <path id="Path_3203-6" data-name="Path 3203" d="M6.3,28.148a.282.282,0,0,1-.241-.134A9.615,9.615,0,0,1,6.084,17.99a.285.285,0,1,1,.481.3,9.038,9.038,0,0,0-.023,9.417.285.285,0,0,1-.241.436" transform="translate(3.436 13.159)" fill="#383735"/>
          <path id="Path_3204-6" data-name="Path 3204" d="M8.188,25.541a.285.285,0,0,1-.269-.193,17.719,17.719,0,0,1-.936-4.983.284.284,0,0,1,.273-.3.3.3,0,0,1,.3.273,17.165,17.165,0,0,0,.9,4.823.285.285,0,0,1-.269.377" transform="translate(5.145 14.788)" fill="#383735"/>
          <path id="Path_3205-6" data-name="Path 3205" d="M35.623,26.413a.285.285,0,0,1-.118-.544,4.376,4.376,0,0,0,2.155-2.63,13.679,13.679,0,0,0,.533-3.6.284.284,0,1,1,.568.033,13.95,13.95,0,0,1-.563,3.75,4.93,4.93,0,0,1-2.458,2.965.284.284,0,0,1-.118.026" transform="translate(26.039 14.275)" fill="#383735"/>
        </g>
      </g>
      <g id="Graphic_grass-6" data-name="Graphic grass" transform="translate(42.889 109.078)">
        <g id="Group_154-6" data-name="Group 154" transform="translate(0 0)" clip-path="url(#clip-path-6)">
          <path id="Path_3206-6" data-name="Path 3206" d="M1.207,4.666a.278.278,0,0,1-.271-.216,7.491,7.491,0,0,0-.9-2.222.279.279,0,0,1,.476-.289,8.042,8.042,0,0,1,.962,2.386.278.278,0,0,1-.209.333.268.268,0,0,1-.063.007" transform="translate(0 -0.783)" fill="#383735"/>
          <path id="Path_3207-6" data-name="Path 3207" d="M6.295,3.932a.279.279,0,0,1-.278-.263A20.089,20.089,0,0,1,6.12.246a.279.279,0,0,1,.554.065,19.44,19.44,0,0,0-.1,3.327.279.279,0,0,1-.263.293H6.295" transform="translate(-2.597 0)" fill="#383735"/>
          <path id="Path_3208-6" data-name="Path 3208" d="M10.844,4.917a.267.267,0,0,1-.091-.015.278.278,0,0,1-.173-.354,16.822,16.822,0,0,1,1.144-2.6.279.279,0,0,1,.489.267,16.321,16.321,0,0,0-1.107,2.512.278.278,0,0,1-.263.189" transform="translate(-4.584 -0.783)" fill="#383735"/>
        </g>
      </g>
    </g>
  </g>
</svg>
