<svg xmlns="http://www.w3.org/2000/svg" xmlns:xlink="http://www.w3.org/1999/xlink" width="100" height="100" viewBox="0 0 100 100">
  <defs>
    <clipPath id="clip-path">
      <circle id="Ellipse_22" data-name="Ellipse 22" cx="50" cy="50" r="50" transform="translate(0 0)" fill="none"/>
    </clipPath>
  </defs>
  <g id="Group_129" data-name="Group 129" transform="translate(0 0)" clip-path="url(#clip-path)">
    <path id="Path_3119" data-name="Path 3119" d="M74.293,101.44c-2.471-12.38-5.232-18.574-9.886-30.155L62.2,66.1H36.419l-2.092,5.189c-4.654,11.581-7.416,17.775-9.886,30.155Z" fill="#ffd4be"/>
    <path id="Path_3120" data-name="Path 3120" d="M64.408,71.285,62.2,66.1H56.875l2.211,5.19C63.74,82.866,66.5,89.06,68.972,101.44h5.321c-2.471-12.38-5.231-18.574-9.885-30.155" fill="#ffbf9e"/>
    <path id="Path_3121" data-name="Path 3121" d="M49.458,91.912a1.33,1.33,0,0,1-1.331-1.33V82.846a1.33,1.33,0,1,1,2.66,0v7.736A1.33,1.33,0,0,1,49.458,91.912Z" fill="#f7c000"/>
    <path id="Path_3122" data-name="Path 3122" d="M49.458,84.413c11.9,0,16.968-6.69,16.968-6.69l.407-.423c-.75-1.867-1.555-3.846-2.426-6.015L62.2,66.1H36.419l-2.093,5.189c-.873,2.174-1.68,4.157-2.43,6.028l.389.41S37.563,84.413,49.458,84.413Z" fill="#d6948c"/>
    <path id="Path_3123" data-name="Path 3123" d="M64.408,71.285,62.2,66.1H36.419L34.731,70.28H58.755l2.21,5.19c.743,1.849,1.438,3.56,2.091,5.181a14.68,14.68,0,0,0,3.37-2.928l.407-.423C66.083,75.433,65.278,73.454,64.408,71.285Z" fill="#ce857a"/>
    <path id="Path_3124" data-name="Path 3124" d="M55.209,75.828a3.793,3.793,0,0,1-3.8,3.79H47.321a3.793,3.793,0,0,1-3.8-3.79v-5.22H55.209Z" fill="#ff8e9e"/>
    <path id="Path_3125" data-name="Path 3125" d="M49.367,67.941v3.68a4.25,4.25,0,0,0,4.254,4.246,12.527,12.527,0,0,0,8.85-3.659l.233-.232a12.482,12.482,0,0,0,3.665-8.834,11.555,11.555,0,0,0-.275-2.5l.03-.007,5.65-34.9c0,.254-12.322-7.342-12.322-7.342a20.458,20.458,0,0,0-20.17,0l-12.44,6.278c.041.473,5.768,35.959,5.768,35.959l.012.032a12.06,12.06,0,0,0-.258,2.48,12.483,12.483,0,0,0,3.666,8.834l.233.232a12.527,12.527,0,0,0,8.85,3.659,4.25,4.25,0,0,0,4.254-4.246v-3.68" fill="#ffd4be"/>
    <path id="Path_3126" data-name="Path 3126" d="M66.124,60.63l5.65-34.9c0,.254-12.322-7.341-12.322-7.341A20.438,20.438,0,0,0,46.707,15.91a20.363,20.363,0,0,1,7.424,2.484s12.322,7.6,12.322,7.341L60.8,60.63l-.03.007a11.494,11.494,0,0,1,.276,2.5,12.483,12.483,0,0,1-3.666,8.834l-.233.233a12.512,12.512,0,0,1-5.47,3.19,4.237,4.237,0,0,0,1.941.469,12.531,12.531,0,0,0,8.85-3.659l.233-.233a12.482,12.482,0,0,0,3.665-8.834,11.555,11.555,0,0,0-.275-2.5Z" fill="#ffbf9e"/>
    <path id="Path_3127" data-name="Path 3127" d="M43.608,43.469a1.33,1.33,0,0,1-1.254-.888,4.342,4.342,0,0,0-2.08-2.362,3.187,3.187,0,0,0-3.195.425,1.331,1.331,0,0,1-1.832-1.929,5.823,5.823,0,0,1,5.966-.985A7,7,0,0,1,44.864,41.7a1.4,1.4,0,0,1-1.256,1.768" fill="#7c6354"/>
    <path id="Path_3128" data-name="Path 3128" d="M55.04,16.444l4.809-2.816a2.469,2.469,0,0,1,2.086-.191l16.142,5.837a2.458,2.458,0,0,1,1.5,3.076L74.192,38.8a1.691,1.691,0,0,1-2.728.738A38.887,38.887,0,0,1,59.45,18.4Z" fill="#7c6354"/>
    <path id="Path_3129" data-name="Path 3129" d="M78.077,19.274,61.935,13.437a2.466,2.466,0,0,0-2.086.192l-1.034.6,13.941,5.041a2.459,2.459,0,0,1,1.5,3.077l-4.946,15.1c.8.842,1.531,1.538,2.15,2.087a1.691,1.691,0,0,0,2.729-.738L79.58,22.351A2.459,2.459,0,0,0,78.077,19.274Z" fill="#60463b"/>
    <path id="Path_3130" data-name="Path 3130" d="M43.694,16.444l-4.809-2.816a2.469,2.469,0,0,0-2.086-.191L20.657,19.274a2.458,2.458,0,0,0-1.5,3.076L24.542,38.8a1.691,1.691,0,0,0,2.728.738A38.887,38.887,0,0,0,39.284,18.4Z" fill="#7c6354"/>
    <path id="Path_3131" data-name="Path 3131" d="M49.367,88.2a5.091,5.091,0,1,1-5.1,5.091,5.1,5.1,0,0,1,5.1-5.091" fill="#ebb65e"/>
    <path id="Path_3132" data-name="Path 3132" d="M49.367,88.2a5.077,5.077,0,0,0-2.66.747,5.088,5.088,0,0,1,0,8.688,5.094,5.094,0,1,0,2.66-9.435Z" fill="#c8a263"/>
    <path id="Path_3133" data-name="Path 3133" d="M51.176,66.9a2.091,2.091,0,0,1-3.618,0l-1.53-2.644L43.805,60.41A2.083,2.083,0,0,1,44.69,57.5a10.588,10.588,0,0,1,9.354,0,2.085,2.085,0,0,1,.885,2.913l-2.224,3.844Z" fill="#7c6354"/>
    <path id="Path_3134" data-name="Path 3134" d="M55.126,43.469a1.33,1.33,0,0,0,1.254-.888,4.342,4.342,0,0,1,2.08-2.362,3.187,3.187,0,0,1,3.195.425,1.331,1.331,0,0,0,1.832-1.929,5.823,5.823,0,0,0-5.966-.985A7,7,0,0,0,53.87,41.7a1.4,1.4,0,0,0,1.256,1.768" fill="#7c6354"/>
  </g>
</svg>
