<svg xmlns="http://www.w3.org/2000/svg" xmlns:xlink="http://www.w3.org/1999/xlink" width="145" height="79"><defs><clipPath id="A"><path fill="none" d="M0 0h145v79H0z"/></clipPath><path id="B" d="M46.627 44.441c.109-1.614 1.088-2.629 2.433-2.538s2.178 1.228 2.069 2.842l-.872 12.912c-.109 1.614-1.088 2.629-2.433 2.538s-2.178-1.228-2.069-2.842z"/></defs><g clip-path="url(#A)"><path d="M107.713 1.047c-2.945.933-5.177 3.352-5.872 6.362-.287 1.225-.3 2.587-.464 3.842a13.96 13.96 0 0 0-.318 3.625 13.09 13.09 0 0 0 1.056 3.315c.641 1.509 1.069 2.591 2.487 3.512 1.1.716 2.345 1.226 3.382 2.045.873.689 1.538 1.679 2.471 2.287.547.356 3.2 2.191 6.119 1.2 3.461-1.18 6.453-5.363 6.453-7.5s.547-5.992.5-7.482a11.32 11.32 0 0 0-2.236-6.639c-1.789-2.077-5.366-4.86-6.46-5.158a7.47 7.47 0 0 0-4.258-.239l-2.864.83m4.264 29.569a43.96 43.96 0 0 1 9.068-1.913c1.019-.015 1.219 3.555 1.366 4.944l.7 6.311c.056.709-.891 1.005-1.541 1.242a22.88 22.88 0 0 1-2.268.749l-3.148.767c-.71.114-1.732-2.483-2.981-5.988-.739-2.072-1.863-5.863-1.193-6.112"/><path d="M113.678 26.961c.142.111.276.159.411.277a1.85 1.85 0 0 1 .342.376 2.32 2.32 0 0 1-.087 2.787 10.34 10.34 0 0 1-.6-2.5l-.057-.427c-.037-.168-.041-.342-.012-.512m3.135 3.093c-.292-.676-.524-1.376-.692-2.092a3.52 3.52 0 0 1 .439-2.256c.228.513.37 1.059.422 1.618.111.866.41 1.942-.169 2.73m2.287-4.671a4.64 4.64 0 0 1 .925 2.029 3.69 3.69 0 0 1-.414 2.194 3.81 3.81 0 0 1-.37-1.066c-.107-.5-.152-1-.215-1.494-.13-.55-.104-1.126.075-1.663M12.792 41.819c.01.586-.241 1.146-.686 1.527a1.97 1.97 0 0 1-1.614.446c-1.275-.038-2.34.962-2.381 2.237l-.59 8.743c-.109 1.614-1.088 2.629-2.433 2.538s-2.178-1.228-2.069-2.842l.623-9.225a1.91 1.91 0 0 0-1.776-2.033 2.08 2.08 0 0 1-1.405-.755 2.07 2.07 0 0 1-.454-1.529 2 2 0 0 1 2.11-1.956l8.66.585c.589-.033 1.161.205 1.553.646s.562 1.037.461 1.618M28.37 61.348c-.084 1.244-.213 3.161-2.371 3.015a2.64 2.64 0 0 1-.674-.125 8.02 8.02 0 0 0-4.312-.211 5.17 5.17 0 0 1-1.468.1c-4.252-.287-7.18-4.369-6.812-9.816.356-5.279 3.947-9.158 8.074-8.879 1.715.076 3.273 1.022 4.133 2.508a2.2 2.2 0 0 1 2.293-1.872c2.157.146 2.028 2.062 1.944 3.306zm-7.9-1.614c2.345.158 3.643-2.321 3.8-4.641.154-2.286-.761-5.017-3.137-5.177-2.5-.169-4.141 2.355-4.3 4.642-.157 2.32 1.225 5.014 3.633 5.177"/><path d="M40.328 37.733c-3.439-.232-4.033 3.916-1.738 4.814.846.326 1.726.556 2.623.684 1.212.183 2.718.217 2.7 1.871.045 1.658-1.57 1.853-2.789 1.771-2.188-.148-5.061.537-5.3 4.034-.254 3.766 2.284 4.309 4.631 4.907 2.132.515 4.139 1.022 3.933 4.082l-.2 2.959a2.24 2.24 0 0 1-2.477 2.265 2.27 2.27 0 0 1-2.15-2.577c.12-1.289-.664-2.49-1.891-2.9-3.85-1.144-6.88-3.946-6.536-9.049.125-1.849 1.627-5.024 3.825-5.957-1.542-1.102-2.405-2.923-2.281-4.815.216-3.194 2.549-6.584 7.926-6.221 3.627.245 5.326 2.049 5.254 3.125-.1 1.48-.813 2.276-2.07 2.292-1.125-.076-2.337-1.2-3.462-1.281"/><use xlink:href="#B"/><path d="M55.823 44.868c.227-3.362 2.914-5.478 6.478-5.237 2.251.152 5.552 1.49 5.391 3.877a2.02 2.02 0 0 1-1.99 2.028c-.875-.059-2.437-1.583-3.938-1.685-.844-.057-1.559.3-1.623 1.242-.147 2.186 9.17 2.342 8.525 11.891-.341 5.044-3.849 9.1-8.695 8.769s-7.778-4.815-7.437-9.859a10.68 10.68 0 0 1 1.64-5.046 10.79 10.79 0 0 0 1.637-5.689q0-.143.012-.291m1.3 11.316c-.157 2.32.745 4.968 3.152 5.131S64.012 59 64.168 56.68c.154-2.286-.729-5.015-3.23-5.184s-3.661 2.4-3.815 4.688m13.827-6.388c.109-1.614 1.088-2.629 2.433-2.538s2.178 1.228 2.069 2.842l-.872 12.912c-.109 1.614-1.088 2.629-2.433 2.538s-2.178-1.228-2.069-2.842zm17.374 15.478a5.05 5.05 0 0 1-4.52 2.3c-5.409-.365-6.919-5.433-6.631-9.7a10.05 10.05 0 0 1 3.87-7.541c4.119-2.863 5.953.672 4.5 2.2a7.62 7.62 0 0 1-1.737 1.065c-1.185.8-2.011 2.8-2.131 4.585-.193 2.858.693 5.08 2.6 5.209 1.157.078 1.953-.544 2.1-2.7l.343-5.077c-.055-.881.404-1.715 1.179-2.138s1.725-.36 2.436.162 1.057 1.41.885 2.276l-.343 5.077c-.147 2.186.56 2.875 1.685 2.951 1.938.131 3.118-1.985 3.308-4.81.12-1.782-.4-3.878-1.464-4.828a7.64 7.64 0 0 1-1.578-1.289c-1.235-1.7 1.091-4.993 4.723-1.573 2.072 2.118 3.105 5.043 2.821 7.993-.293 4.338-2.811 9.066-7.969 8.717a4.71 4.71 0 0 1-4.077-2.876m2.54-23.2c.328-.277.718-.471 1.137-.565.956-.206 1.8.831 1.988 1.722a2.06 2.06 0 0 1-.965 2.2l-3.223 2.147c-.793.588-.594.433-1.169.563-.922.174-1.855-.9-2.026-2.1-.074-.581.169-1.158.636-1.511l.23-.153zm23.548 8.917c.01.586-.241 1.146-.686 1.527a1.97 1.97 0 0 1-1.614.446c-1.275-.038-2.34.963-2.381 2.238l-.59 8.742c-.109 1.614-1.088 2.629-2.433 2.538s-2.178-1.228-2.069-2.842l.623-9.225a1.91 1.91 0 0 0-1.776-2.033 2.08 2.08 0 0 1-1.404-.755c-.349-.428-.512-.978-.454-1.528a2 2 0 0 1 2.11-1.956l8.66.585c.589-.033 1.161.205 1.553.646s.562 1.037.461 1.618m7.464 20.367c-3.283-.222-7.182-2-6.99-6.248a3.99 3.99 0 0 1 .129-.83 19.2 19.2 0 0 0 .668-5.951c-.006-.111-.007-.22 0-.326.172-3.941 4.073-5.434 7.425-5.309 2.664.079 5.3 1.473 5.175 3.356-.064.941-.659 2.32-1.91 2.235a6.92 6.92 0 0 1-2.295-.9c-1.017-.458-2.188-.426-3.178.089a1.06 1.06 0 0 0-.216 1.809 3.51 3.51 0 0 0 1.536.509c1.4.2 3.155.247 3.044 1.894-.116 1.715-1.431 1.66-2.438 1.693-1.257.016-3.27.05-3.3 1.872a2.59 2.59 0 0 0 2.854 1.915c2.519-.1 3.108-1.378 4.508-1.182a2.17 2.17 0 0 1 1.583 2.606c-.146.767-.987 1.588-2.564 2.158a10.56 10.56 0 0 1-4.029.606m21-5.234c-.875-.059-2.437-1.583-3.938-1.685-.844-.057-1.559.3-1.623 1.242-.155 2.287 7.687 2.444 7.314 7.959-.218 3.228-2.916 5.512-6.792 5.25-2.532-.171-6.18-1.971-6.032-4.157.048-.706.833-2.106 2.084-2.021 1.751.118 2.421 1.818 4.547 1.962 1.376.093 1.814-.35 1.875-1.258.15-2.219-7.689-2.411-7.314-7.959.227-3.362 2.914-5.478 6.478-5.237 2.251.152 5.552 1.49 5.391 3.877a2.02 2.02 0 0 1-1.99 2.027"/></g></svg>
