<svg xmlns="http://www.w3.org/2000/svg" width="358" height="194.995"><defs><clipPath id="a"><path fill="#2d577c" d="M0 0h358v194.995H0z" data-name="Rectangle 173"/></clipPath></defs><g fill="#2d577c" clip-path="url(#a)" data-name="Group 172"><path d="M266.172 2.587a21.584 21.584 0 00-14.511 15.722c-.708 3.027-.736 6.393-1.147 9.494-.384 2.9-1.187 6.031-.786 8.957a32.4 32.4 0 002.61 8.192c1.583 3.728 2.642 6.4 6.146 8.677 2.726 1.771 5.8 3.03 8.357 5.053 2.156 1.7 3.8 4.148 6.107 5.651 1.351.88 7.916 5.414 15.12 2.959 8.552-2.915 15.945-13.252 15.945-18.532s1.351-14.806 1.228-18.49-1.105-11.273-5.526-16.407-13.261-12.009-15.962-12.746c-3.672-1-6.729-1.62-10.5-.583-2.358.648-4.766 1.242-7.078 2.052" data-name="Path 3289"/><path d="M276.699 75.654c5.538-2.051 18.531-4.669 22.409-4.727 2.517-.038 3.013 8.786 3.376 12.218.537 5.075 1.534 13.237 1.719 15.594.138 1.752-2.2 2.484-3.807 3.07a56.731 56.731 0 01-5.6 1.85c-2.038.509-5.7 1.56-7.78 1.895-1.755.283-4.279-6.135-7.368-14.8-1.825-5.119-4.6-14.489-2.947-15.1" data-name="Path 3290"/><path d="M280.912 66.623c.35.273.683.394 1.015.685a4.62 4.62 0 01.846.929 5.731 5.731 0 01-.215 6.887 25.583 25.583 0 01-1.478-6.183l-.14-1.055a3.282 3.282 0 01-.029-1.264" data-name="Path 3291"/><path d="M288.65 74.27a30.788 30.788 0 01-1.709-5.169 8.692 8.692 0 011.086-5.575 12.728 12.728 0 011.042 4c.274 2.139 1.014 4.8-.417 6.746" data-name="Path 3292"/><path d="M294.302 62.727c1.06 1.624 2.071 3.086 2.285 5.015a9.131 9.131 0 01-1.023 5.422 9.415 9.415 0 01-.913-2.634c-.265-1.241-.375-2.479-.532-3.693a7.507 7.507 0 01.184-4.11" data-name="Path 3293"/><path d="M31.61 103.339c-.253 3.739-2.826 5.068-5.684 4.875a5.716 5.716 0 00-5.883 5.529l-1.459 21.6c-.269 3.988-2.689 6.5-6.011 6.272s-5.383-3.034-5.114-7.023L9 111.799a4.717 4.717 0 00-4.391-5.02 5.131 5.131 0 01-4.591-5.643 4.944 4.944 0 015.215-4.833l21.4 1.445c2.858.193 5.241 1.689 4.977 5.595" data-name="Path 3294"/><path d="M70.105 151.596c-.208 3.074-.527 7.81-5.858 7.45a6.518 6.518 0 01-1.665-.31 19.827 19.827 0 00-10.656-.522 12.786 12.786 0 01-3.628.256c-10.507-.709-17.742-10.8-16.833-24.257.881-13.045 9.754-22.63 19.952-21.941a12.436 12.436 0 0110.214 6.2 5.438 5.438 0 015.667-4.626c5.331.36 5.011 5.1 4.8 8.171zm-19.521-3.989c5.794.391 9-5.736 9.389-11.469.382-5.65-1.879-12.4-7.751-12.793-6.18-.417-10.233 5.82-10.615 11.47-.387 5.733 3.028 12.391 8.977 12.793" data-name="Path 3295"/><path d="M99.654 93.242c-8.5-.574-9.966 9.678-4.3 11.9a29.7 29.7 0 006.483 1.69c3 .453 6.715.537 6.672 4.624.111 4.1-3.879 4.579-6.892 4.376-5.408-.365-12.507 1.326-13.09 9.967-.628 9.306 5.645 10.648 11.443 12.125 5.269 1.274 10.229 2.527 9.718 10.088l-.493 7.312c-.23 3.407-2.49 5.842-6.121 5.6-3.477-.235-5.543-2.962-5.313-6.369a6.884 6.884 0 00-4.673-7.173c-9.514-2.828-17-9.752-16.15-22.362.309-4.57 4.02-12.416 9.453-14.72-3.96-2.271-5.907-7.911-5.638-11.9.533-7.894 6.3-16.269 19.586-15.372 8.962.605 13.162 5.062 12.982 7.721-.247 3.656-2.009 5.624-5.116 5.664-2.781-.188-5.775-2.978-8.556-3.165" data-name="Path 3296"/><path d="M115.221 109.819c.269-3.988 2.689-6.5 6.011-6.272s5.383 3.034 5.114 7.023l-2.154 31.907c-.269 3.988-2.689 6.5-6.011 6.272s-5.383-3.034-5.114-7.023z" data-name="Path 3297"/><path d="M137.946 110.873c.561-8.309 7.2-13.537 16.007-12.942 5.562.376 13.721 3.681 13.323 9.58-.185 2.742-2.213 5.193-4.917 5.01-2.163-.146-6.022-3.913-9.73-4.163-2.086-.141-3.853.742-4.01 3.068-.365 5.4 22.659 5.787 21.066 29.385-.841 12.464-9.511 22.479-21.486 21.67s-19.22-11.9-18.378-24.362a26.389 26.389 0 014.051-12.464 26.666 26.666 0 004.044-14.058q.005-.354.03-.719m3.2 27.963c-.387 5.733 1.841 12.277 7.79 12.678s9.233-5.721 9.621-11.454c.382-5.65-1.8-12.392-7.983-12.809s-9.047 5.935-9.428 11.585" data-name="Path 3298"/><path d="M175.325 123.057c.269-3.988 2.689-6.5 6.011-6.272s5.383 3.034 5.114 7.023l-2.154 31.907c-.27 3.988-2.689 6.5-6.011 6.272s-5.383-3.034-5.114-7.023z" data-name="Path 3299"/><path d="M218.262 161.298c-2.642 3.494-6.149 6.012-11.171 5.673-13.365-.9-17.1-13.425-16.386-23.977.477-7.063 3.7-14.608 9.562-18.636 10.179-7.076 14.711 1.661 11.12 5.425-1.249 1.251-2.756 1.734-4.291 2.632-2.927 1.973-4.969 6.926-5.266 11.33-.477 7.063 1.714 12.553 6.426 12.871 2.858.193 4.825-1.344 5.184-6.662l.847-12.547c.219-3.241 2.513-6.174 5.989-5.939s5.355 3.45 5.136 6.69l-.847 12.547c-.364 5.4 1.383 7.1 4.164 7.293 4.79.323 7.7-4.905 8.175-11.885.3-4.4-.983-9.582-3.618-11.93-1.4-1.1-2.829-1.777-3.9-3.185-3.053-4.213 2.7-12.338 11.671-3.886 5.265 4.779 7.447 12.69 6.971 19.752-.724 10.719-6.945 22.4-19.692 21.541-5.022-.339-7.944-3.04-10.075-7.107m6.277-57.338a6.613 6.613 0 012.81-1.4c2.363-.508 4.441 2.053 4.913 4.255a5.093 5.093 0 01-2.384 5.432l-7.967 5.304c-1.961 1.454-1.469 1.069-2.888 1.391-2.28.43-4.583-2.229-5.005-5.179a4.044 4.044 0 011.572-3.733l.573-.379z" data-name="Path 3300"/><path d="M282.726 126.011c-.253 3.739-2.826 5.068-5.684 4.875a5.717 5.717 0 00-5.883 5.529l-1.459 21.6c-.269 3.988-2.689 6.5-6.011 6.272s-5.383-3.034-5.114-7.023l1.539-22.8a4.717 4.717 0 00-4.389-5.025 5.13 5.13 0 01-4.591-5.642 4.944 4.944 0 015.215-4.833l21.4 1.445c2.858.193 5.24 1.689 4.977 5.594" data-name="Path 3301"/><path d="M301.163 176.345c-8.112-.548-17.749-4.954-17.273-15.44a9.9 9.9 0 01.318-2.05 47.431 47.431 0 001.651-14.706q-.023-.412-.007-.806c.425-9.738 10.064-13.427 18.347-13.118 6.584.194 13.1 3.639 12.789 8.293-.157 2.326-1.628 5.733-4.719 5.524-2.086-.141-3.939-1.435-5.671-2.219-2.03-.972-5.661-1.217-7.853.221-1.536.9-2.383 3.094-.535 4.471a8.675 8.675 0 003.8 1.258c3.46.484 7.8.61 7.522 4.682-.286 4.238-3.536 4.1-6.025 4.184-3.107.041-8.079.123-8.15 4.625.1 2.01 2.7 4.857 7.053 4.733 6.225-.247 7.68-3.4 11.14-2.92 2.764.437 4.493 3.559 3.911 6.441-.361 1.9-2.438 3.925-6.336 5.332a26.1 26.1 0 01-9.957 1.5" data-name="Path 3302"/><path d="M353.068 163.399c-2.164-.146-6.023-3.912-9.731-4.163-2.086-.141-3.853.742-4.01 3.068-.382 5.65 18.995 6.04 18.073 19.667-.538 7.977-7.206 13.62-16.785 12.973-6.258-.423-15.271-4.871-14.907-10.272.118-1.745 2.059-5.2 5.149-4.994 4.326.292 5.983 4.493 11.236 4.849 3.4.229 4.482-.866 4.634-3.11.37-5.484-19-5.957-18.074-19.667.561-8.309 7.2-13.537 16.007-12.942 5.563.376 13.721 3.681 13.323 9.58-.185 2.742-2.212 5.193-4.917 5.01" data-name="Path 3303"/></g></svg>