<svg xmlns="http://www.w3.org/2000/svg" xmlns:xlink="http://www.w3.org/1999/xlink" width="100" height="101.065" viewBox="0 0 100 101.065">
  <defs>
    <clipPath id="clip-path">
      <path id="Path_3077" data-name="Path 3077" d="M50,0C22.386,0,0,22.623,0,50.531s22.386,50.534,50,50.534,50-22.624,50-50.534S77.614,0,50,0Z" fill="none"/>
    </clipPath>
  </defs>
  <g id="Group_114" data-name="Group 114" clip-path="url(#clip-path)">
    <path id="Path_3063" data-name="Path 3063" d="M50.015,8.621a32.2,32.2,0,1,1-31.859,32.2,32.03,32.03,0,0,1,31.859-32.2" transform="translate(0 0.092)" fill="#ebb65e"/>
    <path id="Path_3064" data-name="Path 3064" d="M72.693,100.277c-.662-13.84-10.561-24.828-22.678-24.828S28,86.437,27.337,100.277Z" transform="translate(0 0.804)" fill="#ffbf9e"/>
    <path id="Path_3065" data-name="Path 3065" d="M21.68,46.337a5.876,5.876,0,1,1-5.813,5.875,5.844,5.844,0,0,1,5.813-5.875" transform="translate(0 0.493)" fill="#ffbf9e"/>
    <path id="Path_3066" data-name="Path 3066" d="M78.351,46.337a5.876,5.876,0,1,1-5.813,5.875,5.844,5.844,0,0,1,5.813-5.875" transform="translate(0 0.493)" fill="#ffbf9e"/>
    <path id="Path_3067" data-name="Path 3067" d="M56.346,76.476a6.461,6.461,0,0,1-12.774.037C34.557,79.6,27.878,88.983,27.338,100.266H72.693C72.151,88.935,65.418,79.519,56.346,76.476Z" transform="translate(0 0.814)" fill="#8f383c"/>
    <path id="Path_3068" data-name="Path 3068" d="M50.015,17.69A30.411,30.411,0,1,1,19.926,48.1,30.25,30.25,0,0,1,50.015,17.69" transform="translate(0 0.188)" fill="#ffd4be"/>
    <path id="Path_3069" data-name="Path 3069" d="M41.26,53.56c0,2.277-2.449,4.123-5.47,4.123s-5.471-1.846-5.471-4.123,2.449-4.123,5.471-4.123,5.47,1.846,5.47,4.123" transform="translate(0 0.527)" fill="#f39e9c"/>
    <path id="Path_3070" data-name="Path 3070" d="M64.241,49.437c3.021,0,5.47,1.846,5.47,4.123s-2.449,4.123-5.47,4.123-5.47-1.846-5.47-4.123,2.449-4.123,5.47-4.123" transform="translate(0 0.527)" fill="#f39e9c"/>
    <path id="Path_3071" data-name="Path 3071" d="M38.1,44.809a2.1,2.1,0,1,1-2.081,2.1,2.092,2.092,0,0,1,2.081-2.1" transform="translate(0 0.477)" fill="#2f271e"/>
    <path id="Path_3072" data-name="Path 3072" d="M61.933,44.809a2.1,2.1,0,1,1-2.081,2.1,2.092,2.092,0,0,1,2.081-2.1" transform="translate(0 0.477)" fill="#2f271e"/>
    <path id="Path_3073" data-name="Path 3073" d="M50.015,54.272a5.27,5.27,0,0,1-4.556-2.607.729.729,0,0,1,.257-.99.713.713,0,0,1,.981.26,3.858,3.858,0,0,0,6.636,0,.713.713,0,0,1,.981-.26.73.73,0,0,1,.257.99,5.27,5.27,0,0,1-4.556,2.607" transform="translate(0 0.539)" fill="#2f271e"/>
    <path id="Path_3074" data-name="Path 3074" d="M80.1,47.272S81.3,32.062,72.693,20.818c0,0-14.728-17.97-40.1-5.377a9.471,9.471,0,0,0,.3,9.311s8.435,9.313,34.854,4.365A40.908,40.908,0,0,0,80.1,47.272" transform="translate(0 0.117)" fill="#ebb65e"/>
    <path id="Path_3075" data-name="Path 3075" d="M33.524,15.076S15.867,19.725,19.952,46.934c0,0,7.071-6.055,12.115-19.848C32.067,27.086,36.017,16.965,33.524,15.076Z" transform="translate(0 0.161)" fill="#ebb65e"/>
    <rect id="Rectangle_150" data-name="Rectangle 150" width="11.229" height="8.725" transform="translate(51.262 92.355)" fill="#a63739"/>
    <path id="Path_3076" data-name="Path 3076" d="M62.517,30.312c.229-.025,14.449-1.086,18.509-14,0,0-5.8-.6-8.333-1.81,0,0,4.154-1.946,5.109-5.861,0,0-47.1-7.294-46.274,6.524,0,0-2.577,4.24,1.369,9.633,0,0,5.522,7.566,29.62,5.514" transform="translate(0 0.072)" fill="#ebb65e"/>
  </g>
</svg>
