<svg id="Logo" xmlns="http://www.w3.org/2000/svg" xmlns:xlink="http://www.w3.org/1999/xlink" width="144.874" height="78.91" viewBox="0 0 144.874 78.91">
  <defs>
    <clipPath id="clip-path">
      <rect id="Rectangle_173" data-name="Rectangle 173" width="144.874" height="78.91" fill="none"/>
    </clipPath>
  </defs>
  <g id="Group_172" data-name="Group 172" clip-path="url(#clip-path)">
    <path id="Path_3289" data-name="Path 3289" d="M1073.24,1.047a8.735,8.735,0,0,0-5.872,6.362c-.287,1.225-.3,2.587-.464,3.842a13.96,13.96,0,0,0-.318,3.625,13.114,13.114,0,0,0,1.056,3.315c.641,1.509,1.069,2.591,2.487,3.512,1.1.716,2.345,1.226,3.382,2.045.873.689,1.538,1.679,2.471,2.287.547.356,3.2,2.191,6.119,1.2,3.461-1.18,6.453-5.363,6.453-7.5s.547-5.992.5-7.482a11.321,11.321,0,0,0-2.236-6.639c-1.789-2.077-5.366-4.86-6.46-5.158A7.471,7.471,0,0,0,1076.1.217c-.954.262-1.929.5-2.864.83" transform="translate(-965.527 0)"/>
    <path id="Path_3290" data-name="Path 3290" d="M1180.284,304.961a43.956,43.956,0,0,1,9.068-1.913c1.019-.015,1.219,3.555,1.366,4.944.217,2.054.621,5.357.7,6.311.056.709-.891,1.005-1.541,1.242a22.955,22.955,0,0,1-2.268.749c-.825.206-2.308.631-3.148.767-.71.114-1.732-2.483-2.981-5.988-.739-2.072-1.863-5.863-1.193-6.112" transform="translate(-1068.311 -274.345)"/>
    <path id="Path_3291" data-name="Path 3291" d="M1200.025,284.659c.142.111.276.159.411.277a1.876,1.876,0,0,1,.342.376,2.319,2.319,0,0,1-.087,2.787,10.355,10.355,0,0,1-.6-2.5l-.057-.427a1.327,1.327,0,0,1-.012-.512" transform="translate(-1086.347 -257.698)"/>
    <path id="Path_3292" data-name="Path 3292" d="M1226.336,275.773a12.455,12.455,0,0,1-.692-2.092,3.517,3.517,0,0,1,.439-2.256,5.154,5.154,0,0,1,.422,1.618c.111.866.41,1.942-.169,2.73" transform="translate(-1109.526 -245.718)"/>
    <path id="Path_3293" data-name="Path 3293" d="M1255.99,268.015a4.64,4.64,0,0,1,.925,2.029,3.694,3.694,0,0,1-.414,2.194,3.811,3.811,0,0,1-.37-1.066c-.107-.5-.152-1-.215-1.494a3.036,3.036,0,0,1,.075-1.663" transform="translate(-1136.893 -242.631)"/>
    <path id="Path_3294" data-name="Path 3294" d="M12.792,414.263a1.967,1.967,0,0,1-2.3,1.973,2.313,2.313,0,0,0-2.381,2.237l-.59,8.743c-.109,1.614-1.088,2.629-2.433,2.538s-2.178-1.228-2.069-2.842l.623-9.225a1.909,1.909,0,0,0-1.776-2.033A2.076,2.076,0,0,1,.007,413.37a2,2,0,0,1,2.11-1.956l8.66.585a1.935,1.935,0,0,1,2.014,2.264" transform="translate(0 -372.444)"/>
    <path id="Path_3295" data-name="Path 3295" d="M149.779,495.484c-.084,1.244-.213,3.161-2.371,3.015a2.639,2.639,0,0,1-.674-.125,8.024,8.024,0,0,0-4.312-.211,5.177,5.177,0,0,1-1.468.1c-4.252-.287-7.18-4.369-6.812-9.816.356-5.279,3.947-9.158,8.074-8.879a5.033,5.033,0,0,1,4.133,2.508,2.2,2.2,0,0,1,2.293-1.872c2.157.146,2.028,2.062,1.944,3.306Zm-7.9-1.614c2.345.158,3.643-2.321,3.8-4.641.154-2.286-.761-5.017-3.137-5.177-2.5-.169-4.141,2.355-4.3,4.642-.157,2.32,1.225,5.014,3.633,5.177" transform="translate(-121.409 -434.136)"/>
    <path id="Path_3296" data-name="Path 3296" d="M337.689,358.608c-3.439-.232-4.033,3.916-1.738,4.814a12.016,12.016,0,0,0,2.623.684c1.212.183,2.718.217,2.7,1.871.045,1.658-1.57,1.853-2.789,1.771-2.188-.148-5.061.537-5.3,4.034-.254,3.766,2.284,4.309,4.631,4.907,2.132.515,4.139,1.022,3.933,4.082l-.2,2.959a2.238,2.238,0,0,1-2.477,2.265,2.272,2.272,0,0,1-2.15-2.577,2.786,2.786,0,0,0-1.891-2.9c-3.85-1.144-6.88-3.946-6.536-9.049.125-1.849,1.627-5.024,3.825-5.957a5.477,5.477,0,0,1-2.281-4.815c.216-3.194,2.549-6.584,7.926-6.221,3.627.245,5.326,2.049,5.254,3.125-.1,1.48-.813,2.276-2.07,2.292-1.125-.076-2.337-1.2-3.462-1.281" transform="translate(-297.361 -320.875)"/>
    <path id="Path_3297" data-name="Path 3297" d="M483.88,444.909c.109-1.614,1.088-2.629,2.433-2.538s2.178,1.228,2.069,2.842l-.872,12.912c-.109,1.614-1.088,2.629-2.433,2.538s-2.178-1.228-2.069-2.842Z" transform="translate(-437.253 -400.468)"/>
    <path id="Path_3298" data-name="Path 3298" d="M557.713,423.486c.227-3.362,2.914-5.478,6.478-5.237,2.251.152,5.552,1.49,5.391,3.877a2.019,2.019,0,0,1-1.99,2.028c-.875-.059-2.437-1.583-3.938-1.685-.844-.057-1.559.3-1.623,1.242-.147,2.186,9.17,2.342,8.525,11.891-.341,5.044-3.849,9.1-8.695,8.769s-7.778-4.815-7.437-9.859a10.68,10.68,0,0,1,1.64-5.046,10.791,10.791,0,0,0,1.637-5.689q0-.143.012-.291m1.3,11.316c-.157,2.32.745,4.968,3.152,5.131s3.737-2.315,3.893-4.635c.154-2.286-.729-5.015-3.23-5.184s-3.661,2.4-3.815,4.688" transform="translate(-501.89 -378.618)"/>
    <path id="Path_3299" data-name="Path 3299" d="M740.687,501.453c.109-1.614,1.088-2.629,2.433-2.538s2.178,1.228,2.069,2.842l-.872,12.912c-.109,1.614-1.088,2.629-2.433,2.538s-2.178-1.228-2.069-2.842Z" transform="translate(-669.737 -451.657)"/>
    <path id="Path_3300" data-name="Path 3300" d="M825.642,461.743a5.049,5.049,0,0,1-4.52,2.3c-5.409-.365-6.919-5.433-6.631-9.7a10.052,10.052,0,0,1,3.87-7.541c4.119-2.863,5.953.672,4.5,2.2a7.622,7.622,0,0,1-1.737,1.065c-1.185.8-2.011,2.8-2.131,4.585-.193,2.858.693,5.08,2.6,5.209,1.157.078,1.953-.544,2.1-2.7l.343-5.077a2.274,2.274,0,1,1,4.5.3l-.343,5.077c-.147,2.186.56,2.875,1.685,2.951,1.938.131,3.118-1.985,3.308-4.81.12-1.782-.4-3.878-1.464-4.828a7.615,7.615,0,0,1-1.578-1.289c-1.235-1.7,1.091-4.993,4.723-1.573a10.053,10.053,0,0,1,2.821,7.993c-.293,4.338-2.811,9.066-7.969,8.717a4.708,4.708,0,0,1-4.077-2.876m2.54-23.2a2.676,2.676,0,0,1,1.137-.565c.956-.206,1.8.831,1.988,1.722a2.061,2.061,0,0,1-.965,2.2l-3.223,2.147c-.793.588-.594.433-1.169.563-.922.174-1.855-.9-2.026-2.1a1.636,1.636,0,0,1,.636-1.511l.23-.153Z" transform="translate(-737.318 -396.469)"/>
    <path id="Path_3301" data-name="Path 3301" d="M1085.733,511.135a1.967,1.967,0,0,1-2.3,1.973,2.313,2.313,0,0,0-2.381,2.238l-.59,8.742c-.109,1.614-1.088,2.629-2.433,2.538s-2.178-1.228-2.069-2.842l.623-9.225a1.909,1.909,0,0,0-1.776-2.033,2.076,2.076,0,0,1-1.858-2.283,2,2,0,0,1,2.11-1.956l8.66.585a1.935,1.935,0,0,1,2.014,2.264" transform="translate(-971.321 -460.141)"/>
    <path id="Path_3302" data-name="Path 3302" d="M1219.9,575c-3.283-.222-7.182-2-6.99-6.248a3.992,3.992,0,0,1,.129-.83,19.2,19.2,0,0,0,.668-5.951c-.006-.111-.007-.22,0-.326.172-3.941,4.073-5.434,7.425-5.309,2.664.079,5.3,1.473,5.175,3.356-.064.941-.659,2.32-1.91,2.235a6.922,6.922,0,0,1-2.295-.9,3.644,3.644,0,0,0-3.178.089,1.06,1.06,0,0,0-.216,1.809,3.51,3.51,0,0,0,1.536.509c1.4.2,3.155.247,3.044,1.894-.116,1.715-1.431,1.66-2.438,1.693-1.257.016-3.27.05-3.3,1.872a2.587,2.587,0,0,0,2.854,1.915c2.519-.1,3.108-1.378,4.508-1.182a2.167,2.167,0,0,1,1.583,2.606c-.146.767-.987,1.588-2.564,2.158a10.562,10.562,0,0,1-4.029.606" transform="translate(-1098.024 -503.638)"/>
    <path id="Path_3303" data-name="Path 3303" d="M1402.692,641.54c-.875-.059-2.437-1.583-3.938-1.685-.844-.057-1.559.3-1.623,1.242-.155,2.287,7.687,2.444,7.314,7.959-.218,3.228-2.916,5.512-6.792,5.25-2.532-.171-6.18-1.971-6.032-4.157.048-.706.833-2.106,2.084-2.021,1.751.118,2.421,1.818,4.547,1.962,1.376.093,1.814-.35,1.875-1.258.15-2.219-7.689-2.411-7.314-7.959.227-3.362,2.914-5.478,6.478-5.237,2.251.152,5.552,1.49,5.391,3.877a2.019,2.019,0,0,1-1.99,2.027" transform="translate(-1259.814 -575.416)"/>
  </g>
</svg>
