<?xml version="1.0" standalone="no"?>
<!DOCTYPE svg PUBLIC "-//W3C//DTD SVG 1.1//EN" "http://www.w3.org/Graphics/SVG/1.1/DTD/svg11.dtd">
<svg xmlns="http://www.w3.org/2000/svg">
<defs >
<font id="InterTight" horiz-adv-x="1239" ><font-face
    font-family="Inter Tight"
    units-per-em="2048"
    panose-1="0 0 0 0 0 0 0 0 0 0"
    ascent="1984"
    descent="-494"
    alphabetic="0" />
<glyph unicode=" " glyph-name="space" horiz-adv-x="408" />
<glyph unicode="!" glyph-name="exclam" horiz-adv-x="642" d="M178 472L155 1490H487L464 472H178ZM321 -19Q241 -19 191 28T140 153Q140 229 190 276T321 324Q401 324 451 277T502 153Q502 76 452 29T321 -19Z" />
<glyph unicode="&quot;" glyph-name="quotedbl" horiz-adv-x="1079" d="M199 866L168 1490H464L434 866H199ZM645 866L614 1490H910L880 866H645Z" />
<glyph unicode="#" glyph-name="numbersign" horiz-adv-x="1263" d="M654 0L899 1490H1132L887 0H654ZM-13 370L27 602H1190L1151 370H-13ZM131 0L375 1490H608L364 0H131ZM73 887L112 1120H1275L1236 887H73Z" />
<glyph unicode="$" glyph-name="dollar" horiz-adv-x="1274" d="M588 -186V1676H707V-186H588ZM648 -21Q468 -21 335 34T127 198T48 468H352Q358 394 396 344T498 268T645 243Q725 243 784 266T876 330T909 427Q909 477 880 511T794 569T656 612L493 652Q305 697
196 795T87 1059Q87 1194 160 1295T361 1453T652 1510Q818 1510 941 1453T1134 1295T1206 1062H903Q895 1149 829 1198T649 1247Q573 1247 520 1226T438 1166T410 1079Q410 1027 442 992T527 934T645 896L778 863Q875 841 957 805T1099 715T1193 591T1226 426Q1226
289 1158 189T960 34T648 -21Z" />
<glyph unicode="%" glyph-name="percent" horiz-adv-x="1693" d="M903 280V358Q903 448 941 523T1052 643T1230 689Q1338 689 1410 644T1520 524T1558 358V280Q1558 190 1520 115T1409 -6T1230 -51Q1124 -51 1051 -6T941 114T903 280ZM1114 358V280Q1114 228 1139
182T1230 136Q1297 136 1321 181T1345 280V358Q1345 412 1322 457T1230 502Q1165 503 1140 458T1114 358ZM138 1132V1210Q138 1300 176 1375T288 1496T466 1541Q573 1541 646 1496T757 1376T793 1210V1132Q794 1042 756 967T645 848T466 802Q360 803 287 848T176
968T138 1132ZM351 1210V1132Q351 1078 376 1033T466 989Q532 988 556 1033T580 1132V1210Q581 1264 558 1309T466 1355Q400 1355 376 1309T351 1210ZM234 0L1258 1490H1449L425 0H234Z" />
<glyph unicode="&amp;" glyph-name="ampersand" horiz-adv-x="1311" d="M544 -22Q390 -22 278 33T106 184T45 396Q45 484 80 550T179 674T324 789L613 979Q668 1016 694 1054T721 1140Q721 1184 685 1222T584 1260Q541 1260 509 1241T459 1191T441 1122Q441 1075
467 1027T537 925T632 810L1339 0H1015L427 656Q369 723 311 795T215 948T176 1126Q176 1235 226 1321T368 1458T582 1509Q702 1509 788 1461T922 1333T969 1157Q969 1053 917 968T771 814L467 594Q406 550 376 503T346 413Q346 360 372 318T447 251T560 226Q638
226 715 262T854 364T955 523T993 726H1250Q1250 590 1220 481T1138 290T1016 158Q994 144 974 132T931 105Q849 38 747 8T544 -22Z" />
<glyph unicode="&apos;" glyph-name="quotesingle" horiz-adv-x="632" d="M199 866L168 1490H464L434 866H199Z" />
<glyph unicode="(" glyph-name="parenleft" horiz-adv-x="704" d="M130 607Q130 772 163 951T254 1296T388 1581H674Q603 1426 552 1258T473 924T445 607Q445 477 468 345T542 62T674 -279H388Q261 -70 196 156T130 607Z" />
<glyph unicode=")" glyph-name="parenright" horiz-adv-x="704" d="M30 -279Q113 -89 163 62T236 345T259 607Q259 757 232 923T153 1258T30 1581H316Q392 1461 450 1296T541 952T574 607Q574 382 509 156T316 -279H30Z" />
<glyph unicode="*" glyph-name="asterisk" horiz-adv-x="1090" d="M447 652L466 934L231 776L132 946L386 1070L132 1194L231 1366L466 1208L447 1490H642L624 1208L859 1366L957 1194L704 1070L957 946L859 776L624 934L642 652H447Z" />
<glyph unicode="+" glyph-name="plus" horiz-adv-x="1325" d="M532 80V1111H792V80H532ZM147 465V726H1177V465H147Z" />
<glyph unicode="," glyph-name="comma" horiz-adv-x="656" d="M84 -397L172 227H480L293 -397H84Z" />
<glyph unicode="-" glyph-name="hyphen" horiz-adv-x="892" d="M786 734V488H106V734H786Z" />
<glyph unicode="." glyph-name="period" horiz-adv-x="624" d="M312 -19Q238 -19 187 31T136 155Q136 229 187 279T312 329Q386 329 437 279T488 155Q488 81 437 31T312 -19Z" />
<glyph unicode="/" glyph-name="slash" horiz-adv-x="731" d="M739 1560L259 -224H-8L472 1560H739Z" />
<glyph unicode="0" glyph-name="zero" horiz-adv-x="1342" d="M671 -20Q481 -20 347 70T141 331T69 744Q69 985 141 1156T347 1419T671 1510Q861 1510 995 1419T1201 1157T1273 744Q1273 502 1202 332T997 71T671 -20ZM671 240Q762 240 824 298T919 470T952 744Q952
906 920 1019T825 1191T671 1251Q536 1251 463 1119T390 744Q390 583 422 470T518 299T671 240Z" />
<glyph unicode="1" glyph-name="one" horiz-adv-x="818" d="M722 1490V0H408V1191H399L59 976V1256L427 1490H722Z" />
<glyph unicode="2" glyph-name="two" horiz-adv-x="1223" d="M87 0V226L617 718Q685 783 731 835T801 938T825 1048Q825 1114 795 1161T714 1234T597 1260Q529 1260 478 1233T400 1154T372 1030H72Q72 1177 138 1284T324 1451T600 1510Q759 1510 878 1454T1063
1298T1129 1068Q1129 984 1096 903T979 721T741 481L523 268V257H1149V0H87Z" />
<glyph unicode="3" glyph-name="three" horiz-adv-x="1284" d="M638 -20Q474 -20 348 36T148 191T73 421H389Q392 367 425 326T513 263T638 240Q710 240 765 265T852 335T883 439Q883 500 850 545T756 617T610 643H471V875H610Q682 875 736 900T821 969T852 1071Q852
1128 826 1170T752 1236T641 1260Q576 1260 523 1237T438 1173T405 1074H102Q104 1203 175 1301T367 1454T642 1510Q797 1510 912 1454T1092 1303T1156 1090Q1156 965 1078 882T875 775V764Q1039 743 1124 650T1210 418Q1210 291 1137 192T934 37T638 -20Z" />
<glyph unicode="4" glyph-name="four" horiz-adv-x="1321" d="M65 262V509L686 1490H900V1146H773L381 526V514H1266V262H65ZM779 0V337L785 448V1490H1081V0H779Z" />
<glyph unicode="5" glyph-name="five" horiz-adv-x="1257" d="M632 -20Q478 -20 357 36T166 193T92 421H398Q402 335 469 282T632 228Q706 228 762 261T851 352T883 489Q883 567 850 627T760 720T627 754Q561 754 500 727T405 654L124 704L194 1490H1105V1232H454L417
859H425Q464 914 543 950T721 986Q855 986 960 923T1127 750T1188 497Q1188 346 1118 230T923 47T632 -20Z" />
<glyph unicode="6" glyph-name="six" horiz-adv-x="1290" d="M664 -20Q550 -20 443 18T252 141T119 366T69 711Q69 899 111 1047T233 1298T425 1456T675 1510Q824 1510 938 1452T1121 1295T1205 1074H896Q878 1152 819 1196T675 1240Q529 1240 454 1114T378 770H388Q422
836 478 883T608 955T762 980Q895 980 998 918T1161 748T1221 499Q1221 348 1151 231T955 47T664 -20ZM662 228Q735 228 792 262T882 357T916 491Q916 565 883 624T794 717T664 752Q592 752 534 717T443 622T409 490Q409 418 442 358T532 263T662 228Z" />
<glyph unicode="7" glyph-name="seven" horiz-adv-x="1129" d="M146 0L763 1222V1232H44V1490H1090V1228L472 0H146Z" />
<glyph unicode="8" glyph-name="eight" horiz-adv-x="1293" d="M646 -20Q478 -20 348 35T144 185T69 401Q69 494 111 572T227 702T392 769V778Q273 803 198 895T123 1109Q123 1225 190 1315T376 1458T646 1510Q797 1510 915 1458T1101 1315T1169 1109Q1169 987
1094 895T901 778V769Q991 754 1064 702T1180 572T1224 401Q1224 280 1150 185T945 35T646 -20ZM646 211Q721 211 777 238T864 313T896 426Q896 490 864 539T775 617T646 646Q574 646 518 618T429 540T396 426Q396 362 427 314T515 239T646 211ZM646 876Q709 876
757 901T834 972T862 1076Q862 1134 834 1178T758 1247T646 1272Q582 1272 534 1247T458 1178T430 1076Q430 1017 458 972T534 902T646 876Z" />
<glyph unicode="9" glyph-name="nine" horiz-adv-x="1290" d="M626 1512Q741 1512 847 1474T1038 1350T1172 1124T1221 780Q1221 591 1179 443T1057 191T866 33T616 -22Q468 -22 353 36T169 195T85 418H395Q413 338 471 293T616 248Q762 248 837 375T912 721H903Q870
656 813 609T683 536T528 511Q396 511 292 573T129 743T69 992Q70 1143 140 1260T335 1445T626 1512ZM628 1262Q557 1262 499 1228T408 1134T375 1000Q375 926 407 867T497 774T626 739Q699 739 756 774T848 869T882 1002Q882 1073 849 1132T759 1227T628 1262Z"
/>
<glyph unicode=":" glyph-name="colon" horiz-adv-x="624" d="M312 -19Q238 -19 187 31T136 155Q136 229 187 279T312 329Q386 329 437 279T488 155Q488 81 437 31T312 -19ZM312 716Q238 716 187 766T136 890Q136 964 187 1014T312 1064Q386 1064 437 1014T488
890Q488 816 437 766T312 716Z" />
<glyph unicode=";" glyph-name="semicolon" horiz-adv-x="641" d="M84 -397L172 227H480L293 -397H84ZM329 716Q255 716 204 766T153 890Q153 964 204 1014T329 1064Q403 1064 454 1014T505 890Q505 816 454 766T329 716Z" />
<glyph unicode="&lt;" glyph-name="less" horiz-adv-x="1325" d="M150 468V724L1174 1176V880L473 598L483 614V578L473 592L1174 311V17L150 468Z" />
<glyph unicode="=" glyph-name="equal" horiz-adv-x="1325" d="M160 708V966H1164V708H160ZM160 226V484H1164V226H160Z" />
<glyph unicode="&gt;" glyph-name="greater" horiz-adv-x="1325" d="M1174 468L150 17V311L852 592L842 578V614L852 598L150 880V1176L1174 724V468Z" />
<glyph unicode="?" glyph-name="question" horiz-adv-x="1086" d="M357 459V483Q357 611 379 683T444 799T548 881Q615 924 660 974T706 1096Q706 1147 682 1184T618 1241T528 1262Q481 1262 439 1242T370 1181T341 1081H45Q47 1226 113 1321T288 1463T530 1510Q675
1510 786 1463T960 1325T1024 1107Q1024 979 963 894T799 748Q742 714 705 680T650 600T632 483V459H357ZM495 -19Q415 -19 365 28T314 153Q314 229 364 276T495 324Q575 324 625 277T676 153Q676 76 626 29T495 -19Z" />
<glyph unicode="@" glyph-name="at" horiz-adv-x="2044" d="M1045 -429Q813 -429 632 -366T325 -182T135 113T69 510Q69 730 135 909T327 1216T637 1414T1054 1483Q1271 1483 1441 1420T1731 1240T1912 963T1974 607Q1974 475 1949 361T1868 161T1723 27T1504
-21Q1438 -21 1393 -2T1322 54T1288 137H1280Q1264 95 1218 62T1106 8T962 -12Q822 -12 720 54T562 241T506 520Q506 687 571 805T743 987T979 1050Q1083 1050 1158 1017T1253 945H1264V1026H1492V316Q1492 266 1513 239T1573 212Q1623 212 1657 256T1708 391T1725
624Q1725 762 1689 865T1589 1041T1439 1160T1255 1227T1051 1249Q870 1249 734 1194T509 1040T374 808T329 519Q329 346 376 214T517 -9T747 -146T1062 -193Q1146 -193 1226 -181T1370 -151T1474 -118L1545 -329Q1501 -354 1423 -377T1247 -414T1045 -429ZM1010
228Q1100 228 1152 262T1227 364T1250 530Q1250 617 1229 678T1155 771T1010 803Q930 803 873 769T787 673T757 528Q757 451 781 383T860 271T1010 228Z" />
<glyph unicode="A" glyph-name="A" horiz-adv-x="1463" d="M352 0H15L529 1490H935L1448 0H1112L738 1150H726L352 0ZM332 586H1129V340H332V586Z" />
<glyph unicode="B" glyph-name="B" horiz-adv-x="1286" d="M96 0V1490H692Q856 1490 966 1441T1131 1306T1187 1108Q1187 1021 1152 955T1056 847T917 788V773Q1002 769 1077 725T1198 602T1245 412Q1245 294 1187 201T1014 54T732 0H96ZM410 257H668Q799 257
859 308T920 443Q920 505 891 552T806 627T675 654H410V257ZM410 866H644Q709 866 759 889T839 954T868 1056Q868 1136 812 1185T650 1235H410V866Z" />
<glyph unicode="C" glyph-name="C" horiz-adv-x="1473" d="M763 -20Q565 -20 408 70T160 331T69 744Q69 988 160 1159T409 1420T763 1510Q893 1510 1004 1474T1200 1368T1340 1198T1409 968H1091Q1082 1029 1056 1078T987 1161T890 1213T770 1232Q656 1232 570
1175T436 1009T388 744Q388 585 436 477T570 313T769 258Q832 258 886 275T982 324T1052 402T1091 509H1409Q1397 406 1349 311T1217 142T1020 24T763 -20Z" />
<glyph unicode="D" glyph-name="D" horiz-adv-x="1422" d="M624 0H236V270H610Q751 270 846 319T990 474T1039 746Q1039 911 991 1016T847 1170T611 1220H230V1490H629Q854 1490 1016 1401T1265 1145T1352 746Q1352 513 1265 346T1014 90T624 0ZM410 1490V0H96V1490H410Z" />
<glyph unicode="E" glyph-name="E" horiz-adv-x="1187" d="M96 0V1490H1100V1230H410V880H1048V625H410V260H1102V0H96Z" />
<glyph unicode="F" glyph-name="F" horiz-adv-x="1131" d="M96 0V1490H1082V1230H410V821H1017V566H410V0H96Z" />
<glyph unicode="G" glyph-name="G" horiz-adv-x="1491" d="M773 -20Q563 -20 405 72T158 336T69 743Q69 985 161 1156T412 1419T767 1510Q893 1510 1002 1474T1196 1370T1334 1211T1403 1008H1084Q1069 1061 1042 1102T974 1172T884 1216T772 1232Q658 1232 572
1176T437 1010T388 746Q388 591 436 482T570 316T775 258Q882 258 957 296T1073 405T1114 570L1178 560H795V797H1418V609Q1418 413 1335 272T1107 56T773 -20Z" />
<glyph unicode="H" glyph-name="H" horiz-adv-x="1460" d="M96 0V1490H410V875H1050V1490H1364V0H1050V616H410V0H96Z" />
<glyph unicode="I" glyph-name="I" horiz-adv-x="506" d="M410 1490V0H96V1490H410Z" />
<glyph unicode="J" glyph-name="J" horiz-adv-x="1099" d="M511 -20Q376 -20 263 28T82 173T14 420V437H328V420Q328 361 351 319T415 255T511 232Q569 232 609 257T671 330T692 450V1490H1003V450Q1003 307 943 201T773 38T511 -20Z" />
<glyph unicode="K" glyph-name="K" horiz-adv-x="1346" d="M96 0V1490H410V833H430L966 1490H1343L791 823L1350 0H973L565 612L410 423V0H96Z" />
<glyph unicode="L" glyph-name="L" horiz-adv-x="1096" d="M96 0V1490H410V260H1049V0H96Z" />
<glyph unicode="M" glyph-name="M" horiz-adv-x="1809" d="M96 1490H485L895 489H912L1323 1490H1713V0H1405V970H1393L1006 7H798L414 972H402V0H96V1490Z" />
<glyph unicode="N" glyph-name="N" horiz-adv-x="1438" d="M1342 1490V0H1070L423 937H410V0H96V1490H372L1015 553H1028V1490H1342Z" />
<glyph unicode="O" glyph-name="O" horiz-adv-x="1534" d="M767 -20Q569 -20 411 70T161 331T69 744Q69 988 161 1159T411 1420T767 1510Q965 1510 1123 1421T1372 1160T1464 744Q1464 501 1373 330T1123 70T767 -20ZM767 258Q882 258 967 314T1098 478T1145 744Q1145
902 1099 1011T967 1176T767 1232Q653 1232 568 1176T436 1011T388 744Q388 587 435 479T568 314T767 258Z" />
<glyph unicode="P" glyph-name="P" horiz-adv-x="1259" d="M96 0V1490H683Q852 1490 971 1426T1154 1247T1218 984Q1218 836 1154 723T969 547T675 483H301V735H624Q715 735 774 767T863 855T893 984Q893 1059 864 1114T774 1201T623 1232H410V0H96Z" />
<glyph unicode="Q" glyph-name="Q" horiz-adv-x="1536" d="M658 518H926L1061 345L1193 191L1442 -122H1148L976 89L889 214L658 518ZM767 -20Q569 -20 411 70T161 331T69 744Q69 988 161 1159T411 1420T767 1510Q965 1510 1123 1421T1372 1160T1464 744Q1464
501 1373 330T1123 70T767 -20ZM767 258Q882 258 967 314T1098 478T1145 744Q1145 902 1099 1011T967 1176T767 1232Q653 1232 568 1176T436 1011T388 744Q388 587 435 479T568 314T767 258Z" />
<glyph unicode="R" glyph-name="R" horiz-adv-x="1278" d="M96 0V1490H683Q852 1490 971 1430T1154 1261T1218 1003Q1218 855 1154 748T969 585T675 528H282V781H624Q715 781 774 806T863 880T893 1003Q893 1078 864 1128T774 1205T623 1232H410V0H96ZM923 0L560
678H900L1271 0H923Z" />
<glyph unicode="S" glyph-name="S" horiz-adv-x="1274" d="M648 -21Q468 -21 335 34T127 198T48 468H352Q358 394 396 344T498 268T645 243Q725 243 784 266T876 330T909 427Q909 477 880 511T794 569T656 612L493 652Q305 697 196 795T87 1059Q87 1194 160 1295T361
1453T652 1510Q818 1510 941 1453T1134 1295T1206 1062H903Q895 1149 829 1198T649 1247Q573 1247 520 1226T438 1166T410 1079Q410 1027 442 992T527 934T645 896L778 863Q875 841 957 805T1099 715T1193 591T1226 426Q1226 289 1158 189T960 34T648 -21Z" />
<glyph unicode="T" glyph-name="T" horiz-adv-x="1302" d="M39 1230V1490H1263V1230H807V0H496V1230H39Z" />
<glyph unicode="U" glyph-name="U" horiz-adv-x="1427" d="M1016 1490H1331V523Q1331 360 1254 238T1037 47T713 -21Q528 -21 389 47T173 237T96 523V1490H410V549Q410 464 448 398T554 294T713 256Q805 256 873 293T978 397T1016 549V1490Z" />
<glyph unicode="V" glyph-name="V" horiz-adv-x="1463" d="M366 1490L725 358H739L1100 1490H1448L935 0H529L15 1490H366Z" />
<glyph unicode="W" glyph-name="W" horiz-adv-x="2055" d="M431 0L5 1490H349L596 455H609L880 1490H1175L1446 452H1459L1706 1490H2050L1623 0H1316L1034 974H1022L739 0H431Z" />
<glyph unicode="X" glyph-name="X" horiz-adv-x="1396" d="M392 1490L692 982H704L1005 1490H1361L906 744L1372 0H1008L704 508H692L386 0H26L492 744L34 1490H392Z" />
<glyph unicode="Y" glyph-name="Y" horiz-adv-x="1417" d="M8 1490H361L701 848H715L1055 1490H1408L865 526V0H552V526L8 1490Z" />
<glyph unicode="Z" glyph-name="Z" horiz-adv-x="1298" d="M80 0V186L824 1230H78V1490H1218V1303L474 260H1220V0H80Z" />
<glyph unicode="[" glyph-name="bracketleft" horiz-adv-x="704" d="M143 -279V1581H639V1347H442V-45H639V-279H143Z" />
<glyph unicode="\" glyph-name="backslash" horiz-adv-x="731" d="M472 -224L-8 1560H259L739 -224H472Z" />
<glyph unicode="]" glyph-name="bracketright" horiz-adv-x="704" d="M66 -279V-45H262V1347H66V1581H561V-279H66Z" />
<glyph unicode="^" glyph-name="asciicircum" horiz-adv-x="931" d="M440 1328H492V1248H440V1328ZM34 814L341 1456H590L897 814H663L459 1277H472L269 814H34Z" />
<glyph unicode="_" glyph-name="underscore" horiz-adv-x="909" d="M944 0V-236H-34V0H944Z" />
<glyph unicode="`" glyph-name="grave" horiz-adv-x="885" d="M500 1257L312 1452L440 1562L602 1366L500 1257Z" />
<glyph unicode="a" glyph-name="a" horiz-adv-x="1128" d="M409 -21Q303 -21 219 16T86 128T38 312Q38 406 72 468T165 570T299 629T458 657Q555 666 614 675T700 702T728 756V761Q728 830 685 868T562 906Q479 906 430 870T364 777L77 800Q99 902 163 976T328
1091T564 1132Q657 1132 742 1110T893 1043T999 925T1038 754V0H743V156H735Q708 103 663 64T555 2T409 -21ZM498 193Q566 193 618 220T700 294T730 399V518Q716 509 691 501T634 487T572 477T516 468Q461 460 420 443T357 396T334 322Q334 259 380 226T498 193Z"
/>
<glyph unicode="b" glyph-name="b" horiz-adv-x="1224" d="M726 -18Q636 -18 573 12T471 87T409 179H395V0H91V1490H400V929H409Q430 975 469 1022T571 1100T727 1132Q850 1132 952 1069T1117 877T1179 557Q1179 371 1119 243T957 48T726 -18ZM628 228Q704 228
756 270T835 386T862 558Q862 655 836 728T757 844T628 886Q553 886 501 846T421 732T393 558Q393 459 421 385T501 270T628 228Z" />
<glyph unicode="c" glyph-name="c" horiz-adv-x="1136" d="M594 -22Q423 -22 300 51T111 254T45 554Q45 726 111 856T301 1059T594 1132Q740 1132 849 1079T1023 930T1093 704H801Q793 760 767 802T698 867T598 890Q526 890 473 852T390 739T360 558Q360 452 389
376T472 260T598 220Q678 220 733 270T801 410H1093Q1086 282 1024 185T853 33T594 -22Z" />
<glyph unicode="d" glyph-name="d" horiz-adv-x="1224" d="M499 -18Q371 -18 268 48T105 242T45 557Q45 749 107 877T272 1068T497 1132Q591 1132 654 1101T756 1022T815 929H824V1490H1134V0H829V179H815Q794 133 754 88T652 12T499 -18ZM596 228Q671 228 723
269T803 385T831 558Q831 658 804 731T724 845T596 886Q520 886 468 844T389 729T362 558Q362 461 389 387T468 270T596 228Z" />
<glyph unicode="e" glyph-name="e" horiz-adv-x="1153" d="M600 -22Q428 -22 303 48T112 247T45 554Q45 726 111 856T299 1059T585 1132Q696 1132 792 1097T960 991T1072 814T1112 564V480H168V671H962L818 621Q818 706 792 769T715 866T587 901Q511 901 459 866T378
771T350 633V498Q350 407 382 343T471 244T604 209Q656 209 698 224T770 268T816 338L1102 319Q1081 216 1015 140T843 21T600 -22Z" />
<glyph unicode="f" glyph-name="f" horiz-adv-x="727" d="M695 1118V884H6V1118H695ZM164 0V1199Q164 1320 211 1400T341 1520T529 1560Q601 1560 660 1549T748 1529L694 1297Q675 1302 649 1307T594 1312Q526 1312 499 1281T472 1192V0H164Z" />
<glyph unicode="g" glyph-name="g" horiz-adv-x="1228" d="M591 -442Q365 -442 237 -353T81 -130L367 -92Q380 -126 408 -155T483 -201T598 -219Q699 -219 765 -171T831 -7V198H818Q798 152 757 110T652 42T499 16Q373 16 271 74T107 254T45 560Q45 751 107 878T273
1068T499 1132Q593 1132 656 1101T760 1022T820 929H832V1118H1137V-12Q1137 -154 1067 -250T874 -394T591 -442ZM597 249Q709 249 770 332T832 562Q832 660 805 732T725 845T597 886Q521 886 469 845T389 730T362 562Q362 466 389 396T468 287T597 249Z" />
<glyph unicode="h" glyph-name="h" horiz-adv-x="1216" d="M400 646V0H91V1490H390V919H404Q442 1018 526 1075T738 1132Q854 1132 941 1082T1076 937T1125 711V0H815V656Q815 759 763 817T615 875Q551 875 503 848T428 769T400 646Z" />
<glyph unicode="i" glyph-name="i" horiz-adv-x="491" d="M91 0V1118H400V0H91ZM501 1261Q432 1261 383 1307T334 1418Q334 1483 383 1528T501 1574Q571 1574 620 1529T669 1418Q669 1353 620 1307T501 1261Z" />
<glyph unicode="j" glyph-name="j" horiz-adv-x="491" d="M91 1118H400V-56Q400 -185 349 -264T203 -381T-23 -418H-86V-176H-46Q30 -176 60 -145T91 -51V1118ZM500 1261Q431 1261 382 1307T333 1418Q333 1483 382 1528T500 1574Q570 1574 619 1529T668 1418Q668
1353 619 1307T500 1261Z" />
<glyph unicode="k" glyph-name="k" horiz-adv-x="1124" d="M371 322L372 693H417L774 1118H1130L650 555H575L371 322ZM91 0V1490H400V0H91ZM788 0L460 486L666 706L1151 0H788Z" />
<glyph unicode="l" glyph-name="l" horiz-adv-x="491" d="M400 1490V0H91V1490H400Z" />
<glyph unicode="m" glyph-name="m" horiz-adv-x="1805" d="M91 0V1118H384V919H398Q433 1018 515 1075T710 1132Q825 1132 905 1075T1013 919H1025Q1059 1016 1149 1074T1361 1132Q1517 1132 1615 1033T1714 752V0H1404V690Q1404 784 1355 830T1231 876Q1147 876
1100 823T1052 682V0H752V698Q752 779 705 827T582 876Q530 876 489 850T424 779T400 670V0H91Z" />
<glyph unicode="n" glyph-name="n" horiz-adv-x="1211" d="M400 646V0H91V1118H395V919H406Q444 1018 527 1075T735 1132Q851 1132 937 1081T1072 936T1120 711V0H811V656Q811 758 758 816T612 875Q550 875 502 848T427 769T400 646Z" />
<glyph unicode="o" glyph-name="o" horiz-adv-x="1190" d="M594 -22Q425 -22 302 50T112 252T45 554Q45 728 111 857T301 1059T594 1132Q764 1132 887 1060T1077 858T1144 554Q1144 382 1078 253T888 51T594 -22ZM596 220Q673 220 725 263T803 383T830 556Q830
654 804 729T725 847T596 890Q518 890 466 847T387 729T360 556Q360 459 386 383T465 264T596 220Z" />
<glyph unicode="p" glyph-name="p" horiz-adv-x="1224" d="M91 -418V1118H395V929H409Q430 975 469 1022T571 1100T727 1132Q850 1132 952 1069T1117 877T1179 557Q1179 371 1119 243T957 48T726 -18Q636 -18 573 12T471 87T409 179H400V-418H91ZM628 228Q704
228 756 270T835 386T862 558Q862 655 836 728T757 844T628 886Q553 886 501 846T421 732T393 558Q393 459 421 385T501 270T628 228Z" />
<glyph unicode="q" glyph-name="q" horiz-adv-x="1224" d="M824 -418V179H815Q794 133 754 88T652 12T499 -18Q371 -18 268 48T105 242T45 557Q45 749 107 877T272 1068T497 1132Q591 1132 654 1101T756 1022T815 929H829V1118H1134V-418H824ZM596 228Q671 228
723 269T803 385T831 558Q831 658 804 731T724 845T596 886Q520 886 468 844T389 729T362 558Q362 461 389 387T468 270T596 228Z" />
<glyph unicode="r" glyph-name="r" horiz-adv-x="770" d="M91 0V1118H390V922H402Q433 1026 505 1079T670 1133Q694 1133 720 1131T768 1122V848Q746 855 708 859T636 864Q569 864 515 835T431 753T400 632V0H91Z" />
<glyph unicode="s" glyph-name="s" horiz-adv-x="1083" d="M1019 799L736 782Q725 835 677 873T548 912Q476 912 428 882T379 802Q379 762 410 734T519 689L722 649Q885 616 965 542T1045 347Q1045 236 981 154T805 25T548 -22Q326 -22 195 71T41 323L344 339Q359
271 412 236T548 201Q629 201 679 233T730 314Q730 397 586 426L393 466Q230 499 150 579T70 784Q70 892 129 970T294 1090T544 1132Q756 1132 877 1043T1019 799Z" />
<glyph unicode="t" glyph-name="t" horiz-adv-x="728" d="M684 1118V884H11V1118H684ZM164 1384H473V344Q473 288 498 262T578 235Q596 235 618 238T656 245L705 13Q654 -2 607 -9T513 -16Q346 -16 255 67T164 303V1384Z" />
<glyph unicode="u" glyph-name="u" horiz-adv-x="1207" d="M807 475V1118H1116V0H819V203H807Q769 106 682 46T469 -14Q357 -14 272 36T139 181T91 406V1118H400V460Q400 362 453 305T594 248Q650 248 698 273T776 350T807 475Z" />
<glyph unicode="v" glyph-name="v" horiz-adv-x="1133" d="M1131 1118L741 0H391L2 1118H329L564 317H576L807 1118H1131Z" />
<glyph unicode="w" glyph-name="w" horiz-adv-x="1674" d="M310 0L6 1118H320L493 366H503L684 1118H991L1174 371H1184L1354 1118H1667L1363 0H1036L844 703H830L638 0H310Z" />
<glyph unicode="x" glyph-name="x" horiz-adv-x="1108" d="M350 1118L553 726L764 1118H1083L759 558L1091 0H774L553 386L338 0H17L350 558L29 1118H350Z" />
<glyph unicode="y" glyph-name="y" horiz-adv-x="1133" d="M281 -418Q222 -419 171 -410T86 -387L156 -156L166 -158Q244 -181 299 -169T384 -80L402 -32L2 1118H327L558 297H570L804 1118H1131L697 -121Q666 -211 613 -278T478 -381T281 -418Z" />
<glyph unicode="z" glyph-name="z" horiz-adv-x="1104" d="M85 0V185L632 862V870H103V1118H1004V915L491 256V248H1023V0H85Z" />
<glyph unicode="{" glyph-name="braceleft" horiz-adv-x="899" d="M106 635V790Q231 790 280 840T329 1003V1173Q329 1307 366 1388T470 1511T630 1567T833 1581V1348Q704 1349 660 1299T616 1142V929Q616 874 597 822T524 727T371 660T106 635ZM833 -279Q723
-279 631 -265T471 -210T366 -87T329 129V299Q329 410 280 461T106 512V667Q270 667 370 642T524 575T596 480T616 372V160Q616 54 660 4T833 -47V-279ZM106 512V790H379V512H106Z" />
<glyph unicode="|" glyph-name="bar" horiz-adv-x="699" d="M496 1970V-480H202V1970H496Z" />
<glyph unicode="}" glyph-name="braceright" horiz-adv-x="899" d="M792 635Q629 635 529 660T375 727T302 821T283 929V1142Q283 1248 239 1298T66 1348V1581Q176 1581 268 1567T428 1512T533 1389T570 1173V1003Q570 891 619 841T792 790V635ZM66 -279V-47Q195
-47 239 3T283 160V372Q283 427 302 480T374 575T528 642T792 667V512Q668 512 619 461T570 299V129Q570 -5 533 -86T428 -209T268 -265T66 -279ZM792 512H520V790H792V512Z" />
<glyph unicode="~" glyph-name="asciitilde" horiz-adv-x="1325" d="M122 402Q118 540 156 635T266 779T437 829Q506 829 568 801T710 702Q752 666 781 647T848 626Q899 627 933 667T964 795H1202Q1207 658 1168 563T1057 418T888 368Q815 368 752 398T612 495Q567
535 541 553T477 571Q426 571 393 532T361 402H122Z" />
<glyph unicode="&#xa0;" glyph-name="uni00A0" horiz-adv-x="408" />
<glyph unicode="&#xa1;" glyph-name="exclamdown" horiz-adv-x="630" d="M153 -377L181 666H448L477 -377H153ZM314 1132Q384 1132 436 1081T490 957Q489 886 437 836T314 784Q242 785 191 835T140 957Q139 1030 190 1081T314 1132Z" />
<glyph unicode="&#xa2;" glyph-name="cent" horiz-adv-x="1136" d="M534 0V1490H653V0H534ZM594 168Q423 168 300 241T111 444T45 744Q45 916 111 1046T301 1249T594 1322Q740 1322 849 1269T1023 1120T1093 894H801Q793 950 767 992T698 1057T598 1080Q526 1080
473 1042T390 929T360 748Q360 642 389 567T472 451T598 410Q678 410 733 460T801 600H1093Q1086 472 1024 375T853 223T594 168Z" />
<glyph unicode="&#xa3;" glyph-name="sterling" horiz-adv-x="1309" d="M1193 0H111V260H1193V0ZM904 592H106V840H904V592ZM568 1068L592 450Q596 350 553 284T403 170L205 260Q238 267 254 293T276 356T280 432L258 1068Q253 1210 313 1309T481 1459T725 1510Q839
1510 928 1479T1078 1390T1169 1253T1195 1080L901 1088Q903 1150 880 1187T817 1241T730 1258Q685 1258 648 1237T590 1174T568 1068Z" />
<glyph unicode="&#xa4;" glyph-name="currency" horiz-adv-x="1499" d="M749 -20Q623 -20 512 27T316 160T185 360T137 608Q137 741 184 855T316 1054T511 1186T749 1234Q875 1234 985 1187T1180 1054T1313 855T1362 608Q1361 475 1313 361T1181 161T986 28T749
-20ZM749 170Q867 170 963 228T1117 385T1174 608Q1175 733 1117 832T963 989T749 1046Q630 1047 533 989T380 832T322 608Q323 485 379 386T533 228T749 170ZM1193 915L1054 1058L1259 1265L1402 1121L1193 915ZM1259 -25L1054 181L1193 322L1402 119L1259 -25ZM242
-25L103 119L309 322L451 181L242 -25ZM309 915L103 1121L242 1265L451 1058L309 915Z" />
<glyph unicode="&#xa5;" glyph-name="yen" horiz-adv-x="1104" d="M319 1490L626 739L413 578L-4 1490H319ZM482 745L786 1490H1110L689 578L482 745ZM704 784V0H393V784H704ZM998 768V588H75V768H998ZM998 480V300H75V480H998Z" />
<glyph unicode="&#xa6;" glyph-name="brokenbar" horiz-adv-x="639" d="M181 415H458V-280H181V415ZM458 1490V798H181V1490H458Z" />
<glyph unicode="&#xa7;" glyph-name="section" horiz-adv-x="1147" d="M988 1120H716Q715 1176 677 1213T563 1252Q525 1252 492 1240T439 1206T419 1148Q419 1113 441 1085T496 1036T558 1003L836 874Q865 861 906 837T986 773T1049 676T1066 538Q1061 478 1029
436T957 370T882 335L879 333Q941 279 972 213T1004 62Q1004 -52 947 -133T793 -258T572 -301Q439 -301 337 -252T178 -113T121 98H393Q393 30 442 -7T576 -40Q632 -39 680 -15T728 62Q728 100 706 127T652 174T594 207L316 334Q285 347 244 371T163 436T100 534T84
672Q89 733 119 774T189 840T267 876V878Q212 932 179 997T145 1148Q145 1252 198 1334T345 1463T563 1510Q691 1510 786 1460T934 1321T988 1120ZM811 523Q815 547 803 570T763 615T694 654L450 764Q424 776 399 769T357 740T336 687Q330 649 361 616T454 555L697
447Q719 436 744 443T789 471T811 523Z" />
<glyph unicode="&#xa8;" glyph-name="dieresis" horiz-adv-x="1028" d="M293 1270Q229 1270 184 1314T140 1418Q139 1480 184 1522T293 1566Q355 1565 399 1523T444 1418Q444 1358 400 1314T293 1270ZM737 1270Q674 1270 629 1314T584 1418Q584 1480 629 1522T737
1566Q800 1565 844 1523T888 1418Q888 1358 844 1314T737 1270Z" />
<glyph unicode="&#xa9;" glyph-name="copyright" horiz-adv-x="1807" d="M499 744Q499 858 554 951T702 1099T909 1154Q1009 1155 1093 1112T1231 993T1297 824H1081Q1070 878 1021 913T909 948Q854 948 808 921T734 848T705 745Q706 689 733 643T807 570T909
542Q972 542 1017 576T1075 665H1290Q1280 571 1227 497T1091 379T909 335Q796 335 703 390T554 538T499 744ZM902 -24Q744 -24 605 36T359 201T194 446T134 744Q135 903 195 1042T360 1287T605 1452T902 1512Q1062 1512 1201 1453T1445 1288T1610 1043T1670 744Q1671
585 1612 446T1447 202T1202 36T902 -24ZM902 219Q1012 219 1107 260T1275 373T1388 540T1429 744Q1429 853 1388 949T1275 1117T1107 1230T902 1271Q794 1271 699 1230T532 1117T419 949T378 744Q377 636 417 541T530 373T698 260T902 219Z" />
<glyph unicode="&#xaa;" glyph-name="ordfeminine" horiz-adv-x="931" d="M590 862V1202Q590 1263 561 1296T471 1330Q404 1329 367 1304T328 1230L150 1244Q150 1345 238 1411T471 1478Q605 1478 687 1409T769 1202V888Q770 844 775 798T798 705H616Q605 739
598 779T590 862ZM636 1151V1034H486Q398 1034 357 1001T315 924Q315 883 344 860T435 836Q477 836 520 854T592 900T621 952L639 833Q615 784 555 738T390 692Q268 692 202 754T135 920Q135 1031 222 1090T486 1151H636Z" />
<glyph unicode="&#xab;" glyph-name="guillemotleft" horiz-adv-x="1540" d="M660 160H380L86 596V610H380L660 160ZM660 1054L380 602H86V616L380 1054H660ZM1464 160H1184L890 596V610H1184L1464 160ZM1464 1054L1184 602H890V616L1184 1054H1464Z" />
<glyph unicode="&#xac;" glyph-name="logicalnot" horiz-adv-x="1120" d="M992 806V634H132V806H992ZM992 728V376H786V728H992Z" />
<glyph unicode="&#xad;" glyph-name="uni00AD" horiz-adv-x="892" d="M786 734V488H106V734H786Z" />
<glyph unicode="&#xae;" glyph-name="registered" horiz-adv-x="1292" d="M435 666V1202H698Q749 1203 791 1182T858 1122T884 1026Q884 969 858 929T788 868T692 847H512V948H662Q693 948 715 967T737 1026Q737 1065 715 1082T663 1100H575V666H435ZM778 914L901
666H747L633 914H778ZM645 346Q525 346 420 391T234 517T109 702T64 928Q64 1048 109 1153T234 1339T419 1464T645 1510Q766 1510 871 1465T1057 1339T1182 1154T1227 928Q1227 808 1182 703T1058 517T872 392T645 346ZM645 500Q764 500 861 557T1016 712T1074
928Q1074 1046 1017 1143T862 1298T645 1356Q527 1356 430 1299T276 1144T218 928Q218 810 275 713T430 558T645 500Z" />
<glyph unicode="&#xaf;" glyph-name="overscore" horiz-adv-x="1089" d="M900 1490V1321H191V1490H900Z" />
<glyph unicode="&#xb0;" glyph-name="degree" horiz-adv-x="874" d="M437 785Q339 785 258 833T128 962T80 1142Q80 1241 128 1322T257 1451T437 1500Q536 1500 617 1452T746 1322T794 1142Q795 1043 747 962T617 833T437 785ZM437 991Q479 992 513 1012T567 1066T588
1142Q588 1184 568 1218T513 1272T437 1292Q396 1293 362 1273T307 1218T287 1142Q287 1101 307 1067T361 1012T437 991Z" />
<glyph unicode="&#xb1;" glyph-name="plusminus" horiz-adv-x="1325" d="M150 56V303H1174V56H150ZM150 662V900H1174V662H150ZM532 409V1153H792V409H532Z" />
<glyph unicode="&#xb2;" glyph-name="two.sups" horiz-adv-x="801" d="M56 744V905L411 1189Q472 1238 507 1276T543 1364Q543 1416 501 1445T397 1474Q332 1474 292 1442T253 1351H38Q38 1491 139 1570T400 1650Q508 1650 588 1613T712 1511T756 1367Q756 1303
730 1249T649 1141T507 1031L377 934V926H767V744H56Z" />
<glyph unicode="&#xb3;" glyph-name="three.sups" horiz-adv-x="839" d="M416 734Q306 734 221 767T85 862T33 1004H261Q265 964 308 941T416 918Q482 918 527 943T573 1016Q573 1060 527 1088T399 1118H297V1283H399Q467 1282 508 1309T550 1380Q550 1422 514
1448T419 1474Q357 1474 313 1449T266 1383H53Q55 1463 104 1522T235 1616T420 1650Q525 1650 603 1616T724 1523T767 1394Q767 1315 713 1268T582 1210V1203Q688 1193 746 1140T805 1000Q806 922 756 862T617 768T416 734Z" />
<glyph unicode="&#xb4;" glyph-name="acute" horiz-adv-x="885" d="M227 1257L366 1562H650L442 1257H227Z" />
<glyph unicode="&#xb5;" glyph-name="uni00B5" horiz-adv-x="1298" d="M91 -405V1118H400V475Q400 409 432 357T519 277T649 248Q723 248 779 277T867 357T898 475V1118H1208V0H910V159H901Q868 86 800 46T649 6Q565 6 498 46T397 159H387V-405H91Z" />
<glyph unicode="&#xb6;" glyph-name="paragraph" horiz-adv-x="1181" d="M950 1251H658V552H572Q409 553 296 614T125 781T67 1022Q67 1156 125 1261T296 1428T572 1490H950V1251ZM838 0V1490H1085V0H838Z" />
<glyph unicode="&#xb7;" glyph-name="middot" horiz-adv-x="624" d="M312 -19Q238 -19 187 31T136 155Q136 229 187 279T312 329Q386 329 437 279T488 155Q488 81 437 31T312 -19Z" />
<glyph unicode="&#xb8;" glyph-name="cedilla" horiz-adv-x="700" d="M280 6H423L411 -58Q485 -69 533 -113T582 -235Q583 -343 482 -407T197 -471L194 -333Q286 -333 338 -311T392 -242Q394 -197 359 -174T247 -142L280 6Z" />
<glyph unicode="&#xb9;" glyph-name="one.sups" horiz-adv-x="590" d="M260 744V1436H256L41 1300V1491L272 1638H472V744H260Z" />
<glyph unicode="&#xba;" glyph-name="ordmasculine" horiz-adv-x="926" d="M107 1044V1121Q107 1225 150 1305T274 1432T462 1478Q628 1478 723 1378T819 1121V1044Q819 890 725 790T466 691Q299 690 203 790T107 1044ZM286 1121V1044Q286 955 331 897T466 838Q553
838 596 896T640 1044V1121Q639 1208 596 1268T462 1330Q375 1329 331 1269T286 1121Z" />
<glyph unicode="&#xbb;" glyph-name="guillemotright" horiz-adv-x="1540" d="M70 160L349 610H644V596L350 160H70ZM70 1054H350L644 616V602H349L70 1054ZM874 160L1153 610H1448V596L1154 160H874ZM874 1054H1154L1448 616V602H1153L874 1054Z" />
<glyph unicode="&#xbc;" glyph-name="onequarter" horiz-adv-x="1730" d="M211 0L1235 1490H1426L402 0H211ZM224 698V1298H217L28 1178V1360L235 1490H424V698H224ZM975 126V288L1345 792H1483V576H1403L1183 298V290H1716V126H975ZM1407 0V175L1411 248V792H1600V0H1407Z"
/>
<glyph unicode="&#xbd;" glyph-name="onehalf" horiz-adv-x="1805" d="M211 0L1235 1490H1426L402 0H211ZM224 698V1298H217L28 1178V1360L235 1490H424V698H224ZM1141 0V145L1462 395Q1514 436 1547 469T1580 546Q1580 593 1542 617T1447 642Q1389 642 1353 615T1318
535H1125Q1124 660 1216 731T1451 802Q1597 803 1684 730T1772 550Q1772 493 1748 444T1674 348T1546 252L1432 174V165H1779V0H1141Z" />
<glyph unicode="&#xbe;" glyph-name="threequarters" horiz-adv-x="1906" d="M387 0L1411 1490H1602L578 0H387ZM1151 126V288L1521 792H1659V576H1579L1359 298V290H1892V126H1151ZM1583 0V175L1587 248V792H1776V0H1583ZM374 686Q219 686 124 755T27 928H232Q235
894 273 873T368 853Q430 852 471 876T514 937Q513 976 473 1000T359 1025H264V1176H359Q418 1176 455 1199T492 1260Q492 1296 460 1319T372 1342Q320 1342 281 1321T240 1266H44Q46 1335 90 1388T210 1471T376 1500Q517 1501 603 1435T690 1273Q690 1208 645
1165T525 1112V1104Q623 1095 673 1047T724 925Q724 855 679 801T554 717T374 686Z" />
<glyph unicode="&#xbf;" glyph-name="questiondown" horiz-adv-x="1085" d="M728 643V619Q728 492 706 419T641 303T537 221Q470 178 425 128T379 6Q379 -44 403 -81T467 -139T556 -160Q604 -160 646 -140T715 -79T744 21H1040Q1038 -124 972 -219T797 -361T555
-408Q411 -408 299 -361T124 -223T61 -5Q61 123 122 208T286 354Q344 389 381 422T435 502T453 619V643H728ZM590 1121Q670 1121 720 1074T771 949Q771 873 721 826T590 778Q510 778 460 825T409 949Q409 1026 459 1073T590 1121Z" />
<glyph unicode="&#xc0;" glyph-name="Agrave" horiz-adv-x="1463" d="M352 0H15L529 1490H935L1448 0H1112L738 1150H726L352 0ZM332 586H1129V340H332V586ZM688 1629L500 1824L628 1934L790 1738L688 1629Z" />
<glyph unicode="&#xc1;" glyph-name="Aacute" horiz-adv-x="1463" d="M352 0H15L529 1490H935L1448 0H1112L738 1150H726L352 0ZM332 586H1129V340H332V586ZM617 1629L756 1934H1040L832 1629H617Z" />
<glyph unicode="&#xc2;" glyph-name="Acircumflex" horiz-adv-x="1463" d="M877 1622L731 1800L586 1622H321V1633L616 1954H847L1141 1633V1622H877ZM352 0H15L529 1490H935L1448 0H1112L738 1150H726L352 0ZM332 586H1129V340H332V586Z" />
<glyph unicode="&#xc3;" glyph-name="Atilde" horiz-adv-x="1463" d="M352 0H15L529 1490H935L1448 0H1112L738 1150H726L352 0ZM332 586H1129V340H332V586ZM872 1640Q824 1640 786 1655T718 1692T663 1729T614 1745Q582 1745 566 1718T547 1646H379Q382 1776
440 1845T591 1915Q640 1915 677 1900T744 1863T798 1827T849 1811Q885 1811 900 1836T918 1910H1083Q1081 1781 1022 1711T872 1640Z" />
<glyph unicode="&#xc4;" glyph-name="Adieresis" horiz-adv-x="1463" d="M352 0H15L529 1490H935L1448 0H1112L738 1150H726L352 0ZM332 586H1129V340H332V586ZM510 1642Q446 1642 401 1686T357 1790Q356 1852 401 1894T510 1938Q572 1937 616 1895T661 1790Q661
1730 617 1686T510 1642ZM954 1642Q891 1642 846 1686T801 1790Q801 1852 846 1894T954 1938Q1017 1937 1061 1895T1105 1790Q1105 1730 1061 1686T954 1642Z" />
<glyph unicode="&#xc5;" glyph-name="Aring" horiz-adv-x="1463" d="M352 0H15L529 1490H935L1448 0H1112L738 1150H726L352 0ZM332 586H1129V340H332V586ZM732 1576Q639 1575 573 1639T508 1795Q507 1885 573 1949T732 2014Q825 2013 890 1949T955 1795Q956 1704
891 1640T732 1576ZM732 1700Q772 1700 800 1727T830 1795Q829 1833 801 1861T732 1889Q691 1889 663 1861T635 1795Q634 1755 662 1727T732 1700Z" />
<glyph unicode="&#xc6;" glyph-name="AE" horiz-adv-x="2042" d="M15 0L653 1490H1955V1230H1266V875H1903V616H1266V260H1958V0H952V1180H847L362 0H15ZM366 340V586H1130V340H366Z" />
<glyph unicode="&#xc7;" glyph-name="Ccedilla" horiz-adv-x="1473" d="M763 -20Q565 -20 408 70T160 331T69 744Q69 988 160 1159T409 1420T763 1510Q893 1510 1004 1474T1200 1368T1340 1198T1409 968H1091Q1082 1029 1056 1078T987 1161T890 1213T770 1232Q656
1232 570 1175T436 1009T388 744Q388 585 436 477T570 313T769 258Q832 258 886 275T982 324T1052 402T1091 509H1409Q1397 406 1349 311T1217 142T1020 24T763 -20ZM686 5H829L817 -59Q891 -70 939 -114T988 -236Q989 -344 888 -408T603 -472L600 -334Q692 -334
744 -312T798 -243Q800 -198 765 -175T653 -143L686 5Z" />
<glyph unicode="&#xc8;" glyph-name="Egrave" horiz-adv-x="1187" d="M96 0V1490H1100V1230H410V880H1048V625H410V260H1102V0H96ZM556 1629L368 1824L496 1934L658 1738L556 1629Z" />
<glyph unicode="&#xc9;" glyph-name="Eacute" horiz-adv-x="1187" d="M96 0V1490H1100V1230H410V880H1048V625H410V260H1102V0H96ZM486 1629L625 1934H909L701 1629H486Z" />
<glyph unicode="&#xca;" glyph-name="Ecircumflex" horiz-adv-x="1187" d="M746 1622L600 1800L454 1622H190V1633L484 1954H716L1010 1633V1622H746ZM96 0V1490H1100V1230H410V880H1048V625H410V260H1102V0H96Z" />
<glyph unicode="&#xcb;" glyph-name="Edieresis" horiz-adv-x="1187" d="M96 0V1490H1100V1230H410V880H1048V625H410V260H1102V0H96ZM379 1642Q315 1642 270 1686T226 1790Q225 1852 270 1894T379 1938Q441 1937 485 1895T530 1790Q530 1730 486 1686T379 1642ZM823
1642Q760 1642 715 1686T670 1790Q670 1852 715 1894T823 1938Q886 1937 930 1895T974 1790Q974 1730 930 1686T823 1642Z" />
<glyph unicode="&#xcc;" glyph-name="Igrave" horiz-adv-x="506" d="M410 1490V0H96V1490H410ZM210 1629L22 1824L150 1934L312 1738L210 1629Z" />
<glyph unicode="&#xcd;" glyph-name="Iacute" horiz-adv-x="506" d="M410 1490V0H96V1490H410ZM140 1629L279 1934H563L355 1629H140Z" />
<glyph unicode="&#xce;" glyph-name="Icircumflex" horiz-adv-x="506" d="M400 1622L254 1800L108 1622H-156V1633L138 1954H370L664 1633V1622H400ZM410 1490V0H96V1490H410Z" />
<glyph unicode="&#xcf;" glyph-name="Idieresis" horiz-adv-x="506" d="M410 1490V0H96V1490H410ZM33 1642Q-31 1642 -76 1686T-120 1790Q-121 1852 -76 1894T33 1938Q95 1937 139 1895T184 1790Q184 1730 140 1686T33 1642ZM477 1642Q414 1642 369 1686T324 1790Q324
1852 369 1894T477 1938Q540 1937 584 1895T628 1790Q628 1730 584 1686T477 1642Z" />
<glyph unicode="&#xd0;" glyph-name="Eth" horiz-adv-x="1422" d="M624 0H236V270H610Q751 270 846 319T990 474T1039 746Q1039 911 991 1016T847 1170T611 1220H230V1490H629Q854 1490 1016 1401T1265 1145T1352 746Q1352 513 1265 346T1014 90T624 0ZM410 1490V0H96V1490H410ZM-111
693V876H614V693H-111Z" />
<glyph unicode="&#xd1;" glyph-name="Ntilde" horiz-adv-x="1438" d="M1342 1490V0H1070L423 937H410V0H96V1490H372L1015 553H1028V1490H1342ZM860 1631Q812 1631 774 1646T706 1683T651 1720T602 1736Q570 1736 554 1709T535 1637H367Q370 1767 428 1836T579
1906Q628 1906 665 1891T732 1854T786 1818T837 1802Q873 1802 888 1827T906 1901H1071Q1069 1772 1010 1702T860 1631Z" />
<glyph unicode="&#xd2;" glyph-name="Ograve" horiz-adv-x="1534" d="M767 -20Q569 -20 411 70T161 331T69 744Q69 988 161 1159T411 1420T767 1510Q965 1510 1123 1421T1372 1160T1464 744Q1464 501 1373 330T1123 70T767 -20ZM767 258Q882 258 967 314T1098
478T1145 744Q1145 902 1099 1011T967 1176T767 1232Q653 1232 568 1176T436 1011T388 744Q388 587 435 479T568 314T767 258ZM723 1629L535 1824L663 1934L825 1738L723 1629Z" />
<glyph unicode="&#xd3;" glyph-name="Oacute" horiz-adv-x="1534" d="M767 -20Q569 -20 411 70T161 331T69 744Q69 988 161 1159T411 1420T767 1510Q965 1510 1123 1421T1372 1160T1464 744Q1464 501 1373 330T1123 70T767 -20ZM767 258Q882 258 967 314T1098
478T1145 744Q1145 902 1099 1011T967 1176T767 1232Q653 1232 568 1176T436 1011T388 744Q388 587 435 479T568 314T767 258ZM653 1629L792 1934H1076L868 1629H653Z" />
<glyph unicode="&#xd4;" glyph-name="Ocircumflex" horiz-adv-x="1534" d="M912 1622L766 1800L621 1622H356V1633L651 1954H882L1176 1633V1622H912ZM767 -20Q569 -20 411 70T161 331T69 744Q69 988 161 1159T411 1420T767 1510Q965 1510 1123 1421T1372 1160T1464
744Q1464 501 1373 330T1123 70T767 -20ZM767 258Q882 258 967 314T1098 478T1145 744Q1145 902 1099 1011T967 1176T767 1232Q653 1232 568 1176T436 1011T388 744Q388 587 435 479T568 314T767 258Z" />
<glyph unicode="&#xd5;" glyph-name="Otilde" horiz-adv-x="1534" d="M767 -20Q569 -20 411 70T161 331T69 744Q69 988 161 1159T411 1420T767 1510Q965 1510 1123 1421T1372 1160T1464 744Q1464 501 1373 330T1123 70T767 -20ZM767 258Q882 258 967 314T1098
478T1145 744Q1145 902 1099 1011T967 1176T767 1232Q653 1232 568 1176T436 1011T388 744Q388 587 435 479T568 314T767 258ZM908 1640Q860 1640 822 1655T754 1692T699 1729T650 1745Q618 1745 602 1718T583 1646H415Q418 1776 476 1845T627 1915Q676 1915 713
1900T780 1863T834 1827T885 1811Q921 1811 936 1836T954 1910H1119Q1117 1781 1058 1711T908 1640Z" />
<glyph unicode="&#xd6;" glyph-name="Odieresis" horiz-adv-x="1534" d="M767 -20Q569 -20 411 70T161 331T69 744Q69 988 161 1159T411 1420T767 1510Q965 1510 1123 1421T1372 1160T1464 744Q1464 501 1373 330T1123 70T767 -20ZM767 258Q882 258 967 314T1098
478T1145 744Q1145 902 1099 1011T967 1176T767 1232Q653 1232 568 1176T436 1011T388 744Q388 587 435 479T568 314T767 258ZM545 1642Q481 1642 436 1686T392 1790Q391 1852 436 1894T545 1938Q607 1937 651 1895T696 1790Q696 1730 652 1686T545 1642ZM989 1642Q926
1642 881 1686T836 1790Q836 1852 881 1894T989 1938Q1052 1937 1096 1895T1140 1790Q1140 1730 1096 1686T989 1642Z" />
<glyph unicode="&#xd7;" glyph-name="multiply" horiz-adv-x="1325" d="M1001 66L132 932L324 1126L1192 256L1001 66ZM324 66L132 256L1001 1126L1192 932L324 66Z" />
<glyph unicode="&#xd8;" glyph-name="Oslash" horiz-adv-x="1534" d="M303 -72L162 25L1229 1559L1370 1461L303 -72ZM767 -20Q569 -20 411 70T161 331T69 744Q69 988 161 1159T411 1420T767 1510Q965 1510 1123 1421T1372 1160T1464 744Q1464 501 1373 330T1123
70T767 -20ZM767 258Q882 258 967 314T1098 478T1145 744Q1145 902 1099 1011T967 1176T767 1232Q653 1232 568 1176T436 1011T388 744Q388 587 435 479T568 314T767 258Z" />
<glyph unicode="&#xd9;" glyph-name="Ugrave" horiz-adv-x="1427" d="M1016 1490H1331V523Q1331 360 1254 238T1037 47T713 -21Q528 -21 389 47T173 237T96 523V1490H410V549Q410 464 448 398T554 294T713 256Q805 256 873 293T978 397T1016 549V1490ZM669 1629L481
1824L609 1934L771 1738L669 1629Z" />
<glyph unicode="&#xda;" glyph-name="Uacute" horiz-adv-x="1427" d="M1016 1490H1331V523Q1331 360 1254 238T1037 47T713 -21Q528 -21 389 47T173 237T96 523V1490H410V549Q410 464 448 398T554 294T713 256Q805 256 873 293T978 397T1016 549V1490ZM599 1629L738
1934H1022L814 1629H599Z" />
<glyph unicode="&#xdb;" glyph-name="Ucircumflex" horiz-adv-x="1427" d="M858 1622L712 1800L567 1622H302V1633L597 1954H828L1122 1633V1622H858ZM1016 1490H1331V523Q1331 360 1254 238T1037 47T713 -21Q528 -21 389 47T173 237T96 523V1490H410V549Q410
464 448 398T554 294T713 256Q805 256 873 293T978 397T1016 549V1490Z" />
<glyph unicode="&#xdc;" glyph-name="Udieresis" horiz-adv-x="1427" d="M1016 1490H1331V523Q1331 360 1254 238T1037 47T713 -21Q528 -21 389 47T173 237T96 523V1490H410V549Q410 464 448 398T554 294T713 256Q805 256 873 293T978 397T1016 549V1490ZM491
1642Q427 1642 382 1686T338 1790Q337 1852 382 1894T491 1938Q553 1937 597 1895T642 1790Q642 1730 598 1686T491 1642ZM935 1642Q872 1642 827 1686T782 1790Q782 1852 827 1894T935 1938Q998 1937 1042 1895T1086 1790Q1086 1730 1042 1686T935 1642Z" />
<glyph unicode="&#xdd;" glyph-name="Yacute" horiz-adv-x="1417" d="M8 1490H361L701 848H715L1055 1490H1408L865 526V0H552V526L8 1490ZM593 1629L732 1934H1016L808 1629H593Z" />
<glyph unicode="&#xde;" glyph-name="Thorn" horiz-adv-x="1306" d="M92 1490H409V0H92V1490ZM240 1217H626Q806 1217 930 1157T1118 995T1182 761Q1182 630 1118 528T930 366T626 307H240V548H626Q716 549 772 577T855 653T882 757Q882 816 855 864T772 943T626
973H240V1217Z" />
<glyph unicode="&#xdf;" glyph-name="germandbls" horiz-adv-x="1283" d="M96 0V1096Q96 1225 159 1318T338 1460T609 1510Q754 1510 874 1465T1067 1330T1140 1107Q1140 992 1083 910T924 799V782Q1070 773 1155 670T1241 410Q1241 280 1180 188T1012 48T763
0H566V252H713Q812 252 870 304T928 440Q928 528 863 580T688 633H572V874H650Q703 874 741 900T801 968T823 1062Q823 1143 769 1196T619 1250Q523 1250 465 1196T406 1050V0H96Z" />
<glyph unicode="&#xe0;" glyph-name="agrave" horiz-adv-x="1128" d="M409 -21Q303 -21 219 16T86 128T38 312Q38 406 72 468T165 570T299 629T458 657Q555 666 614 675T700 702T728 756V761Q728 830 685 868T562 906Q479 906 430 870T364 777L77 800Q99 902 163
976T328 1091T564 1132Q657 1132 742 1110T893 1043T999 925T1038 754V0H743V156H735Q708 103 663 64T555 2T409 -21ZM498 193Q566 193 618 220T700 294T730 399V518Q716 509 691 501T634 487T572 477T516 468Q461 460 420 443T357 396T334 322Q334 259 380 226T498
193ZM530 1257L342 1452L470 1562L632 1366L530 1257Z" />
<glyph unicode="&#xe1;" glyph-name="aacute" horiz-adv-x="1128" d="M409 -21Q303 -21 219 16T86 128T38 312Q38 406 72 468T165 570T299 629T458 657Q555 666 614 675T700 702T728 756V761Q728 830 685 868T562 906Q479 906 430 870T364 777L77 800Q99 902 163
976T328 1091T564 1132Q657 1132 742 1110T893 1043T999 925T1038 754V0H743V156H735Q708 103 663 64T555 2T409 -21ZM498 193Q566 193 618 220T700 294T730 399V518Q716 509 691 501T634 487T572 477T516 468Q461 460 420 443T357 396T334 322Q334 259 380 226T498
193ZM460 1257L599 1562H883L675 1257H460Z" />
<glyph unicode="&#xe2;" glyph-name="acircumflex" horiz-adv-x="1128" d="M720 1250L574 1428L428 1250H164V1261L458 1582H690L984 1261V1250H720ZM409 -21Q303 -21 219 16T86 128T38 312Q38 406 72 468T165 570T299 629T458 657Q555 666 614 675T700 702T728
756V761Q728 830 685 868T562 906Q479 906 430 870T364 777L77 800Q99 902 163 976T328 1091T564 1132Q657 1132 742 1110T893 1043T999 925T1038 754V0H743V156H735Q708 103 663 64T555 2T409 -21ZM498 193Q566 193 618 220T700 294T730 399V518Q716 509 691 501T634
487T572 477T516 468Q461 460 420 443T357 396T334 322Q334 259 380 226T498 193Z" />
<glyph unicode="&#xe3;" glyph-name="atilde" horiz-adv-x="1128" d="M409 -21Q303 -21 219 16T86 128T38 312Q38 406 72 468T165 570T299 629T458 657Q555 666 614 675T700 702T728 756V761Q728 830 685 868T562 906Q479 906 430 870T364 777L77 800Q99 902 163
976T328 1091T564 1132Q657 1132 742 1110T893 1043T999 925T1038 754V0H743V156H735Q708 103 663 64T555 2T409 -21ZM498 193Q566 193 618 220T700 294T730 399V518Q716 509 691 501T634 487T572 477T516 468Q461 460 420 443T357 396T334 322Q334 259 380 226T498
193ZM715 1259Q667 1259 629 1274T561 1311T506 1348T457 1364Q425 1364 409 1337T390 1265H222Q225 1395 283 1464T434 1534Q483 1534 520 1519T587 1482T641 1446T692 1430Q728 1430 743 1455T761 1529H926Q924 1400 865 1330T715 1259Z" />
<glyph unicode="&#xe4;" glyph-name="adieresis" horiz-adv-x="1128" d="M409 -21Q303 -21 219 16T86 128T38 312Q38 406 72 468T165 570T299 629T458 657Q555 666 614 675T700 702T728 756V761Q728 830 685 868T562 906Q479 906 430 870T364 777L77 800Q99 902
163 976T328 1091T564 1132Q657 1132 742 1110T893 1043T999 925T1038 754V0H743V156H735Q708 103 663 64T555 2T409 -21ZM498 193Q566 193 618 220T700 294T730 399V518Q716 509 691 501T634 487T572 477T516 468Q461 460 420 443T357 396T334 322Q334 259 380
226T498 193ZM353 1270Q289 1270 244 1314T200 1418Q199 1480 244 1522T353 1566Q415 1565 459 1523T504 1418Q504 1358 460 1314T353 1270ZM797 1270Q734 1270 689 1314T644 1418Q644 1480 689 1522T797 1566Q860 1565 904 1523T948 1418Q948 1358 904 1314T797
1270Z" />
<glyph unicode="&#xe5;" glyph-name="aring" horiz-adv-x="1128" d="M409 -21Q303 -21 219 16T86 128T38 312Q38 406 72 468T165 570T299 629T458 657Q555 666 614 675T700 702T728 756V761Q728 830 685 868T562 906Q479 906 430 870T364 777L77 800Q99 902 163
976T328 1091T564 1132Q657 1132 742 1110T893 1043T999 925T1038 754V0H743V156H735Q708 103 663 64T555 2T409 -21ZM498 193Q566 193 618 220T700 294T730 399V518Q716 509 691 501T634 487T572 477T516 468Q461 460 420 443T357 396T334 322Q334 259 380 226T498
193ZM575 1237Q506 1237 450 1269T360 1355T326 1476Q326 1542 359 1597T449 1685T575 1717Q644 1718 700 1685T789 1597T822 1476Q823 1409 790 1355T700 1269T575 1237ZM575 1366Q623 1367 655 1400T688 1476Q688 1520 656 1553T575 1586Q526 1586 494 1553T461
1476Q461 1433 493 1400T575 1366Z" />
<glyph unicode="&#xe6;" glyph-name="ae" horiz-adv-x="1800" d="M1265 -22Q1109 -22 993 46T832 239L824 897Q893 1017 995 1074T1234 1132Q1345 1132 1440 1097T1607 991T1719 814T1759 564V480H924V671H1468Q1467 738 1438 790T1357 871T1239 901Q1169 901
1115 869T1030 782T998 660V478Q998 396 1029 336T1117 242T1250 209Q1303 209 1345 224T1419 268T1466 338L1752 319Q1730 216 1663 140T1494 21T1265 -22ZM498 193Q566 193 618 220T700 294T730 399V518Q716 509 691 501T634 487T572 477T516 468Q461 460 420
443T357 396T334 322Q334 259 380 226T498 193ZM426 -21Q311 -21 224 16T87 128T38 312Q38 406 72 468T165 570T299 629T458 657Q555 666 614 675T701 703T728 756V761Q728 830 685 868T562 906Q480 906 430 870T364 777L77 800Q99 902 163 976T329 1091T568 1132Q620
1132 671 1123T768 1092T850 1035T907 946L869 182H850Q821 120 757 75T608 4T426 -21Z" />
<glyph unicode="&#xe7;" glyph-name="ccedilla" horiz-adv-x="1136" d="M594 -22Q423 -22 300 51T111 254T45 554Q45 726 111 856T301 1059T594 1132Q740 1132 849 1079T1023 930T1093 704H801Q793 760 767 802T698 867T598 890Q526 890 473 852T390 739T360 558Q360
452 389 376T472 260T598 220Q678 220 733 270T801 410H1093Q1086 282 1024 185T853 33T594 -22ZM522 6H665L653 -58Q727 -69 775 -113T824 -235Q825 -343 724 -407T439 -471L436 -333Q528 -333 580 -311T634 -242Q636 -197 601 -174T489 -142L522 6Z" />
<glyph unicode="&#xe8;" glyph-name="egrave" horiz-adv-x="1153" d="M600 -22Q428 -22 303 48T112 247T45 554Q45 726 111 856T299 1059T585 1132Q696 1132 792 1097T960 991T1072 814T1112 564V480H168V671H962L818 621Q818 706 792 769T715 866T587 901Q511
901 459 866T378 771T350 633V498Q350 407 382 343T471 244T604 209Q656 209 698 224T770 268T816 338L1102 319Q1081 216 1015 140T843 21T600 -22ZM536 1257L348 1452L476 1562L638 1366L536 1257Z" />
<glyph unicode="&#xe9;" glyph-name="eacute" horiz-adv-x="1153" d="M600 -22Q428 -22 303 48T112 247T45 554Q45 726 111 856T299 1059T585 1132Q696 1132 792 1097T960 991T1072 814T1112 564V480H168V671H962L818 621Q818 706 792 769T715 866T587 901Q511
901 459 866T378 771T350 633V498Q350 407 382 343T471 244T604 209Q656 209 698 224T770 268T816 338L1102 319Q1081 216 1015 140T843 21T600 -22ZM465 1257L604 1562H888L680 1257H465Z" />
<glyph unicode="&#xea;" glyph-name="ecircumflex" horiz-adv-x="1153" d="M725 1250L579 1428L434 1250H169V1261L464 1582H695L989 1261V1250H725ZM600 -22Q428 -22 303 48T112 247T45 554Q45 726 111 856T299 1059T585 1132Q696 1132 792 1097T960 991T1072
814T1112 564V480H168V671H962L818 621Q818 706 792 769T715 866T587 901Q511 901 459 866T378 771T350 633V498Q350 407 382 343T471 244T604 209Q656 209 698 224T770 268T816 338L1102 319Q1081 216 1015 140T843 21T600 -22Z" />
<glyph unicode="&#xeb;" glyph-name="edieresis" horiz-adv-x="1153" d="M600 -22Q428 -22 303 48T112 247T45 554Q45 726 111 856T299 1059T585 1132Q696 1132 792 1097T960 991T1072 814T1112 564V480H168V671H962L818 621Q818 706 792 769T715 866T587 901Q511
901 459 866T378 771T350 633V498Q350 407 382 343T471 244T604 209Q656 209 698 224T770 268T816 338L1102 319Q1081 216 1015 140T843 21T600 -22ZM358 1270Q294 1270 249 1314T205 1418Q204 1480 249 1522T358 1566Q420 1565 464 1523T509 1418Q509 1358 465
1314T358 1270ZM802 1270Q739 1270 694 1314T649 1418Q649 1480 694 1522T802 1566Q865 1565 909 1523T953 1418Q953 1358 909 1314T802 1270Z" />
<glyph unicode="&#xec;" glyph-name="igrave" horiz-adv-x="491" d="M91 0V1118H400V0H91ZM201 1257L13 1452L141 1562L303 1366L201 1257Z" />
<glyph unicode="&#xed;" glyph-name="iacute" horiz-adv-x="491" d="M91 0V1118H400V0H91ZM387 1257L526 1562H810L602 1257H387Z" />
<glyph unicode="&#xee;" glyph-name="icircumflex" horiz-adv-x="491" d="M390 1250L244 1428L99 1250H-166V1261L129 1582H360L654 1261V1250H390ZM91 0V1118H400V0H91Z" />
<glyph unicode="&#xef;" glyph-name="idieresis" horiz-adv-x="491" d="M91 0V1118H400V0H91ZM23 1270Q-41 1270 -86 1314T-130 1418Q-131 1480 -86 1522T23 1566Q85 1565 129 1523T174 1418Q174 1358 130 1314T23 1270ZM467 1270Q404 1270 359 1314T314 1418Q314
1480 359 1522T467 1566Q530 1565 574 1523T618 1418Q618 1358 574 1314T467 1270Z" />
<glyph unicode="&#xf0;" glyph-name="eth" horiz-adv-x="1161" d="M918 1403L237 1055L217 1196L898 1543L918 1403ZM576 -24Q416 -23 297 44T112 232T45 512Q46 660 102 778T261 965T498 1035Q567 1035 621 1016T718 967T788 901H804Q757 1005 669 1100T466 1274T222
1406L252 1571Q418 1531 572 1445T849 1230T1044 937T1116 572Q1116 391 1051 257T864 50T576 -24ZM583 214Q661 214 715 253T799 362T828 525Q828 612 802 683T722 798T583 840Q502 841 448 801T368 691T341 530Q341 439 368 368T449 255T583 214Z" />
<glyph unicode="&#xf1;" glyph-name="ntilde" horiz-adv-x="1211" d="M400 646V0H91V1118H395V919H406Q444 1018 527 1075T735 1132Q851 1132 937 1081T1072 936T1120 711V0H811V656Q811 758 758 816T612 875Q550 875 502 848T427 769T400 646ZM745 1259Q697 1259
659 1274T591 1311T536 1348T487 1364Q455 1364 439 1337T420 1265H252Q255 1395 313 1464T464 1534Q513 1534 550 1519T617 1482T671 1446T722 1430Q758 1430 773 1455T791 1529H956Q954 1400 895 1330T745 1259Z" />
<glyph unicode="&#xf2;" glyph-name="ograve" horiz-adv-x="1190" d="M594 -22Q425 -22 302 50T112 252T45 554Q45 728 111 857T301 1059T594 1132Q764 1132 887 1060T1077 858T1144 554Q1144 382 1078 253T888 51T594 -22ZM596 220Q673 220 725 263T803 383T830
556Q830 654 804 729T725 847T596 890Q518 890 466 847T387 729T360 556Q360 459 386 383T465 264T596 220ZM550 1257L362 1452L490 1562L652 1366L550 1257Z" />
<glyph unicode="&#xf3;" glyph-name="oacute" horiz-adv-x="1190" d="M594 -22Q425 -22 302 50T112 252T45 554Q45 728 111 857T301 1059T594 1132Q764 1132 887 1060T1077 858T1144 554Q1144 382 1078 253T888 51T594 -22ZM596 220Q673 220 725 263T803 383T830
556Q830 654 804 729T725 847T596 890Q518 890 466 847T387 729T360 556Q360 459 386 383T465 264T596 220ZM480 1257L619 1562H903L695 1257H480Z" />
<glyph unicode="&#xf4;" glyph-name="ocircumflex" horiz-adv-x="1190" d="M740 1250L594 1428L448 1250H184V1261L478 1582H710L1004 1261V1250H740ZM594 -22Q425 -22 302 50T112 252T45 554Q45 728 111 857T301 1059T594 1132Q764 1132 887 1060T1077 858T1144
554Q1144 382 1078 253T888 51T594 -22ZM596 220Q673 220 725 263T803 383T830 556Q830 654 804 729T725 847T596 890Q518 890 466 847T387 729T360 556Q360 459 386 383T465 264T596 220Z" />
<glyph unicode="&#xf5;" glyph-name="otilde" horiz-adv-x="1190" d="M594 -22Q425 -22 302 50T112 252T45 554Q45 728 111 857T301 1059T594 1132Q764 1132 887 1060T1077 858T1144 554Q1144 382 1078 253T888 51T594 -22ZM596 220Q673 220 725 263T803 383T830
556Q830 654 804 729T725 847T596 890Q518 890 466 847T387 729T360 556Q360 459 386 383T465 264T596 220ZM735 1259Q687 1259 649 1274T581 1311T526 1348T477 1364Q445 1364 429 1337T410 1265H242Q245 1395 303 1464T454 1534Q503 1534 540 1519T607 1482T661
1446T712 1430Q748 1430 763 1455T781 1529H946Q944 1400 885 1330T735 1259Z" />
<glyph unicode="&#xf6;" glyph-name="odieresis" horiz-adv-x="1190" d="M594 -22Q425 -22 302 50T112 252T45 554Q45 728 111 857T301 1059T594 1132Q764 1132 887 1060T1077 858T1144 554Q1144 382 1078 253T888 51T594 -22ZM596 220Q673 220 725 263T803 383T830
556Q830 654 804 729T725 847T596 890Q518 890 466 847T387 729T360 556Q360 459 386 383T465 264T596 220ZM373 1270Q309 1270 264 1314T220 1418Q219 1480 264 1522T373 1566Q435 1565 479 1523T524 1418Q524 1358 480 1314T373 1270ZM817 1270Q754 1270 709
1314T664 1418Q664 1480 709 1522T817 1566Q880 1565 924 1523T968 1418Q968 1358 924 1314T817 1270Z" />
<glyph unicode="&#xf7;" glyph-name="divide" horiz-adv-x="1325" d="M1171 719V472H154V719H1171ZM662 16Q589 17 538 68T486 193Q486 264 537 315T662 365Q734 366 784 315T836 193Q835 119 785 68T662 16ZM662 826Q589 825 538 877T486 1002Q486 1074 537 1124T662
1176Q734 1175 784 1125T836 1002Q835 929 785 877T662 826Z" />
<glyph unicode="&#xf8;" glyph-name="oslash" horiz-adv-x="1190" d="M264 -72L122 25L924 1180L1068 1083L264 -72ZM594 -23Q425 -23 302 49T112 251T45 553Q45 726 111 856T301 1058T594 1131Q764 1131 887 1059T1077 856T1144 553Q1144 381 1078 252T888 50T594
-23ZM596 219Q673 219 725 262T803 382T830 554Q830 652 804 727T725 846T596 889Q518 889 466 846T387 728T360 554Q360 458 386 382T465 263T596 219Z" />
<glyph unicode="&#xf9;" glyph-name="ugrave" horiz-adv-x="1207" d="M807 475V1118H1116V0H819V203H807Q769 106 682 46T469 -14Q357 -14 272 36T139 181T91 406V1118H400V460Q400 362 453 305T594 248Q650 248 698 273T776 350T807 475ZM560 1257L372 1452L500
1562L662 1366L560 1257Z" />
<glyph unicode="&#xfa;" glyph-name="uacute" horiz-adv-x="1207" d="M807 475V1118H1116V0H819V203H807Q769 106 682 46T469 -14Q357 -14 272 36T139 181T91 406V1118H400V460Q400 362 453 305T594 248Q650 248 698 273T776 350T807 475ZM490 1257L629 1562H913L705
1257H490Z" />
<glyph unicode="&#xfb;" glyph-name="ucircumflex" horiz-adv-x="1207" d="M750 1250L604 1428L458 1250H194V1261L488 1582H720L1014 1261V1250H750ZM807 475V1118H1116V0H819V203H807Q769 106 682 46T469 -14Q357 -14 272 36T139 181T91 406V1118H400V460Q400
362 453 305T594 248Q650 248 698 273T776 350T807 475Z" />
<glyph unicode="&#xfc;" glyph-name="udieresis" horiz-adv-x="1207" d="M807 475V1118H1116V0H819V203H807Q769 106 682 46T469 -14Q357 -14 272 36T139 181T91 406V1118H400V460Q400 362 453 305T594 248Q650 248 698 273T776 350T807 475ZM383 1270Q319 1270
274 1314T230 1418Q229 1480 274 1522T383 1566Q445 1565 489 1523T534 1418Q534 1358 490 1314T383 1270ZM827 1270Q764 1270 719 1314T674 1418Q674 1480 719 1522T827 1566Q890 1565 934 1523T978 1418Q978 1358 934 1314T827 1270Z" />
<glyph unicode="&#xfd;" glyph-name="yacute" horiz-adv-x="1133" d="M281 -418Q222 -419 171 -410T86 -387L156 -156L166 -158Q244 -181 299 -169T384 -80L402 -32L2 1118H327L558 297H570L804 1118H1131L697 -121Q666 -211 613 -278T478 -381T281 -418ZM450
1257L589 1562H873L665 1257H450Z" />
<glyph unicode="&#xfe;" glyph-name="thorn" horiz-adv-x="1224" d="M726 -18Q636 -18 573 12T471 87T409 179H400V-418H91V1490H400V929H409Q430 975 469 1022T571 1100T727 1132Q850 1132 952 1069T1117 877T1179 557Q1179 371 1119 243T957 48T726 -18ZM628
228Q704 228 756 270T835 386T862 558Q862 655 836 728T757 844T628 886Q553 886 501 846T421 732T393 558Q393 459 421 385T501 270T628 228Z" />
<glyph unicode="&#xff;" glyph-name="ydieresis" horiz-adv-x="1133" d="M281 -418Q222 -419 171 -410T86 -387L156 -156L166 -158Q244 -181 299 -169T384 -80L402 -32L2 1118H327L558 297H570L804 1118H1131L697 -121Q666 -211 613 -278T478 -381T281 -418ZM342
1270Q278 1270 233 1314T189 1418Q188 1480 233 1522T342 1566Q404 1565 448 1523T493 1418Q493 1358 449 1314T342 1270ZM786 1270Q723 1270 678 1314T633 1418Q633 1480 678 1522T786 1566Q849 1565 893 1523T937 1418Q937 1358 893 1314T786 1270Z" />
<glyph unicode="&#x2013;" glyph-name="endash" horiz-adv-x="1024" d="M1024 734V488H0V734H1024Z" />
<glyph unicode="&#x2014;" glyph-name="emdash" horiz-adv-x="2048" d="M2048 734V488H0V734H2048Z" />
<glyph unicode="&#x2018;" glyph-name="quoteleft" horiz-adv-x="660" d="M132 866L319 1490H528L440 866H132Z" />
<glyph unicode="&#x2019;" glyph-name="quoteright" horiz-adv-x="660" d="M132 866L220 1490H528L341 866H132Z" />
<glyph unicode="&#x201a;" glyph-name="quotesinglbase" horiz-adv-x="660" d="M132 -438L220 186H528L341 -438H132Z" />
<glyph unicode="&#x201c;" glyph-name="quotedblleft" horiz-adv-x="1141" d="M132 866L319 1490H528L440 866H132ZM613 866L800 1490H1009L921 866H613Z" />
<glyph unicode="&#x201d;" glyph-name="quotedblright" horiz-adv-x="1123" d="M132 866L220 1490H528L341 866H132ZM595 866L683 1490H991L804 866H595Z" />
<glyph unicode="&#x201e;" glyph-name="quotedblbase" horiz-adv-x="1123" d="M132 -438L220 186H528L341 -438H132ZM595 -438L683 186H991L804 -438H595Z" />
<glyph unicode="&#x2022;" glyph-name="bullet" horiz-adv-x="816" d="M442 274Q354 274 281 317T165 433T122 594Q122 683 165 755T281 871T442 914Q531 914 603 871T719 756T762 594Q762 506 719 433T604 317T442 274Z" />
<glyph unicode="&#x2039;" glyph-name="guilsinglleft" horiz-adv-x="736" d="M660 160H380L86 596V610H380L660 160ZM660 1054L380 602H86V616L380 1054H660Z" />
<glyph unicode="&#x203a;" glyph-name="guilsinglright" horiz-adv-x="736" d="M70 160L349 610H644V596L350 160H70ZM70 1054H350L644 616V602H349L70 1054Z" />
</font>
</defs>
</svg>
