<svg xmlns="http://www.w3.org/2000/svg" width="226" height="243" viewBox="0 0 226 243">
  <defs>
    <clipPath id="a">
      <path fill="none" d="M0 0h136.926v152.955H0z" data-name="Rectangle 257"/>
    </clipPath>
  </defs>
  <g data-name="Group 320">
    <g data-name="Group 312">
      <g clip-path="url(#a)" data-name="Group 311" transform="translate(44.537)">
        <path fill="#383735" d="M135.5 27.909a.7.7 0 0 0-.031-.075 15.287 15.287 0 0 0-1.064-2.091 16.084 16.084 0 0 0-17.159-6.949c-5.371 1.213-10.381 5.117-13.69 10.587a19.815 19.815 0 0 0-14.775-13.245 20.927 20.927 0 0 0-3.766-7.954C80.44 2.4 72.246 0 64.625 2.231c-6.149 1.793-11.817 6.342-16.09 12.878C44.341 6.192 35.181.048 25.762 0h-.106a24.822 24.822 0 0 0-14.687 5.066 26.6 26.6 0 0 0-8.725 11.181 30.135 30.135 0 0 0-2.115 8.924C-.7 34.808 2.594 43.9 5.5 49.83a71.908 71.908 0 0 0 14.246 19.74A67.976 67.976 0 0 0 38.49 82.682a66.627 66.627 0 0 0-6.475 7.029.78.78 0 0 0 .558 1.264L38 91.32a45.111 45.111 0 0 1-1.112 6.526c-.126.57-.251 1.141-.372 1.711a24.992 24.992 0 0 0-.58 9.494 11.044 11.044 0 0 0 3.78 6.76c-.114 1.01-.155 2-.181 2.939-.278 9.724 1.1 19.46 2.427 28.874a.782.782 0 0 0 .771.672.576.576 0 0 0 .111-.01.779.779 0 0 0 .662-.88c-1.32-9.352-2.685-19.02-2.415-28.613.019-.665.046-1.358.1-2.064.056.024.109.051.164.073a7.842 7.842 0 0 0 7.95-1.2 5.679 5.679 0 0 0 2.3-5.025A4.665 4.665 0 0 0 47 106.794h-.017c-2.427.007-4.812 1.767-6.079 4.479a12.494 12.494 0 0 0-.889 2.717 9.917 9.917 0 0 1-2.535-5.209 23.6 23.6 0 0 1 .57-8.9q.181-.848.37-1.694a46.8 46.8 0 0 0 1.146-6.763l8.174.522a.357.357 0 0 0 .051 0 .783.783 0 0 0 .67-.382.774.774 0 0 0-.012-.812 27.346 27.346 0 0 0-7.379-8.177c5.721-3.062 10.021-5.518 13.833-7.9a99.072 99.072 0 0 0 16.608-12.639 73.574 73.574 0 0 0 2.944-2.985 79.173 79.173 0 0 0 15.452 17.987.545.545 0 0 0 .058.051 75.722 75.722 0 0 0 7.635 5.748 61.343 61.343 0 0 0-7.582 8.718.78.78 0 0 0 .411 1.2A33.4 33.4 0 0 0 96.8 94a54.36 54.36 0 0 0 .225 7.362c.15 1.951.307 3.969.273 5.936a18.634 18.634 0 0 1-1.557 7.536 11.819 11.819 0 0 0-.522-2.729 6.093 6.093 0 0 0-3.923-4.172c-2.627-.708-5.238 1.182-6.461 3.418-1.515 2.772-1.433 7.014 1.339 9.035 2.345 1.706 5.433 1 7.454-.459.21-.152.411-.309.6-.474-.18 10.927-1.228 21.958-2.24 32.647a.778.778 0 0 0 .7.848h.073a.779.779 0 0 0 .776-.706c1.068-11.273 2.173-22.928 2.277-34.469 2.5-3.3 3-7.768 3.043-10.456.034-2.042-.126-4.1-.278-6.084a53.131 53.131 0 0 1-.225-7.128c.532.024 1.063.044 1.6.044a33.5 33.5 0 0 0 3.543-.189.783.783 0 0 0 .551-.321.77.77 0 0 0 .126-.626 27.991 27.991 0 0 0-4.658-10.393c17.584-10.734 28.091-21.185 34-33.807a33.8 33.8 0 0 0 3.326-11.379 20.37 20.37 0 0 0-1.341-9.53m-93.19 84.029c.829-1.777 2.6-3.572 4.672-3.58h.01a3.129 3.129 0 0 1 3.079 2.458 4.137 4.137 0 0 1-1.738 3.58 6.267 6.267 0 0 1-6.35.984 5.667 5.667 0 0 1-.592-.3 11.918 11.918 0 0 1 .918-3.142m50.41 6.729c-1.515 1.092-3.92 1.7-5.624.462-2.025-1.474-2.1-4.822-.889-7.026a4.944 4.944 0 0 1 3.935-2.758 2.882 2.882 0 0 1 .752.1 4.619 4.619 0 0 1 2.85 3.157 14.533 14.533 0 0 1 .52 4.614 8.473 8.473 0 0 1-1.542 1.453M46.277 90.291l-12.092-.776a64.891 64.891 0 0 1 5.6-5.917 23.461 23.461 0 0 1 6.49 6.693m-6.569-8.759A69.625 69.625 0 0 1 6.9 49.143C4.33 43.9 1.446 36.106 1.565 27.733a133.933 133.933 0 0 0 22.4 26.445 128.035 128.035 0 0 0 28.929 19.9c-3.635 2.226-7.773 4.566-13.183 7.449m14.739-8.416A131.125 131.125 0 0 1 1.707 25.048a28.549 28.549 0 0 1 1.977-8.208 24.987 24.987 0 0 1 7.653-10.089 433.245 433.245 0 0 0 58.444 54.777 98.308 98.308 0 0 1-15.334 11.587m18.207-14.427a73.992 73.992 0 0 1-1.735 1.752A431.594 431.594 0 0 1 12.594 5.818a23.127 23.127 0 0 1 13.061-4.259h.1c9.277.048 18.295 6.422 21.93 15.5a.782.782 0 0 0 1.392.114C53.224 10.3 58.9 5.523 65.06 3.727c7.019-2.052 14.548.126 18.732 5.421a19.064 19.064 0 0 1 3.326 6.78c-7.621-.57-15.346 4.256-18.51 11.636a26.077 26.077 0 0 0-1.182 15.324 46.046 46.046 0 0 0 5.765 14.077l.416.7c-.321.353-.641.7-.952 1.022m1.88-2.511a44.531 44.531 0 0 1-5.581-13.6 24.5 24.5 0 0 1 1.088-14.4 17.738 17.738 0 0 1 15.841-10.74 15.082 15.082 0 0 1 1.549.08c7.118.744 13.475 6.661 15.114 14.072a.78.78 0 0 0 1.455.189c3.045-5.943 8.124-10.226 13.586-11.462a14.887 14.887 0 0 1 4.484-.315 271.811 271.811 0 0 1-17.378 24.562c-7.57 9.274-15.14 16.38-23.124 21.712a78.242 78.242 0 0 1-7.034-10.1m8.039 11.3c8.061-5.409 15.7-12.588 23.327-21.93a277.916 277.916 0 0 0 17.871-25.304 14.067 14.067 0 0 1 9.3 6.318 13.912 13.912 0 0 1 .836 1.6c-5.928 13.367-15.508 25.817-28.474 37.013a74.773 74.773 0 0 1-14.881 10.366 76.823 76.823 0 0 1-7.979-8.058M102.442 92.5a32.133 32.133 0 0 1-10.5-.938 59.86 59.86 0 0 1 6.658-7.541 26.463 26.463 0 0 1 3.838 8.477M135.287 37.3a32.292 32.292 0 0 1-3.187 10.857c-5.806 12.407-16.213 22.7-33.715 33.336a73.2 73.2 0 0 1-6.548-4.863 77.74 77.74 0 0 0 14.613-10.28c12.673-10.937 22.155-23.073 28.216-36.1a19.591 19.591 0 0 1 .619 7.05" data-name="Path 3568"/>
        <path fill="#d8c46f" d="M102.442 92.501a32.134 32.134 0 0 1-10.5-.938 59.859 59.859 0 0 1 6.664-7.539 26.463 26.463 0 0 1 3.838 8.477" data-name="Path 3569"/>
        <path fill="#c3d0c9" d="m46.277 90.291-12.092-.776a64.9 64.9 0 0 1 5.6-5.917 23.461 23.461 0 0 1 6.49 6.693" data-name="Path 3570"/>
        <path fill="#c3d0c9" d="M52.891 74.082c-3.635 2.226-7.773 4.566-13.183 7.449A69.624 69.624 0 0 1 6.903 49.143c-2.572-5.247-5.455-13.037-5.337-21.41a133.933 133.933 0 0 0 22.4 26.445 128.035 128.035 0 0 0 28.929 19.9" data-name="Path 3571"/>
        <path fill="#c3d0c9" d="M69.78 61.528a98.308 98.308 0 0 1-15.336 11.588A131.125 131.125 0 0 1 1.707 25.048a28.549 28.549 0 0 1 1.977-8.208 24.987 24.987 0 0 1 7.652-10.089A433.245 433.245 0 0 0 69.78 61.528" data-name="Path 3572"/>
        <path fill="#d8c46f" d="M135.287 37.304a32.293 32.293 0 0 1-3.186 10.852c-5.806 12.407-16.213 22.7-33.715 33.336a73.191 73.191 0 0 1-6.548-4.863 77.74 77.74 0 0 0 14.613-10.28c12.673-10.937 22.155-23.073 28.216-36.1a19.591 19.591 0 0 1 .619 7.05" data-name="Path 3573"/>
        <path fill="#d8c46f" d="M133.909 28.158c-5.929 13.366-15.505 25.816-28.475 37.012a74.773 74.773 0 0 1-14.882 10.367 76.822 76.822 0 0 1-7.979-8.058c8.061-5.409 15.7-12.588 23.327-21.93a277.908 277.908 0 0 0 17.872-25.309 14.067 14.067 0 0 1 9.3 6.318 13.912 13.912 0 0 1 .836 1.6" data-name="Path 3574"/>
        <path fill="#d8c46f" d="M122.071 20.003a271.809 271.809 0 0 1-17.379 24.562c-7.57 9.274-15.14 16.38-23.124 21.712a78.24 78.24 0 0 1-7.034-10.1 44.53 44.53 0 0 1-5.581-13.6 24.5 24.5 0 0 1 1.088-14.4 17.738 17.738 0 0 1 15.842-10.741 15.081 15.081 0 0 1 1.549.08c7.118.744 13.475 6.661 15.114 14.072a.78.78 0 0 0 1.455.189c3.045-5.943 8.124-10.226 13.586-11.462a14.887 14.887 0 0 1 4.484-.312" data-name="Path 3575"/>
        <path fill="#c3d0c9" d="M68.608 27.564a26.077 26.077 0 0 0-1.182 15.324 46.046 46.046 0 0 0 5.764 14.077l.416.7c-.321.353-.641.7-.952 1.022a73.992 73.992 0 0 1-1.735 1.752A431.6 431.6 0 0 1 12.59 5.818a23.127 23.127 0 0 1 13.065-4.259h.1c9.277.048 18.295 6.422 21.93 15.5a.782.782 0 0 0 1.392.114c4.148-6.876 9.825-11.653 15.984-13.448 7.019-2.052 14.548.126 18.732 5.421a19.064 19.064 0 0 1 3.326 6.78c-7.621-.57-15.346 4.256-18.51 11.636" data-name="Path 3576"/>
      </g>
    </g>
  </g>
</svg>
