<svg xmlns="http://www.w3.org/2000/svg" width="226" height="243" viewBox="0 0 226 243">
  <defs>
    <clipPath id="a">
      <path fill="none" d="M0 0h146.18v152.955H0z" data-name="Rectangle 259"/>
    </clipPath>
  </defs>
  <g data-name="Group 325">
    <g data-name="Group 318">
      <g clip-path="url(#a)" data-name="Group 316" transform="translate(40)">
        <path fill="#faf9f8" d="M64.659 69.306s-11.979 55.655-12.09 57.159 6.175 25.209 7.983 23.1c5.57-6.5 15.389-18.194 15.389-18.194l13.365-57.195s-23.036-8.229-24.647-4.87" data-name="Path 3584"/>
        <path fill="#383735" d="M60.3 150.096a1.054 1.054 0 0 1-.755-.407c-2.395-2.58-7.487-21.713-7.372-23.254.111-1.514 11.607-54.939 12.1-57.213a.388.388 0 0 1 .03-.089c.333-.694 1.252-1.033 2.809-1.033 6.306 0 21.68 5.464 22.331 5.7a.4.4 0 0 1 .255.468L76.333 131.46a.4.4 0 0 1-.083.166c-.1.117-9.883 11.766-15.391 18.2a.721.721 0 0 1-.558.274m4.74-80.652c-4.144 19.255-11.983 55.883-12.07 57.05a96.415 96.415 0 0 0 2.955 11.764c2.434 8.168 3.85 10.744 4.346 11.019 5.29-6.178 14.463-17.092 15.3-18.093l13.259-56.752c-2.327-.814-16.061-5.532-21.725-5.532-1.493 0-1.938.326-2.069.544" data-name="Path 3585"/>
        <path fill="#c3d0c9" d="M76.416 131.96c-1.247.439-3.7-4.974-5.152-6.335s-6.416 5.267-7.171 5.212-4.83-5.644-5.791-7.006-6.386 2.529-6.386 2.529 6.1-37.867 8.5-37.6 25.506 4.452 25.239 5.252-9.239 37.948-9.239 37.948" data-name="Path 3586"/>
        <path fill="#c3d0c9" d="M54.916 137.561s14.043 1.813 13.3 3.3c-2.4 4.8-7 9.5-8.9 9.7-1.2.126-4.4-13-4.4-13" data-name="Path 3587"/>
        <path fill="#d8c46f" d="M60.169 87.765s23.69 6.744 25.314 3.163 4.076-11.777 4.076-11.777 30.821-3.479 31.58-32.923c.535-20.958-47.965-50.411-70.074-20.111s10.447 48.38 10.447 48.38Z" data-name="Path 3588"/>
        <path fill="#faf9f8" d="M61.169 79.117s27.805 4.379 27.689 5.248-1.71 9.164-3.01 10-26.74-4.817-26.74-4.817Z" data-name="Path 3589"/>
        <path fill="#383735" d="M85.255 94.846c-4.078 0-25.331-4.71-26.234-4.91a.4.4 0 0 1-.306-.468l2.062-10.429a.4.4 0 0 1 .454-.317c.07.011 7.035 1.109 13.895 2.3 14.253 2.473 14.2 2.861 14.13 3.4-.013.09-1.6 9.263-3.192 10.28a1.512 1.512 0 0 1-.809.147m-25.679-5.607c2.946.649 21.981 4.807 25.679 4.807a1.4 1.4 0 0 0 .4-.033c.946-.608 2.461-7.464 2.775-9.48-1.833-.8-17.144-3.413-26.943-4.961Z" data-name="Path 3590"/>
        <path fill="#383735" d="M86.383 92.655a.394.394 0 0 1-.091-.01l-26.824-6.227a.4.4 0 0 1 .181-.779l26.824 6.227a.4.4 0 0 1-.09.79" data-name="Path 3591"/>
        <path fill="#383735" d="M87.292 88.191a.366.366 0 0 1-.082-.009l-26.157-5.454a.4.4 0 1 1 .163-.783l26.158 5.454a.4.4 0 0 1-.082.791" data-name="Path 3592"/>
        <path fill="#383735" d="M80.314 82.004a.392.392 0 0 1-.189-.048.4.4 0 0 1-.162-.542c3.5-6.488 11.608-23.878 7.115-26.409a2.954 2.954 0 0 0-3.43.094 4.726 4.726 0 0 0-.638.57 14.8 14.8 0 0 1-.458 7.2c-.582 1.544-1.277 1.743-1.76 1.635-.31-.068-.718-.326-.9-1.17-.4-1.885.473-5.69 2.264-7.9a5.522 5.522 0 0 0-2.351-3.821 2.285 2.285 0 0 0-2.817.52 10.215 10.215 0 0 0-2.251 3.287 14.825 14.825 0 0 1 .274 2.41c.1 2.614-.386 6.529-1.527 6.771-.263.059-.638-.021-.914-.712-.677-1.693-.043-5.445 1.329-8.537l-.01-.042c-.433-1.814-1.214-2.809-2.32-2.957a.966.966 0 0 0-.783.281c-2.938 2.554-3.821 18.774-3.878 26.994a.4.4 0 0 1-.4.4.4.4 0 0 1-.4-.4c.007-.985.213-24.166 4.154-27.592a1.743 1.743 0 0 1 1.412-.469c1.258.168 2.192 1.1 2.75 2.71a9.843 9.843 0 0 1 2.034-2.737 3.079 3.079 0 0 1 3.734-.621 5.976 5.976 0 0 1 2.608 3.838c.121-.108.245-.21.372-.3a3.738 3.738 0 0 1 4.3-.147c2.614 1.473 2.237 6.587-1.122 15.2a126.913 126.913 0 0 1-5.682 12.289.4.4 0 0 1-.353.21m-6.168-25.152c-.956 2.6-1.363 5.414-.831 6.743.023.058.045.1.062.138.487-.682 1.073-3.934.769-6.882m8.2-.333a10.856 10.856 0 0 0-1.668 6.644c.075.356.2.535.285.554.188.041.525-.3.84-1.136a13.986 13.986 0 0 0 .54-6.065" data-name="Path 3593"/>
        <path fill="#383735" d="M70.717 125.861a.39.39 0 0 1-.1-.013.4.4 0 0 1-.288-.487l8.1-31.4a.4.4 0 0 1 .775.2l-8.1 31.4a.4.4 0 0 1-.387.3" data-name="Path 3594"/>
        <path fill="#383735" d="M58.016 123.96a.39.39 0 0 1-.1-.013.4.4 0 0 1-.287-.487l8.3-32.1a.4.4 0 1 1 .774.2l-8.3 32.1a.4.4 0 0 1-.386.3" data-name="Path 3595"/>
        <path fill="#faf9f8" d="M120.543 96.644s-.9-6.325 5.22-4.335 4.186 7.807 1.842 5.846 1.951-8.734 6.646-5.783 3.707 8.776.4 9.238 1.937-6.791 6.149-2.385-4.81 12.6-8.561 9.657-.885-7.783.036-4.86-1.458 5.822-8.06 5.772-3.7-10.234-1.36-7.3-1.462 6.307-6.152 2.87.551-10.688 3.838-8.719" data-name="Path 3596"/>
        <path fill="#383735" d="M124.382 110.192h-.168a4.1 4.1 0 0 1-4.235-3.013 7.492 7.492 0 0 1-3.51-1.494 4.806 4.806 0 0 1-1.734-5.671c.754-2.3 2.774-4.1 4.6-4.1a2.756 2.756 0 0 1 .763.106 5.207 5.207 0 0 1 .992-3.438c.982-1.131 2.612-1.362 4.8-.651a8.313 8.313 0 0 1 2.23 1.087 5.173 5.173 0 0 1 3.747-1.777 4.85 4.85 0 0 1 2.6.8 6.875 6.875 0 0 1 3.383 5.366 4.521 4.521 0 0 1 3.243 1.549 4.58 4.58 0 0 1 .701 5.236c-1.3 3.046-4.865 5.718-7.626 5.718a3.434 3.434 0 0 1-2.174-.718 6.015 6.015 0 0 1-.8-.758c-1.478 1.151-3.818 1.756-6.807 1.757m-3.556-2.989a3.259 3.259 0 0 0 3.394 2.188h.162c3.47 0 5.338-.822 6.327-1.6a4.34 4.34 0 0 1-.385-4.17 1.4 1.4 0 0 1 1.163-.912c.3 0 .846.154 1.172 1.185a3.951 3.951 0 0 1-.878 4 5.17 5.17 0 0 0 .707.668 2.652 2.652 0 0 0 1.683.538c2.436 0 5.72-2.494 6.891-5.232a3.832 3.832 0 0 0-.549-4.371 3.752 3.752 0 0 0-2.678-1.3 3.908 3.908 0 0 1-3.126 3.806 2.508 2.508 0 0 1-.339.025 1.021 1.021 0 0 1-1.156-.975c-.054-1.186 1.65-3.2 3.836-3.59a6.08 6.08 0 0 0-3.011-4.755 4.042 4.042 0 0 0-5.3.809 4.029 4.029 0 0 1 1.35 4.176 1.7 1.7 0 0 1-1.543 1.261 1.87 1.87 0 0 1-1.2-.492c-1.288-1.078-.886-3.219.26-4.824a7.528 7.528 0 0 0-1.97-.947c-1.854-.6-3.176-.47-3.944.414-1.062 1.222-.758 3.462-.755 3.484a.4.4 0 0 1-.6.4 1.927 1.927 0 0 0-1-.277c-1.476 0-3.2 1.594-3.839 3.554a4.091 4.091 0 0 0 1.446 4.777 6.94 6.94 0 0 0 2.869 1.309 5.909 5.909 0 0 1 .934-4.094 1.6 1.6 0 0 1 1.223-.693 1.536 1.536 0 0 1 1.2.682 3 3 0 0 1 .534 3.232 3.317 3.317 0 0 1-2.878 1.73m10.661-3.689c-.086 0-.275.125-.449.471a3.549 3.549 0 0 0 .264 3.246 3.133 3.133 0 0 0 .594-3.092c-.156-.494-.336-.625-.409-.625m-9.519-1.154a.863.863 0 0 0-.6.392 5.158 5.158 0 0 0-.743 3.658 2.576 2.576 0 0 0 2.357-1.284 2.23 2.23 0 0 0-.439-2.386.855.855 0 0 0-.576-.38m15.055-4.076c-1.79.4-3.041 2.07-3.01 2.733 0 .089.009.211.357.211.061-.016.146-.006.23-.018a3.088 3.088 0 0 0 2.424-2.926m-8.791-4.146c-1.006 1.417-1.186 3.025-.37 3.708a.846.846 0 0 0 1.476-.421 3.222 3.222 0 0 0-1.106-3.287" data-name="Path 3597"/>
        <path fill="#383735" d="M106.699 35.186a.4.4 0 0 1-.392-.322 4.057 4.057 0 0 0-1.7-2.415.4.4 0 0 1 .415-.684 4.846 4.846 0 0 1 2.072 2.942.4.4 0 0 1-.314.47.386.386 0 0 1-.079.008" data-name="Path 3602"/>
        <path fill="#383735" d="M106.23 39.551a.4.4 0 0 1-.392-.322 4.061 4.061 0 0 0-1.7-2.416.4.4 0 1 1 .415-.683 4.843 4.843 0 0 1 2.072 2.942.4.4 0 0 1-.314.47.385.385 0 0 1-.079.008" data-name="Path 3603"/>
        <path fill="#383735" d="M111.251 38.726a.4.4 0 0 1-.392-.322 4.061 4.061 0 0 0-1.7-2.416.4.4 0 1 1 .415-.683 4.843 4.843 0 0 1 2.072 2.942.4.4 0 0 1-.314.47.386.386 0 0 1-.079.008" data-name="Path 3604"/>
        <path fill="#383735" d="M101.34 35.004a.4.4 0 0 1-.392-.322 4.061 4.061 0 0 0-1.7-2.416.4.4 0 0 1 .416-.683 4.849 4.849 0 0 1 2.071 2.942.4.4 0 0 1-.314.47.386.386 0 0 1-.079.008" data-name="Path 3605"/>
        <path fill="#383735" d="M102.013 30.217a.4.4 0 0 1-.392-.322 4.091 4.091 0 0 0-1.7-2.416.4.4 0 0 1 .417-.683 4.849 4.849 0 0 1 2.071 2.942.4.4 0 0 1-.314.47.386.386 0 0 1-.079.008" data-name="Path 3606"/>
        <path fill="#383735" d="M110.846 43.981a.4.4 0 0 1-.392-.322 4.057 4.057 0 0 0-1.7-2.415.4.4 0 1 1 .417-.684 4.852 4.852 0 0 1 2.071 2.942.4.4 0 0 1-.314.47.386.386 0 0 1-.079.008" data-name="Path 3607"/>
        <path fill="#383735" d="M112.901 50.036a.375.375 0 0 1-.051 0 .4.4 0 0 1-.346-.447 4.064 4.064 0 0 0-.842-2.834.4.4 0 0 1 .613-.515 4.847 4.847 0 0 1 1.023 3.45.4.4 0 0 1-.4.35" data-name="Path 3608"/>
        <path fill="#383735" d="M108.192 47.124a.26.26 0 0 1-.035 0 .4.4 0 0 1-.364-.433 4.065 4.065 0 0 0-.954-2.8.4.4 0 1 1 .591-.539 4.851 4.851 0 0 1 1.161 3.406.4.4 0 0 1-.4.366" data-name="Path 3609"/>
        <path fill="#383735" d="M9.785 125.386c-.3 0-.6 0-1.465-3.385-2.89-.542-3.138-.872-3.221-.982a.537.537 0 0 1-.075-.407c.05-.18.166-.6 3.447-1.934 1.165-3.078 1.566-3.078 1.808-3.078a.556.556 0 0 1 .379.193 8.442 8.442 0 0 1 .7 2.184c.1.38.21.841.274 1.03.168.076.562.215.889.33 1.653.585 2.111.8 2.188 1.179a.542.542 0 0 1-.149.441 15.443 15.443 0 0 1-2.833 1.23c-1.376 3.168-1.674 3.185-1.914 3.2h-.025m-3.7-4.717c.563.169 1.666.417 2.627.591a.4.4 0 0 1 .317.3c.249.99.575 2.12.8 2.722.316-.562.819-1.628 1.225-2.568a.4.4 0 0 1 .233-.218c.821-.293 1.75-.655 2.293-.9a22.905 22.905 0 0 0-1.333-.5c-.944-.334-1.139-.413-1.258-.57a4.908 4.908 0 0 1-.415-1.351c-.1-.394-.253-1.01-.385-1.439a23.06 23.06 0 0 0-1.035 2.391.4.4 0 0 1-.224.23 26.988 26.988 0 0 0-2.846 1.317" data-name="Path 3613"/>
        <path fill="#383735" d="M81.317 9.787c-.3 0-.6 0-1.465-3.385-2.89-.542-3.138-.873-3.221-.983a.537.537 0 0 1-.075-.407c.05-.179.166-.6 3.447-1.934C81.166 0 81.566 0 81.81 0a.557.557 0 0 1 .38.193 8.472 8.472 0 0 1 .7 2.186c.1.379.21.839.274 1.028.168.077.563.216.89.332 1.652.584 2.11.8 2.186 1.178a.539.539 0 0 1-.149.44 15.439 15.439 0 0 1-2.833 1.231c-1.376 3.168-1.674 3.185-1.914 3.2h-.025m-3.7-4.717c.563.169 1.666.417 2.627.591a.4.4 0 0 1 .317.3c.249.99.575 2.12.8 2.722.317-.562.819-1.628 1.225-2.568a.4.4 0 0 1 .233-.218c.821-.294 1.75-.655 2.293-.9a23.323 23.323 0 0 0-1.331-.5c-.946-.334-1.141-.414-1.259-.571a4.912 4.912 0 0 1-.414-1.349c-.1-.394-.254-1.011-.386-1.441a22.985 22.985 0 0 0-1.035 2.391.4.4 0 0 1-.224.23 26.99 26.99 0 0 0-2.844 1.312" data-name="Path 3614"/>
        <path fill="#261d2a" d="M110.307 85.69c-.3 0-.6 0-1.465-3.385-2.89-.542-3.138-.872-3.221-.982a.537.537 0 0 1-.075-.407c.05-.18.166-.6 3.447-1.934 1.165-3.078 1.566-3.078 1.807-3.078a.557.557 0 0 1 .38.193 8.473 8.473 0 0 1 .7 2.186c.1.379.21.839.274 1.029.168.076.562.215.889.33 1.653.585 2.111.8 2.188 1.179a.54.54 0 0 1-.149.44 15.359 15.359 0 0 1-2.833 1.231c-1.376 3.168-1.674 3.185-1.914 3.2h-.025m-3.7-4.717c.563.169 1.666.417 2.627.591a.4.4 0 0 1 .317.3c.249.99.575 2.12.8 2.722.317-.562.819-1.628 1.225-2.568a.4.4 0 0 1 .233-.218c.821-.293 1.75-.655 2.293-.9a22.636 22.636 0 0 0-1.333-.5c-.944-.334-1.139-.413-1.257-.57a4.875 4.875 0 0 1-.415-1.35c-.1-.394-.254-1.011-.386-1.441a22.982 22.982 0 0 0-1.035 2.391.4.4 0 0 1-.224.23 26.992 26.992 0 0 0-2.846 1.317" data-name="Path 3615"/>
        <path fill="#383735" d="M131.715 123.459a3 3 0 1 1 3-3 3 3 0 0 1-3 3m0-5.2a2.2 2.2 0 1 0 2.2 2.2 2.2 2.2 0 0 0-2.2-2.2" data-name="Path 3616"/>
        <path fill="#383735" d="M16.531 36.96a3 3 0 1 1 3-3 3 3 0 0 1-3 3m0-5.2a2.2 2.2 0 1 0 2.2 2.2 2.2 2.2 0 0 0-2.2-2.2" data-name="Path 3617"/>
        <path fill="#383735" d="M84.088 149.441a3 3 0 1 1 3-3 3 3 0 0 1-3 3m0-5.2a2.2 2.2 0 1 0 2.2 2.2 2.2 2.2 0 0 0-2.2-2.2" data-name="Path 3618"/>
        <path fill="#383735" d="M45.959 18.391c-.258 0-.853 0-2.85-2.614a7.856 7.856 0 0 1-3.12.775.589.589 0 0 1-.414-.338c-.088-.194-.356-.778 1.23-3.766-2.3-3.622-2.054-4.09-1.959-4.269a.477.477 0 0 1 .412-.254.486.486 0 0 1 .1.01c.018 0 1.685.392 3.643.922 1.647-2.324 2.25-2.324 2.482-2.324a.673.673 0 0 1 .631.441 11.273 11.273 0 0 1 .513 2.958c2.51.841 2.989 1.3 3.124 1.664a.6.6 0 0 1-.047.526 9.612 9.612 0 0 1-2.9 1.968 20.647 20.647 0 0 1-.223 3.853.651.651 0 0 1-.619.448m-2.084-2.924a8.2 8.2 0 0 0 1.979 2.085 21.8 21.8 0 0 0 .146-3.054c-.7.343-1.428.675-2.125.97m-2.575-2.248a8.655 8.655 0 0 0-1 2.556 9.378 9.378 0 0 0 2.307-.666c-.43-.59-.873-1.23-1.307-1.89m.428-.808c.544.842 1.107 1.66 1.646 2.391a40.878 40.878 0 0 0 2.617-1.2 55.965 55.965 0 0 0-.123-3.077 67.46 67.46 0 0 0-2.534-.749 33.166 33.166 0 0 0-1.606 2.635m4.959-1.614c.047.746.081 1.566.1 2.392a10.322 10.322 0 0 0 2.146-1.382 7.884 7.884 0 0 0-2.244-1.01m-6.989-1.959a21.6 21.6 0 0 0 1.539 2.8 34.71 34.71 0 0 1 1.279-2.089 128.205 128.205 0 0 0-2.818-.716m4.121.242c.719.2 1.381.4 1.976.583a10.844 10.844 0 0 0-.389-2.292 5.93 5.93 0 0 0-1.584 1.718" data-name="Path 3620"/>
        <path fill="#383735" d="M36.153 42.585c-.726 0-2.012-2.016-3.82-5.993a.4.4 0 0 1 .046-.408c2.272-2.982 5.6-7.44 7.175-9.748-2.216 1.911-6.712 6.079-9.7 8.907a.419.419 0 0 1-.3.109c-.668-.046-4.037-.325-4.741-1.37a.558.558 0 0 1 0-.593c.853-1.6 14.667-8.869 15.957-8.869a.815.815 0 0 1 .125.013.391.391 0 0 1 .077.024h.015a.434.434 0 0 1 .1.054c.233.179.352.4-.11 2.674-.363 1.778-3.517 14.875-4.673 15.175a.77.77 0 0 1-.142.018m-3.002-6.1a26.523 26.523 0 0 0 2.918 5.221c.845-1.516 3.489-11.07 4.222-14.952-1 1.521-3.046 4.352-7.14 9.731m-7.574-2.726a9.857 9.857 0 0 0 3.843.889c3.176-3 6.786-6.359 9.078-8.324-4.006 1.9-11.96 6.252-12.921 7.435" data-name="Path 3621"/>
        <path fill="#261d2a" d="M31.858 41.154a.591.591 0 0 1-.284-.071c-.581-.31-1.582-3.321-2.32-5.791a.4.4 0 1 1 .766-.229 34.966 34.966 0 0 0 1.892 5.243 8.311 8.311 0 0 0 1.407-2.075.4.4 0 1 1 .71.369c-.356.686-1.262 2.3-1.968 2.522a.7.7 0 0 1-.2.032" data-name="Path 3622"/>
        <path fill="#383735" d="M87.894 127.198h-.013a14.7 14.7 0 0 1-1.638-.143.4.4 0 0 1-.338-.453.4.4 0 0 1 .454-.338 13.838 13.838 0 0 0 1.548.134.4.4 0 0 1-.012.8m1.6-.037a.4.4 0 0 1-.03-.8 13.43 13.43 0 0 0 1.546-.2.4.4 0 0 1 .14.788c-.54.1-1.087.165-1.626.206h-.03m-4.756-.429a.416.416 0 0 1-.107-.014 8.508 8.508 0 0 1-1.582-.582.4.4 0 0 1 .373-.707 7.993 7.993 0 0 0 1.422.518.4.4 0 0 1-.106.786m7.9-.127a.4.4 0 0 1-.106-.785c.492-.136.993-.3 1.488-.482a.4.4 0 1 1 .278.75c-.517.192-1.039.362-1.554.5a.376.376 0 0 1-.107.014m3-1.11a.4.4 0 0 1-.169-.762c.466-.217.936-.458 1.4-.714a.4.4 0 1 1 .39.7c-.479.267-.967.517-1.45.741a.4.4 0 0 1-.168.038m2.794-1.553a.4.4 0 0 1-.218-.736q.64-.413 1.3-.9a.4.4 0 0 1 .474.645q-.677.5-1.336.922a.4.4 0 0 1-.217.064m2.578-1.891a.4.4 0 0 1-.254-.709q.593-.487 1.2-1.034a.4.4 0 0 1 .538.593q-.618.56-1.226 1.058a.4.4 0 0 1-.254.091m2.37-2.146a.4.4 0 0 1-.282-.684l.12-.12c.336-.335.653-.679.946-1.026a.4.4 0 1 1 .61.518c-.306.362-.639.723-.989 1.073l-.124.123a.4.4 0 0 1-.282.116m2.059-2.442a.4.4 0 0 1-.33-.625 13.339 13.339 0 0 0 .8-1.331.4.4 0 0 1 .71.37 13.93 13.93 0 0 1-.846 1.412.4.4 0 0 1-.331.174m1.469-2.834a.392.392 0 0 1-.137-.024.4.4 0 0 1-.238-.513 11.252 11.252 0 0 0 .429-1.482.4.4 0 0 1 .782.169 12.176 12.176 0 0 1-.46 1.588.4.4 0 0 1-.376.262m.672-3.118h-.029a.4.4 0 0 1-.37-.427 10.98 10.98 0 0 0 .006-1.545.4.4 0 0 1 .373-.425.411.411 0 0 1 .426.374q.025.391.025.786c0 .289-.01.578-.031.867a.4.4 0 0 1-.4.371m-.2-3.184a.4.4 0 0 1-.392-.323 13.285 13.285 0 0 0-.388-1.5.4.4 0 0 1 .762-.246 13.886 13.886 0 0 1 .411 1.594.4.4 0 0 1-.316.47.414.414 0 0 1-.077.007m-.972-3.04a.4.4 0 0 1-.366-.238 16.088 16.088 0 0 0-.706-1.391.403.403 0 0 1 .7-.4c.273.479.522.97.741 1.462a.4.4 0 0 1-.2.528.4.4 0 0 1-.163.035m-1.602-2.771a.4.4 0 0 1-.329-.17c-.3-.424-.614-.843-.95-1.246a.4.4 0 0 1 .615-.512c.35.42.683.858.991 1.3a.4.4 0 0 1-.327.629m-2.045-2.458a.4.4 0 0 1-.286-.12 19.64 19.64 0 0 0-1.143-1.074.4.4 0 1 1 .523-.6c.41.354.811.731 1.191 1.118a.4.4 0 0 1-.286.68m-2.42-2.092a.4.4 0 0 1-.235-.076 19.17 19.17 0 0 0-1.3-.866.4.4 0 1 1 .412-.686c.459.275.918.579 1.363.9a.4.4 0 0 1-.236.723m-2.744-1.641a.394.394 0 0 1-.17-.038 13.308 13.308 0 0 0-1.439-.581.4.4 0 0 1 .254-.759 14.157 14.157 0 0 1 1.527.617.4.4 0 0 1-.171.762m-3.031-1a.414.414 0 0 1-.07-.006 7.919 7.919 0 0 0-1.348-.124h-.164a.418.418 0 0 1-.41-.39.4.4 0 0 1 .39-.41h.186a8.8 8.8 0 0 1 1.486.135.4.4 0 0 1-.069.794" data-name="Path 3623"/>
        <path fill="#383735" d="M51.231 85.648h-.021c-.026 0-.626-.033-1.634-.16a.4.4 0 1 1 .1-.794c.976.123 1.57.154 1.575.154a.4.4 0 0 1-.02.8m-3.193-.393a.394.394 0 0 1-.067-.006 45.145 45.145 0 0 1-1.591-.3.4.4 0 1 1 .166-.782c.554.118 1.078.216 1.558.3a.4.4 0 0 1-.066.794m-3.137-.672a.384.384 0 0 1-.1-.013q-.758-.193-1.562-.434a.4.4 0 1 1 .231-.766c.522.158 1.034.3 1.528.426a.4.4 0 0 1-.1.787m-3.068-.93a.411.411 0 0 1-.134-.022 34.06 34.06 0 0 1-1.515-.579.4.4 0 1 1 .3-.739q.744.3 1.478.564a.4.4 0 0 1-.134.777m-2.961-1.222a.406.406 0 0 1-.173-.039q-.726-.347-1.445-.745a.4.4 0 1 1 .389-.7q.695.386 1.4.722a.4.4 0 0 1-.173.761m-2.8-1.558a.394.394 0 0 1-.217-.065c-.461-.3-.91-.614-1.334-.937a.4.4 0 0 1 .485-.637c.408.311.84.615 1.285.9a.4.4 0 0 1-.218.736m-2.542-1.938a.4.4 0 0 1-.268-.1c-.409-.368-.8-.754-1.165-1.147a.4.4 0 1 1 .586-.543c.348.375.723.743 1.114 1.1a.4.4 0 0 1-.267.7m-2.153-2.349a.4.4 0 0 1-.318-.158 16.014 16.014 0 0 1-.925-1.35.4.4 0 0 1 .682-.418c.268.437.564.869.879 1.284a.4.4 0 0 1-.318.642m-1.663-2.72a.4.4 0 0 1-.361-.227 15.755 15.755 0 0 1-.627-1.512.4.4 0 1 1 .754-.268 14.972 14.972 0 0 0 .6 1.435.4.4 0 0 1-.189.534.4.4 0 0 1-.172.038m-1.071-3a.4.4 0 0 1-.387-.3c-.129-.52-.235-1.06-.317-1.6a.4.4 0 0 1 .791-.119c.078.52.179 1.034.3 1.531a.4.4 0 0 1-.389.5m-.5-3.156a.4.4 0 0 1-.4-.363q-.079-.854-.1-1.622a.4.4 0 0 1 .8-.024q.023.743.1 1.571a.4.4 0 0 1-.361.436h-.038m-.085-3.2h-.022a.4.4 0 0 1-.378-.42c.006-.106.012-.213.02-.317a.357.357 0 0 1-.282.111 15.569 15.569 0 0 1-1.635-.1.4.4 0 0 1-.355-.44.393.393 0 0 1 .44-.355c.5.054 1.03.084 1.56.09a.4.4 0 0 1 .319.165c.029-.274.064-.538.106-.793a.4.4 0 1 1 .789.13 14.092 14.092 0 0 0-.162 1.545.4.4 0 0 1-.4.379m.941-.678a.4.4 0 0 1-.029-.8 17.3 17.3 0 0 0 1.554-.185.4.4 0 0 1 .129.79c-.532.086-1.078.151-1.624.192h-.03m-4.774-.3a.368.368 0 0 1-.088-.01 11.43 11.43 0 0 1-1.588-.473.4.4 0 1 1 .286-.746 10.771 10.771 0 0 0 1.477.439.4.4 0 0 1-.086.79m7.929-.225a.4.4 0 0 1-.1-.786 10.251 10.251 0 0 0 1.454-.5.4.4 0 1 1 .322.732 11.053 11.053 0 0 1-1.569.542.387.387 0 0 1-.1.014m-10.9-.935a.4.4 0 0 1-.211-.06 6.77 6.77 0 0 1-1.321-1.063.4.4 0 0 1 .579-.552 5.955 5.955 0 0 0 1.165.936.4.4 0 0 1-.212.739m13.751-.44a.4.4 0 0 1-.289-.677 1.172 1.172 0 0 0 .173-.226 1.555 1.555 0 0 0 .219-.782c0-.047 0-.1-.008-.146a.402.402 0 1 1 .8-.081c.008.074.011.15.012.225a2.35 2.35 0 0 1-.324 1.182 2 2 0 0 1-.29.381.4.4 0 0 1-.289.124m-6.4-.566a.4.4 0 0 1-.379-.528 6.875 6.875 0 0 1 .723-1.53.4.4 0 1 1 .672.434 6.123 6.123 0 0 0-.638 1.353.4.4 0 0 1-.378.272m-9.525-1.295a.4.4 0 0 1-.358-.22 6.08 6.08 0 0 1-.538-1.618.4.4 0 0 1 .786-.146 5.243 5.243 0 0 0 .467 1.4.4.4 0 0 1-.178.538.4.4 0 0 1-.179.042m15.685-1a.4.4 0 0 1-.279-.114 3 3 0 0 0-1.208-.7.4.4 0 1 1 .236-.764 3.782 3.782 0 0 1 1.531.9.4.4 0 0 1-.28.686m-4.413-.309a.4.4 0 0 1-.234-.725 3.794 3.794 0 0 1 1.634-.679.4.4 0 0 1 .126.79 3 3 0 0 0-1.291.538.4.4 0 0 1-.234.075m-11.879-1.794h-.02a.4.4 0 0 1-.384-.415 10.242 10.242 0 0 1 .206-1.65.4.4 0 1 1 .783.16 9.535 9.535 0 0 0-.19 1.521.4.4 0 0 1-.4.385m.611-3.13a.381.381 0 0 1-.125-.02.4.4 0 0 1-.255-.5c.162-.49.358-1 .582-1.527a.4.4 0 0 1 .735.315c-.215.5-.4.994-.557 1.462a.4.4 0 0 1-.38.274m1.25-2.941a.39.39 0 0 1-.182-.044.4.4 0 0 1-.174-.538q.352-.69.777-1.422a.4.4 0 1 1 .692.4q-.414.714-.756 1.385a.4.4 0 0 1-.357.218m1.6-2.769a.4.4 0 0 1-.337-.615q.419-.655.894-1.345a.4.4 0 1 1 .658.455q-.467.677-.878 1.32a.4.4 0 0 1-.338.185m1.816-2.634a.4.4 0 0 1-.322-.637q.463-.629.972-1.284a.4.4 0 0 1 .631.492q-.5.646-.958 1.266a.4.4 0 0 1-.323.162m1.964-2.529a.4.4 0 0 1-.31-.653l.449-.546a.4.4 0 0 1 .616.511l-.445.541a.4.4 0 0 1-.31.147" data-name="Path 3624"/>
        <path fill="#383735" d="M33.201 117.815c-.693 0-1.338-.014-1.748-.022-.186 0-.322-.006-.39-.006-.458 0-.532-.267-.57-2.523a11.8 11.8 0 0 1-3.542-1.482c-1.7 1.642-1.838 1.642-2.032 1.642a.442.442 0 0 1-.3-.123c-.049-.049-.149-.144-.285-.274-2.844-2.726-3.418-3.551-3.423-4a.515.515 0 0 1 .147-.371c.064-.064.65-.646 1.576-1.562a11.774 11.774 0 0 1-1.033-2.906c-1.257.007-2.044.01-2.133.01a.512.512 0 0 1-.366-.159c-.314-.32-.49-1.31-.407-5.252 0-.186.007-.322.007-.391 0-.453.1-.55 3.251-.581a11.858 11.858 0 0 1 1.545-3.012c-1.191-1.255-1.929-2.036-1.929-2.036a.4.4 0 0 1-.006-.542c.412-.456 2.509-2.746 3.342-3.025a.522.522 0 0 1 .145-.023c.2 0 .426 0 2.6 1.944a11.813 11.813 0 0 1 3.194-1.15c.054-2.046.09-3.346.09-3.346a.4.4 0 0 1 .38-.388s.9-.046 1.9-.046a6.464 6.464 0 0 1 2.606.271c.255.127.426.212.6 3.692a11.829 11.829 0 0 1 2.674 1.1c2.311-2.076 2.543-2.076 2.75-2.076a.521.521 0 0 1 .144.023c.834.278 2.931 2.569 3.343 3.025a.4.4 0 0 1-.006.542s-.827.877-2.145 2.266a11.836 11.836 0 0 1 1.492 3.154c1.957.051 3.192.086 3.192.086a.4.4 0 0 1 .388.379c.031.614.168 3.716-.225 4.5-.12.238-.2.4-3.025.568a11.818 11.818 0 0 1-1 3.114 711.907 711.907 0 0 1 1.836 1.819.511.511 0 0 1 .146.371c0 .448-.579 1.273-3.426 4-.134.129-.233.223-.281.271a.444.444 0 0 1-.3.123c-.2 0-.345 0-2.184-1.79a11.84 11.84 0 0 1-2.942 1.394c.007 1.175.009 1.907.009 1.993 0 .55-.529.8-3.663.8m-1.832-.824h.1c.406.009 1.045.022 1.73.022a12.638 12.638 0 0 0 2.863-.179c0-.33 0-1.07-.01-2.1a.4.4 0 0 1 .29-.386 11.078 11.078 0 0 0 3.271-1.555.4.4 0 0 1 .508.042c1.082 1.059 1.582 1.5 1.811 1.688l.073-.07a20.676 20.676 0 0 0 3.14-3.358c-.274-.272-.957-.95-1.911-1.891a.4.4 0 0 1-.074-.467 11.019 11.019 0 0 0 1.1-3.452.4.4 0 0 1 .374-.342 18.935 18.935 0 0 0 2.715-.255 17.922 17.922 0 0 0 .118-3.626c-.541-.015-1.643-.046-3.111-.083a.4.4 0 0 1-.374-.294 11.09 11.09 0 0 0-1.641-3.459.4.4 0 0 1 .036-.507c1-1.05 1.744-1.839 2.112-2.229A17.382 17.382 0 0 0 41.818 92a29.9 29.9 0 0 0-2.407 2.045.4.4 0 0 1-.473.047 11.019 11.019 0 0 0-3-1.234.4.4 0 0 1-.3-.369 23.453 23.453 0 0 0-.288-3.348 9.275 9.275 0 0 0-2.138-.148c-.586 0-1.14.017-1.487.03-.016.563-.048 1.735-.089 3.294a.4.4 0 0 1-.33.383 11.03 11.03 0 0 0-3.514 1.259.4.4 0 0 1-.465-.051 20.614 20.614 0 0 0-2.276-1.9 17.977 17.977 0 0 0-2.646 2.48l1.9 2.006a.4.4 0 0 1 .03.514 11.063 11.063 0 0 0-1.71 3.324.4.4 0 0 1-.379.281c-1.71.014-2.44.057-2.75.09v.1a20.608 20.608 0 0 0 .154 4.593c.346 0 1.15 0 2.277-.01a.377.377 0 0 1 .4.326 11.045 11.045 0 0 0 1.156 3.264.4.4 0 0 1-.07.476c-.818.808-1.4 1.391-1.655 1.639a20.7 20.7 0 0 0 3.136 3.354l.077.074c.218-.176.68-.585 1.654-1.534a.4.4 0 0 1 .5-.047 11.039 11.039 0 0 0 3.85 1.611.4.4 0 0 1 .318.386c.018 1.222.054 1.79.082 2.055" data-name="Path 3625"/>
        <path fill="#383735" d="M33.487 112.289a8.6 8.6 0 1 1 8.6-8.6 8.607 8.607 0 0 1-8.6 8.6m0-16.394a7.8 7.8 0 1 0 7.8 7.8 7.806 7.806 0 0 0-7.8-7.8" data-name="Path 3626"/>
        <path fill="#383735" d="M33.485 108.626a4.843 4.843 0 1 1 4.843-4.843 4.848 4.848 0 0 1-4.843 4.843m0-8.886a4.043 4.043 0 1 0 4.043 4.042 4.047 4.047 0 0 0-4.043-4.042" data-name="Path 3627"/>
      </g>
    </g>
  </g>
</svg>
