<svg xmlns="http://www.w3.org/2000/svg" width="226" height="243" viewBox="0 0 226 243">
  <defs>
    <clipPath id="a">
      <path fill="none" d="M0 0h103.869v153.955H0z" data-name="Rectangle 256"/>
    </clipPath>
  </defs>
  <g data-name="Group 324">
    <g data-name="Group 310">
      <g clip-path="url(#a)" data-name="Group 309" transform="translate(61)">
        <path fill="#c0ceeb" d="m0 50.818 5.433 30.254c3.305-4.984 8.544-8.954 14.495-9.549s12.4 2.833 14.222 8.53c1.184 3.712.34 7.845-1.512 11.273a21.178 21.178 0 0 1-21.132 10.607l4.875 22.225a273.645 273.645 0 0 1 36.584-4.994c.3 6.835-5.292 12.8-5.344 19.643a14.676 14.676 0 0 0 6.687 11.893 21.329 21.329 0 0 0 13.581 3.172 19.653 19.653 0 0 0 10.216-3.54 12.518 12.518 0 0 0 5.2-9.236c.361-8.882-10.266-15.477-9.612-24.343a163.392 163.392 0 0 0 26.423-3.733 5.144 5.144 0 0 0 3.143-1.558c.815-1.089.651-2.6.45-3.941l-2.957-19.741c-5.362.818-10.435 2.979-15.766 3.979s-11.366.627-15.419-2.977c-3.212-2.856-4.63-7.308-4.742-11.6-.2-7.612 3.784-15.512 10.66-18.782s16.315-.767 20.276 5.841l-2.57-21.917c-.236-2.013-.556-4.2-2.029-5.6-1.44-1.362-3.588-1.585-5.568-1.664a81.724 81.724 0 0 0-26.335 3.264c-1.472.434-3.626.548-3.968-.948-.243-1.064.762-1.964 1.648-2.6 3.437-2.478 6.892-5.266 8.616-9.137a15.528 15.528 0 0 0-.811-13.4 22.735 22.735 0 0 0-10.028-9.3A26.364 26.364 0 0 0 33.119 1.8c-6.867 2.853-12.24 9.395-13.048 16.786s3.358 15.241 10.2 18.149c1.879.8 4.195 1.522 4.761 3.483a3.892 3.892 0 0 1-1.712 4.012 11.413 11.413 0 0 1-4.336 1.586C19.5 47.877 10.021 49.941 0 50.818" data-name="Path 3566"/>
        <path fill="#383735" d="M83.16 84.945a.972.972 0 0 1-.356-.067c-.972-.382-2.074-.816-3.128-1.3a.972.972 0 0 1 .817-1.763c.891.413 1.84.793 2.705 1.134.248-.078.493-.161.731-.246a.972.972 0 1 1 .656 1.829 22.4 22.4 0 0 1-1.149.377.973.973 0 0 1-.278.041m4.119-1.753a.972.972 0 0 1-.489-1.812 14.368 14.368 0 0 0 2.51-1.841.972.972 0 0 1 1.316 1.429 16.327 16.327 0 0 1-2.85 2.091.965.965 0 0 1-.487.132m-10.088-1.163a.967.967 0 0 1-.557-.176c-.291-.2-.571-.416-.835-.632a11.339 11.339 0 0 1-1.8-1.841.972.972 0 0 1 1.538-1.188 9.4 9.4 0 0 0 1.488 1.526c.226.185.468.369.72.545a.972.972 0 0 1-.558 1.767m14.936-3.328a.972.972 0 0 1-.806-1.513 13.837 13.837 0 0 0 1.425-2.758.972.972 0 0 1 1.814.7 15.782 15.782 0 0 1-1.627 3.145.971.971 0 0 1-.807.43m-18.848-1.9a.972.972 0 0 1-.939-.727 7.439 7.439 0 0 1-.245-1.875q0-.17.008-.34a6.14 6.14 0 0 1 .3-1.617.972.972 0 1 1 1.847.606 4.2 4.2 0 0 0-.208 1.1c0 .083-.006.164-.006.246a5.507 5.507 0 0 0 .182 1.386.974.974 0 0 1-.941 1.217m11.154-2.546a.976.976 0 0 1-.648-.247.956.956 0 0 1-.125.084.971.971 0 0 1-1.324-.367 11.259 11.259 0 0 0-1.8-2.473.972.972 0 0 1 1.369-1.379 12.349 12.349 0 0 1 1.831 2.4 15.034 15.034 0 0 1 1.111-2.546.972.972 0 1 1 1.691.957 14.744 14.744 0 0 0-1.183 2.887.973.973 0 0 1-.927.682m10.064-1.723a1.02 1.02 0 0 1-.113-.007.972.972 0 0 1-.854-1.077 6.236 6.236 0 0 0 .044-.715 3.189 3.189 0 0 0-.481-1.836.972.972 0 1 1 1.611-1.087 5.125 5.125 0 0 1 .813 2.923 8.2 8.2 0 0 1-.056.938.972.972 0 0 1-.964.86m-19.277-1.7a.971.971 0 0 1-.588-1.746 5.088 5.088 0 0 1 3.277-1.091 5.29 5.29 0 0 1 .574.05.972.972 0 1 1-.275 1.924 3.329 3.329 0 0 0-.363-.031 3.244 3.244 0 0 0-2.038.7.967.967 0 0 1-.586.2m12.665-2.124a.972.972 0 0 1-.527-1.788 6.422 6.422 0 0 1 3.744-1.009.972.972 0 0 1-.1 1.941 4.516 4.516 0 0 0-2.59.706.968.968 0 0 1-.526.155" data-name="Path 3567"/>
      </g>
    </g>
  </g>
</svg>
