<svg xmlns="http://www.w3.org/2000/svg" width="226" height="243" viewBox="0 0 226 243">
  <defs>
    <clipPath id="a">
      <path fill="none" d="M0 0h175.14v152.955H0z" data-name="Rectangle 255"/>
    </clipPath>
  </defs>
  <g data-name="Group 326">
    <g data-name="Group 308">
      <g clip-path="url(#a)" data-name="Group 307" transform="translate(25)">
        <path fill="#d8c46f" d="M53.7 145.092c.965-15.34 1.48-30.754 2.787-46.066C57.5 87.2 60.04 74.468 68.528 65.6c7.555-7.9 19.134-10.378 28.51-3.9 9.441 6.523 11.659 19.828 13.432 30.312 1.362 8.055 2.3 16.168 2.888 24.317.649 9.05-.027 18.369 1.345 27.322 1.237 8.067 14.745 7.9 16.133 0 1.556-8.86.5-18.4-.224-27.322-.738-9.1-1.9-18.19-3.45-27.191C124.587 74.2 120.409 58.3 107.725 48.7a38.009 38.009 0 0 0-43.116-1.658c-13.088 8.5-20.439 23.131-23.217 38.132-3.626 19.578-3.223 40.081-4.013 59.918-.42 10.549 15.668 10.419 16.324 0" data-name="Path 3557"/>
        <path fill="#c0ceeb" d="M86.92 124.232a.926.926 0 0 0-.561-.391.962.962 0 0 0-.583-.092c-4.486-.45-5.722 4.352-6.412 8.518-1.142-2.409-2.645-4.856-4.823-5.775a3.632 3.632 0 0 0-5.135 2.255c-2.257 7.938 7.416 15.434 11.356 20.954a1.159 1.159 0 0 0 1.8.232c1.306-1.467 1.653-3.378 2.267-5.221 1.035-3.105 2.116-6.2 3.106-9.32 1.157-3.646 2.412-8.477-1.011-11.16" data-name="Path 3558"/>
        <path fill="#c0ceeb" d="M106.643 116.388a1.036 1.036 0 0 0-.1-.426 1.022 1.022 0 0 0-.262-.425c-3.571-5.28-7.5 1.038-9.3 5.531-.845-2.474-.975-5.41-3.651-6.575a3.343 3.343 0 0 0-4.841 2.524c-.592 3.667 1.214 8.625 2.317 12.058.788 2.452 1.735 7.065 4.192 8.341a1.2 1.2 0 0 0 1.385-.179c5.511-4.509 11.775-13.237 10.261-20.849" data-name="Path 3559"/>
        <path fill="#c0ceeb" d="M79.651 122.564a1.187 1.187 0 0 0 .84-1.1 84.372 84.372 0 0 0-.973-15.573c-.519-3.21-1.492-8.054-4.808-9.635-2.39-1.14-4.357.342-4.791 2.8a11.588 11.588 0 0 0 1.021 6.47c-1.807-1.468-3.646-2.877-5.981-3.07-3.13-.259-4.63 2.177-3.6 5.011 1.485 4.084 5.769 7.988 9 10.67 2.61 2.168 5.776 5.5 9.3 4.429" data-name="Path 3560"/>
        <path fill="#c0ceeb" d="M87.149 109.182a1.146 1.146 0 0 0 .62.128 1.174 1.174 0 0 0 .534-.128c3.966-1.984 8.079-4.094 11.022-7.509 1.913-2.22 4.634-6.506 3.563-9.626-.7-2.051-3.157-2.457-5.032-1.9A6.123 6.123 0 0 0 94.84 92.2c.037-2.551-.235-5.13-1.737-6.587-1.992-1.932-4.325-.766-5.55 1.292-2.174 3.655-2.464 8.642-2.391 12.784.048 2.7-.773 8.077 1.987 9.489" data-name="Path 3561"/>
        <path fill="#c0ceeb" d="M73.777 89.344a17.986 17.986 0 0 0 5.179 4.57.982.982 0 0 0 .463.272c.01 0 .017.008.027.011.349.189.705.372 1.075.545a1.165 1.165 0 0 0 1.68-.684 37.3 37.3 0 0 0 2.268-12.863c-.073-2.686-.252-6.708-2.536-8.6a3.569 3.569 0 0 0-4.969.2c-1.76 1.769-1.441 3.986-.806 6.2-2.078-2.077-4.637-3.659-6.637-1.827-3.321 3.032 1.979 10.2 4.256 12.176" data-name="Path 3562"/>
        <path fill="#383735" d="M30.12 149.55c1.525-7.806 1.487-15.979 1.882-23.909.44-8.82.879-17.657 1.829-26.439 1.794-16.576 5.7-34.177 15.653-47.929C60.8 35.636 81.752 33 99.533 37.48c19.128 4.82 25.786 25.839 30.267 42.907 5.5 20.944 6.737 42.669 7.93 64.2.165 2.976 4.817 2.994 4.649 0-1.172-20.908-2.395-42.006-7.376-62.422-4.009-16.43-10.35-38.69-27.079-46.474-8.387-3.9-18.257-4.6-27.382-4.264-9.353.349-18.575 2.569-26.066 8.4-13.24 10.314-19.623 28.581-22.655 44.5a219.418 219.418 0 0 0-3.311 32.526c-.415 10.71-1.19 21.686-.647 32.386.062 1.225 1.992 1.639 2.253.305" data-name="Path 3563"/>
        <path fill="#c0ceeb" d="M19.755 145.991c3.226-21.762 3.5-43.664 5.963-65.486 2-17.733 7.822-35.383 23.624-45.343 15.206-9.584 36.84-13.766 54.442-9.745 19 4.339 31.89 21.312 37.162 39.3 3.411 11.634 4.66 24.223 5.98 36.246 1.423 12.969 2.206 25.994 2.421 39.038.2 11.858 18.777 11.874 18.436 0-.724-25.2-2.651-51.565-9.508-75.922C152.1 42.145 138.887 21.308 117.1 12.3c-20.8-8.6-46.918-5.014-67.032 3.953-20.242 9.024-33.14 26.5-37.944 47.9C9.465 76 8.8 88.191 8.117 100.276c-.828 14.691-1.351 29.311-.885 44.02.216 6.819 11.425 9.1 12.523 1.695" data-name="Path 3564"/>
        <path fill="#d8c46f" d="M4.483 148.433c.209-13.271-.68-26.536-.377-39.817a272.341 272.341 0 0 1 3.7-40.636c2-11.443 4.682-23.106 10.5-33.279 5.894-10.289 15.024-17.53 25.936-21.93 10.557-4.257 22-6.2 33.238-7.661 12.15-1.577 24.191-1.71 35.955 2.061 21.846 7.009 38.467 24.36 45.825 45.9 4.745 13.886 6.5 28.714 8.071 43.232q1.2 11.05 1.937 22.144.4 5.973.673 11.955.123 2.563.222 5.128.067 1.71.122 3.42-.269 2.817.3 1.125l2.926-.377.755.93q-.553 1.365-1.11 2.729l.226-.1c2.853-1.214.393-5.377-2.439-4.172l-.225.1a2.454 2.454 0 0 0-1.11 2.729 2.5 2.5 0 0 0 1.466 1.954 2.476 2.476 0 0 0 2.925-.378c1.415-1.625 1.152-3.307 1.075-5.394-.151-3.99-.34-7.979-.591-11.965q-.729-11.53-1.974-23.023c-1.489-13.86-3.129-27.908-6.515-41.452-5.851-23.4-19.4-43.6-41.483-54.354C102.155-3.58 76.035-.725 52.725 5.683c-10.785 2.964-21.343 7.723-29.37 15.7-8.306 8.25-13.133 19.27-16.185 30.417C3.081 66.734 1.378 82.422.6 97.851c-.846 16.722-1.016 33.94 1 50.582.217 1.792 2.852 1.908 2.883 0" data-name="Path 3565"/>
      </g>
    </g>
  </g>
</svg>
