<svg xmlns="http://www.w3.org/2000/svg" width="263.819" height="397.524" viewBox="0 0 263.819 397.524">
  <defs>
    <clipPath id="a">
      <path fill="#f8e2ce" d="M0 0h263.819v397.525H0z" data-name="Rectangle 303"/>
    </clipPath>
    <clipPath id="b">
      <path fill="none" d="M0 0h91.381v190.249H0z" data-name="Rectangle 236"/>
    </clipPath>
    <clipPath id="c">
      <path fill="none" d="M0 0h19.445v28.5H0z" data-name="Rectangle 248"/>
    </clipPath>
  </defs>
  <g data-name="Gift Balloon">
    <g clip-path="url(#b)" data-name="Mask Group 233" transform="translate(83.933 38.914)">
      <path fill="#383735" d="M89.589 31.861A45.027 45.027 0 0 0 65.561 3.855 43.163 43.163 0 0 0 47.088.002a42.163 42.163 0 0 0-18.325 4.4C20.951 8.345 13.921 15.074 8.43 23.866a56.755 56.755 0 0 0-7.2 16.887 40.211 40.211 0 0 0-.366 18.105 36.131 36.131 0 0 0 17.387 23.366 36.248 36.248 0 0 0 23.7 3.939 81.229 81.229 0 0 1-4.461 8.665.346.346 0 0 0 .292.524q1.617.031 3.247.032c1.779 0 3.564-.03 5.338-.085-.091 1.826-.338 3.69-.58 5.5a58.415 58.415 0 0 0-.623 6.5 10.427 10.427 0 0 0 1 5.264c.085.155.181.308.282.455a15.635 15.635 0 0 0-.4 4.049l-.049 7.142-.073 10.642c-1.273-5.617-2.947-10.9-6.5-15.1a10.48 10.48 0 0 0-5.779-3.841 5.582 5.582 0 0 0-6.176 2.766c-1.487 3.286 1.39 6.747 3.238 8.517a95.078 95.078 0 0 0 13.72 10.423l-30.051 2.063a.351.351 0 0 0-.238.119.346.346 0 0 0-.084.253 684.688 684.688 0 0 1 1.777 49.186.347.347 0 0 0 .343.347l33.781.375h.017l26.049.289a.347.347 0 0 0 .346-.372c-1.191-16.492-2.423-33.545-2.823-53.9a.348.348 0 0 0-.113-.249.343.343 0 0 0-.258-.09l-22.4 1.538c.144-.062.289-.122.432-.186a57.74 57.74 0 0 0 14.209-9.159c3.445-2.944 4.889-5.645 4.413-8.254a5.628 5.628 0 0 0-2.479-3.605 7.479 7.479 0 0 0-4.3-1.266c-2.549.067-5.2 1.287-7.866 3.628a26.821 26.821 0 0 0-6.545 8.8 28.02 28.02 0 0 0-2.014 6.066l.063-8.995.049-7.142a17.32 17.32 0 0 1 .265-3.367 4.438 4.438 0 0 0 3.793 1.489 3.449 3.449 0 0 0 2.487-1.819 2.753 2.753 0 0 0 .11-2.518 2.7 2.7 0 0 0-2.238-1.466 4.212 4.212 0 0 0-3.627 1.459 5.471 5.471 0 0 0-.782 1.324 9.889 9.889 0 0 1-.879-4.854 58 58 0 0 1 .617-6.422c.246-1.841.5-3.741.588-5.614 3.512-.125 7.059-.361 10.548-.7a.347.347 0 0 0 .278-.5l-.3-.607a23.976 23.976 0 0 0-5.537-8.005 36.246 36.246 0 0 0 16.236-1.833 29.593 29.593 0 0 0 9.544-6.109 39.859 39.859 0 0 0 7.078-8.961 47.625 47.625 0 0 0 6.079-17.883 46.438 46.438 0 0 0-1.405-18.813m-41.528 79.412a3.542 3.542 0 0 1 3.01-1.2 2.034 2.034 0 0 1 1.69 1.082 2.067 2.067 0 0 1-.1 1.886 2.781 2.781 0 0 1-1.97 1.456 3.925 3.925 0 0 1-3.48-1.614 5.022 5.022 0 0 1 .851-1.607m-16.877 15.414c-1.715-1.643-4.4-4.834-3.085-7.729.929-2.054 3.48-2.754 5.408-2.371a9.813 9.813 0 0 1 5.384 3.609c3.974 4.7 5.55 10.863 6.895 17.321l-.22.015c-5.368-3.535-10.168-6.803-14.382-10.845M14.77 140.349l24.869-1.708.033 14.28-23.336.824-.737.027q-.348-6.73-.829-13.422m.864 14.116.727-.026 23.313-.824.022 9.292c-7.85.29-15.808.44-23.666.443q-.168-4.446-.4-8.885m.89 34.429c0-8.25-.162-16.553-.468-24.849 7.849 0 15.8-.153 23.641-.443l.06 25.55Zm59.127.656-25.31-.281c.674-8.684 1.105-17.5 1.285-26.219a648.936 648.936 0 0 0 22.177-1.613c.531 9.846 1.194 19.068 1.848 28.113m-1.885-28.808c-7.338.662-14.778 1.2-22.126 1.612.058-3.028.085-6.107.083-9.164l21.644-.764q.18 4.241.4 8.317m-.907-24.382c.108 5.334.273 10.44.478 15.371l-21.615.763c-.011-4.853-.1-9.782-.266-14.666Zm-17.216-17.5c2.544-2.232 5.043-3.395 7.426-3.457 2.532-.07 5.578 1.559 6.078 4.3.428 2.346-.941 4.833-4.181 7.6a57.088 57.088 0 0 1-14.038 9.051c-.819.359-1.639.689-2.442.979l-1.714.118a26.876 26.876 0 0 1 8.87-18.594m-4.88 19.016a460.827 460.827 0 0 1-1.117 51.384l-9.2-.1-.061-25.927-.057-24.635Zm6.206-44.108.076.159c-3.419.326-6.89.549-10.324.665a170.15 170.15 0 0 1-8.33.074 81.919 81.919 0 0 0 4.388-8.66 34.419 34.419 0 0 0 4.4-1.186q1.887.324 3.692.522a22.764 22.764 0 0 1 6.1 8.426m27.349-25.565c-4.16 7.084-9.939 12.331-16.274 14.773-5.644 2.175-12.654 2.56-20.833 1.143a.355.355 0 0 0-.174.014 34.646 34.646 0 0 1-11.316 1.874 35.264 35.264 0 0 1-17.129-4.393A35.422 35.422 0 0 1 1.543 58.702c-2.376-10.7.279-22.943 7.476-34.468 5.424-8.685 12.359-15.327 20.057-19.207A41.511 41.511 0 0 1 47.691.723a42.322 42.322 0 0 1 17.58 3.763 44.326 44.326 0 0 1 23.651 27.57 46.771 46.771 0 0 1-4.606 36.146" data-name="Path 3398"/>
      <path fill="#d8c46f" d="M57.045 93.929c-3.419.325-6.89.549-10.324.665a170.15 170.15 0 0 1-8.33.074 81.9 81.9 0 0 0 4.388-8.66 34.4 34.4 0 0 0 4.4-1.186q1.887.324 3.692.522a22.761 22.761 0 0 1 6.1 8.426c.026.053.052.106.076.159" data-name="Path 3399"/>
      <path fill="#c0ceeb" d="M73.766 160.743c-7.338.662-14.778 1.2-22.126 1.612.058-3.028.085-6.107.083-9.164l21.644-.764q.18 4.241.4 8.317" data-name="Path 3400"/>
      <path fill="#c0ceeb" d="M39.695 162.908c-7.85.29-15.808.44-23.666.443q-.168-4.447-.395-8.885l.726-.026 23.313-.824Z" data-name="Path 3401"/>
      <path fill="#c0ceeb" d="M50.938 162.715a464.496 464.496 0 0 1-1.293 26.546l-9.2-.1-.061-25.927-.057-24.635 10.43-.717a460.777 460.777 0 0 1 .176 24.838" data-name="Path 3402"/>
      <path fill="#d8c46f" d="M88.922 32.056a44.325 44.325 0 0 0-23.65-27.569A42.321 42.321 0 0 0 47.691.724a41.509 41.509 0 0 0-18.615 4.3c-7.7 3.88-14.633 10.522-20.056 19.207C1.822 35.76-.833 48.004 1.543 58.704A35.422 35.422 0 0 0 18.59 81.618a35.262 35.262 0 0 0 17.129 4.393 34.644 34.644 0 0 0 11.316-1.874.356.356 0 0 1 .174-.014c8.179 1.417 15.189 1.032 20.833-1.143 6.335-2.443 12.118-7.689 16.274-14.776a46.772 46.772 0 0 0 4.605-36.15M16.752 58.928a.35.35 0 0 1-.261.118.318.318 0 0 1-.069-.007 15.382 15.382 0 0 1-7.268-3.635c-1.507-1.353-2.085-2.881-1.547-4.089a2.332 2.332 0 0 1 1.392-1.24 3.434 3.434 0 0 1 2.6.155 5.734 5.734 0 0 1 2.051 1.857 5.394 5.394 0 0 1 1.819-3.9 2.768 2.768 0 0 1 3.36-.477 3.206 3.206 0 0 1 1.034 2.138c.391 2.42.285 5.2-3.116 9.083m28.193-48a.347.347 0 0 1-.215.243 49.34 49.34 0 0 0-30.077 34.704.348.348 0 0 1-.289.269.429.429 0 0 1-.051 0 .347.347 0 0 1-.3-.177 19.441 19.441 0 0 1-2.12-11.981 27.222 27.222 0 0 1 4.435-11.652 34.443 34.443 0 0 1 8.872-8.92 61.116 61.116 0 0 1 13.02-6.76.356.356 0 0 1 .22-.011 13.825 13.825 0 0 1 6.431 3.96.349.349 0 0 1 .08.316" data-name="Path 3403"/>
      <path fill="#383735" d="M44.864 10.609a13.825 13.825 0 0 0-6.431-3.96.355.355 0 0 0-.22.011 61.106 61.106 0 0 0-13.02 6.76 34.443 34.443 0 0 0-8.873 8.92 27.222 27.222 0 0 0-4.435 11.652 19.441 19.441 0 0 0 2.12 11.981.347.347 0 0 0 .3.177.429.429 0 0 0 .051 0 .348.348 0 0 0 .289-.269 49.34 49.34 0 0 1 30.084-34.713.347.347 0 0 0 .135-.559m-20.01 13.724A49.123 49.123 0 0 0 14.18 44.811c-3.121-6.4-2.1-14.956 2.715-22.083 4.4-6.514 11.02-11.26 21.461-15.379a13.141 13.141 0 0 1 5.639 3.355 49.081 49.081 0 0 0-19.142 13.629" data-name="Path 3404"/>
      <path fill="#faf9f8" d="M43.997 10.704a49.858 49.858 0 0 0-29.816 34.107c-3.121-6.4-2.1-14.956 2.715-22.083 4.4-6.514 11.02-11.26 21.461-15.379a13.14 13.14 0 0 1 5.639 3.355" data-name="Path 3405"/>
      <path fill="#383735" d="M19.868 49.844a3.206 3.206 0 0 0-1.034-2.138 2.768 2.768 0 0 0-3.36.477 5.4 5.4 0 0 0-1.819 3.9 5.732 5.732 0 0 0-2.051-1.857 3.434 3.434 0 0 0-2.6-.155 2.333 2.333 0 0 0-1.392 1.24c-.538 1.208.04 2.736 1.547 4.088a15.383 15.383 0 0 0 7.268 3.636.326.326 0 0 0 .069.007.35.35 0 0 0 .261-.118c3.4-3.887 3.507-6.663 3.116-9.083m-3.506 8.473a14.693 14.693 0 0 1-6.744-3.431c-.476-.428-1.983-1.928-1.375-3.29a1.675 1.675 0 0 1 .992-.869 2.575 2.575 0 0 1 .87-.146 2.711 2.711 0 0 1 1.19.27 7.041 7.041 0 0 1 2.579 2.825.347.347 0 0 0 .63-.275 4.735 4.735 0 0 1 1.424-4.692 2.119 2.119 0 0 1 2.49-.448 2.572 2.572 0 0 1 .764 1.694c.415 2.565.089 4.976-2.82 8.361" data-name="Path 3406"/>
      <path fill="#faf9f8" d="M16.362 58.318a14.694 14.694 0 0 1-6.744-3.431c-.476-.428-1.983-1.928-1.375-3.29a1.675 1.675 0 0 1 .992-.869 2.575 2.575 0 0 1 .87-.146 2.711 2.711 0 0 1 1.19.27 7.042 7.042 0 0 1 2.579 2.825.347.347 0 0 0 .63-.275 4.735 4.735 0 0 1 1.424-4.692 2.119 2.119 0 0 1 2.49-.447 2.572 2.572 0 0 1 .764 1.694c.415 2.565.089 4.975-2.82 8.361" data-name="Path 3407"/>
    </g>
    <g data-name="stars 2">
      <g clip-path="url(#c)" data-name="Group 266" transform="translate(60.707 62.915)">
        <path fill="#383735" d="M6.226 3.357c-.825 0-1.652-.037-2.47-.112a.569.569 0 1 1 .1-1.133 26.161 26.161 0 0 0 3.575.079.569.569 0 0 1 .053 1.136q-.629.029-1.262.029" data-name="Path 3510"/>
        <path fill="#383735" d="M18.203 13.954a.568.568 0 0 0-.468-.456 2.974 2.974 0 0 1-1.842-1.241 7.6 7.6 0 0 1-1.032-2.294 22.872 22.872 0 0 1-.967-7.543.568.568 0 0 0-1.129-.116 27.858 27.858 0 0 1-1.664 6.411 10.6 10.6 0 0 1-3.988 4.909.569.569 0 0 0-.092.9c2.447 2.274 3.4 5.25 4.308 8.62a.566.566 0 0 0 .548.421h.044a.568.568 0 0 0 .522-.5 11.573 11.573 0 0 1 5.488-8.513.566.566 0 0 0 .269-.595m-6.4 6.7A15.639 15.639 0 0 0 8.308 14.2a11.93 11.93 0 0 0 3.84-5.031 19.137 19.137 0 0 0 .84-2.4 24.223 24.223 0 0 0 .788 3.531 8.64 8.64 0 0 0 1.2 2.635 4.523 4.523 0 0 0 1.417 1.273 12.854 12.854 0 0 0-4.59 6.443" data-name="Path 3511"/>
        <path fill="#c0ceeb" d="M16.39 14.21a12.854 12.854 0 0 0-4.59 6.443 15.639 15.639 0 0 0-3.492-6.457 11.93 11.93 0 0 0 3.84-5.031 19.137 19.137 0 0 0 .84-2.4 24.223 24.223 0 0 0 .788 3.531 8.641 8.641 0 0 0 1.2 2.635 4.523 4.523 0 0 0 1.412 1.281" data-name="Path 3512"/>
        <path fill="#383735" d="M18.877 25.786h-.045a36.153 36.153 0 0 0-4.174-.084.569.569 0 1 1-.043-1.137 37.378 37.378 0 0 1 4.306.086.569.569 0 0 1-.044 1.136" data-name="Path 3513"/>
        <path fill="#383735" d="M16.683 28.5a.575.575 0 0 1-.075 0 .569.569 0 0 1-.489-.638 21.5 21.5 0 0 0 .081-4.925.569.569 0 1 1 1.132-.112 22.631 22.631 0 0 1-.085 5.186.569.569 0 0 1-.563.494" data-name="Path 3514"/>
        <path fill="#383735" d="M1.978 16.492a2.044 2.044 0 0 1-1.122-.327 1.863 1.863 0 0 1-.843-1.74 2.611 2.611 0 0 1 1.331-1.731 1.5 1.5 0 0 1 1.278-.2 2.072 2.072 0 0 1 1.25 1.141 2.1 2.1 0 0 1-.572 2.386 2.069 2.069 0 0 1-1.326.47m.215-2.926a.367.367 0 0 0-.21.071c-.389.262-.793.578-.839.933a.727.727 0 0 0 .34.646.961.961 0 0 0 1.093-.064.961.961 0 0 0 .253-1.065.933.933 0 0 0-.527-.5.388.388 0 0 0-.111-.017m-.528-.4Z" data-name="Path 3515"/>
        <path fill="#383735" d="M5.676 5.508h-.009a.569.569 0 0 1-.56-.577L5.174.56A.569.569 0 0 1 5.743 0h.009a.569.569 0 0 1 .56.577l-.067 4.37a.569.569 0 0 1-.568.56" data-name="Path 3516"/>
      </g>
    </g>
    <g data-name="stars 1">
      <g clip-path="url(#c)" data-name="Group 266" transform="translate(175.314 119.788)">
        <path fill="#383735" d="M13.218 3.357c.825 0 1.652-.037 2.47-.112a.569.569 0 1 0-.1-1.133 26.162 26.162 0 0 1-3.575.079.569.569 0 1 0-.053 1.136q.629.029 1.262.029" data-name="Path 3510"/>
        <path fill="#383735" d="M1.243 13.954a.568.568 0 0 1 .468-.456 2.974 2.974 0 0 0 1.838-1.242 7.6 7.6 0 0 0 1.033-2.293 22.871 22.871 0 0 0 .967-7.543.568.568 0 0 1 1.129-.116 27.857 27.857 0 0 0 1.664 6.411 10.6 10.6 0 0 0 3.988 4.909.569.569 0 0 1 .092.9c-2.448 2.274-3.4 5.25-4.308 8.62a.566.566 0 0 1-.548.421h-.044a.568.568 0 0 1-.522-.5 11.573 11.573 0 0 0-5.488-8.513.566.566 0 0 1-.269-.595m6.4 6.7a15.639 15.639 0 0 1 3.492-6.457 11.93 11.93 0 0 1-3.84-5.031 19.137 19.137 0 0 1-.84-2.4 24.222 24.222 0 0 1-.788 3.531 8.64 8.64 0 0 1-1.2 2.635 4.523 4.523 0 0 1-1.412 1.273 12.854 12.854 0 0 1 4.59 6.443" data-name="Path 3511"/>
        <path fill="#c0ceeb" d="M3.055 14.21a12.854 12.854 0 0 1 4.59 6.443 15.639 15.639 0 0 1 3.492-6.457 11.93 11.93 0 0 1-3.84-5.031 19.136 19.136 0 0 1-.84-2.4 24.223 24.223 0 0 1-.788 3.531 8.64 8.64 0 0 1-1.2 2.635 4.523 4.523 0 0 1-1.412 1.281" data-name="Path 3512"/>
        <path fill="#383735" d="M.568 25.786h.045a36.155 36.155 0 0 1 4.175-.084.569.569 0 1 0 .043-1.137 37.38 37.38 0 0 0-4.306.086.569.569 0 0 0 .044 1.136" data-name="Path 3513"/>
        <path fill="#383735" d="M2.762 28.5a.575.575 0 0 0 .075 0 .569.569 0 0 0 .489-.638 21.5 21.5 0 0 1-.081-4.925.569.569 0 1 0-1.132-.112 22.63 22.63 0 0 0 .085 5.186.569.569 0 0 0 .563.494" data-name="Path 3514"/>
        <path fill="#383735" d="M17.467 16.492a2.044 2.044 0 0 0 1.123-.327 1.863 1.863 0 0 0 .843-1.74 2.611 2.611 0 0 0-1.331-1.731 1.5 1.5 0 0 0-1.278-.2 2.072 2.072 0 0 0-1.25 1.141 2.1 2.1 0 0 0 .568 2.386 2.069 2.069 0 0 0 1.326.47m-.212-2.926a.367.367 0 0 1 .21.071c.389.262.793.578.839.933a.727.727 0 0 1-.34.646.961.961 0 0 1-1.093-.064.961.961 0 0 1-.258-1.066.933.933 0 0 1 .527-.5.388.388 0 0 1 .111-.017m.528-.4Z" data-name="Path 3515"/>
        <path fill="#383735" d="M13.769 5.508h.009a.569.569 0 0 0 .56-.577L14.271.56a.569.569 0 0 0-.569-.56h-.009a.569.569 0 0 0-.56.577l.067 4.37a.569.569 0 0 0 .568.56" data-name="Path 3516"/>
      </g>
    </g>
  </g>
</svg>
