<svg xmlns="http://www.w3.org/2000/svg" width="263.819" height="397.524" viewBox="0 0 263.819 397.524">
  <defs>
    <clipPath id="a">
      <path fill="#f8e2ce" d="M0 0h263.819v397.525H0z" data-name="Rectangle 31"/>
    </clipPath>
    <clipPath id="b">
      <path fill="none" d="M0 0h162.882v172.5H0z" data-name="Rectangle 243"/>
    </clipPath>
    <clipPath id="c">
      <path fill="none" d="M12.186.654A18.584 18.584 0 0 0 0 11.833l12.918 17.5a63.411 63.411 0 0 0 10.161 19.313 21.561 21.561 0 0 0 5.4 5.289 9.377 9.377 0 0 0 7.255 1.379c3.216-.863 5.5-3.945 6.173-7.205a18.7 18.7 0 0 0-1.1-9.806 39.315 39.315 0 0 0-7-12.358 23.031 23.031 0 0 0-2.165-2.285 9.7 9.7 0 0 0 2.379-4.106c1.724-5.642-.975-12.032-5.615-15.677a18.586 18.586 0 0 0-11.4-3.881 17.879 17.879 0 0 0-4.816.652" data-name="Path 3443"/>
    </clipPath>
    <clipPath id="d">
      <path fill="none" d="M7.353 1.78a7.369 7.369 0 0 0-1.074 1.769 3.739 3.739 0 0 0-3.184-1.388A3.5 3.5 0 0 0 .578 4.184a7.31 7.31 0 0 0-.577 3.281 16.686 16.686 0 0 0 5.8 12.312l6.688.74a20.657 20.657 0 0 0 3.4-8.908 14.378 14.378 0 0 0-1.942-9.237A4.616 4.616 0 0 0 11.033.037a2.808 2.808 0 0 0-.453-.036 4.44 4.44 0 0 0-3.223 1.78" data-name="Path 3450"/>
    </clipPath>
    <clipPath id="e">
      <path fill="none" d="M0 0v41.091c1.9 4.8 6.069 8.11 10.321 10.651 2.527 1.511 5.354 2.873 8.218 2.421 4.021-.635 6.976-5.012 6.969-9.362a11.946 11.946 0 0 0-.681-3.911 6.978 6.978 0 0 0 4.861-3.871 10.8 10.8 0 0 0 .3-6.715 21.517 21.517 0 0 0-1.809-5.034 4.568 4.568 0 0 0 .971-.617 6.453 6.453 0 0 0 1.789-6.062 13.538 13.538 0 0 0-2.975-5.806A33.85 33.85 0 0 0 3.939.004Z" data-name="Path 3474"/>
    </clipPath>
  </defs>
  <g data-name="unicorn">
    <g data-name="Group 247">
      <g fill="#d8c46f" clip-path="url(#b)" data-name="Group 246" transform="translate(50.999 61.191)">
        <path d="M162.617 126.269c-.672 3.262-2.948 6.346-6.163 7.214a7.429 7.429 0 0 1-1.9.252 10.18 10.18 0 0 1-5.355-1.623 21.571 21.571 0 0 1-5.406-5.283 63.371 63.371 0 0 1-10.184-19.3l-12.942-17.48a18.278 18.278 0 0 1 28.4-7.986c4.644 3.639 7.353 10.025 5.634 15.67a9.694 9.694 0 0 1-2.379 4.1l.121.111a23.352 23.352 0 0 1 2.048 2.172 39.336 39.336 0 0 1 7.018 12.349 18.7 18.7 0 0 1 1.113 9.8" data-name="Path 3440"/>
        <path d="M162.616 126.269c-.672 3.262-2.948 6.346-6.163 7.214a7.429 7.429 0 0 1-1.9.252 11.933 11.933 0 0 0 4.021-5.312c1.434-3.746 1.167-7.941.275-11.852a39.5 39.5 0 0 0-6.757-14.608c.117-.011.233-.017.347-.02a23.352 23.352 0 0 1 2.048 2.172 39.336 39.336 0 0 1 7.018 12.349 18.7 18.7 0 0 1 1.113 9.8" data-name="Path 3441"/>
      </g>
    </g>
    <g data-name="Group 249">
      <g clip-path="url(#c)" data-name="Group 248" transform="translate(171.684 139.384)">
        <path fill="#ffeee2" d="M35.208 19.967c-.518 1.774-2.474 2.645-4.126 3.034a10.184 10.184 0 0 1-6.2-.213c-.646-.3-2-1.227-1.222-2.05a2.8 2.8 0 0 1 2.345-.441c1.912.325 3.681 1.691 5.146 2.888a28.191 28.191 0 0 1 4.421 4.584c.451.583 1.258-.234.811-.811a28.145 28.145 0 0 0-5.023-5.061c-1.8-1.389-4.018-2.98-6.413-2.787a2.869 2.869 0 0 0-2.459 1.324 2.285 2.285 0 0 0 .768 2.675c1.9 1.634 4.912 1.537 7.231 1.174 2.351-.368 5.1-1.518 5.83-4.011a.574.574 0 0 0-1.106-.305" data-name="Path 3442"/>
      </g>
    </g>
    <g data-name="Group 251">
      <g clip-path="url(#b)" data-name="Group 250" transform="translate(50.999 61.191)">
        <path fill="#e88080" d="m56.095 38.999 2.289-.15 4.7-.308s8.693-16.352 1.158-18.236a3.7 3.7 0 0 0-3.64 1c-4.276 4.055-4.5 17.7-4.5 17.7" data-name="Path 3444"/>
        <path fill="#e88080" d="m56.095 38.998 2.289-.15c2.189-4.332 7.769-16.458 2.214-17.548-4.276 4.055-4.5 17.7-4.5 17.7" data-name="Path 3445"/>
        <path fill="#e88080" d="m42.323 39.851 1.916-1.262 3.93-2.588s-.519-18.512-8-16.427a3.7 3.7 0 0 0-2.673 2.664c-1.714 5.638 4.828 17.613 4.828 17.613" data-name="Path 3446"/>
        <path fill="#e88080" d="m42.323 39.852 1.916-1.262c-.236-4.848-1.375-18.148-6.745-16.351-1.714 5.638 4.828 17.613 4.828 17.613" data-name="Path 3447"/>
        <path fill="#d8c46f" d="M57.602 32.577a20.653 20.653 0 0 1-3.4 8.908l-6.3-.7-.385-.043a16.684 16.684 0 0 1-5.8-12.312 7.307 7.307 0 0 1 .577-3.28 3.5 3.5 0 0 1 2.518-2.023 3.736 3.736 0 0 1 3.182 1.389 7.392 7.392 0 0 1 1.076-1.769 4.859 4.859 0 0 1 2.542-1.7 2.946 2.946 0 0 1 1.135-.042 4.612 4.612 0 0 1 2.914 2.334 14.373 14.373 0 0 1 1.942 9.238" data-name="Path 3448"/>
      </g>
    </g>
    <g data-name="Group 253">
      <g clip-path="url(#d)" data-name="Group 252" transform="translate(92.715 82.16)">
        <path fill="#ffeee2" d="M6.023.423a20.223 20.223 0 0 0-.735 5.318c.043 1.379.273 3.3 1.5 4.181a1.635 1.635 0 0 0 1.7.171 2.06 2.06 0 0 0 .967-1.7c.148-1.554-.81-3.154-1.625-4.405A30.779 30.779 0 0 0 4.393-.169c-.506-.539-1.315.273-.811.811a31.52 31.52 0 0 1 2.987 3.525 15.218 15.218 0 0 1 1.24 2.125 3.459 3.459 0 0 1 .458 2.3c-.247.9-.945.427-1.256-.149a5.815 5.815 0 0 1-.562-2.374 18.112 18.112 0 0 1 .68-5.332C7.301.02 6.195-.286 6.023.432" data-name="Path 3449"/>
      </g>
    </g>
    <g data-name="Group 255">
      <g clip-path="url(#b)" data-name="Group 254" transform="translate(50.999 61.191)">
        <path fill="#d8c46f" d="M57.602 32.577a20.653 20.653 0 0 1-3.4 8.908l-5.156-.7a21.116 21.116 0 0 0 2.375-2.167 14.225 14.225 0 0 0 3.638-10.174 13.427 13.427 0 0 0-1.735-5.874 4.763 4.763 0 0 0-1.716-1.524 2.946 2.946 0 0 1 1.135-.042 4.612 4.612 0 0 1 2.914 2.334 14.373 14.373 0 0 1 1.942 9.238" data-name="Path 3451"/>
        <path fill="#383735" d="M26.828 9.039c.577 2 1.23 4.206 1.917 6.485a1305.467 1305.467 0 0 0 4.106 13.354c1.41 4.516 2.545 8.086 2.916 9.255l.131.408h10.436l-.528-.993c-.633-1.184-1.79-3.346-3.248-6.058a2088.619 2088.619 0 0 0-7.022-12.937 1072.674 1072.674 0 0 0-3.354-6.079 510.858 510.858 0 0 0-3.473-6.156C26.489 2.455 24.897-.114 24.658 0c-.284.143.69 3.908 2.17 9.034" data-name="Path 3452"/>
        <path fill="#faf9f8" d="M26.828 9.038c.577 2 1.23 4.206 1.917 6.485a19.743 19.743 0 0 0 3.441-3.049 510.858 510.858 0 0 0-3.473-6.156 22.508 22.508 0 0 1-1.884 2.72" data-name="Path 3453"/>
        <path fill="#faf9f8" d="M31.2 23.567c.572 1.85 1.13 3.645 1.651 5.31a19.573 19.573 0 0 0 6.012-4.231c-1.074-1.98-2.2-4.043-3.322-6.095a22.553 22.553 0 0 1-4.34 5.015" data-name="Path 3454"/>
        <path fill="#faf9f8" d="m35.767 38.132.131.408h8.827q.559-.475 1.081-.993c-.633-1.184-1.79-3.346-3.248-6.058a22.212 22.212 0 0 1-6.791 6.643" data-name="Path 3455"/>
        <path fill="#d8c46f" d="M89.127 68.84a10.8 10.8 0 0 1-.3 6.715 6.6 6.6 0 0 1-1.219 1.813 7.125 7.125 0 0 1-3.642 2.058 11.95 11.95 0 0 1 .681 3.911c0 .213-.007.427-.021.639a.341.341 0 0 1 0 .048c-.284 4.114-3.137 8.074-6.945 8.675-2.865.452-5.691-.911-8.219-2.421-4.251-2.542-8.419-5.853-10.321-10.651V38.539h3.939a34.624 34.624 0 0 1 11.821 3.107 33.856 33.856 0 0 1 12.2 9.674 13.539 13.539 0 0 1 2.975 5.806 6.456 6.456 0 0 1-1.789 6.062 4.6 4.6 0 0 1-.971.616 21.582 21.582 0 0 1 1.81 5.035" data-name="Path 3456"/>
        <path fill="#d8c46f" d="M89.133 68.84a10.8 10.8 0 0 1-.3 6.715 6.6 6.6 0 0 1-1.219 1.813 16.805 16.805 0 0 0-5.613-16.162 6.184 6.184 0 0 0 2.847-5.789 12.763 12.763 0 0 0-2.456-6.258 28.286 28.286 0 0 0-7.486-7.514 33.856 33.856 0 0 1 12.2 9.674 13.539 13.539 0 0 1 2.975 5.806 6.456 6.456 0 0 1-1.789 6.062 4.6 4.6 0 0 1-.971.616 21.583 21.583 0 0 1 1.81 5.035" data-name="Path 3457"/>
        <path fill="#faf9f8" d="M107.189 114.3c-5.982 3.71-11.743 9.327-10.171 16.745 3.064 14.456 19.162 17.97 19.162 17.97s-12.272 20.415-8.716 23.172c5.037 3.907 32.1-30.464 25.929-35.426" data-name="Path 3458"/>
        <path fill="#faf9f8" d="m57.001 116.299-15.942 9.519s21.1 30.049 14.68 34.292-25.92-21.442-29.016-32.571 21.332-21.562 21.332-21.562" data-name="Path 3459"/>
        <path fill="#c0ceeb" d="M0 50.696c0 8.044 7.936 12.55 17.183 15.07 10.194 2.778 21.98 3.142 26.476 3.172a91.823 91.823 0 0 0-1.692 8.861c-1.99 14.3-.488 30.589 11.135 43.316a71.945 71.945 0 0 0 10.7 9.641q1.726 1.261 3.456 2.36c.384.244.767.484 1.151.717a62.857 62.857 0 0 0 36.1 9.026 49.668 49.668 0 0 0 10.526-1.558l-3.25-5.257-7.994-12.951L92.1 104.144c-40.829-7.569-29.016-65.6-29.016-65.6s-27.717-3.124-46.406.381C7.169 40.703 0 44.2 0 50.696" data-name="Path 3460"/>
        <path fill="#c0ceeb" d="M63.798 130.753q1.726 1.261 3.456 2.36a24.6 24.6 0 0 0 3.509-6.955Z" data-name="Path 3461"/>
        <path fill="#faf9f8" d="M68.405 133.834a62.857 62.857 0 0 0 36.1 9.026 49.667 49.667 0 0 0 10.526-1.558l-3.248-5.261a55.369 55.369 0 0 0-43.38-2.207" data-name="Path 3462"/>
        <path fill="#faf9f8" d="M96.095 131.114c.452 4.268 2.616 8.661 8.413 11.749a49.712 49.712 0 0 0 10.526-1.558l-3.248-5.261a55.091 55.091 0 0 0-15.69-4.929" data-name="Path 3463"/>
        <path fill="#c0ceeb" d="M96.095 131.111a55.092 55.092 0 0 1 15.69 4.929l-7.994-12.951-4.572-5.644s-3.867 6.663-3.124 13.665" data-name="Path 3464"/>
        <path fill="#c0ceeb" d="M81.2 117.446h18.019c-2.239 6.674-3.09 14.675 2.854 19.383 11.584 9.175 24.888 2.064 24.888 2.064s3.239 20.211 7.539 29.284c1.241 2.626 2.57 4.319 3.935 4.319 4.383 0 5.133-14.168 3.769-28.053-1.314-13.372-4.588-26.48-8.471-26.424a36.728 36.728 0 0 0 1.057-4.808c1.205-7.672 1.374-22.253-13.445-26.5-15-4.3-29.629 6.2-36.334 12.077-2.42 2.119-3.808 3.636-3.808 3.636Z" data-name="Path 3465"/>
        <path fill="#e88080" d="M82.537 101.065a37.391 37.391 0 0 0 9.558 3.077s-4.817-2.408-7.088-5.356a63.275 63.275 0 0 0-2.47 2.279" data-name="Path 3466"/>
        <path fill="#e88080" d="M129.599 122.037c2.179-4.243 4.129-4.014 4.129-4.014a36.554 36.554 0 0 0 1.057-4.808c-5.187 2.862-5.187 8.826-5.187 8.826" data-name="Path 3467"/>
        <path fill="#c0ceeb" d="M32.708 170.66c.5 1.116 1.165 1.783 2.042 1.835 5.782.34 12.906-26.992 13.071-27.629v-.011c10.781-5.161 22.938-18.694 22.938-18.694l-14.566-8.143s-17.089 15.6-20.529 20.988c-2.925 4.582-5.767 25.327-2.96 31.654" data-name="Path 3468"/>
        <path fill="#e88080" d="M43.659 68.939a92.127 92.127 0 0 0-1.693 8.861 47.117 47.117 0 0 1 5.86-9.212Z" data-name="Path 3469"/>
        <path fill="#e88080" d="M32.71 170.662c.5 1.116 1.165 1.783 2.042 1.835 5.782.34 12.906-26.992 13.071-27.629a112.843 112.843 0 0 1-8.484 18.339c-1.618 2.843-3.766 5.867-6.63 7.455" data-name="Path 3470"/>
        <path fill="#e88080" d="M134.495 168.178c1.241 2.626 2.57 4.319 3.935 4.319 4.382 0 5.132-14.167 3.769-28.053a44.242 44.242 0 0 1-2.347 17.241 14.034 14.034 0 0 1-2.186 4.321 6.394 6.394 0 0 1-3.171 2.175" data-name="Path 3471"/>
      </g>
    </g>
    <g data-name="Group 257">
      <g fill="#ffeee2" clip-path="url(#e)" data-name="Group 256" transform="translate(110.139 99.731)">
        <path d="M28.785 39.34c-2.718 1.823-6.809 2.129-9.537.111-.487-.361-1.23-1.31-.543-1.866.6-.484 1.873.47 2.393.8a14.275 14.275 0 0 1 6.167 8.25.574.574 0 0 0 1.106-.305 15.521 15.521 0 0 0-7.443-9.377c-.863-.467-1.959-.968-2.868-.322a2.052 2.052 0 0 0-.618 2.346c.705 1.881 3.368 2.67 5.159 2.9a9.891 9.891 0 0 0 6.764-1.542c.61-.409.036-1.4-.579-.99" data-name="Path 3472"/>
        <path d="M31.022 24.732a15.134 15.134 0 0 1-7.251-.456c-2.093-.659-4.378-1.8-5.565-3.73-.431-.7-.962-2.269.3-2.467 1.028-.162 2.155.624 2.98 1.131a23.854 23.854 0 0 1 5.168 4.41 46.62 46.62 0 0 1 4.606 6.215c.4.62 1.389.046.99-.579-2.841-4.452-6.211-8.846-10.908-11.46a4.356 4.356 0 0 0-3.432-.743 2.22 2.22 0 0 0-1.269 2.687c.512 2.482 3.144 4.145 5.294 5.068a16.352 16.352 0 0 0 9.395 1.029c.725-.133.418-1.238-.305-1.106" data-name="Path 3473"/>
      </g>
    </g>
    <g data-name="Group 259">
      <g clip-path="url(#b)" data-name="Group 258" transform="translate(50.999 61.191)">
        <path fill="#faf9f8" d="M0 50.696c0 8.044 7.936 12.55 17.183 15.07a29.385 29.385 0 0 0 2.96-10.956 29.529 29.529 0 0 0-3.47-15.89C7.169 40.703 0 44.2 0 50.696" data-name="Path 3475"/>
        <path fill="#383735" d="M42.869 46.701a26.667 26.667 0 0 1-.73 3.069 12.468 12.468 0 0 1-2.341 4.912c-.881.966-2.346 1.427-3.014.054-.765-1.572-.583-3.669-.454-5.354a32.676 32.676 0 0 1 .535-3.982c.145-.721-.96-1.029-1.106-.305a35.764 35.764 0 0 0-.54 3.854 13.223 13.223 0 0 0 .432 6.043 2.68 2.68 0 0 0 1.632 1.669 2.979 2.979 0 0 0 2.452-.413c1.637-1.083 2.488-3.155 3.113-4.934a26.386 26.386 0 0 0 1.129-4.307c.122-.722-.983-1.032-1.106-.305" data-name="Path 3476"/>
        <path fill="#383735" d="M30.743 44.683a22.937 22.937 0 0 1-.435 2.882 11.254 11.254 0 0 1-1.741 4.59c-.737.954-2.009 1.4-2.684.214a10.2 10.2 0 0 1-.814-4.826 31.28 31.28 0 0 1 .177-3.76c.082-.732-1.066-.726-1.147 0a31.543 31.543 0 0 0-.178 3.544 11.956 11.956 0 0 0 .933 5.548 2.5 2.5 0 0 0 3.919.7c1.4-1.129 2.015-3.126 2.435-4.8a25.271 25.271 0 0 0 .683-4.093c.059-.736-1.088-.732-1.147 0" data-name="Path 3477"/>
        <path fill="#383735" d="M43.306 58.553a4.947 4.947 0 0 1-1.444 3.37 2.5 2.5 0 0 1-3.294-.566c-.483-.56-1.291.255-.811.811a3.665 3.665 0 0 0 4.6.808c1.44-.945 1.916-2.819 2.1-4.423.084-.732-1.063-.726-1.147 0" data-name="Path 3478"/>
        <path fill="#f8e2ce" d="M39.833 41.819c-.2.767 1.224 1.795 3.175 2.3s3.691.285 3.888-.482-1.224-1.795-3.175-2.3-3.695-.288-3.888.482" data-name="Path 3479"/>
        <path fill="#f8e2ce" d="M22.637 40.437c-.048.79 1.541 1.531 3.551 1.654s3.678-.418 3.726-1.208-1.541-1.531-3.551-1.654-3.678.417-3.726 1.208" data-name="Path 3480"/>
        <path fill="#383735" d="M10.728 55.306c.783.078 1.549-1.178 1.711-2.8s-.342-3.009-1.125-3.087-1.549 1.178-1.711 2.8.342 3.009 1.125 3.087" data-name="Path 3481"/>
        <path fill="#383735" d="M4.306 54.618c.783.078 1.549-1.178 1.711-2.8s-.342-3.009-1.125-3.087-1.549 1.178-1.711 2.8.342 3.009 1.125 3.087" data-name="Path 3482"/>
      </g>
    </g>
  </g>
</svg>
