<svg xmlns="http://www.w3.org/2000/svg" width="263.819" height="397.524" viewBox="0 0 263.819 397.524">
  <defs>
    <clipPath id="a">
      <path fill="#f8e2ce" d="M0 0h263.819v397.525H0z" data-name="Rectangle 31"/>
    </clipPath>
    <clipPath id="b">
      <path fill="none" d="M0 0h103.033v172.096H0z" data-name="Rectangle 247"/>
    </clipPath>
  </defs>
  <g data-name="vase">
    <g clip-path="url(#b)" data-name="Group 264" transform="translate(81.002 61.083)">
      <path fill="#3d3939" d="M92.216 19.473a4.194 4.194 0 0 0-2.1-2.855 4.32 4.32 0 0 0-4.619 7.288 4.233 4.233 0 0 0 2.45.756 4.38 4.38 0 0 0 3.44-1.616 4.518 4.518 0 0 0 .826-3.573m-2.078 2.589a2.725 2.725 0 1 1-2.059-4.374 2.613 2.613 0 0 1 2.575 2.1 2.877 2.877 0 0 1-.515 2.279" data-name="Path 3483"/>
      <path fill="#383735" d="M102.7 20.309a6.054 6.054 0 0 0-1.837-6.589 5.955 5.955 0 0 0-4.754-1.168 6.133 6.133 0 0 0-1.43-5.943 6.112 6.112 0 0 0-7.931-.37 6.083 6.083 0 0 0-2.07 5.075 6.932 6.932 0 0 0-3.54-1.383c-1.84-.139-4.112.8-4.706 2.824a4.418 4.418 0 0 0 .718 3.666 5.141 5.141 0 0 0-4.061 1.937 5.473 5.473 0 0 0 .26 6.7 5.822 5.822 0 0 0 4.581 1.909 6.193 6.193 0 0 0 .581 5.692 5.658 5.658 0 0 0 .5.644q-3.76 6.716-7.008 13.713a21.164 21.164 0 0 0-1.394-9.559 22.268 22.268 0 0 0-8.285-10.186.8.8 0 0 0-1.236.7 66.343 66.343 0 0 0 1.622 13.681 23.12 23.12 0 0 0 6.558 11.519c-.1.228-.192.454-.287.68a130.6 130.6 0 0 0-15.327-.4 187.7 187.7 0 0 0-21.203 1.129q-.472-3.212-.991-6.418a.8.8 0 0 0-.1-.629q-.491-3.01-1.022-6.013c.587.038 1.162.059 1.723.059a16.675 16.675 0 0 0 11.591-4.114 17.775 17.775 0 0 0 5.81-11.51.789.789 0 0 0-.277-.68.8.8 0 0 0-.718-.163 31.771 31.771 0 0 0-18.6 13.774q-.824-4.5-1.738-8.993a5.6 5.6 0 0 0 1.358.18h.061a5.921 5.921 0 0 0 4.56-2.063 7.509 7.509 0 0 0 .722-7.766 6.485 6.485 0 0 0 3.47-2.554 6.25 6.25 0 0 0 .965-5.324 6.253 6.253 0 0 0-3.778-3.871 6.649 6.649 0 0 0-3.286-.4 6.265 6.265 0 0 0-.215-4.87A5.84 5.84 0 0 0 25.9.083a5.4 5.4 0 0 0-4.211 4.192c-4.182-1.316-7.76-.841-9.689 1.333a6.127 6.127 0 0 0-1.43 4.665 6.41 6.41 0 0 0 1.117 3.081 7.9 7.9 0 0 0-3.87 2.326 7.591 7.591 0 0 0-2.1 5.7 7.59 7.59 0 0 0 2.972 5.3 7.791 7.791 0 0 0 4.773 1.715h.013a6.019 6.019 0 0 0 2.817 5.3 6.42 6.42 0 0 0 3.333.9 7.014 7.014 0 0 0 3.563-.963 7.983 7.983 0 0 0 3.276-3.939q1.622 7.936 2.967 15.929a15.825 15.825 0 0 0-8.239-3.119 36.653 36.653 0 0 0-11.1 1.092.8.8 0 0 0-.52 1.181 17.452 17.452 0 0 0 9.253 7.559 12.461 12.461 0 0 0 4.042.729 9.97 9.97 0 0 0 7.246-3.248q.4 2.5.765 4.993a75.477 75.477 0 0 0-7.468 1.47 15.757 15.757 0 0 0-7.046 3.28 7.969 7.969 0 0 0-1.284 1.542.1.1 0 0 0-.013.019 6.317 6.317 0 0 0-.661 6.1 10.284 10.284 0 0 0 .674 1.159 4.159 4.159 0 0 1 .788 1.717 4.182 4.182 0 0 1-1.033 2.465 13.892 13.892 0 0 0-.784 1.269 3.87 3.87 0 0 0 .188 3.8 2.06 2.06 0 0 0 1.212.841 20.476 20.476 0 0 0-8.9 8.917C3.68 92.79 2.824 98.949 2.195 104.795-.021 125.321-.086 146.285.037 166v.052a.972.972 0 0 0 .013.11.5.5 0 0 0 .023.074.713.713 0 0 0 .021.072c.013.027.027.053.042.078s.019.038.032.057a.718.718 0 0 0 .053.065c.015.017.027.036.044.053s.04.034.059.051a.551.551 0 0 0 .057.046.727.727 0 0 0 .089.049.324.324 0 0 0 .046.025.817.817 0 0 0 .154.049 261.063 261.063 0 0 0 49.13 5.294q1.657.022 3.312.021a261.316 261.316 0 0 0 45.932-4.061h.006a1.026 1.026 0 0 0 .137-.04h.013a.8.8 0 0 0 .133-.07.454.454 0 0 0 .051-.038.55.55 0 0 0 .068-.055.421.421 0 0 0 .042-.046.44.44 0 0 0 .057-.068c.013-.017.021-.036.034-.053s.03-.049.042-.076.015-.044.023-.065.019-.051.025-.076.008-.053.013-.08a.579.579 0 0 0 .011-.059c1.153-17.741 2.344-38.358 1.88-58.521-.142-6.133-.475-12.606-2.834-18.421a21.217 21.217 0 0 0-9.669-11.1 4.948 4.948 0 0 0 .767-1.66c.619-2.384-.657-4.625-1.78-6.6-.1-.182-.207-.361-.306-.541-.5-.9-2.025-3.958-.5-5.65.125-.137.275-.275.435-.42a3.368 3.368 0 0 0 1.155-1.6c.334-1.227-.391-2.46-2.04-3.478a40.226 40.226 0 0 0-16.138-5.263c.065-.158.133-.315.2-.473a.781.781 0 0 0 .218-.391c.019-.082.034-.161.051-.241q2.05-4.78 4.334-9.436a13.732 13.732 0 0 0 6.228 7.011 12.3 12.3 0 0 0 5.865 1.605 9.389 9.389 0 0 0 1.626-.139 7.919 7.919 0 0 0 6.068-4.758.8.8 0 0 0-.243-.9 25.3 25.3 0 0 0-18.269-5.4q1.689-3.32 3.5-6.57a7.077 7.077 0 0 0 3.888 1.174 6.766 6.766 0 0 0 1.269-.122 7.8 7.8 0 0 0 4.972-3.5A5.955 5.955 0 0 0 100.922 29a6.166 6.166 0 0 0-1.812-5.113 6.069 6.069 0 0 0 3.595-3.573m-54.984 6.67a16.179 16.179 0 0 1-5.132 9.3c-3 2.674-6.782 3.888-11.521 3.69a30.215 30.215 0 0 1 16.653-12.995m-20.93.3a.795.795 0 0 0-1.409.367 6.6 6.6 0 0 1-3.012 4.613 5.232 5.232 0 0 1-5.255.076 4.278 4.278 0 0 1-1.939-4.6.8.8 0 0 0-.767-1.007.908.908 0 0 0-.129.011 6.008 6.008 0 0 1-4.615-1.309A6 6 0 0 1 7.3 21.253a5.99 5.99 0 0 1 1.685-4.49 6 6 0 0 1 4.334-2.017h.021a.8.8 0 0 0 .484-1.43 4.529 4.529 0 0 1-1.673-3.2 4.536 4.536 0 0 1 1.035-3.455c1.607-1.806 5.033-2.019 8.942-.558A.8.8 0 0 0 23.2 5.32a3.74 3.74 0 0 1 2.991-3.673 4.2 4.2 0 0 1 4.368 2.277 4.828 4.828 0 0 1-.678 5.065.8.8 0 0 0 1.019 1.193 4.929 4.929 0 0 1 6.845 2.651 4.646 4.646 0 0 1-.75 3.947 4.647 4.647 0 0 1-3.44 2.078.8.8 0 0 0-.623 1.225A6.032 6.032 0 0 1 32.876 27a4.381 4.381 0 0 1-3.333 1.483H29.5a3.389 3.389 0 0 1-2.708-1.206M19.34 50.819a15.873 15.873 0 0 1-7.793-5.919 32.534 32.534 0 0 1 9.487-.826 13.43 13.43 0 0 1 8.615 3.895c-2.915 3.35-6.205 4.254-10.309 2.847m44.914-9.567a57.98 57.98 0 0 1-1.489-11.7 20.684 20.684 0 0 1 6.37 8.5c1.535 3.837 1.747 7.914.667 13.443a22.376 22.376 0 0 1-5.548-10.241m-10.571 13.8a132.5 132.5 0 0 1 14.661.344q-.668 1.625-1.309 3.263a57.62 57.62 0 0 0-2.063-.275 89.241 89.241 0 0 0-31.695 2.061q-.288-2.145-.6-4.285a186.117 186.117 0 0 1 21-1.109m21.278 7.664a146.7 146.7 0 0 1-8.146 1.14q.618-1.708 1.267-3.4a23.6 23.6 0 0 1 6.879 2.264M9.794 157.231c.211-12.659.425-25.661.6-37.993 3.616-.765 7.132 2.773 8.161 3.924.52.583 1.039 1.208 1.542 1.812 1.9 2.283 3.856 4.642 6.687 5.81 2.936 1.212 5.96.845 8.955.076q-.054 2.816-.139 5.631a.8.8 0 0 0 .773.819h.027a.8.8 0 0 0 .8-.771q.1-3.06.148-6.123c.536-.158 1.073-.321 1.607-.484a28.13 28.13 0 0 1 7.924-1.63h.021a16.843 16.843 0 0 1 5.861 1.191q-.181 7.559.194 15.107a.8.8 0 0 0 .8.756.27.27 0 0 0 .04 0 .793.793 0 0 0 .754-.834q-.358-7.169-.2-14.383c1.333.581 2.648 1.238 3.947 1.89.581.291 1.162.583 1.742.866 3.793 1.852 9.422 4.093 14.492 2.161 3.4-1.3 5.715-4.076 8.161-7.018 2.308-2.775 4.689-5.635 8.15-7.386l-.152 38.645a112.464 112.464 0 0 0-80.891-2.061m80.885 3.787v.1a281.528 281.528 0 0 1-80.33-2.393 110.838 110.838 0 0 1 80.33 2.294m-78.312-43.437a12.743 12.743 0 0 1 8.07-1.331 37.931 37.931 0 0 1 8.482 2.646c.866.344 1.759.7 2.648 1.035a35.265 35.265 0 0 0 4.249 1.326q.009 3.969-.051 7.941c-2.925.79-5.721 1.2-8.374.106-2.465-1.018-4.216-3.126-6.07-5.356a66.578 66.578 0 0 0-1.58-1.856c-1.236-1.381-4.038-4.08-7.375-4.511m25 11.158q.051-3.58.044-7.162a15.576 15.576 0 0 0 6.273-.148 24.619 24.619 0 0 0 5.455-2.327 27.624 27.624 0 0 1 4.283-1.956q-.447 5.329-.621 10.663a17.787 17.787 0 0 0-5.907-1.109h-.027a29.291 29.291 0 0 0-8.387 1.7c-.374.114-.746.228-1.115.338m44.1-1.73c-2.311 2.777-4.492 5.4-7.506 6.547-4.492 1.713-9.7-.38-13.225-2.1-.574-.281-1.151-.57-1.728-.86-1.512-.758-3.045-1.527-4.615-2.177q.181-5.835.7-11.669c3.859-.6 7.485 1.136 11.32 2.972a50.206 50.206 0 0 0 5.447 2.349 23.16 23.16 0 0 0 7.439 1.214 23.892 23.892 0 0 0 6.315-.851 49.3 49.3 0 0 0-4.148 4.577M53.573 115.45a25.612 25.612 0 0 0-5.173 2.25 23.069 23.069 0 0 1-5.1 2.19 14.217 14.217 0 0 1-5.892.078q-.086-17.757-1.535-35.473a86.762 86.762 0 0 0 10.9.644c4.072 0 8.091-.23 12.019-.543q-.291 1.175-.57 2.353a209.087 209.087 0 0 0-4.655 28.5M35.74 82.866q-.3-3.52-.65-7.033a167 167 0 0 0 19.018 1.088q3.39 0 6.782-.139-.89 3.076-1.682 6.186a111 111 0 0 1-23.468-.1m-.819-8.655q-.456-4.369-.991-8.727a150.546 150.546 0 0 0 16.3.887c4.741 0 9.483-.226 14.2-.674q-1.641 4.692-3.062 9.47a165.342 165.342 0 0 1-26.442-.957m-1.2-10.351c-.078-.61-.154-1.221-.234-1.831a87.729 87.729 0 0 1 31.3-2.066c.583.065 1.13.137 1.656.215q-.735 1.923-1.434 3.863a149.111 149.111 0 0 1-31.287-.182m-1.627-.19q-1.53-.187-3.062-.406 1.445-.444 2.9-.832c.055.412.106.826.158 1.238m-14.652-2.952a14.383 14.383 0 0 1 6.356-2.906 73.472 73.472 0 0 1 7.307-1.438q.32 2.233.619 4.467a90.635 90.635 0 0 0-6.169 1.882 144.56 144.56 0 0 1-8.435-1.681c.106-.112.213-.222.323-.323M15.46 74.558a12.244 12.244 0 0 1 .7-1.119 5.46 5.46 0 0 0 1.295-3.5 5.453 5.453 0 0 0-1.035-2.433 9.272 9.272 0 0 1-.572-.978 4.609 4.609 0 0 1 .287-4.085c3.077.722 6.22 1.356 9.354 1.878h.021c2.247.376 4.53.7 6.794.972q.542 4.35 1 8.714-6.336-.8-12.63-2.1a.8.8 0 1 0-.319 1.559q6.532 1.343 13.118 2.158.355 3.5.657 7a57.147 57.147 0 0 1-17.65-5.629.824.824 0 0 0-.365-.089.777.777 0 0 0-.122.011.431.431 0 0 1-.463-.22 2.322 2.322 0 0 1-.07-2.139m81.8 16.4c2.258 5.569 2.575 11.627 2.716 17.859.458 19.865-.7 40.191-1.835 57.757a261.715 261.715 0 0 1-96.52-1.227c-.116-19.481-.03-40.162 2.152-60.382.615-5.692 1.442-11.679 4.178-16.839a18.3 18.3 0 0 1 9.61-8.824 59.53 59.53 0 0 0 16.7 4.97q1.454 17.639 1.559 35.353a34.817 34.817 0 0 1-3.69-1.178c-.872-.325-1.759-.68-2.615-1.022a39.1 39.1 0 0 0-8.845-2.743c-3.525-.509-8.2.078-11.134 3.136-.059.019-.118.034-.18.055a.793.793 0 0 0-.543.743c-.188 13.179-.42 27.15-.644 40.66a.8.8 0 0 0 .657.8 284.777 284.777 0 0 0 50.056 4.448 281.254 281.254 0 0 0 32.683-1.9.8.8 0 0 0 .7-.788l.167-42.421a.8.8 0 0 0-.353-.663.784.784 0 0 0-.376-.133.793.793 0 0 0-.967-.108 21.985 21.985 0 0 1-18.372 2.061 49.065 49.065 0 0 1-5.272-2.277c-3.768-1.8-7.66-3.664-11.857-3.164a209.586 209.586 0 0 1 5.288-30.672c1.888-.161 3.753-.336 5.588-.509l15-1.409c3.052-.287 5.3-.976 6.771-2.082a19.421 19.421 0 0 1 9.375 10.505m-10.091-29.2a.789.789 0 0 1 .127.612 2.16 2.16 0 0 1-.689.834 7.221 7.221 0 0 0-.549.534c-1.527 1.7-1.419 4.429.3 7.491.1.184.207.365.31.551 1.024 1.8 2.08 3.656 1.626 5.415a3.49 3.49 0 0 1-1.091 1.75c-1.185 1.058-3.246 1.719-6.23 2l-15 1.411c-1.654.154-3.328.313-5.024.458q.792-3.07 1.679-6.118 7.86-.4 15.7-1.54a.8.8 0 0 0-.228-1.576q-7.486 1.09-15 1.5 1.445-4.819 3.119-9.561c3.679-.391 7.39-.925 11.039-1.59a.09.09 0 0 1 .023 0h.017c3.305-.6 6.625-1.333 9.876-2.161m-1.5-1.265a145.28 145.28 0 0 1-8.351 1.8 22.372 22.372 0 0 0-8.653-3.356q.662-1.692 1.354-3.369a39.441 39.441 0 0 1 15.65 4.916m7.863-13.3a6.441 6.441 0 0 1-4.621 3.227 10.016 10.016 0 0 1-6.448-1.295 12.052 12.052 0 0 1-5.671-6.6 23.7 23.7 0 0 1 16.74 4.668M97.1 22.658a.8.8 0 0 0-.319 1.525 4.377 4.377 0 1 1-5.764 5.808.8.8 0 0 0-1.464.036 6.258 6.258 0 0 1-4.453 3.828 5.242 5.242 0 0 1-5.261-2.082 4.522 4.522 0 0 1 .336-5.421.8.8 0 0 0-.583-1.339.775.775 0 0 0-.3.061 4.3 4.3 0 0 1-4.729-1.056 3.882 3.882 0 0 1-.2-4.693 3.523 3.523 0 0 1 4.465-.855.8.8 0 0 0 1.012-1.21c-1.145-1.252-2.262-2.716-1.869-4.057a2.921 2.921 0 0 1 3.056-1.683c1.4.108 2.716.868 4.714 2.716a.8.8 0 0 0 1.2-1.029 4.525 4.525 0 0 1 .832-5.74 4.527 4.527 0 0 1 5.793.27 4.526 4.526 0 0 1 .294 5.793.8.8 0 0 0 1.04 1.17 4.264 4.264 0 0 1 6.3 5.069 4.51 4.51 0 0 1-4.1 2.889" data-name="Path 3484"/>
      <path fill="#c3d0c9" d="M29.649 47.972c-2.915 3.35-6.205 4.254-10.309 2.847a15.873 15.873 0 0 1-7.793-5.916 32.535 32.535 0 0 1 9.487-.826 13.43 13.43 0 0 1 8.615 3.895" data-name="Path 3485"/>
      <path fill="#c3d0c9" d="M47.721 26.979a16.179 16.179 0 0 1-5.132 9.3c-3 2.674-6.782 3.888-11.521 3.69a30.215 30.215 0 0 1 16.653-12.987" data-name="Path 3486"/>
      <path fill="#c3d0c9" d="M69.802 51.492a22.376 22.376 0 0 1-5.548-10.241 57.982 57.982 0 0 1-1.489-11.7 20.684 20.684 0 0 1 6.37 8.5c1.535 3.837 1.747 7.914.667 13.443" data-name="Path 3487"/>
      <path fill="#c3d0c9" d="M93.535 47.197a6.441 6.441 0 0 1-4.621 3.227 10.016 10.016 0 0 1-6.448-1.295 12.051 12.051 0 0 1-5.671-6.6 23.7 23.7 0 0 1 16.74 4.665" data-name="Path 3488"/>
      <path fill="#c0ceeb" d="M37.744 12.832a4.929 4.929 0 0 0-6.848-2.65.8.8 0 0 1-1.018-1.193 4.828 4.828 0 0 0 .678-5.065 4.2 4.2 0 0 0-4.36-2.277 3.74 3.74 0 0 0-3 3.673.8.8 0 0 1-1.073.788c-3.904-1.462-7.327-1.245-8.937.555a4.536 4.536 0 0 0-1.035 3.455 4.529 4.529 0 0 0 1.673 3.2.8.8 0 0 1-.484 1.43h-.021a6.023 6.023 0 1 0 .963 11.99.908.908 0 0 1 .129-.011.8.8 0 0 1 .767 1.007 4.278 4.278 0 0 0 1.939 4.6 5.232 5.232 0 0 0 5.255-.076 6.6 6.6 0 0 0 3.012-4.613.795.795 0 0 1 1.412-.371 3.389 3.389 0 0 0 2.7 1.206h.044a4.381 4.381 0 0 0 3.333-1.483 6.032 6.032 0 0 0 .055-6.915.8.8 0 0 1 .623-1.225 4.647 4.647 0 0 0 3.44-2.078 4.646 4.646 0 0 0 .75-3.947m-10.145 5.255a4.787 4.787 0 0 1-4.3 2.68 4.2 4.2 0 0 1-1.377-.224 4.759 4.759 0 0 1-2.991-5.417 4.761 4.761 0 0 1 5.1-3.5 4.335 4.335 0 0 1 3.388 2.192 4.906 4.906 0 0 1 .177 4.266" data-name="Path 3489"/>
      <path fill="#c0ceeb" d="M99.866 14.957a4.385 4.385 0 0 0-4.961-.258.8.8 0 0 1-1.052-1.17 4.316 4.316 0 1 0-6.919-.323.8.8 0 0 1-1.2 1.029c-2-1.848-3.318-2.608-4.714-2.716a2.921 2.921 0 0 0-3.056 1.683c-.393 1.341.724 2.8 1.869 4.057a.8.8 0 0 1-1.012 1.21 3.523 3.523 0 0 0-4.465.855 3.882 3.882 0 0 0 .2 4.693 4.3 4.3 0 0 0 4.729 1.056.775.775 0 0 1 .3-.061.8.8 0 0 1 .583 1.339 4.522 4.522 0 0 0-.336 5.421 5.242 5.242 0 0 0 5.261 2.082 6.258 6.258 0 0 0 4.461-3.829.8.8 0 0 1 1.464-.036 4.377 4.377 0 1 0 5.764-5.808.8.8 0 0 1 .319-1.525 4.51 4.51 0 0 0 4.1-2.889 4.416 4.416 0 0 0-1.339-4.811m-8.471 8.093a4.38 4.38 0 0 1-3.44 1.616 4.233 4.233 0 0 1-2.45-.756 4.32 4.32 0 0 1 4.619-7.288 4.194 4.194 0 0 1 2.1 2.855 4.518 4.518 0 0 1-.826 3.573" data-name="Path 3490"/>
      <path fill="#d8c46f" d="M90.138 22.062a2.725 2.725 0 1 1-2.059-4.374 2.613 2.613 0 0 1 2.574 2.1 2.877 2.877 0 0 1-.515 2.279" data-name="Path 3491"/>
      <path fill="#c0ceeb" d="M35.82 121.264q.01 3.969-.051 7.941c-2.925.79-5.721 1.2-8.374.106-2.465-1.018-4.216-3.126-6.07-5.356a66.578 66.578 0 0 0-1.58-1.856c-1.236-1.381-4.038-4.08-7.375-4.511a12.743 12.743 0 0 1 8.07-1.331 37.935 37.935 0 0 1 8.482 2.646c.866.344 1.759.7 2.648 1.035a35.26 35.26 0 0 0 4.249 1.326" data-name="Path 3492"/>
      <path fill="#c0ceeb" d="M53.423 117.151q-.447 5.329-.621 10.663a17.785 17.785 0 0 0-5.907-1.109h-.025a29.289 29.289 0 0 0-8.387 1.7c-.374.114-.746.228-1.115.338q.051-3.58.044-7.162a15.577 15.577 0 0 0 6.273-.148 24.623 24.623 0 0 0 5.455-2.327 27.616 27.616 0 0 1 4.283-1.956" data-name="Path 3493"/>
      <path fill="#c0ceeb" d="M85.613 122.439a49.288 49.288 0 0 0-4.148 4.577c-2.311 2.777-4.492 5.4-7.506 6.547-4.492 1.713-9.7-.38-13.225-2.1-.574-.281-1.151-.57-1.728-.86-1.512-.758-3.045-1.527-4.615-2.177q.181-5.835.7-11.669c3.859-.6 7.485 1.136 11.32 2.972a50.213 50.213 0 0 0 5.447 2.347 23.161 23.161 0 0 0 7.443 1.214 23.894 23.894 0 0 0 6.315-.851" data-name="Path 3494"/>
      <path fill="#c0ceeb" d="M90.679 161.018v.1a281.53 281.53 0 0 1-80.333-2.393 110.839 110.839 0 0 1 80.33 2.294" data-name="Path 3495"/>
      <path fill="#c0ceeb" d="M82.687 128.033c-2.446 2.942-4.758 5.721-8.161 7.018-5.071 1.933-10.7-.308-14.492-2.161-.581-.283-1.162-.575-1.742-.866-1.3-.653-2.615-1.309-3.947-1.89q-.162 7.207.2 14.383a.793.793 0 0 1-.754.834.266.266 0 0 1-.04 0 .8.8 0 0 1-.8-.756q-.377-7.543-.194-15.107a16.842 16.842 0 0 0-5.861-1.191h-.021a28.131 28.131 0 0 0-7.924 1.63c-.534.163-1.071.325-1.607.484q-.054 3.064-.148 6.123a.8.8 0 0 1-.8.771h-.023a.8.8 0 0 1-.773-.819q.089-2.816.139-5.63c-2.995.769-6.019 1.136-8.955-.076-2.83-1.168-4.79-3.527-6.687-5.81-.5-.6-1.022-1.229-1.542-1.812-1.029-1.151-4.545-4.689-8.161-3.924-.175 12.332-.389 25.333-.6 37.993a112.464 112.464 0 0 1 80.891 2.061l.152-38.645c-3.462 1.751-5.842 4.61-8.15 7.386m-63.68 10.123a3.185 3.185 0 1 1 3.284-3.185 3.239 3.239 0 0 1-3.284 3.185m9.354 11.143a3.185 3.185 0 1 1 3.284-3.183 3.239 3.239 0 0 1-3.284 3.183m17.91-9.95a3.185 3.185 0 1 1 3.284-3.183 3.237 3.237 0 0 1-3.284 3.183" data-name="Path 3496"/>
      <path fill="#3d3939" d="M27.423 13.821a4.335 4.335 0 0 0-3.388-2.192 4.6 4.6 0 0 0-2.114 8.915 4.2 4.2 0 0 0 1.377.224 4.787 4.787 0 0 0 4.3-2.68 4.906 4.906 0 0 0-.177-4.266m-1.27 3.608a3.011 3.011 0 1 1-2.684-4.247 2.424 2.424 0 0 1 .351.023 2.791 2.791 0 0 1 2.211 1.385 3.369 3.369 0 0 1 .122 2.839" data-name="Path 3497"/>
      <path fill="#d8c46f" d="M26.152 17.43a3.011 3.011 0 1 1-2.684-4.247 2.424 2.424 0 0 1 .351.023 2.791 2.791 0 0 1 2.211 1.385 3.369 3.369 0 0 1 .122 2.839" data-name="Path 3498"/>
      <path fill="#3d3939" d="M19.006 131.784a3.185 3.185 0 1 0 3.284 3.183 3.237 3.237 0 0 0-3.284-3.183m0 4.775a1.6 1.6 0 1 1 1.692-1.592 1.645 1.645 0 0 1-1.692 1.592" data-name="Path 3499"/>
      <path fill="#faf9f8" d="M20.698 134.963a1.694 1.694 0 1 1-1.692-1.592 1.645 1.645 0 0 1 1.692 1.592" data-name="Path 3500"/>
      <path fill="#3d3939" d="M28.36 142.927a3.185 3.185 0 1 0 3.284 3.185 3.239 3.239 0 0 0-3.284-3.185m0 4.777a1.6 1.6 0 1 1 1.692-1.592 1.647 1.647 0 0 1-1.692 1.592" data-name="Path 3501"/>
      <path fill="#faf9f8" d="M30.052 146.111a1.695 1.695 0 1 1-1.692-1.592 1.647 1.647 0 0 1 1.692 1.592" data-name="Path 3502"/>
      <path fill="#3d3939" d="M46.27 132.977a3.185 3.185 0 1 0 3.284 3.185 3.237 3.237 0 0 0-3.284-3.185m0 4.775a1.594 1.594 0 1 1 1.692-1.59 1.646 1.646 0 0 1-1.692 1.59" data-name="Path 3503"/>
      <path fill="#faf9f8" d="M47.961 136.162a1.695 1.695 0 1 1-1.692-1.592 1.645 1.645 0 0 1 1.692 1.592" data-name="Path 3504"/>
      <path fill="#383735" d="M29.925 101.838a14.178 14.178 0 0 1-3.434-10.444.8.8 0 0 0-1.54-.346 31.17 31.17 0 0 1-2.718 6.021 9.949 9.949 0 0 1-4.64 4.063.8.8 0 0 0-.245 1.343 17.324 17.324 0 0 1 5.9 9.17.8.8 0 0 0 1.554 0 22.85 22.85 0 0 1 1.538-5.052 7.128 7.128 0 0 1 3.318-3.5.8.8 0 0 0 .27-1.255m-5.02 4.059a16.374 16.374 0 0 0-.991 2.661 19.772 19.772 0 0 0-4.619-6.458 12.165 12.165 0 0 0 4.279-4.175 21.121 21.121 0 0 0 1.489-2.815 15.883 15.883 0 0 0 3.037 7.016 9.221 9.221 0 0 0-3.2 3.772" data-name="Path 3505"/>
      <path fill="#d8c46f" d="M28.099 102.125a9.221 9.221 0 0 0-3.2 3.772 16.375 16.375 0 0 0-.991 2.661 19.772 19.772 0 0 0-4.619-6.458 12.165 12.165 0 0 0 4.279-4.175 21.119 21.119 0 0 0 1.489-2.815 15.883 15.883 0 0 0 3.037 7.016" data-name="Path 3506"/>
      <path fill="#383735" d="M80.586 111.559a9.7 9.7 0 0 1-2.011-9.375.8.8 0 0 0-1.375-.752l-6.184 7.681a.8.8 0 0 0-.141.731c.986 3.263 1.595 5.751 2.184 8.161a.792.792 0 0 0 .722.6.409.409 0 0 0 .051 0 .793.793 0 0 0 .741-.509 8.974 8.974 0 0 1 5.658-5.242.8.8 0 0 0 .355-1.3m-6.484 4.025a128.332 128.332 0 0 0-1.582-5.8l4-4.967a11.247 11.247 0 0 0 2.154 6.923 10.715 10.715 0 0 0-4.572 3.844" data-name="Path 3507"/>
      <path fill="#d8c46f" d="M78.674 111.743a10.715 10.715 0 0 0-4.572 3.844 128.332 128.332 0 0 0-1.582-5.8l4-4.967a11.247 11.247 0 0 0 2.154 6.923" data-name="Path 3508"/>
      <path fill="#383735" d="M85.724 84.483a.8.8 0 1 0-.21 1.578 5.391 5.391 0 0 1 3.813 3.021 14.975 14.975 0 0 1 1.3 5.335 70.654 70.654 0 0 1 .234 11.569.8.8 0 0 0 .745.844h.05a.8.8 0 0 0 .794-.747 72.243 72.243 0 0 0-.239-11.83 16.334 16.334 0 0 0-1.465-5.9 6.9 6.9 0 0 0-5.022-3.87" data-name="Path 3509"/>
    </g>
  </g>
</svg>
