<svg xmlns="http://www.w3.org/2000/svg" xmlns:xlink="http://www.w3.org/1999/xlink" width="102" height="102" viewBox="0 0 102 102">
  <defs>
    <clipPath id="clip-path">
      <circle id="Ellipse_20" data-name="Ellipse 20" cx="51" cy="51" r="51" fill="none"/>
    </clipPath>
  </defs>
  <g id="Group_119" data-name="Group 119" clip-path="url(#clip-path)">
    <path id="Path_3079" data-name="Path 3079" d="M31.243,15.235A23.782,23.782,0,0,0,23.1,21.569a26.818,26.818,0,0,0-4.969,9.92c-1.081,4.383-.918,8.891-1.783,13.27-.451,2.286-4.972,6.382-6.062,8.467-2.83,5.412-.7,7.725,2.24,11.843,1.414,1.979,2.951,4.216,2.869,6.763-.112,3.424-3.634,5.348-4.239,8.615a9.3,9.3,0,0,0,1.947,7.175c4.617,6.377,12.726,5.264,19.6,4.768a63.669,63.669,0,0,1,16.147.515c4.406.813,9.062,2.692,13.6,1.787,4.074-.812,6.539-4.076,9.665-6.486,4.624-3.562,11.616-2.734,16.205-6.361,7.821-6.183-5.8-13.816-.4-20.289,4.318-5.177,6.841-10.957,1.166-16.1-5.6-5.068-6.713-13.684-10.122-20.032-3.255-6.066-9.325-10.023-15.8-12a44.978,44.978,0,0,0-11.6-1.721C44.784,11.48,37.418,12.234,31.243,15.235Z" transform="translate(0.146 0.19)" fill="#ebb65e"/>
    <path id="Path_3080" data-name="Path 3080" d="M73.318,100.384C72.67,87.017,63.009,76.405,51.18,76.405S29.691,87.017,29.044,100.384Z" transform="translate(0.472 1.243)" fill="#ffbf9e"/>
    <path id="Path_3081" data-name="Path 3081" d="M57.254,77.391A21.5,21.5,0,0,1,65.81,82.82a14.682,14.682,0,0,0,.774,17.548H35.564a14.682,14.682,0,0,0,.774-17.548,21.53,21.53,0,0,1,8.446-5.392l5.45,5.313Z" transform="translate(0.578 1.259)" fill="#8eafe2"/>
    <path id="Path_3082" data-name="Path 3082" d="M50.117,82.739l-5.449-5.313s-4.239,2.166,0,6.129C44.667,83.555,47.948,87.751,50.117,82.739Z" transform="translate(0.696 1.259)" fill="#f39e9c"/>
    <path id="Path_3083" data-name="Path 3083" d="M50,82.74l7.019-5.349s3.936,1.852-.129,5.523c0,0-3.322,4.371-6.89-.175" transform="translate(0.813 1.259)" fill="#f39e9c"/>
    <path id="Path_3084" data-name="Path 3084" d="M82.423,43.315a31.1,31.1,0,1,1-31.1-31.1,31.1,31.1,0,0,1,31.1,31.1" transform="translate(0.329 0.199)" fill="#ebb65e"/>
    <path id="Path_3085" data-name="Path 3085" d="M29.376,54.117A5.675,5.675,0,1,1,23.7,48.443a5.675,5.675,0,0,1,5.675,5.674" transform="translate(0.293 0.788)" fill="#ffbf9e"/>
    <path id="Path_3086" data-name="Path 3086" d="M78.134,48.442a5.674,5.674,0,1,1-5.675,5.675,5.675,5.675,0,0,1,5.675-5.675" transform="translate(1.179 0.788)" fill="#ffbf9e"/>
    <path id="Path_3087" data-name="Path 3087" d="M51.3,20.926A29.371,29.371,0,1,1,21.925,50.3,29.371,29.371,0,0,1,51.3,20.926" transform="translate(0.357 0.34)" fill="#ffd4be"/>
    <path id="Path_3088" data-name="Path 3088" d="M42.588,55.4c0,2.2-2.39,3.983-5.339,3.983s-5.34-1.784-5.34-3.983,2.39-3.983,5.34-3.983S42.588,53.2,42.588,55.4Z" transform="translate(0.519 0.836)" fill="#f39e9c"/>
    <path id="Path_3089" data-name="Path 3089" d="M69.916,55.4c0,2.2-2.39,3.983-5.339,3.983s-5.34-1.784-5.34-3.983,2.39-3.983,5.34-3.983S69.916,53.2,69.916,55.4Z" transform="translate(0.963 0.836)" fill="#f39e9c"/>
    <path id="Path_3090" data-name="Path 3090" d="M39.412,46.974A2.031,2.031,0,1,1,37.382,49a2.03,2.03,0,0,1,2.03-2.03" transform="translate(0.608 0.764)" fill="#2f271e"/>
    <path id="Path_3091" data-name="Path 3091" d="M62.306,46.974A2.031,2.031,0,1,1,60.276,49a2.03,2.03,0,0,1,2.03-2.03" transform="translate(0.98 0.764)" fill="#2f271e"/>
    <path id="Path_3092" data-name="Path 3092" d="M50.9,56.083a5.151,5.151,0,0,1-4.446-2.518.7.7,0,0,1,1.207-.706,3.785,3.785,0,0,0,6.478,0,.7.7,0,0,1,1.208.706A5.154,5.154,0,0,1,50.9,56.083Z" transform="translate(0.754 0.854)" fill="#2f271e"/>
    <path id="Path_3093" data-name="Path 3093" d="M60.917,16.075C39.681,8.253,27.5,24.5,27.5,24.5c-6.4,10.646-5.554,24.77-5.554,24.77l5.564-13.739s42.7,1.616,33.41-19.453" transform="translate(0.356 0.227)" fill="#ebb65e"/>
    <path id="Path_3094" data-name="Path 3094" d="M56.176,14.8c10.092-.1,18.362,9.688,18.362,9.688,6.4,10.646,5.554,24.77,5.554,24.77l-3.13-8.163s-20.79-9.5-20.786-26.3" transform="translate(0.914 0.241)" fill="#ebb65e"/>
  </g>
</svg>
