<svg xmlns="http://www.w3.org/2000/svg" xmlns:xlink="http://www.w3.org/1999/xlink" width="100" height="100" viewBox="0 0 100 100">
  <defs>
    <clipPath id="clip-path">
      <path id="Path_3077" data-name="Path 3077" d="M50,0a50,50,0,1,0,50,50A50,50,0,0,0,50,0Z" fill="none"/>
    </clipPath>
  </defs>
  <g id="Group_114" data-name="Group 114" clip-path="url(#clip-path)">
    <path id="Path_3063" data-name="Path 3063" d="M50.015,8.621A31.859,31.859,0,1,1,18.156,40.48,31.859,31.859,0,0,1,50.015,8.621" transform="translate(0 0)" fill="#483e38"/>
    <path id="Path_3064" data-name="Path 3064" d="M72.693,100.015c-.662-13.694-10.561-24.566-22.678-24.566S28,86.321,27.337,100.015Z" transform="translate(0 0)" fill="#d8b25a"/>
    <path id="Path_3065" data-name="Path 3065" d="M21.68,46.337a5.813,5.813,0,1,1-5.813,5.813,5.813,5.813,0,0,1,5.813-5.813" transform="translate(0 0)" fill="#d8b25a"/>
    <path id="Path_3066" data-name="Path 3066" d="M78.351,46.337a5.813,5.813,0,1,1-5.813,5.813,5.813,5.813,0,0,1,5.813-5.813" transform="translate(0 0)" fill="#d8b25a"/>
    <path id="Path_3067" data-name="Path 3067" d="M56.346,76.476a6.471,6.471,0,0,1-12.774.037c-9.015,3.051-15.694,12.338-16.234,23.5H72.693C72.151,88.8,65.418,79.487,56.346,76.476Z" transform="translate(0 0)" fill="#6a96d7"/>
    <path id="Path_3068" data-name="Path 3068" d="M50.015,17.69A30.089,30.089,0,1,1,19.926,47.779,30.089,30.089,0,0,1,50.015,17.69" transform="translate(0 0)" fill="#ebc15e"/>
    <path id="Path_3069" data-name="Path 3069" d="M41.26,53.517c0,2.253-2.449,4.08-5.47,4.08s-5.471-1.827-5.471-4.08,2.449-4.08,5.471-4.08,5.47,1.827,5.47,4.08" transform="translate(0 0)" fill="#f39e9c"/>
    <path id="Path_3070" data-name="Path 3070" d="M64.241,49.437c3.021,0,5.47,1.827,5.47,4.08s-2.449,4.08-5.47,4.08-5.47-1.827-5.47-4.08,2.449-4.08,5.47-4.08" transform="translate(0 0)" fill="#f39e9c"/>
    <path id="Path_3071" data-name="Path 3071" d="M38.1,44.809a2.081,2.081,0,1,1-2.081,2.081A2.081,2.081,0,0,1,38.1,44.809" transform="translate(0 0)" fill="#2f271e"/>
    <path id="Path_3072" data-name="Path 3072" d="M61.933,44.809a2.081,2.081,0,1,1-2.081,2.081,2.081,2.081,0,0,1,2.081-2.081" transform="translate(0 0)" fill="#2f271e"/>
    <path id="Path_3073" data-name="Path 3073" d="M50.015,54.233a5.281,5.281,0,0,1-4.556-2.58A.717.717,0,0,1,46.7,50.93a3.879,3.879,0,0,0,6.636,0,.717.717,0,0,1,1.238.723,5.281,5.281,0,0,1-4.556,2.58" transform="translate(0 0)" fill="#2f271e"/>
    <path id="Path_3074" data-name="Path 3074" d="M80.1,46.889S81.3,31.84,72.693,20.714c0,0-14.728-17.781-40.1-5.32a9.286,9.286,0,0,0,.3,9.213s8.435,9.215,34.854,4.319A40.425,40.425,0,0,0,80.1,46.889" transform="translate(0 0)" fill="#483e38"/>
    <path id="Path_3075" data-name="Path 3075" d="M33.524,15.076S15.867,19.676,19.952,46.6c0,0,7.071-5.991,12.115-19.639C32.067,26.959,36.017,16.945,33.524,15.076Z" transform="translate(0 0)" fill="#483e38"/>
    <rect id="Rectangle_150" data-name="Rectangle 150" width="11.229" height="8.633" transform="translate(51.262 91.382)" fill="#8eafe2"/>
    <path id="Path_3076" data-name="Path 3076" d="M62.517,30.063c.229-.025,14.449-1.075,18.509-13.852,0,0-5.8-.6-8.333-1.791,0,0,4.154-1.925,5.109-5.8,0,0-47.1-7.217-46.274,6.455,0,0-2.577,4.2,1.369,9.531,0,0,5.522,7.486,29.62,5.456" transform="translate(0 0)" fill="#483e38"/>
  </g>
</svg>
