<svg xmlns="http://www.w3.org/2000/svg" xmlns:xlink="http://www.w3.org/1999/xlink" width="100" height="100" viewBox="0 0 100 100">
  <defs>
    <clipPath id="clip-path">
      <circle id="Ellipse_20" data-name="Ellipse 20" cx="50" cy="50" r="50" fill="none"/>
    </clipPath>
  </defs>
  <g id="Group_119" data-name="Group 119" clip-path="url(#clip-path)">
    <path id="Path_3079" data-name="Path 3079" d="M30.806,15.165a23.316,23.316,0,0,0-7.98,6.21A26.292,26.292,0,0,0,17.955,31.1c-1.06,4.3-.9,8.717-1.748,13.01-.442,2.241-4.874,6.257-5.943,8.3-2.775,5.306-.688,7.573,2.2,11.61,1.386,1.94,2.893,4.134,2.813,6.631-.11,3.357-3.563,5.243-4.156,8.446a9.113,9.113,0,0,0,1.909,7.034c4.526,6.252,12.476,5.161,19.214,4.675a62.421,62.421,0,0,1,15.831.505c4.319.8,8.884,2.639,13.336,1.752,3.994-.8,6.41-4,9.475-6.359,4.533-3.492,11.388-2.68,15.888-6.236,7.668-6.062-5.689-13.545-.4-19.891C90.607,55.5,93.081,49.836,87.516,44.8c-5.487-4.969-6.582-13.416-9.924-19.639C74.4,19.209,68.45,15.33,62.1,13.389A44.1,44.1,0,0,0,50.731,11.7C44.082,11.484,36.86,12.223,30.806,15.165Z" transform="translate(-0.033 -0.043)" fill="#ebb65e"/>
    <path id="Path_3080" data-name="Path 3080" d="M72.449,99.914c-.635-13.1-10.107-23.509-21.7-23.509s-21.068,10.4-21.7,23.509Z" transform="translate(-0.106 -0.28)" fill="#ffbf9e"/>
    <path id="Path_3081" data-name="Path 3081" d="M56.829,77.391a21.074,21.074,0,0,1,8.388,5.322,14.394,14.394,0,0,0,.759,17.2H35.564a14.394,14.394,0,0,0,.759-17.2A21.108,21.108,0,0,1,44.6,77.427l5.343,5.209Z" transform="translate(-0.13 -0.283)" fill="#8eafe2"/>
    <path id="Path_3082" data-name="Path 3082" d="M49.974,82.635l-5.342-5.209s-4.156,2.123,0,6.009C44.63,83.435,47.846,87.549,49.974,82.635Z" transform="translate(-0.157 -0.284)" fill="#f39e9c"/>
    <path id="Path_3083" data-name="Path 3083" d="M50,82.635l6.882-5.244s3.859,1.815-.127,5.415c0,0-3.257,4.285-6.755-.171" transform="translate(-0.183 -0.283)" fill="#f39e9c"/>
    <path id="Path_3084" data-name="Path 3084" d="M81.2,42.7a30.489,30.489,0,1,1-30.49-30.489A30.489,30.489,0,0,1,81.2,42.7" transform="translate(-0.074 -0.045)" fill="#ebb65e"/>
    <path id="Path_3085" data-name="Path 3085" d="M29.153,54.006a5.564,5.564,0,1,1-5.564-5.563,5.564,5.564,0,0,1,5.564,5.563" transform="translate(-0.066 -0.177)" fill="#ffbf9e"/>
    <path id="Path_3086" data-name="Path 3086" d="M78.023,48.442a5.563,5.563,0,1,1-5.564,5.564,5.564,5.564,0,0,1,5.564-5.564" transform="translate(-0.265 -0.177)" fill="#ffbf9e"/>
    <path id="Path_3087" data-name="Path 3087" d="M50.72,20.926a28.8,28.8,0,1,1-28.8,28.8,28.8,28.8,0,0,1,28.8-28.8" transform="translate(-0.08 -0.077)" fill="#ffd4be"/>
    <path id="Path_3088" data-name="Path 3088" d="M42.379,55.324c0,2.156-2.343,3.9-5.235,3.9s-5.236-1.749-5.236-3.9,2.343-3.9,5.236-3.9S42.379,53.168,42.379,55.324Z" transform="translate(-0.117 -0.188)" fill="#f39e9c"/>
    <path id="Path_3089" data-name="Path 3089" d="M69.707,55.324c0,2.156-2.343,3.9-5.235,3.9s-5.236-1.749-5.236-3.9,2.343-3.9,5.236-3.9S69.707,53.168,69.707,55.324Z" transform="translate(-0.217 -0.188)" fill="#f39e9c"/>
    <path id="Path_3090" data-name="Path 3090" d="M39.373,46.974a1.991,1.991,0,1,1-1.991,1.991,1.99,1.99,0,0,1,1.991-1.991" transform="translate(-0.137 -0.172)" fill="#2f271e"/>
    <path id="Path_3091" data-name="Path 3091" d="M62.267,46.974a1.991,1.991,0,1,1-1.991,1.991,1.991,1.991,0,0,1,1.991-1.991" transform="translate(-0.221 -0.172)" fill="#2f271e"/>
    <path id="Path_3092" data-name="Path 3092" d="M50.81,56.013a5.05,5.05,0,0,1-4.359-2.469.686.686,0,0,1,1.184-.692,3.711,3.711,0,0,0,6.351,0,.686.686,0,0,1,1.185.692A5.052,5.052,0,0,1,50.81,56.013Z" transform="translate(-0.17 -0.192)" fill="#2f271e"/>
    <path id="Path_3093" data-name="Path 3093" d="M60.152,16.033C39.333,8.365,27.388,24.29,27.388,24.29c-6.274,10.438-5.445,24.285-5.445,24.285L27.4,35.105s41.864,1.584,32.755-19.072" transform="translate(-0.08 -0.051)" fill="#ebb65e"/>
    <path id="Path_3094" data-name="Path 3094" d="M56.176,14.795c9.894-.1,18,9.5,18,9.5,6.274,10.438,5.445,24.285,5.445,24.285l-3.069-8s-20.382-9.312-20.378-25.78" transform="translate(-0.206 -0.054)" fill="#ebb65e"/>
  </g>
</svg>
