<svg xmlns="http://www.w3.org/2000/svg" xmlns:xlink="http://www.w3.org/1999/xlink" width="100.004" height="100" viewBox="0 0 100.004 100">
  <defs>
    <clipPath id="clip-path">
      <path id="Path_684" data-name="Path 684" d="M100,50A50,50,0,1,1,50,0a50,50,0,0,1,50,50" transform="translate(-22493 -13062)" fill="#faf9f8"/>
    </clipPath>
  </defs>
  <g id="Mask_Group_4" data-name="Mask Group 4" transform="translate(22493 13062)" clip-path="url(#clip-path)">
    <g id="Group_249" data-name="Group 249" transform="translate(28.004 13.332)">
      <path id="Path_685" data-name="Path 685" d="M39.067,9.192c-18.037,3.918-31.6,20.77-31.6,40.959A49.893,49.893,0,0,0,19.04,82.677a6.326,6.326,0,0,0,4.8,2.163H47.1V11.474a8.845,8.845,0,0,0-8.031-2.282" transform="translate(-22518.1 -13069.836)" fill="#232121"/>
      <path id="Path_686" data-name="Path 686" d="M44.032,9.192A8.86,8.86,0,0,0,36,11.474V84.84H59.274a6.326,6.326,0,0,0,4.8-2.163A49.99,49.99,0,0,0,75.653,50.151C75.633,29.962,62.069,13.11,44.032,9.192" transform="translate(-22507.002 -13069.836)" fill="#483e38"/>
      <path id="Path_687" data-name="Path 687" d="M58.678,72.382a18.354,18.354,0,0,0-3.526-7.3A18.135,18.135,0,0,0,44.64,58.607a17.288,17.288,0,0,0-3.579-.367,18,18,0,0,0-14.089,6.827,18.3,18.3,0,0,0-3.982,11.4v2.758H59.132V76.468a18.524,18.524,0,0,0-.454-4.086" transform="translate(-22512.063 -13052.56)" fill="#d4d4d5"/>
      <path id="Path_688" data-name="Path 688" d="M39.581,77.6a49.094,49.094,0,0,1-2.113-14.23V58.5a18.021,18.021,0,0,0-10.511,6.46,18.237,18.237,0,0,0-3.981,11.4v2.76H40.017Z" transform="translate(-22512.068 -13052.457)" fill="#b9bbbc"/>
      <path id="Path_689" data-name="Path 689" d="M26.97,64.412a18.3,18.3,0,0,0-3.981,11.4v2.758H34.564a54.006,54.006,0,0,1-2.339-15.749v-2.9a18.018,18.018,0,0,0-5.256,4.488" transform="translate(-22512.063 -13051.904)" fill="#ce8f88"/>
      <path id="Path_690" data-name="Path 690" d="M31.417,62.823v-2.9a18.353,18.353,0,0,0-5.256,4.506q-.34.419-.628.838a2.6,2.6,0,0,0,.174,3.195l2.742,3.213L27.7,73.63a2.624,2.624,0,0,0,1.625,3.44l4.452,1.5a53.47,53.47,0,0,1-2.357-15.749" transform="translate(-22511.254 -13051.904)" fill="#e8b5b1"/>
      <path id="Path_691" data-name="Path 691" d="M48.272,64.412a18.3,18.3,0,0,1,3.981,11.4v2.758H40.677a54.006,54.006,0,0,0,2.339-15.749v-2.9a18.018,18.018,0,0,1,5.256,4.488" transform="translate(-22505.184 -13051.904)" fill="#ce8f88"/>
      <path id="Path_692" data-name="Path 692" d="M43.021,62.823v-2.9a18.353,18.353,0,0,1,5.256,4.506q.34.419.628.838a2.6,2.6,0,0,1-.174,3.195l-2.742,3.213.751,1.956a2.624,2.624,0,0,1-1.625,3.44l-4.452,1.5a53.47,53.47,0,0,0,2.357-15.749" transform="translate(-22505.188 -13051.904)" fill="#e8b5b1"/>
      <path id="Path_693" data-name="Path 693" d="M47.309,61.431l-8.835-5.378-8.835,5.36v2.829a1.668,1.668,0,0,0,.088.576A5.032,5.032,0,0,0,38.474,66.5a5.032,5.032,0,0,0,8.747-1.676,2.189,2.189,0,0,0,.088-.576Z" transform="translate(-22509.477 -13053.41)" fill="#efedee"/>
      <path id="Path_694" data-name="Path 694" d="M81.551,30.547h-67.6a8.163,8.163,0,0,0,0,16.326h67.6a8.163,8.163,0,0,0,0-16.326" transform="translate(-22518.75 -13062.383)" fill="#7b685b"/>
      <path id="Path_695" data-name="Path 695" d="M51.088,12.539a34.757,34.757,0,0,0-11.245,0c-15.992,2.614-28.18,16.126-28.18,32.4s12.188,29.809,28.18,32.405a34.757,34.757,0,0,0,11.245,0c15.994-2.614,28.18-16.126,28.18-32.405s-12.187-29.807-28.18-32.4" transform="translate(-22516.469 -13068.633)" fill="#7b685b"/>
      <path id="Path_696" data-name="Path 696" d="M22.872,44.994c0-16.312,12.2-29.859,28.215-32.455a34.648,34.648,0,0,0-11.243,0c-15.994,2.614-28.18,16.126-28.18,32.4S23.849,74.75,39.843,77.348a34.748,34.748,0,0,0,11.243,0c-16.01-2.58-28.215-16.042-28.215-32.354" transform="translate(-22516.469 -13068.634)" fill="#574e48"/>
      <path id="Path_697" data-name="Path 697" d="M24.63,40.553c-3.736,0-6.757,2.41-6.757,5.36,0,2.968,3.021,5.36,6.757,5.36s6.757-2.408,6.757-5.36-3.021-5.36-6.757-5.36" transform="translate(-22514.053 -13058.721)" fill="#ce8f88"/>
      <path id="Path_698" data-name="Path 698" d="M51.154,40.553c-3.736,0-6.757,2.41-6.757,5.36,0,2.968,3.021,5.36,6.757,5.36s6.757-2.408,6.757-5.36-3.021-5.36-6.757-5.36" transform="translate(-22503.736 -13058.721)" fill="#ce8f88"/>
      <path id="Path_699" data-name="Path 699" d="M25.892,37.712a1.345,1.345,0,0,0-1.344,1.344V41.85a1.344,1.344,0,1,0,2.689,0V39.056a1.345,1.345,0,0,0-1.344-1.344" transform="translate(-22511.457 -13059.685)" fill="#232121"/>
      <path id="Path_700" data-name="Path 700" d="M46.86,37.712a1.345,1.345,0,0,0-1.344,1.344V41.85a1.344,1.344,0,1,0,2.689,0V39.056a1.345,1.345,0,0,0-1.344-1.344" transform="translate(-22503.301 -13059.685)" fill="#232121"/>
      <path id="Path_701" data-name="Path 701" d="M42.187,40.008a1.351,1.351,0,0,0-1.9.122,3.743,3.743,0,0,1-5.657,0A1.348,1.348,0,1,0,32.6,41.911a6.483,6.483,0,0,0,4.853,2.218,6.4,6.4,0,0,0,4.854-2.218,1.351,1.351,0,0,0-.122-1.9" transform="translate(-22508.457 -13058.967)" fill="#232121"/>
      <path id="Path_702" data-name="Path 702" d="M80.184,37.8a35.571,35.571,0,0,0-69.037,0l1.694.419a33.963,33.963,0,0,0-1,8.153A40.187,40.187,0,0,0,28,43a39.6,39.6,0,0,0,6.2-3.388A39.939,39.939,0,0,0,45.648,28.108,39.942,39.942,0,0,0,57.1,39.614a40.427,40.427,0,0,0,22.348,6.757,33.86,33.86,0,0,0-.994-8.153Z" transform="translate(-22516.668 -13069.123)" fill="#483e38"/>
      <path id="Path_703" data-name="Path 703" d="M39.748,11.312A35.495,35.495,0,0,0,11.148,37.8l1.694.418a33.914,33.914,0,0,0-1,8.154A40.208,40.208,0,0,0,28,43a65.477,65.477,0,0,1,17.67-32.179,35.265,35.265,0,0,0-5.918.489" transform="translate(-22516.668 -13069.123)" fill="#232121"/>
      <ellipse id="Ellipse_18" data-name="Ellipse 18" cx="50.002" cy="49.062" rx="50.002" ry="49.062" transform="translate(-22521.004 -13073.332)" fill="none"/>
    </g>
  </g>
</svg>
