<svg xmlns="http://www.w3.org/2000/svg" xmlns:xlink="http://www.w3.org/1999/xlink" width="263.819" height="397.524" viewBox="0 0 263.819 397.524">
  <defs>
    <clipPath id="clip-path">
      <rect id="Rectangle_31" data-name="Rectangle 31" width="263.819" height="397.525" fill="#f8e2ce"/>
    </clipPath>
  </defs>
  <g id="background" clip-path="url(#clip-path)">
    <path id="Path_8" data-name="Path 8" d="M.439,13.547C.492,23.726.429,33.905.429,44.084c0,32.257-.611,64.539-.14,96.792.336,23.067,6.241,45.814,6.055,68.846-.076,9.362-.629,18.875-.219,28.231.4,9.09,2.9,17.958,3.226,27.056.371,10.545-.124,21.155-.152,31.708-.017,6.554-.649,9.689,5.79,14.523,14.669,11.014,34.185,18.438,46.984,30.8C66,345.928,69.2,350.271,72.73,354.384c61.962,23.5,88.321,12.632,144.381,43.141L251.85,358.7c-5.113-38.377,20.3-70.876,9.077-108.464-4.495-15.054-7.077-30.9-9.241-46.229-2.006-14.206-11.932-36.429-16.6-50.265-10.2-30.227-15.549-61.185-23.237-91.75-3.364-13.372-8.516-26.427-11.874-39.8-2.309-9.195-9.145-10.056-24.227-20.4-1.32.022-2.644.038-3.971.038-13.973.006-27.872-.178-41.846.242-21.711.653-43.367,1.552-64.953.66q-10.956-.006-21.907.046C29.319,2.835,14.463-1.764.813.754-.749,4.671.418,9.474.439,13.547" transform="translate(0 0)" fill="#f8e2ce"/>
  </g>
</svg>
