<svg xmlns="http://www.w3.org/2000/svg" xmlns:xlink="http://www.w3.org/1999/xlink" width="263.819" height="397.524" viewBox="0 0 263.819 397.524">
  <defs>
    <clipPath id="clip-path">
      <rect id="Rectangle_303" data-name="Rectangle 303" width="263.819" height="397.525" fill="#f8e2ce"/>
    </clipPath>
    <clipPath id="clip-path-2">
      <rect id="Rectangle_236" data-name="Rectangle 236" width="91.381" height="190.249" transform="translate(0 0)" fill="none"/>
    </clipPath>
    <clipPath id="clip-path-3">
      <rect id="Rectangle_248" data-name="Rectangle 248" width="19.445" height="28.5" fill="none"/>
    </clipPath>
  </defs>
  <g id="Gift_Balloon" data-name="Gift Balloon" transform="translate(-3852.819 13292.196)">
    <g id="background" transform="translate(3852.819 -13292.196)" opacity="0" clip-path="url(#clip-path)">
      <path id="Path_12704" data-name="Path 12704" d="M.439,13.547C.492,23.726.429,33.905.429,44.084c0,32.257-.611,64.539-.14,96.792.336,23.067,6.241,45.814,6.055,68.846-.076,9.362-.629,18.875-.219,28.231.4,9.09,2.9,17.958,3.226,27.056.371,10.545-.124,21.155-.152,31.708-.017,6.554-.649,9.689,5.79,14.523,14.669,11.014,34.185,18.438,46.984,30.8C66,345.928,69.2,350.271,72.73,354.384c61.962,23.5,88.321,12.632,144.381,43.141L251.85,358.7c-5.113-38.377,20.3-70.876,9.077-108.464-4.495-15.054-7.077-30.9-9.241-46.229-2.006-14.206-11.932-36.429-16.6-50.265-10.2-30.227-15.549-61.185-23.237-91.75-3.364-13.372-8.516-26.427-11.874-39.8-2.309-9.195-9.145-10.056-24.227-20.4-1.32.022-2.644.038-3.971.038-13.973.006-27.872-.178-41.846.242-21.711.653-43.367,1.552-64.953.66q-10.956-.006-21.907.046C29.319,2.835,14.463-1.764.813.754-.749,4.671.418,9.474.439,13.547" transform="translate(0 0)" fill="#f8e2ce"/>
    </g>
    <g id="Balloon">
      <g id="gift" transform="translate(3936.752 -13253.28)">
        <g id="Mask_Group_233" data-name="Mask Group 233" transform="translate(0 -0.002)" clip-path="url(#clip-path-2)">
          <path id="Path_3398" data-name="Path 3398" d="M89.589,31.859A45.027,45.027,0,0,0,65.561,3.853,43.163,43.163,0,0,0,47.088,0,42.163,42.163,0,0,0,28.763,4.4C20.951,8.343,13.921,15.072,8.43,23.864a56.755,56.755,0,0,0-7.2,16.887A40.211,40.211,0,0,0,.864,58.856,36.131,36.131,0,0,0,18.251,82.222a36.248,36.248,0,0,0,23.7,3.939,81.229,81.229,0,0,1-4.461,8.665.346.346,0,0,0,.292.524q1.617.031,3.247.032c1.779,0,3.564-.03,5.338-.085-.091,1.826-.338,3.69-.58,5.5a58.415,58.415,0,0,0-.623,6.5,10.427,10.427,0,0,0,1,5.264c.085.155.181.308.282.455a15.635,15.635,0,0,0-.4,4.049l-.049,7.142q-.037,5.32-.073,10.642c-1.273-5.617-2.947-10.9-6.5-15.1a10.48,10.48,0,0,0-5.779-3.841,5.582,5.582,0,0,0-6.176,2.766c-1.487,3.286,1.39,6.747,3.238,8.517a95.078,95.078,0,0,0,13.72,10.423l-30.051,2.063a.351.351,0,0,0-.238.119.346.346,0,0,0-.084.253c1.179,16.3,1.777,32.845,1.777,49.186a.347.347,0,0,0,.343.347l33.781.375h.017l26.049.289h0a.347.347,0,0,0,.346-.372c-1.191-16.492-2.423-33.545-2.823-53.9a.348.348,0,0,0-.113-.249.343.343,0,0,0-.258-.09l-22.4,1.538c.144-.062.289-.122.432-.186a57.74,57.74,0,0,0,14.209-9.159c3.445-2.944,4.889-5.645,4.413-8.254a5.628,5.628,0,0,0-2.479-3.605,7.479,7.479,0,0,0-4.3-1.266c-2.549.067-5.2,1.287-7.866,3.628a26.821,26.821,0,0,0-6.545,8.8,28.02,28.02,0,0,0-2.014,6.066l.063-8.995.049-7.142A17.32,17.32,0,0,1,47,113.693a4.438,4.438,0,0,0,3.793,1.489,3.449,3.449,0,0,0,2.487-1.819,2.753,2.753,0,0,0,.11-2.518,2.7,2.7,0,0,0-2.238-1.466,4.212,4.212,0,0,0-3.627,1.459,5.471,5.471,0,0,0-.782,1.324,9.889,9.889,0,0,1-.879-4.854,58,58,0,0,1,.617-6.422c.246-1.841.5-3.741.588-5.614,3.512-.125,7.059-.361,10.548-.7a.347.347,0,0,0,.278-.5q-.149-.3-.3-.607a23.976,23.976,0,0,0-5.537-8.005,36.246,36.246,0,0,0,16.236-1.833,29.593,29.593,0,0,0,9.544-6.109,39.859,39.859,0,0,0,7.078-8.961,47.625,47.625,0,0,0,6.079-17.883,46.438,46.438,0,0,0-1.405-18.813M48.062,111.273a3.542,3.542,0,0,1,3.01-1.2,2.034,2.034,0,0,1,1.69,1.082,2.067,2.067,0,0,1-.1,1.886,2.781,2.781,0,0,1-1.97,1.456,3.925,3.925,0,0,1-3.48-1.614,5.022,5.022,0,0,1,.851-1.607M31.186,126.69c-1.715-1.643-4.4-4.834-3.085-7.729.929-2.054,3.48-2.754,5.408-2.371a9.813,9.813,0,0,1,5.384,3.609c3.974,4.7,5.55,10.863,6.895,17.321l-.22.015C40.2,134,35.4,130.732,31.186,126.69M14.77,140.347l24.869-1.708.033,14.28-23.336.824-.737.027q-.348-6.73-.829-13.422m.864,14.116.727-.026,23.313-.824.022,9.292c-7.85.29-15.808.44-23.666.443q-.168-4.446-.4-8.885m.89,34.429c0-8.25-.162-16.553-.468-24.849,7.849,0,15.8-.153,23.641-.443l.06,25.55Zm59.127.656-25.31-.281c.674-8.684,1.105-17.5,1.285-26.219,7.364-.408,14.822-.951,22.177-1.613.531,9.846,1.194,19.068,1.848,28.113m-1.885-28.808c-7.338.662-14.778,1.2-22.126,1.612.058-3.028.085-6.107.083-9.164l21.644-.764q.18,4.241.4,8.317m-.907-24.382c.108,5.334.273,10.44.478,15.371l-21.615.763c-.011-4.853-.1-9.782-.266-14.666Zm-17.216-17.5c2.544-2.232,5.043-3.395,7.426-3.457,2.532-.07,5.578,1.559,6.078,4.3.428,2.346-.941,4.833-4.181,7.6a57.088,57.088,0,0,1-14.038,9.051c-.819.359-1.639.689-2.442.979l-1.714.118a26.876,26.876,0,0,1,8.87-18.594m-4.88,19.016c.17,4.988.259,10.026.266,14.978,0,3.289-.026,6.606-.09,9.86-.176,8.825-.611,17.754-1.293,26.546l-9.2-.1-.061-25.927s0,0,0,0h0l-.057-24.635Zm6.206-44.108c.026.053.051.106.076.159-3.419.326-6.89.549-10.324.665-2.767.092-5.566.118-8.33.074a81.919,81.919,0,0,0,4.388-8.66,34.419,34.419,0,0,0,4.4-1.186q1.887.324,3.692.522a22.764,22.764,0,0,1,6.1,8.426M84.316,68.2c-4.16,7.084-9.939,12.331-16.274,14.773-5.644,2.175-12.654,2.56-20.833,1.143a.355.355,0,0,0-.174.014,34.646,34.646,0,0,1-11.316,1.874,35.264,35.264,0,0,1-17.129-4.393A35.422,35.422,0,0,1,1.543,58.7C-.833,48,1.822,35.757,9.019,24.232,14.443,15.547,21.378,8.905,29.076,5.025A41.511,41.511,0,0,1,47.691.721a42.322,42.322,0,0,1,17.58,3.763A44.326,44.326,0,0,1,88.922,32.054,46.771,46.771,0,0,1,84.316,68.2" transform="translate(0 0.002)" fill="#383735"/>
          <path id="Path_3399" data-name="Path 3399" d="M401.854,855.743c-3.419.325-6.89.549-10.324.665-2.767.092-5.566.118-8.33.074a81.9,81.9,0,0,0,4.388-8.66,34.4,34.4,0,0,0,4.4-1.186q1.887.324,3.692.522a22.761,22.761,0,0,1,6.1,8.426c.026.053.052.106.076.159" transform="translate(-344.809 -761.814)" fill="#d8c46f"/>
          <path id="Path_3400" data-name="Path 3400" d="M537.568,1529.738c-7.338.662-14.778,1.2-22.126,1.612.058-3.028.085-6.107.083-9.164l21.644-.764q.18,4.241.4,8.317" transform="translate(-463.802 -1368.995)" fill="#c0ceeb"/>
          <path id="Path_3401" data-name="Path 3401" d="M180.111,1542.59c-7.85.29-15.808.44-23.666.443q-.168-4.447-.395-8.885l.726-.026,23.313-.824Z" transform="translate(-140.416 -1379.682)" fill="#c0ceeb"/>
          <path id="Path_3402" data-name="Path 3402" d="M413.189,1401.044c-.176,8.825-.611,17.754-1.293,26.546l-9.2-.1-.061-25.927v0h0l-.057-24.635,10.43-.717c.17,4.988.259,10.025.266,14.978.005,3.289-.026,6.606-.09,9.86" transform="translate(-362.251 -1238.329)" fill="#c0ceeb"/>
          <path id="Path_3403" data-name="Path 3403" d="M95.162,38.552a44.325,44.325,0,0,0-23.65-27.569A42.321,42.321,0,0,0,53.931,7.22a41.509,41.509,0,0,0-18.615,4.3c-7.7,3.88-14.633,10.522-20.056,19.207C8.062,42.256,5.407,54.5,7.783,65.2A35.422,35.422,0,0,0,24.83,88.114a35.262,35.262,0,0,0,17.129,4.393,34.644,34.644,0,0,0,11.316-1.874.356.356,0,0,1,.174-.014c8.179,1.417,15.189,1.032,20.833-1.143C80.617,87.033,86.4,81.787,90.556,74.7a46.772,46.772,0,0,0,4.605-36.15M22.992,65.424a.35.35,0,0,1-.261.118.318.318,0,0,1-.069-.007A15.382,15.382,0,0,1,15.394,61.9c-1.507-1.353-2.085-2.881-1.547-4.089a2.332,2.332,0,0,1,1.392-1.24,3.434,3.434,0,0,1,2.6.155,5.734,5.734,0,0,1,2.051,1.857,5.394,5.394,0,0,1,1.819-3.9,2.768,2.768,0,0,1,3.36-.477,3.206,3.206,0,0,1,1.034,2.138c.391,2.42.285,5.2-3.116,9.083m28.193-48a.347.347,0,0,1-.215.243A49.34,49.34,0,0,0,20.888,52.374a.348.348,0,0,1-.289.269.429.429,0,0,1-.051,0,.347.347,0,0,1-.3-.177,19.441,19.441,0,0,1-2.12-11.981,27.222,27.222,0,0,1,4.435-11.652,34.443,34.443,0,0,1,8.872-8.92,61.116,61.116,0,0,1,13.02-6.76.356.356,0,0,1,.22-.011,13.825,13.825,0,0,1,6.431,3.96.349.349,0,0,1,.08.316" transform="translate(-6.24 -6.496)" fill="#d8c46f"/>
          <path id="Path_3404" data-name="Path 3404" d="M150.055,70.211a13.825,13.825,0,0,0-6.431-3.96.355.355,0,0,0-.22.011,61.106,61.106,0,0,0-13.02,6.76,34.443,34.443,0,0,0-8.873,8.92,27.222,27.222,0,0,0-4.435,11.652,19.441,19.441,0,0,0,2.12,11.981.347.347,0,0,0,.3.177.429.429,0,0,0,.051,0,.348.348,0,0,0,.289-.269A49.34,49.34,0,0,1,149.92,70.77a.347.347,0,0,0,.135-.559m-20.01,13.724a49.123,49.123,0,0,0-10.674,20.478c-3.121-6.4-2.1-14.956,2.715-22.083,4.4-6.514,11.02-11.26,21.461-15.379a13.141,13.141,0,0,1,5.639,3.355,49.081,49.081,0,0,0-19.142,13.629" transform="translate(-105.191 -59.602)" fill="#383735"/>
          <path id="Path_3405" data-name="Path 3405" d="M155.361,76.71a49.858,49.858,0,0,0-29.816,34.107c-3.121-6.4-2.1-14.956,2.715-22.083,4.4-6.514,11.02-11.26,21.461-15.379a13.14,13.14,0,0,1,5.639,3.355" transform="translate(-111.364 -66.006)" fill="#faf9f8"/>
          <path id="Path_3406" data-name="Path 3406" d="M86.418,474.778a3.206,3.206,0,0,0-1.034-2.138,2.768,2.768,0,0,0-3.36.477,5.4,5.4,0,0,0-1.819,3.9,5.732,5.732,0,0,0-2.051-1.857,3.434,3.434,0,0,0-2.6-.155,2.333,2.333,0,0,0-1.392,1.24c-.538,1.208.04,2.736,1.547,4.088a15.383,15.383,0,0,0,7.268,3.636.326.326,0,0,0,.069.007.35.35,0,0,0,.261-.118c3.4-3.887,3.507-6.663,3.116-9.083m-3.506,8.473a14.693,14.693,0,0,1-6.744-3.431c-.476-.428-1.983-1.928-1.375-3.29a1.675,1.675,0,0,1,.992-.869,2.575,2.575,0,0,1,.87-.146,2.711,2.711,0,0,1,1.19.27,7.041,7.041,0,0,1,2.579,2.825.347.347,0,0,0,.63-.275,4.735,4.735,0,0,1,1.424-4.692,2.119,2.119,0,0,1,2.49-.448,2.572,2.572,0,0,1,.764,1.694c.415,2.565.089,4.976-2.82,8.361" transform="translate(-66.55 -424.934)" fill="#383735"/>
          <path id="Path_3407" data-name="Path 3407" d="M89.111,489.515a14.694,14.694,0,0,1-6.744-3.431c-.476-.428-1.983-1.928-1.375-3.29a1.675,1.675,0,0,1,.992-.869,2.575,2.575,0,0,1,.87-.146,2.711,2.711,0,0,1,1.19.27,7.042,7.042,0,0,1,2.579,2.825.347.347,0,0,0,.63-.275,4.735,4.735,0,0,1,1.424-4.692,2.119,2.119,0,0,1,2.49-.447,2.572,2.572,0,0,1,.764,1.694c.415,2.565.089,4.975-2.82,8.361" transform="translate(-72.749 -431.197)" fill="#faf9f8"/>
        </g>
      </g>
      <g id="stars_2" data-name="stars 2" transform="translate(3913.526 -13229.281)">
        <g id="Group_266" data-name="Group 266" clip-path="url(#clip-path-3)">
          <path id="Path_3510" data-name="Path 3510" d="M24.457,15.223c-.825,0-1.652-.037-2.47-.112a.569.569,0,1,1,.1-1.133,26.161,26.161,0,0,0,3.575.079.569.569,0,0,1,.053,1.136q-.629.029-1.262.029" transform="translate(-18.231 -11.866)" fill="#383735"/>
          <path id="Path_3511" data-name="Path 3511" d="M56.71,24.246a.568.568,0,0,0-.468-.456A2.974,2.974,0,0,1,54.4,22.549a7.6,7.6,0,0,1-1.032-2.294,22.872,22.872,0,0,1-.967-7.543.568.568,0,0,0-1.129-.116,27.858,27.858,0,0,1-1.664,6.411,10.6,10.6,0,0,1-3.988,4.909.569.569,0,0,0-.092.9c2.447,2.274,3.4,5.25,4.308,8.62a.566.566,0,0,0,.548.421l.044,0a.568.568,0,0,0,.522-.5,11.573,11.573,0,0,1,5.488-8.513.566.566,0,0,0,.269-.595m-6.4,6.7a15.639,15.639,0,0,0-3.492-6.457,11.93,11.93,0,0,0,3.84-5.031,19.137,19.137,0,0,0,.84-2.4,24.223,24.223,0,0,0,.788,3.531,8.64,8.64,0,0,0,1.2,2.635A4.523,4.523,0,0,0,54.9,24.5a12.854,12.854,0,0,0-4.59,6.443" transform="translate(-38.507 -10.292)" fill="#383735"/>
          <path id="Path_3512" data-name="Path 3512" d="M63.142,52.267a12.854,12.854,0,0,0-4.59,6.443,15.639,15.639,0,0,0-3.492-6.457,11.93,11.93,0,0,0,3.84-5.031,19.137,19.137,0,0,0,.84-2.4,24.223,24.223,0,0,0,.788,3.531,8.641,8.641,0,0,0,1.2,2.635,4.523,4.523,0,0,0,1.412,1.281" transform="translate(-46.752 -38.057)" fill="#c0ceeb"/>
          <path id="Path_3513" data-name="Path 3513" d="M98.035,163.868l-.045,0a36.153,36.153,0,0,0-4.174-.084.569.569,0,1,1-.043-1.137,37.378,37.378,0,0,1,4.306.086.569.569,0,0,1-.044,1.136" transform="translate(-79.158 -138.082)" fill="#383735"/>
          <path id="Path_3514" data-name="Path 3514" d="M107.357,154.027a.575.575,0,0,1-.075,0,.569.569,0,0,1-.489-.638,21.5,21.5,0,0,0,.081-4.925.569.569,0,1,1,1.132-.112,22.631,22.631,0,0,1-.085,5.186.569.569,0,0,1-.563.494" transform="translate(-90.674 -125.527)" fill="#383735"/>
          <path id="Path_3515" data-name="Path 3515" d="M1.978,86.427A2.044,2.044,0,0,1,.856,86.1a1.863,1.863,0,0,1-.843-1.74,2.611,2.611,0,0,1,1.331-1.731,1.5,1.5,0,0,1,1.278-.2A2.072,2.072,0,0,1,3.872,83.57,2.1,2.1,0,0,1,3.3,85.956a2.069,2.069,0,0,1-1.326.47M2.189,83.5a.367.367,0,0,0-.21.071h0c-.389.262-.793.578-.839.933a.727.727,0,0,0,.34.646.961.961,0,0,0,1.093-.064.961.961,0,0,0,.253-1.065.933.933,0,0,0-.527-.5.388.388,0,0,0-.111-.017m-.528-.4h0Z" transform="translate(0 -69.935)" fill="#383735"/>
          <path id="Path_3516" data-name="Path 3516" d="M34.416,5.508h-.009a.569.569,0,0,1-.56-.577L33.914.56A.569.569,0,0,1,34.483,0h.009a.569.569,0,0,1,.56.577l-.067,4.37a.569.569,0,0,1-.568.56" transform="translate(-28.74)" fill="#383735"/>
        </g>
      </g>
      <g id="stars_1" data-name="stars 1" transform="translate(4028.133 -13172.408)">
        <g id="Group_266-2" data-name="Group 266" transform="translate(0 0)" clip-path="url(#clip-path-3)">
          <path id="Path_3510-2" data-name="Path 3510" d="M23.274,15.223c.825,0,1.652-.037,2.47-.112a.569.569,0,1,0-.1-1.133,26.162,26.162,0,0,1-3.575.079.569.569,0,1,0-.053,1.136q.629.029,1.262.029" transform="translate(-10.056 -11.866)" fill="#383735"/>
          <path id="Path_3511-2" data-name="Path 3511" d="M45.361,24.246a.568.568,0,0,1,.468-.456,2.974,2.974,0,0,0,1.838-1.242A7.6,7.6,0,0,0,48.7,20.255a22.871,22.871,0,0,0,.967-7.543.568.568,0,0,1,1.129-.116,27.857,27.857,0,0,0,1.664,6.411,10.6,10.6,0,0,0,3.988,4.909.569.569,0,0,1,.092.9c-2.448,2.274-3.4,5.25-4.308,8.62a.566.566,0,0,1-.548.421l-.044,0a.568.568,0,0,1-.522-.5,11.573,11.573,0,0,0-5.488-8.513.566.566,0,0,1-.269-.595m6.4,6.7a15.639,15.639,0,0,1,3.492-6.457,11.93,11.93,0,0,1-3.84-5.031,19.137,19.137,0,0,1-.84-2.4,24.222,24.222,0,0,1-.788,3.531,8.64,8.64,0,0,1-1.2,2.635A4.523,4.523,0,0,1,47.173,24.5a12.854,12.854,0,0,1,4.59,6.443" transform="translate(-44.118 -10.292)" fill="#383735"/>
          <path id="Path_3512-2" data-name="Path 3512" d="M55.06,52.267a12.854,12.854,0,0,1,4.59,6.443,15.639,15.639,0,0,1,3.492-6.457,11.93,11.93,0,0,1-3.84-5.031,19.136,19.136,0,0,1-.84-2.4,24.223,24.223,0,0,1-.788,3.531,8.64,8.64,0,0,1-1.2,2.635,4.523,4.523,0,0,1-1.412,1.281" transform="translate(-52.005 -38.057)" fill="#c0ceeb"/>
          <path id="Path_3513-2" data-name="Path 3513" d="M93.793,163.868l.045,0a36.155,36.155,0,0,1,4.175-.084.569.569,0,1,0,.043-1.137,37.38,37.38,0,0,0-4.306.086.569.569,0,0,0,.044,1.136" transform="translate(-93.225 -138.082)" fill="#383735"/>
          <path id="Path_3514-2" data-name="Path 3514" d="M107.546,154.027a.575.575,0,0,0,.075,0,.569.569,0,0,0,.489-.638,21.5,21.5,0,0,1-.081-4.925.569.569,0,1,0-1.132-.112,22.63,22.63,0,0,0,.085,5.186.569.569,0,0,0,.563.494" transform="translate(-104.784 -125.527)" fill="#383735"/>
          <path id="Path_3515-2" data-name="Path 3515" d="M2.053,86.427A2.044,2.044,0,0,0,3.176,86.1a1.863,1.863,0,0,0,.843-1.74,2.611,2.611,0,0,0-1.331-1.731,1.5,1.5,0,0,0-1.278-.2A2.072,2.072,0,0,0,.16,83.57a2.1,2.1,0,0,0,.568,2.386,2.069,2.069,0,0,0,1.326.47M1.842,83.5a.367.367,0,0,1,.21.071h0c.389.262.793.578.839.933a.727.727,0,0,1-.34.646.961.961,0,0,1-1.093-.064A.961.961,0,0,1,1.2,84.02a.933.933,0,0,1,.527-.5.388.388,0,0,1,.111-.017m.528-.4h0Z" transform="translate(15.414 -69.935)" fill="#383735"/>
          <path id="Path_3516-2" data-name="Path 3516" d="M34.483,5.508h.009a.569.569,0,0,0,.56-.577L34.985.56A.569.569,0,0,0,34.416,0h-.009a.569.569,0,0,0-.56.577l.067,4.37a.569.569,0,0,0,.568.56" transform="translate(-20.714)" fill="#383735"/>
        </g>
      </g>
    </g>
  </g>
</svg>
