<svg xmlns="http://www.w3.org/2000/svg" xmlns:xlink="http://www.w3.org/1999/xlink" width="101" height="101" viewBox="0 0 101 101">
  <defs>
    <clipPath id="clip-path">
      <circle id="Ellipse_23" data-name="Ellipse 23" cx="50.5" cy="50.5" r="50.5" transform="translate(-0.465 0)" fill="none"/>
    </clipPath>
  </defs>
  <g id="Group_134" data-name="Group 134" transform="translate(0.465 0)" clip-path="url(#clip-path)">
    <path id="Path_3140" data-name="Path 3140" d="M81.789,38.973c.256,5.056,6.74,12.908,5.986,22.926-.674,8.962-4.9,19.846-13.545,25.353.034.495.052.954.052,1.37,0,5.454-2.867,8.654-8.691,10.368,0,0,30.931-6.736,30.939-39.746.008-33.672-15.078-26.915-14.741-20.27" transform="translate(-1.311 -0.842)" fill="#ffddcf"/>
    <path id="Path_3141" data-name="Path 3141" d="M79,84.881a24.431,24.431,0,0,1-4.777,4.009c.035.495.053.954.053,1.37,0,5.454-2.867,8.654-8.691,10.368A43.726,43.726,0,0,0,78.68,94.8a11.006,11.006,0,0,0,.871-4.538A36.419,36.419,0,0,0,79,84.881" transform="translate(-1.311 -2.481)" fill="#d6948c"/>
    <path id="Path_3142" data-name="Path 3142" d="M54.809,16.28S58.9,5.79,62.41,6.516c3.557.736,2.867,12.569,2.867,12.569s7.347,11.276,7.109,17.763-4.407,10.812-8.534,11.6c0,0,9.042,30.018,9.042,39.307S64.58,99.8,47.5,99.8,22.1,97.046,22.1,87.757s9.042-39.307,9.042-39.307c-4.125-.789-8.3-5.115-8.534-11.6s7.11-17.763,7.11-17.763S29.029,7.252,32.586,6.516c3.506-.726,7.6,9.764,7.6,9.764Z" transform="translate(0.078 0.023)" fill="#ffddcf"/>
    <path id="Path_3143" data-name="Path 3143" d="M47.5,97.116c-15.551,0-23.834-2.284-25.194-9.7a26.075,26.075,0,0,0-.2,2.926c0,9.29,8.314,12.043,25.4,12.043s25.4-2.754,25.4-12.043a26.074,26.074,0,0,0-.2-2.926c-1.36,7.417-9.643,9.7-25.194,9.7" transform="translate(0.078 -2.563)" fill="#d6948c"/>
    <path id="Path_3144" data-name="Path 3144" d="M32.6,6.516c-3.557.736-2.867,12.569-2.867,12.569s-7.347,11.276-7.11,17.763a13.3,13.3,0,0,0,3.089,8.274C46.373,40.5,44.554,16.28,44.554,16.28H40.2s-4.1-10.49-7.6-9.764" transform="translate(0.06 0.023)" fill="#d6948c"/>
    <path id="Path_3145" data-name="Path 3145" d="M63.344,6.516c3.556.736,2.867,12.569,2.867,12.569s7.347,11.276,7.11,17.763a13.3,13.3,0,0,1-3.089,8.274C49.574,40.5,51.392,16.28,51.392,16.28h4.351s4.094-10.49,7.6-9.764" transform="translate(-0.856 0.023)" fill="#d6948c"/>
    <path id="Path_3146" data-name="Path 3146" d="M35.552,28.478c-1.666,0-2.971,1.621-2.971,3.689s1.3,3.689,2.971,3.689,2.97-1.621,2.97-3.689-1.3-3.689-2.97-3.689" transform="translate(-0.258 -0.68)" fill="#433f43"/>
    <path id="Path_3147" data-name="Path 3147" d="M60.923,28.478c-1.665,0-2.97,1.621-2.97,3.689s1.3,3.689,2.97,3.689,2.971-1.621,2.971-3.689-1.3-3.689-2.971-3.689" transform="translate(-1.066 -0.68)" fill="#433f43"/>
    <path id="Path_3149" data-name="Path 3149" d="M32.415,67.059s1.427,35.853,6.874,35.853S44.867,70.59,44.867,70.59" transform="translate(-0.252 -1.912)" fill="#ffddcf"/>
    <path id="Path_3150" data-name="Path 3150" d="M63.846,67.059s-1.428,36.474-6.875,36.474-5.578-32.882-5.578-32.882" transform="translate(-0.857 -1.912)" fill="#ffddcf"/>
    <path id="Path_3151" data-name="Path 3151" d="M39.241,103.486c-2.669,0-3.962-3.49-4.791-6.529a88.57,88.57,0,0,1-2.144-12.292c-1.031-8.751-1.4-17.616-1.4-17.7a1.406,1.406,0,0,1,1.408-1.412,1.424,1.424,0,0,1,1.518,1.309c0,.082.343,8.29,1.287,16.648a98.3,98.3,0,0,0,1.917,11.8c1.043,4.261,1.962,5.231,2.227,5.429.4-.274,2.315-2.26,3.421-15.356.637-7.534.674-14.928.674-15a1.415,1.415,0,0,1,1.464-1.355h.006a1.414,1.414,0,0,1,1.458,1.366c0,.08-.041,8.083-.75,15.982a71.671,71.671,0,0,1-1.7,11.121c-.674,2.577-1.882,6-4.592,6" transform="translate(-0.204 -1.864)" fill="#d6948c"/>
    <path id="Path_3152" data-name="Path 3152" d="M56.923,103.486c-2.71,0-3.918-3.424-4.592-6a71.586,71.586,0,0,1-1.7-11.122c-.71-7.9-.75-15.9-.751-15.982a1.414,1.414,0,0,1,1.459-1.366h0a1.415,1.415,0,0,1,1.464,1.356c0,.074.038,7.48.676,15.015,1.107,13.086,3.024,15.07,3.42,15.344.264-.2,1.184-1.169,2.227-5.43a98.267,98.267,0,0,0,1.917-11.8c.944-8.358,1.284-16.566,1.287-16.648a1.428,1.428,0,0,1,1.518-1.309A1.407,1.407,0,0,1,65.26,66.96c0,.089-.371,8.954-1.4,17.706a88.579,88.579,0,0,1-2.144,12.291c-.829,3.039-2.122,6.529-4.791,6.529" transform="translate(-0.81 -1.864)" fill="#d6948c"/>
    <path id="Path_3153" data-name="Path 3153" d="M50.5,77.24V78.6a2.716,2.716,0,0,1-5.432,0V77.24l2.716-1.358Z" transform="translate(-0.206 -32.681)" fill="#ff8087"/>
    <path id="Path_3154" data-name="Path 3154" d="M47.783,75.881l-2.716,1.358V78.6a2.706,2.706,0,0,0,.079.623,6.113,6.113,0,0,0,1.958-.586v.642a.679.679,0,0,0,1.358,0v-.642a6.113,6.113,0,0,0,1.958.586A2.706,2.706,0,0,0,50.5,78.6V77.239Z" transform="translate(-0.206 -32.681)" fill="#e6646e"/>
    <path id="Path_3155" data-name="Path 3155" d="M47.853,77.62a4.724,4.724,0,0,1-2.676-.825,1.3,1.3,0,0,0-1.438,0,4.742,4.742,0,0,1-5.846-.392.679.679,0,1,1,.907-1.011,3.453,3.453,0,0,0,4.172.281,2.651,2.651,0,0,1,2.97,0,3.457,3.457,0,0,0,4.173-.281.679.679,0,0,1,.906,1.011,4.743,4.743,0,0,1-3.169,1.217" transform="translate(3.12 -32.383)" fill="#4b3f4e"/>
    <path id="Path_3156" data-name="Path 3156" d="M49.251,65.651H46.566a.689.689,0,0,0-.536,1.123l1.342,1.661a.69.69,0,0,0,1.073,0l1.342-1.661a.689.689,0,0,0-.536-1.123" transform="translate(-0.331 -27.372)" fill="#5d5360"/>
    <path id="Path_3157" data-name="Path 3157" d="M72.743,75.125a.61.61,0,0,1-.28-.069A43.241,43.241,0,0,0,62.978,72a.608.608,0,1,1,.233-1.193,43.588,43.588,0,0,1,9.813,3.173.608.608,0,0,1-.281,1.147" transform="translate(-8.755 -29.98)" fill="#4b3f4e"/>
    <path id="Path_3158" data-name="Path 3158" d="M75.015,68.9a.6.6,0,0,1-.158-.021c-3.407-.916-9.6-.742-9.663-.739a.608.608,0,0,1-.037-1.215c.261-.008,6.438-.182,10.016.78a.608.608,0,0,1-.158,1.2" transform="translate(-9.811 -28.008)" fill="#4b3f4e"/>
    <path id="Path_3159" data-name="Path 3159" d="M16.078,75.124a.608.608,0,0,1-.281-1.147A43.586,43.586,0,0,1,25.61,70.8.608.608,0,1,1,25.843,72a43.232,43.232,0,0,0-9.485,3.058.6.6,0,0,1-.28.069" transform="translate(15.088 -29.98)" fill="#4b3f4e"/>
    <path id="Path_3160" data-name="Path 3160" d="M13.611,68.9a.608.608,0,0,1-.158-1.2c3.579-.962,9.754-.788,10.016-.78a.608.608,0,1,1-.037,1.215c-.062,0-6.258-.176-9.663.739a.6.6,0,0,1-.158.021" transform="translate(16.338 -28.01)" fill="#4b3f4e"/>
    <path id="Path_3161" data-name="Path 3161" d="M48.379,68.46,47.037,65.8a1.34,1.34,0,0,1-.057-.152h-.414a.689.689,0,0,0-.536,1.123l1.342,1.661a.682.682,0,0,0,1.017.043l-.011-.017" transform="translate(-0.331 -27.372)" fill="#4b3f4e"/>
  </g>
</svg>
